<svg width="1533" height="340" viewBox="0 0 1533 340" fill="none" xmlns="http://www.w3.org/2000/svg">
<path d="M838.98 99.09V112.32C838.98 114.18 839.43 115.56 840.33 116.46C841.25 117.36 842.52 117.81 844.14 117.81C845.74 117.81 846.99 117.36 847.89 116.46C848.81 115.56 849.27 114.18 849.27 112.32V99.09H852V112.29C852 114.03 851.65 115.5 850.95 116.7C850.25 117.88 849.3 118.76 848.1 119.34C846.92 119.92 845.59 120.21 844.11 120.21C842.63 120.21 841.29 119.92 840.09 119.34C838.91 118.76 837.97 117.88 837.27 116.7C836.59 115.5 836.25 114.03 836.25 112.29V99.09H838.98ZM862.374 120.27C861.114 120.27 859.984 120.06 858.984 119.64C857.984 119.2 857.194 118.6 856.614 117.84C856.034 117.06 855.714 116.17 855.654 115.17H858.474C858.554 115.99 858.934 116.66 859.614 117.18C860.314 117.7 861.224 117.96 862.344 117.96C863.384 117.96 864.204 117.73 864.804 117.27C865.404 116.81 865.704 116.23 865.704 115.53C865.704 114.81 865.384 114.28 864.744 113.94C864.104 113.58 863.114 113.23 861.774 112.89C860.554 112.57 859.554 112.25 858.774 111.93C858.014 111.59 857.354 111.1 856.794 110.46C856.254 109.8 855.984 108.94 855.984 107.88C855.984 107.04 856.234 106.27 856.734 105.57C857.234 104.87 857.944 104.32 858.864 103.92C859.784 103.5 860.834 103.29 862.014 103.29C863.834 103.29 865.304 103.75 866.424 104.67C867.544 105.59 868.144 106.85 868.224 108.45H865.494C865.434 107.59 865.084 106.9 864.444 106.38C863.824 105.86 862.984 105.6 861.924 105.6C860.944 105.6 860.164 105.81 859.584 106.23C859.004 106.65 858.714 107.2 858.714 107.88C858.714 108.42 858.884 108.87 859.224 109.23C859.584 109.57 860.024 109.85 860.544 110.07C861.084 110.27 861.824 110.5 862.764 110.76C863.944 111.08 864.904 111.4 865.644 111.72C866.384 112.02 867.014 112.48 867.534 113.1C868.074 113.72 868.354 114.53 868.374 115.53C868.374 116.43 868.124 117.24 867.624 117.96C867.124 118.68 866.414 119.25 865.494 119.67C864.594 120.07 863.554 120.27 862.374 120.27ZM887.228 111.15C887.228 111.67 887.198 112.22 887.138 112.8H873.998C874.098 114.42 874.648 115.69 875.648 116.61C876.668 117.51 877.898 117.96 879.338 117.96C880.518 117.96 881.498 117.69 882.278 117.15C883.078 116.59 883.638 115.85 883.958 114.93H886.898C886.458 116.51 885.578 117.8 884.258 118.8C882.938 119.78 881.298 120.27 879.338 120.27C877.778 120.27 876.378 119.92 875.138 119.22C873.918 118.52 872.958 117.53 872.258 116.25C871.558 114.95 871.208 113.45 871.208 111.75C871.208 110.05 871.548 108.56 872.228 107.28C872.908 106 873.858 105.02 875.078 104.34C876.318 103.64 877.738 103.29 879.338 103.29C880.898 103.29 882.278 103.63 883.478 104.31C884.678 104.99 885.598 105.93 886.238 107.13C886.898 108.31 887.228 109.65 887.228 111.15ZM884.408 110.58C884.408 109.54 884.178 108.65 883.718 107.91C883.258 107.15 882.628 106.58 881.828 106.2C881.048 105.8 880.178 105.6 879.218 105.6C877.838 105.6 876.658 106.04 875.678 106.92C874.718 107.8 874.168 109.02 874.028 110.58H884.408ZM893.561 106.23C894.041 105.29 894.721 104.56 895.601 104.04C896.501 103.52 897.591 103.26 898.871 103.26V106.08H898.151C895.091 106.08 893.561 107.74 893.561 111.06V120H890.831V103.56H893.561V106.23ZM907.843 120.27C906.583 120.27 905.453 120.06 904.453 119.64C903.453 119.2 902.663 118.6 902.083 117.84C901.503 117.06 901.183 116.17 901.123 115.17H903.943C904.023 115.99 904.403 116.66 905.083 117.18C905.783 117.7 906.693 117.96 907.813 117.96C908.853 117.96 909.673 117.73 910.273 117.27C910.873 116.81 911.173 116.23 911.173 115.53C911.173 114.81 910.853 114.28 910.213 113.94C909.573 113.58 908.583 113.23 907.243 112.89C906.023 112.57 905.023 112.25 904.243 111.93C903.483 111.59 902.823 111.1 902.263 110.46C901.723 109.8 901.453 108.94 901.453 107.88C901.453 107.04 901.703 106.27 902.203 105.57C902.703 104.87 903.413 104.32 904.333 103.92C905.253 103.5 906.303 103.29 907.483 103.29C909.303 103.29 910.773 103.75 911.893 104.67C913.013 105.59 913.613 106.85 913.693 108.45H910.963C910.903 107.59 910.553 106.9 909.913 106.38C909.293 105.86 908.453 105.6 907.393 105.6C906.413 105.6 905.633 105.81 905.053 106.23C904.473 106.65 904.183 107.2 904.183 107.88C904.183 108.42 904.353 108.87 904.693 109.23C905.053 109.57 905.493 109.85 906.013 110.07C906.553 110.27 907.293 110.5 908.233 110.76C909.413 111.08 910.373 111.4 911.113 111.72C911.853 112.02 912.483 112.48 913.003 113.1C913.543 113.72 913.823 114.53 913.843 115.53C913.843 116.43 913.593 117.24 913.093 117.96C912.593 118.68 911.883 119.25 910.963 119.67C910.063 120.07 909.023 120.27 907.843 120.27ZM928.425 106.23C928.905 105.29 929.585 104.56 930.465 104.04C931.365 103.52 932.455 103.26 933.735 103.26V106.08H933.015C929.955 106.08 928.425 107.74 928.425 111.06V120H925.695V103.56H928.425V106.23ZM951.886 111.15C951.886 111.67 951.856 112.22 951.796 112.8H938.656C938.756 114.42 939.306 115.69 940.306 116.61C941.326 117.51 942.556 117.96 943.996 117.96C945.176 117.96 946.156 117.69 946.936 117.15C947.736 116.59 948.296 115.85 948.616 114.93H951.556C951.116 116.51 950.236 117.8 948.916 118.8C947.596 119.78 945.956 120.27 943.996 120.27C942.436 120.27 941.036 119.92 939.796 119.22C938.576 118.52 937.616 117.53 936.916 116.25C936.216 114.95 935.866 113.45 935.866 111.75C935.866 110.05 936.206 108.56 936.886 107.28C937.566 106 938.516 105.02 939.736 104.34C940.976 103.64 942.396 103.29 943.996 103.29C945.556 103.29 946.936 103.63 948.136 104.31C949.336 104.99 950.256 105.93 950.896 107.13C951.556 108.31 951.886 109.65 951.886 111.15ZM949.066 110.58C949.066 109.54 948.836 108.65 948.376 107.91C947.916 107.15 947.286 106.58 946.486 106.2C945.706 105.8 944.836 105.6 943.876 105.6C942.496 105.6 941.316 106.04 940.336 106.92C939.376 107.8 938.826 109.02 938.686 110.58H949.066ZM954.47 111.72C954.47 110.04 954.81 108.57 955.49 107.31C956.17 106.03 957.1 105.04 958.28 104.34C959.48 103.64 960.81 103.29 962.27 103.29C963.71 103.29 964.96 103.6 966.02 104.22C967.08 104.84 967.87 105.62 968.39 106.56V103.56H971.15V120H968.39V116.94C967.85 117.9 967.04 118.7 965.96 119.34C964.9 119.96 963.66 120.27 962.24 120.27C960.78 120.27 959.46 119.91 958.28 119.19C957.1 118.47 956.17 117.46 955.49 116.16C954.81 114.86 954.47 113.38 954.47 111.72ZM968.39 111.75C968.39 110.51 968.14 109.43 967.64 108.51C967.14 107.59 966.46 106.89 965.6 106.41C964.76 105.91 963.83 105.66 962.81 105.66C961.79 105.66 960.86 105.9 960.02 106.38C959.18 106.86 958.51 107.56 958.01 108.48C957.51 109.4 957.26 110.48 957.26 111.72C957.26 112.98 957.51 114.08 958.01 115.02C958.51 115.94 959.18 116.65 960.02 117.15C960.86 117.63 961.79 117.87 962.81 117.87C963.83 117.87 964.76 117.63 965.6 117.15C966.46 116.65 967.14 115.94 967.64 115.02C968.14 114.08 968.39 112.99 968.39 111.75ZM978.493 97.8V120H975.763V97.8H978.493ZM985.876 97.8V120H983.146V97.8H985.876ZM1004.69 103.56L994.789 127.74H991.969L995.209 119.82L988.579 103.56H991.609L996.769 116.88L1001.87 103.56H1004.69ZM1022.6 120.27C1021.06 120.27 1019.66 119.92 1018.4 119.22C1017.16 118.52 1016.18 117.53 1015.46 116.25C1014.76 114.95 1014.41 113.45 1014.41 111.75C1014.41 110.07 1014.77 108.59 1015.49 107.31C1016.23 106.01 1017.23 105.02 1018.49 104.34C1019.75 103.64 1021.16 103.29 1022.72 103.29C1024.28 103.29 1025.69 103.64 1026.95 104.34C1028.21 105.02 1029.2 106 1029.92 107.28C1030.66 108.56 1031.03 110.05 1031.03 111.75C1031.03 113.45 1030.65 114.95 1029.89 116.25C1029.15 117.53 1028.14 118.52 1026.86 119.22C1025.58 119.92 1024.16 120.27 1022.6 120.27ZM1022.6 117.87C1023.58 117.87 1024.5 117.64 1025.36 117.18C1026.22 116.72 1026.91 116.03 1027.43 115.11C1027.97 114.19 1028.24 113.07 1028.24 111.75C1028.24 110.43 1027.98 109.31 1027.46 108.39C1026.94 107.47 1026.26 106.79 1025.42 106.35C1024.58 105.89 1023.67 105.66 1022.69 105.66C1021.69 105.66 1020.77 105.89 1019.93 106.35C1019.11 106.79 1018.45 107.47 1017.95 108.39C1017.45 109.31 1017.2 110.43 1017.2 111.75C1017.2 113.09 1017.44 114.22 1017.92 115.14C1018.42 116.06 1019.08 116.75 1019.9 117.21C1020.72 117.65 1021.62 117.87 1022.6 117.87ZM1042.63 103.26C1044.63 103.26 1046.25 103.87 1047.49 105.09C1048.73 106.29 1049.35 108.03 1049.35 110.31V120H1046.65V110.7C1046.65 109.06 1046.24 107.81 1045.42 106.95C1044.6 106.07 1043.48 105.63 1042.06 105.63C1040.62 105.63 1039.47 106.08 1038.61 106.98C1037.77 107.88 1037.35 109.19 1037.35 110.91V120H1034.62V103.56H1037.35V105.9C1037.89 105.06 1038.62 104.41 1039.54 103.95C1040.48 103.49 1041.51 103.26 1042.63 103.26ZM1056.54 97.8V120H1053.81V97.8H1056.54ZM1075.35 103.56L1065.45 127.74H1062.63L1065.87 119.82L1059.24 103.56H1062.27L1067.43 116.88L1072.53 103.56H1075.35ZM1100.68 103.56V120H1097.95V117.57C1097.43 118.41 1096.7 119.07 1095.76 119.55C1094.84 120.01 1093.82 120.24 1092.7 120.24C1091.42 120.24 1090.27 119.98 1089.25 119.46C1088.23 118.92 1087.42 118.12 1086.82 117.06C1086.24 116 1085.95 114.71 1085.95 113.19V103.56H1088.65V112.83C1088.65 114.45 1089.06 115.7 1089.88 116.58C1090.7 117.44 1091.82 117.87 1093.24 117.87C1094.7 117.87 1095.85 117.42 1096.69 116.52C1097.53 115.62 1097.95 114.31 1097.95 112.59V103.56H1100.68ZM1111.1 120.27C1109.84 120.27 1108.71 120.06 1107.71 119.64C1106.71 119.2 1105.92 118.6 1105.34 117.84C1104.76 117.06 1104.44 116.17 1104.38 115.17H1107.2C1107.28 115.99 1107.66 116.66 1108.34 117.18C1109.04 117.7 1109.95 117.96 1111.07 117.96C1112.11 117.96 1112.93 117.73 1113.53 117.27C1114.13 116.81 1114.43 116.23 1114.43 115.53C1114.43 114.81 1114.11 114.28 1113.47 113.94C1112.83 113.58 1111.84 113.23 1110.5 112.89C1109.28 112.57 1108.28 112.25 1107.5 111.93C1106.74 111.59 1106.08 111.1 1105.52 110.46C1104.98 109.8 1104.71 108.94 1104.71 107.88C1104.71 107.04 1104.96 106.27 1105.46 105.57C1105.96 104.87 1106.67 104.32 1107.59 103.92C1108.51 103.5 1109.56 103.29 1110.74 103.29C1112.56 103.29 1114.03 103.75 1115.15 104.67C1116.27 105.59 1116.87 106.85 1116.95 108.45H1114.22C1114.16 107.59 1113.81 106.9 1113.17 106.38C1112.55 105.86 1111.71 105.6 1110.65 105.6C1109.67 105.6 1108.89 105.81 1108.31 106.23C1107.73 106.65 1107.44 107.2 1107.44 107.88C1107.44 108.42 1107.61 108.87 1107.95 109.23C1108.31 109.57 1108.75 109.85 1109.27 110.07C1109.81 110.27 1110.55 110.5 1111.49 110.76C1112.67 111.08 1113.63 111.4 1114.37 111.72C1115.11 112.02 1115.74 112.48 1116.26 113.1C1116.8 113.72 1117.08 114.53 1117.1 115.53C1117.1 116.43 1116.85 117.24 1116.35 117.96C1115.85 118.68 1115.14 119.25 1114.22 119.67C1113.32 120.07 1112.28 120.27 1111.1 120.27ZM1135.96 111.15C1135.96 111.67 1135.93 112.22 1135.87 112.8H1122.73C1122.83 114.42 1123.38 115.69 1124.38 116.61C1125.4 117.51 1126.63 117.96 1128.07 117.96C1129.25 117.96 1130.23 117.69 1131.01 117.15C1131.81 116.59 1132.37 115.85 1132.69 114.93H1135.63C1135.19 116.51 1134.31 117.8 1132.99 118.8C1131.67 119.78 1130.03 120.27 1128.07 120.27C1126.51 120.27 1125.11 119.92 1123.87 119.22C1122.65 118.52 1121.69 117.53 1120.99 116.25C1120.29 114.95 1119.94 113.45 1119.94 111.75C1119.94 110.05 1120.28 108.56 1120.96 107.28C1121.64 106 1122.59 105.02 1123.81 104.34C1125.05 103.64 1126.47 103.29 1128.07 103.29C1129.63 103.29 1131.01 103.63 1132.21 104.31C1133.41 104.99 1134.33 105.93 1134.97 107.13C1135.63 108.31 1135.96 109.65 1135.96 111.15ZM1133.14 110.58C1133.14 109.54 1132.91 108.65 1132.45 107.91C1131.99 107.15 1131.36 106.58 1130.56 106.2C1129.78 105.8 1128.91 105.6 1127.95 105.6C1126.57 105.6 1125.39 106.04 1124.41 106.92C1123.45 107.8 1122.9 109.02 1122.76 110.58H1133.14ZM1162.2 99.09L1155.39 112.11V120H1152.66V112.11L1145.82 99.09H1148.85L1154.01 109.68L1159.17 99.09H1162.2ZM1180.08 111.15C1180.08 111.67 1180.05 112.22 1179.99 112.8H1166.85C1166.95 114.42 1167.5 115.69 1168.5 116.61C1169.52 117.51 1170.75 117.96 1172.19 117.96C1173.37 117.96 1174.35 117.69 1175.13 117.15C1175.93 116.59 1176.49 115.85 1176.81 114.93H1179.75C1179.31 116.51 1178.43 117.8 1177.11 118.8C1175.79 119.78 1174.15 120.27 1172.19 120.27C1170.63 120.27 1169.23 119.92 1167.99 119.22C1166.77 118.52 1165.81 117.53 1165.11 116.25C1164.41 114.95 1164.06 113.45 1164.06 111.75C1164.06 110.05 1164.4 108.56 1165.08 107.28C1165.76 106 1166.71 105.02 1167.93 104.34C1169.17 103.64 1170.59 103.29 1172.19 103.29C1173.75 103.29 1175.13 103.63 1176.33 104.31C1177.53 104.99 1178.45 105.93 1179.09 107.13C1179.75 108.31 1180.08 109.65 1180.08 111.15ZM1177.26 110.58C1177.26 109.54 1177.03 108.65 1176.57 107.91C1176.11 107.15 1175.48 106.58 1174.68 106.2C1173.9 105.8 1173.03 105.6 1172.07 105.6C1170.69 105.6 1169.51 106.04 1168.53 106.92C1167.57 107.8 1167.02 109.02 1166.88 110.58H1177.26ZM1186.41 97.8V120H1183.68V97.8H1186.41ZM1193.8 106.59C1194.34 105.65 1195.14 104.87 1196.2 104.25C1197.28 103.61 1198.53 103.29 1199.95 103.29C1201.41 103.29 1202.73 103.64 1203.91 104.34C1205.11 105.04 1206.05 106.03 1206.73 107.31C1207.41 108.57 1207.75 110.04 1207.75 111.72C1207.75 113.38 1207.41 114.86 1206.73 116.16C1206.05 117.46 1205.11 118.47 1203.91 119.19C1202.73 119.91 1201.41 120.27 1199.95 120.27C1198.55 120.27 1197.31 119.96 1196.23 119.34C1195.17 118.7 1194.36 117.91 1193.8 116.97V127.8H1191.07V103.56H1193.8V106.59ZM1204.96 111.72C1204.96 110.48 1204.71 109.4 1204.21 108.48C1203.71 107.56 1203.03 106.86 1202.17 106.38C1201.33 105.9 1200.4 105.66 1199.38 105.66C1198.38 105.66 1197.45 105.91 1196.59 106.41C1195.75 106.89 1195.07 107.6 1194.55 108.54C1194.05 109.46 1193.8 110.53 1193.8 111.75C1193.8 112.99 1194.05 114.08 1194.55 115.02C1195.07 115.94 1195.75 116.65 1196.59 117.15C1197.45 117.63 1198.38 117.87 1199.38 117.87C1200.4 117.87 1201.33 117.63 1202.17 117.15C1203.03 116.65 1203.71 115.94 1204.21 115.02C1204.71 114.08 1204.96 112.98 1204.96 111.72ZM1222.67 105.81V115.5C1222.67 116.3 1222.84 116.87 1223.18 117.21C1223.52 117.53 1224.11 117.69 1224.95 117.69H1226.96V120H1224.5C1222.98 120 1221.84 119.65 1221.08 118.95C1220.32 118.25 1219.94 117.1 1219.94 115.5V105.81H1217.81V103.56H1219.94V99.42H1222.67V103.56H1226.96V105.81H1222.67ZM1237.44 120.27C1235.9 120.27 1234.5 119.92 1233.24 119.22C1232 118.52 1231.02 117.53 1230.3 116.25C1229.6 114.95 1229.25 113.45 1229.25 111.75C1229.25 110.07 1229.61 108.59 1230.33 107.31C1231.07 106.01 1232.07 105.02 1233.33 104.34C1234.59 103.64 1236 103.29 1237.56 103.29C1239.12 103.29 1240.53 103.64 1241.79 104.34C1243.05 105.02 1244.04 106 1244.76 107.28C1245.5 108.56 1245.87 110.05 1245.87 111.75C1245.87 113.45 1245.49 114.95 1244.73 116.25C1243.99 117.53 1242.98 118.52 1241.7 119.22C1240.42 119.92 1239 120.27 1237.44 120.27ZM1237.44 117.87C1238.42 117.87 1239.34 117.64 1240.2 117.18C1241.06 116.72 1241.75 116.03 1242.27 115.11C1242.81 114.19 1243.08 113.07 1243.08 111.75C1243.08 110.43 1242.82 109.31 1242.3 108.39C1241.78 107.47 1241.1 106.79 1240.26 106.35C1239.42 105.89 1238.51 105.66 1237.53 105.66C1236.53 105.66 1235.61 105.89 1234.77 106.35C1233.95 106.79 1233.29 107.47 1232.79 108.39C1232.29 109.31 1232.04 110.43 1232.04 111.75C1232.04 113.09 1232.28 114.22 1232.76 115.14C1233.26 116.06 1233.92 116.75 1234.74 117.21C1235.56 117.65 1236.46 117.87 1237.44 117.87ZM1260.18 97.8V120H1257.45V97.8H1260.18ZM1272.01 120.27C1270.47 120.27 1269.07 119.92 1267.81 119.22C1266.57 118.52 1265.59 117.53 1264.87 116.25C1264.17 114.95 1263.82 113.45 1263.82 111.75C1263.82 110.07 1264.18 108.59 1264.9 107.31C1265.64 106.01 1266.64 105.02 1267.9 104.34C1269.16 103.64 1270.57 103.29 1272.13 103.29C1273.69 103.29 1275.1 103.64 1276.36 104.34C1277.62 105.02 1278.61 106 1279.33 107.28C1280.07 108.56 1280.44 110.05 1280.44 111.75C1280.44 113.45 1280.06 114.95 1279.3 116.25C1278.56 117.53 1277.55 118.52 1276.27 119.22C1274.99 119.92 1273.57 120.27 1272.01 120.27ZM1272.01 117.87C1272.99 117.87 1273.91 117.64 1274.77 117.18C1275.63 116.72 1276.32 116.03 1276.84 115.11C1277.38 114.19 1277.65 113.07 1277.65 111.75C1277.65 110.43 1277.39 109.31 1276.87 108.39C1276.35 107.47 1275.67 106.79 1274.83 106.35C1273.99 105.89 1273.08 105.66 1272.1 105.66C1271.1 105.66 1270.18 105.89 1269.34 106.35C1268.52 106.79 1267.86 107.47 1267.36 108.39C1266.86 109.31 1266.61 110.43 1266.61 111.75C1266.61 113.09 1266.85 114.22 1267.33 115.14C1267.83 116.06 1268.49 116.75 1269.31 117.21C1270.13 117.65 1271.03 117.87 1272.01 117.87ZM1291.19 120.27C1289.65 120.27 1288.25 119.92 1286.99 119.22C1285.75 118.52 1284.77 117.53 1284.05 116.25C1283.35 114.95 1283 113.45 1283 111.75C1283 110.07 1283.36 108.59 1284.08 107.31C1284.82 106.01 1285.82 105.02 1287.08 104.34C1288.34 103.64 1289.75 103.29 1291.31 103.29C1292.87 103.29 1294.28 103.64 1295.54 104.34C1296.8 105.02 1297.79 106 1298.51 107.28C1299.25 108.56 1299.62 110.05 1299.62 111.75C1299.62 113.45 1299.24 114.95 1298.48 116.25C1297.74 117.53 1296.73 118.52 1295.45 119.22C1294.17 119.92 1292.75 120.27 1291.19 120.27ZM1291.19 117.87C1292.17 117.87 1293.09 117.64 1293.95 117.18C1294.81 116.72 1295.5 116.03 1296.02 115.11C1296.56 114.19 1296.83 113.07 1296.83 111.75C1296.83 110.43 1296.57 109.31 1296.05 108.39C1295.53 107.47 1294.85 106.79 1294.01 106.35C1293.17 105.89 1292.26 105.66 1291.28 105.66C1290.28 105.66 1289.36 105.89 1288.52 106.35C1287.7 106.79 1287.04 107.47 1286.54 108.39C1286.04 109.31 1285.79 110.43 1285.79 111.75C1285.79 113.09 1286.03 114.22 1286.51 115.14C1287.01 116.06 1287.67 116.75 1288.49 117.21C1289.31 117.65 1290.21 117.87 1291.19 117.87ZM1312.39 120L1305.94 112.74V120H1303.21V97.8H1305.94V110.85L1312.27 103.56H1316.08L1308.34 111.75L1316.11 120H1312.39ZM1325.63 111.72C1325.63 110.04 1325.97 108.57 1326.65 107.31C1327.33 106.03 1328.26 105.04 1329.44 104.34C1330.64 103.64 1331.97 103.29 1333.43 103.29C1334.87 103.29 1336.12 103.6 1337.18 104.22C1338.24 104.84 1339.03 105.62 1339.55 106.56V103.56H1342.31V120H1339.55V116.94C1339.01 117.9 1338.2 118.7 1337.12 119.34C1336.06 119.96 1334.82 120.27 1333.4 120.27C1331.94 120.27 1330.62 119.91 1329.44 119.19C1328.26 118.47 1327.33 117.46 1326.65 116.16C1325.97 114.86 1325.63 113.38 1325.63 111.72ZM1339.55 111.75C1339.55 110.51 1339.3 109.43 1338.8 108.51C1338.3 107.59 1337.62 106.89 1336.76 106.41C1335.92 105.91 1334.99 105.66 1333.97 105.66C1332.95 105.66 1332.02 105.9 1331.18 106.38C1330.34 106.86 1329.67 107.56 1329.17 108.48C1328.67 109.4 1328.42 110.48 1328.42 111.72C1328.42 112.98 1328.67 114.08 1329.17 115.02C1329.67 115.94 1330.34 116.65 1331.18 117.15C1332.02 117.63 1332.95 117.87 1333.97 117.87C1334.99 117.87 1335.92 117.63 1336.76 117.15C1337.62 116.65 1338.3 115.94 1338.8 115.02C1339.3 114.08 1339.55 112.99 1339.55 111.75ZM1350.26 105.81V115.5C1350.26 116.3 1350.43 116.87 1350.77 117.21C1351.11 117.53 1351.7 117.69 1352.54 117.69H1354.55V120H1352.09C1350.57 120 1349.43 119.65 1348.67 118.95C1347.91 118.25 1347.53 117.1 1347.53 115.5V105.81H1345.4V103.56H1347.53V99.42H1350.26V103.56H1354.55V105.81H1350.26ZM839.04 156.23C839.52 155.29 840.2 154.56 841.08 154.04C841.98 153.52 843.07 153.26 844.35 153.26V156.08H843.63C840.57 156.08 839.04 157.74 839.04 161.06V170H836.31V153.56H839.04V156.23ZM862.501 161.15C862.501 161.67 862.471 162.22 862.411 162.8H849.271C849.371 164.42 849.921 165.69 850.921 166.61C851.941 167.51 853.171 167.96 854.611 167.96C855.791 167.96 856.771 167.69 857.551 167.15C858.351 166.59 858.911 165.85 859.231 164.93H862.171C861.731 166.51 860.851 167.8 859.531 168.8C858.211 169.78 856.571 170.27 854.611 170.27C853.051 170.27 851.651 169.92 850.411 169.22C849.191 168.52 848.231 167.53 847.531 166.25C846.831 164.95 846.481 163.45 846.481 161.75C846.481 160.05 846.821 158.56 847.501 157.28C848.181 156 849.131 155.02 850.351 154.34C851.591 153.64 853.011 153.29 854.611 153.29C856.171 153.29 857.551 153.63 858.751 154.31C859.951 154.99 860.871 155.93 861.511 157.13C862.171 158.31 862.501 159.65 862.501 161.15ZM859.681 160.58C859.681 159.54 859.451 158.65 858.991 157.91C858.531 157.15 857.901 156.58 857.101 156.2C856.321 155.8 855.451 155.6 854.491 155.6C853.111 155.6 851.931 156.04 850.951 156.92C849.991 157.8 849.441 159.02 849.301 160.58H859.681ZM871.925 170.27C870.665 170.27 869.535 170.06 868.535 169.64C867.535 169.2 866.745 168.6 866.165 167.84C865.585 167.06 865.265 166.17 865.205 165.17H868.025C868.105 165.99 868.485 166.66 869.165 167.18C869.865 167.7 870.775 167.96 871.895 167.96C872.935 167.96 873.755 167.73 874.355 167.27C874.955 166.81 875.255 166.23 875.255 165.53C875.255 164.81 874.935 164.28 874.295 163.94C873.655 163.58 872.665 163.23 871.325 162.89C870.105 162.57 869.105 162.25 868.325 161.93C867.565 161.59 866.905 161.1 866.345 160.46C865.805 159.8 865.535 158.94 865.535 157.88C865.535 157.04 865.785 156.27 866.285 155.57C866.785 154.87 867.495 154.32 868.415 153.92C869.335 153.5 870.385 153.29 871.565 153.29C873.385 153.29 874.855 153.75 875.975 154.67C877.095 155.59 877.695 156.85 877.775 158.45H875.045C874.985 157.59 874.635 156.9 873.995 156.38C873.375 155.86 872.535 155.6 871.475 155.6C870.495 155.6 869.715 155.81 869.135 156.23C868.555 156.65 868.265 157.2 868.265 157.88C868.265 158.42 868.435 158.87 868.775 159.23C869.135 159.57 869.575 159.85 870.095 160.07C870.635 160.27 871.375 160.5 872.315 160.76C873.495 161.08 874.455 161.4 875.195 161.72C875.935 162.02 876.565 162.48 877.085 163.1C877.625 163.72 877.905 164.53 877.925 165.53C877.925 166.43 877.675 167.24 877.175 167.96C876.675 168.68 875.965 169.25 875.045 169.67C874.145 170.07 873.105 170.27 871.925 170.27ZM885.109 155.81V165.5C885.109 166.3 885.279 166.87 885.619 167.21C885.959 167.53 886.549 167.69 887.389 167.69H889.399V170H886.939C885.419 170 884.279 169.65 883.519 168.95C882.759 168.25 882.379 167.1 882.379 165.5V155.81H880.249V153.56H882.379V149.42H885.109V153.56H889.399V155.81H885.109ZM891.686 161.72C891.686 160.04 892.026 158.57 892.706 157.31C893.386 156.03 894.316 155.04 895.496 154.34C896.696 153.64 898.026 153.29 899.486 153.29C900.926 153.29 902.176 153.6 903.236 154.22C904.296 154.84 905.086 155.62 905.606 156.56V153.56H908.366V170H905.606V166.94C905.066 167.9 904.256 168.7 903.176 169.34C902.116 169.96 900.876 170.27 899.456 170.27C897.996 170.27 896.676 169.91 895.496 169.19C894.316 168.47 893.386 167.46 892.706 166.16C892.026 164.86 891.686 163.38 891.686 161.72ZM905.606 161.75C905.606 160.51 905.356 159.43 904.856 158.51C904.356 157.59 903.676 156.89 902.816 156.41C901.976 155.91 901.046 155.66 900.026 155.66C899.006 155.66 898.076 155.9 897.236 156.38C896.396 156.86 895.726 157.56 895.226 158.48C894.726 159.4 894.476 160.48 894.476 161.72C894.476 162.98 894.726 164.08 895.226 165.02C895.726 165.94 896.396 166.65 897.236 167.15C898.076 167.63 899.006 167.87 900.026 167.87C901.046 167.87 901.976 167.63 902.816 167.15C903.676 166.65 904.356 165.94 904.856 165.02C905.356 164.08 905.606 162.99 905.606 161.75ZM927.56 153.56V170H924.83V167.57C924.31 168.41 923.58 169.07 922.64 169.55C921.72 170.01 920.7 170.24 919.58 170.24C918.3 170.24 917.15 169.98 916.13 169.46C915.11 168.92 914.3 168.12 913.7 167.06C913.12 166 912.83 164.71 912.83 163.19V153.56H915.53V162.83C915.53 164.45 915.94 165.7 916.76 166.58C917.58 167.44 918.7 167.87 920.12 167.87C921.58 167.87 922.73 167.42 923.57 166.52C924.41 165.62 924.83 164.31 924.83 162.59V153.56H927.56ZM934.899 156.23C935.379 155.29 936.059 154.56 936.939 154.04C937.839 153.52 938.929 153.26 940.209 153.26V156.08H939.489C936.429 156.08 934.899 157.74 934.899 161.06V170H932.169V153.56H934.899V156.23ZM942.341 161.72C942.341 160.04 942.681 158.57 943.361 157.31C944.041 156.03 944.971 155.04 946.151 154.34C947.351 153.64 948.681 153.29 950.141 153.29C951.581 153.29 952.831 153.6 953.891 154.22C954.951 154.84 955.741 155.62 956.261 156.56V153.56H959.021V170H956.261V166.94C955.721 167.9 954.911 168.7 953.831 169.34C952.771 169.96 951.531 170.27 950.111 170.27C948.651 170.27 947.331 169.91 946.151 169.19C944.971 168.47 944.041 167.46 943.361 166.16C942.681 164.86 942.341 163.38 942.341 161.72ZM956.261 161.75C956.261 160.51 956.011 159.43 955.511 158.51C955.011 157.59 954.331 156.89 953.471 156.41C952.631 155.91 951.701 155.66 950.681 155.66C949.661 155.66 948.731 155.9 947.891 156.38C947.051 156.86 946.381 157.56 945.881 158.48C945.381 159.4 945.131 160.48 945.131 161.72C945.131 162.98 945.381 164.08 945.881 165.02C946.381 165.94 947.051 166.65 947.891 167.15C948.731 167.63 949.661 167.87 950.681 167.87C951.701 167.87 952.631 167.63 953.471 167.15C954.331 166.65 955.011 165.94 955.511 165.02C956.011 164.08 956.261 162.99 956.261 161.75ZM971.644 153.26C973.644 153.26 975.264 153.87 976.504 155.09C977.744 156.29 978.364 158.03 978.364 160.31V170H975.664V160.7C975.664 159.06 975.254 157.81 974.434 156.95C973.614 156.07 972.494 155.63 971.074 155.63C969.634 155.63 968.484 156.08 967.624 156.98C966.784 157.88 966.364 159.19 966.364 160.91V170H963.634V153.56H966.364V155.9C966.904 155.06 967.634 154.41 968.554 153.95C969.494 153.49 970.524 153.26 971.644 153.26ZM986.154 155.81V165.5C986.154 166.3 986.324 166.87 986.664 167.21C987.004 167.53 987.594 167.69 988.434 167.69H990.444V170H987.984C986.464 170 985.324 169.65 984.564 168.95C983.804 168.25 983.424 167.1 983.424 165.5V155.81H981.294V153.56H983.424V149.42H986.154V153.56H990.444V155.81H986.154ZM999.571 170.27C998.311 170.27 997.181 170.06 996.181 169.64C995.181 169.2 994.391 168.6 993.811 167.84C993.231 167.06 992.911 166.17 992.851 165.17H995.671C995.751 165.99 996.131 166.66 996.811 167.18C997.511 167.7 998.421 167.96 999.541 167.96C1000.58 167.96 1001.4 167.73 1002 167.27C1002.6 166.81 1002.9 166.23 1002.9 165.53C1002.9 164.81 1002.58 164.28 1001.94 163.94C1001.3 163.58 1000.31 163.23 998.971 162.89C997.751 162.57 996.751 162.25 995.971 161.93C995.211 161.59 994.551 161.1 993.991 160.46C993.451 159.8 993.181 158.94 993.181 157.88C993.181 157.04 993.431 156.27 993.931 155.57C994.431 154.87 995.141 154.32 996.061 153.92C996.981 153.5 998.031 153.29 999.211 153.29C1001.03 153.29 1002.5 153.75 1003.62 154.67C1004.74 155.59 1005.34 156.85 1005.42 158.45H1002.69C1002.63 157.59 1002.28 156.9 1001.64 156.38C1001.02 155.86 1000.18 155.6 999.121 155.6C998.141 155.6 997.361 155.81 996.781 156.23C996.201 156.65 995.911 157.2 995.911 157.88C995.911 158.42 996.081 158.87 996.421 159.23C996.781 159.57 997.221 159.85 997.741 160.07C998.281 160.27 999.021 160.5 999.961 160.76C1001.14 161.08 1002.1 161.4 1002.84 161.72C1003.58 162.02 1004.21 162.48 1004.73 163.1C1005.27 163.72 1005.55 164.53 1005.57 165.53C1005.57 166.43 1005.32 167.24 1004.82 167.96C1004.32 168.68 1003.61 169.25 1002.69 169.67C1001.79 170.07 1000.75 170.27 999.571 170.27ZM1025.43 153.26C1027.43 153.26 1029.05 153.87 1030.29 155.09C1031.53 156.29 1032.15 158.03 1032.15 160.31V170H1029.45V160.7C1029.45 159.06 1029.04 157.81 1028.22 156.95C1027.4 156.07 1026.28 155.63 1024.86 155.63C1023.42 155.63 1022.27 156.08 1021.41 156.98C1020.57 157.88 1020.15 159.19 1020.15 160.91V170H1017.42V153.56H1020.15V155.9C1020.69 155.06 1021.42 154.41 1022.34 153.95C1023.28 153.49 1024.31 153.26 1025.43 153.26ZM1051.61 161.15C1051.61 161.67 1051.58 162.22 1051.52 162.8H1038.38C1038.48 164.42 1039.03 165.69 1040.03 166.61C1041.05 167.51 1042.28 167.96 1043.72 167.96C1044.9 167.96 1045.88 167.69 1046.66 167.15C1047.46 166.59 1048.02 165.85 1048.34 164.93H1051.28C1050.84 166.51 1049.96 167.8 1048.64 168.8C1047.32 169.78 1045.68 170.27 1043.72 170.27C1042.16 170.27 1040.76 169.92 1039.52 169.22C1038.3 168.52 1037.34 167.53 1036.64 166.25C1035.94 164.95 1035.59 163.45 1035.59 161.75C1035.59 160.05 1035.93 158.56 1036.61 157.28C1037.29 156 1038.24 155.02 1039.46 154.34C1040.7 153.64 1042.12 153.29 1043.72 153.29C1045.28 153.29 1046.66 153.63 1047.86 154.31C1049.06 154.99 1049.98 155.93 1050.62 157.13C1051.28 158.31 1051.61 159.65 1051.61 161.15ZM1048.79 160.58C1048.79 159.54 1048.56 158.65 1048.1 157.91C1047.64 157.15 1047.01 156.58 1046.21 156.2C1045.43 155.8 1044.56 155.6 1043.6 155.6C1042.22 155.6 1041.04 156.04 1040.06 156.92C1039.1 157.8 1038.55 159.02 1038.41 160.58H1048.79ZM1054.2 161.72C1054.2 160.04 1054.54 158.57 1055.22 157.31C1055.9 156.03 1056.83 155.04 1058.01 154.34C1059.21 153.64 1060.54 153.29 1062 153.29C1063.44 153.29 1064.69 153.6 1065.75 154.22C1066.81 154.84 1067.6 155.62 1068.12 156.56V153.56H1070.88V170H1068.12V166.94C1067.58 167.9 1066.77 168.7 1065.69 169.34C1064.63 169.96 1063.39 170.27 1061.97 170.27C1060.51 170.27 1059.19 169.91 1058.01 169.19C1056.83 168.47 1055.9 167.46 1055.22 166.16C1054.54 164.86 1054.2 163.38 1054.2 161.72ZM1068.12 161.75C1068.12 160.51 1067.87 159.43 1067.37 158.51C1066.87 157.59 1066.19 156.89 1065.33 156.41C1064.49 155.91 1063.56 155.66 1062.54 155.66C1061.52 155.66 1060.59 155.9 1059.75 156.38C1058.91 156.86 1058.24 157.56 1057.74 158.48C1057.24 159.4 1056.99 160.48 1056.99 161.72C1056.99 162.98 1057.24 164.08 1057.74 165.02C1058.24 165.94 1058.91 166.65 1059.75 167.15C1060.59 167.63 1061.52 167.87 1062.54 167.87C1063.56 167.87 1064.49 167.63 1065.33 167.15C1066.19 166.65 1066.87 165.94 1067.37 165.02C1067.87 164.08 1068.12 162.99 1068.12 161.75ZM1078.22 156.23C1078.7 155.29 1079.38 154.56 1080.26 154.04C1081.16 153.52 1082.25 153.26 1083.53 153.26V156.08H1082.81C1079.75 156.08 1078.22 157.74 1078.22 161.06V170H1075.49V153.56H1078.22V156.23ZM1098.01 155.81V165.5C1098.01 166.3 1098.18 166.87 1098.52 167.21C1098.86 167.53 1099.45 167.69 1100.29 167.69H1102.3V170H1099.84C1098.32 170 1097.18 169.65 1096.42 168.95C1095.66 168.25 1095.28 167.1 1095.28 165.5V155.81H1093.15V153.56H1095.28V149.42H1098.01V153.56H1102.3V155.81H1098.01ZM1113.77 153.26C1115.01 153.26 1116.13 153.53 1117.13 154.07C1118.13 154.59 1118.91 155.38 1119.47 156.44C1120.05 157.5 1120.34 158.79 1120.34 160.31V170H1117.64V160.7C1117.64 159.06 1117.23 157.81 1116.41 156.95C1115.59 156.07 1114.47 155.63 1113.05 155.63C1111.61 155.63 1110.46 156.08 1109.6 156.98C1108.76 157.88 1108.34 159.19 1108.34 160.91V170H1105.61V147.8H1108.34V155.9C1108.88 155.06 1109.62 154.41 1110.56 153.95C1111.52 153.49 1112.59 153.26 1113.77 153.26ZM1139.8 161.15C1139.8 161.67 1139.77 162.22 1139.71 162.8H1126.57C1126.67 164.42 1127.22 165.69 1128.22 166.61C1129.24 167.51 1130.47 167.96 1131.91 167.96C1133.09 167.96 1134.07 167.69 1134.85 167.15C1135.65 166.59 1136.21 165.85 1136.53 164.93H1139.47C1139.03 166.51 1138.15 167.8 1136.83 168.8C1135.51 169.78 1133.87 170.27 1131.91 170.27C1130.35 170.27 1128.95 169.92 1127.71 169.22C1126.49 168.52 1125.53 167.53 1124.83 166.25C1124.13 164.95 1123.78 163.45 1123.78 161.75C1123.78 160.05 1124.12 158.56 1124.8 157.28C1125.48 156 1126.43 155.02 1127.65 154.34C1128.89 153.64 1130.31 153.29 1131.91 153.29C1133.47 153.29 1134.85 153.63 1136.05 154.31C1137.25 154.99 1138.17 155.93 1138.81 157.13C1139.47 158.31 1139.8 159.65 1139.8 161.15ZM1136.98 160.58C1136.98 159.54 1136.75 158.65 1136.29 157.91C1135.83 157.15 1135.2 156.58 1134.4 156.2C1133.62 155.8 1132.75 155.6 1131.79 155.6C1130.41 155.6 1129.23 156.04 1128.25 156.92C1127.29 157.8 1126.74 159.02 1126.6 160.58H1136.98ZM1163.17 153.26C1164.45 153.26 1165.59 153.53 1166.59 154.07C1167.59 154.59 1168.38 155.38 1168.96 156.44C1169.54 157.5 1169.83 158.79 1169.83 160.31V170H1167.13V160.7C1167.13 159.06 1166.72 157.81 1165.9 156.95C1165.1 156.07 1164.01 155.63 1162.63 155.63C1161.21 155.63 1160.08 156.09 1159.24 157.01C1158.4 157.91 1157.98 159.22 1157.98 160.94V170H1155.28V160.7C1155.28 159.06 1154.87 157.81 1154.05 156.95C1153.25 156.07 1152.16 155.63 1150.78 155.63C1149.36 155.63 1148.23 156.09 1147.39 157.01C1146.55 157.91 1146.13 159.22 1146.13 160.94V170H1143.4V153.56H1146.13V155.93C1146.67 155.07 1147.39 154.41 1148.29 153.95C1149.21 153.49 1150.22 153.26 1151.32 153.26C1152.7 153.26 1153.92 153.57 1154.98 154.19C1156.04 154.81 1156.83 155.72 1157.35 156.92C1157.81 155.76 1158.57 154.86 1159.63 154.22C1160.69 153.58 1161.87 153.26 1163.17 153.26ZM1177.13 166.22L1173.77 174.29H1171.94L1174.13 166.22H1177.13ZM1195.42 170.27C1193.88 170.27 1192.48 169.92 1191.22 169.22C1189.98 168.52 1189 167.53 1188.28 166.25C1187.58 164.95 1187.23 163.45 1187.23 161.75C1187.23 160.07 1187.59 158.59 1188.31 157.31C1189.05 156.01 1190.05 155.02 1191.31 154.34C1192.57 153.64 1193.98 153.29 1195.54 153.29C1197.1 153.29 1198.51 153.64 1199.77 154.34C1201.03 155.02 1202.02 156 1202.74 157.28C1203.48 158.56 1203.85 160.05 1203.85 161.75C1203.85 163.45 1203.47 164.95 1202.71 166.25C1201.97 167.53 1200.96 168.52 1199.68 169.22C1198.4 169.92 1196.98 170.27 1195.42 170.27ZM1195.42 167.87C1196.4 167.87 1197.32 167.64 1198.18 167.18C1199.04 166.72 1199.73 166.03 1200.25 165.11C1200.79 164.19 1201.06 163.07 1201.06 161.75C1201.06 160.43 1200.8 159.31 1200.28 158.39C1199.76 157.47 1199.08 156.79 1198.24 156.35C1197.4 155.89 1196.49 155.66 1195.51 155.66C1194.51 155.66 1193.59 155.89 1192.75 156.35C1191.93 156.79 1191.27 157.47 1190.77 158.39C1190.27 159.31 1190.02 160.43 1190.02 161.75C1190.02 163.09 1190.26 164.22 1190.74 165.14C1191.24 166.06 1191.9 166.75 1192.72 167.21C1193.54 167.65 1194.44 167.87 1195.42 167.87ZM1210.17 156.23C1210.65 155.29 1211.33 154.56 1212.21 154.04C1213.11 153.52 1214.2 153.26 1215.48 153.26V156.08H1214.76C1211.7 156.08 1210.17 157.74 1210.17 161.06V170H1207.44V153.56H1210.17V156.23ZM1229.36 156.59C1229.9 155.65 1230.7 154.87 1231.76 154.25C1232.84 153.61 1234.09 153.29 1235.51 153.29C1236.97 153.29 1238.29 153.64 1239.47 154.34C1240.67 155.04 1241.61 156.03 1242.29 157.31C1242.97 158.57 1243.31 160.04 1243.31 161.72C1243.31 163.38 1242.97 164.86 1242.29 166.16C1241.61 167.46 1240.67 168.47 1239.47 169.19C1238.29 169.91 1236.97 170.27 1235.51 170.27C1234.11 170.27 1232.87 169.96 1231.79 169.34C1230.73 168.7 1229.92 167.91 1229.36 166.97V177.8H1226.63V153.56H1229.36V156.59ZM1240.52 161.72C1240.52 160.48 1240.27 159.4 1239.77 158.48C1239.27 157.56 1238.59 156.86 1237.73 156.38C1236.89 155.9 1235.96 155.66 1234.94 155.66C1233.94 155.66 1233.01 155.91 1232.15 156.41C1231.31 156.89 1230.63 157.6 1230.11 158.54C1229.61 159.46 1229.36 160.53 1229.36 161.75C1229.36 162.99 1229.61 164.08 1230.11 165.02C1230.63 165.94 1231.31 166.65 1232.15 167.15C1233.01 167.63 1233.94 167.87 1234.94 167.87C1235.96 167.87 1236.89 167.63 1237.73 167.15C1238.59 166.65 1239.27 165.94 1239.77 165.02C1240.27 164.08 1240.52 162.98 1240.52 161.72ZM1254.08 170.27C1252.54 170.27 1251.14 169.92 1249.88 169.22C1248.64 168.52 1247.66 167.53 1246.94 166.25C1246.24 164.95 1245.89 163.45 1245.89 161.75C1245.89 160.07 1246.25 158.59 1246.97 157.31C1247.71 156.01 1248.71 155.02 1249.97 154.34C1251.23 153.64 1252.64 153.29 1254.2 153.29C1255.76 153.29 1257.17 153.64 1258.43 154.34C1259.69 155.02 1260.68 156 1261.4 157.28C1262.14 158.56 1262.51 160.05 1262.51 161.75C1262.51 163.45 1262.13 164.95 1261.37 166.25C1260.63 167.53 1259.62 168.52 1258.34 169.22C1257.06 169.92 1255.64 170.27 1254.08 170.27ZM1254.08 167.87C1255.06 167.87 1255.98 167.64 1256.84 167.18C1257.7 166.72 1258.39 166.03 1258.91 165.11C1259.45 164.19 1259.72 163.07 1259.72 161.75C1259.72 160.43 1259.46 159.31 1258.94 158.39C1258.42 157.47 1257.74 156.79 1256.9 156.35C1256.06 155.89 1255.15 155.66 1254.17 155.66C1253.17 155.66 1252.25 155.89 1251.41 156.35C1250.59 156.79 1249.93 157.47 1249.43 158.39C1248.93 159.31 1248.68 160.43 1248.68 161.75C1248.68 163.09 1248.92 164.22 1249.4 165.14C1249.9 166.06 1250.56 166.75 1251.38 167.21C1252.2 167.65 1253.1 167.87 1254.08 167.87ZM1269.43 155.81V165.5C1269.43 166.3 1269.6 166.87 1269.94 167.21C1270.28 167.53 1270.87 167.69 1271.71 167.69H1273.72V170H1271.26C1269.74 170 1268.6 169.65 1267.84 168.95C1267.08 168.25 1266.7 167.1 1266.7 165.5V155.81H1264.57V153.56H1266.7V149.42H1269.43V153.56H1273.72V155.81H1269.43ZM1292.02 161.15C1292.02 161.67 1291.99 162.22 1291.93 162.8H1278.79C1278.89 164.42 1279.44 165.69 1280.44 166.61C1281.46 167.51 1282.69 167.96 1284.13 167.96C1285.31 167.96 1286.29 167.69 1287.07 167.15C1287.87 166.59 1288.43 165.85 1288.75 164.93H1291.69C1291.25 166.51 1290.37 167.8 1289.05 168.8C1287.73 169.78 1286.09 170.27 1284.13 170.27C1282.57 170.27 1281.17 169.92 1279.93 169.22C1278.71 168.52 1277.75 167.53 1277.05 166.25C1276.35 164.95 1276 163.45 1276 161.75C1276 160.05 1276.34 158.56 1277.02 157.28C1277.7 156 1278.65 155.02 1279.87 154.34C1281.11 153.64 1282.53 153.29 1284.13 153.29C1285.69 153.29 1287.07 153.63 1288.27 154.31C1289.47 154.99 1290.39 155.93 1291.03 157.13C1291.69 158.31 1292.02 159.65 1292.02 161.15ZM1289.2 160.58C1289.2 159.54 1288.97 158.65 1288.51 157.91C1288.05 157.15 1287.42 156.58 1286.62 156.2C1285.84 155.8 1284.97 155.6 1284.01 155.6C1282.63 155.6 1281.45 156.04 1280.47 156.92C1279.51 157.8 1278.96 159.02 1278.82 160.58H1289.2ZM1303.64 153.26C1305.64 153.26 1307.26 153.87 1308.5 155.09C1309.74 156.29 1310.36 158.03 1310.36 160.31V170H1307.66V160.7C1307.66 159.06 1307.25 157.81 1306.43 156.95C1305.61 156.07 1304.49 155.63 1303.07 155.63C1301.63 155.63 1300.48 156.08 1299.62 156.98C1298.78 157.88 1298.36 159.19 1298.36 160.91V170H1295.63V153.56H1298.36V155.9C1298.9 155.06 1299.63 154.41 1300.55 153.95C1301.49 153.49 1302.52 153.26 1303.64 153.26ZM1318.15 155.81V165.5C1318.15 166.3 1318.32 166.87 1318.66 167.21C1319 167.53 1319.59 167.69 1320.43 167.69H1322.44V170H1319.98C1318.46 170 1317.32 169.65 1316.56 168.95C1315.8 168.25 1315.42 167.1 1315.42 165.5V155.81H1313.29V153.56H1315.42V149.42H1318.15V153.56H1322.44V155.81H1318.15ZM1327.15 150.89C1326.63 150.89 1326.19 150.71 1325.83 150.35C1325.47 149.99 1325.29 149.55 1325.29 149.03C1325.29 148.51 1325.47 148.07 1325.83 147.71C1326.19 147.35 1326.63 147.17 1327.15 147.17C1327.65 147.17 1328.07 147.35 1328.41 147.71C1328.77 148.07 1328.95 148.51 1328.95 149.03C1328.95 149.55 1328.77 149.99 1328.41 150.35C1328.07 150.71 1327.65 150.89 1327.15 150.89ZM1328.47 153.56V170H1325.74V153.56H1328.47ZM1332.11 161.72C1332.11 160.04 1332.45 158.57 1333.13 157.31C1333.81 156.03 1334.74 155.04 1335.92 154.34C1337.12 153.64 1338.45 153.29 1339.91 153.29C1341.35 153.29 1342.6 153.6 1343.66 154.22C1344.72 154.84 1345.51 155.62 1346.03 156.56V153.56H1348.79V170H1346.03V166.94C1345.49 167.9 1344.68 168.7 1343.6 169.34C1342.54 169.96 1341.3 170.27 1339.88 170.27C1338.42 170.27 1337.1 169.91 1335.92 169.19C1334.74 168.47 1333.81 167.46 1333.13 166.16C1332.45 164.86 1332.11 163.38 1332.11 161.72ZM1346.03 161.75C1346.03 160.51 1345.78 159.43 1345.28 158.51C1344.78 157.59 1344.1 156.89 1343.24 156.41C1342.4 155.91 1341.47 155.66 1340.45 155.66C1339.43 155.66 1338.5 155.9 1337.66 156.38C1336.82 156.86 1336.15 157.56 1335.65 158.48C1335.15 159.4 1334.9 160.48 1334.9 161.72C1334.9 162.98 1335.15 164.08 1335.65 165.02C1336.15 165.94 1336.82 166.65 1337.66 167.15C1338.5 167.63 1339.43 167.87 1340.45 167.87C1341.47 167.87 1342.4 167.63 1343.24 167.15C1344.1 166.65 1344.78 165.94 1345.28 165.02C1345.78 164.08 1346.03 162.99 1346.03 161.75ZM1356.13 147.8V170H1353.4V147.8H1356.13ZM835.29 211.72C835.29 210.04 835.63 208.57 836.31 207.31C836.99 206.03 837.92 205.04 839.1 204.34C840.3 203.64 841.64 203.29 843.12 203.29C844.4 203.29 845.59 203.59 846.69 204.19C847.79 204.77 848.63 205.54 849.21 206.5V197.8H851.97V220H849.21V216.91C848.67 217.89 847.87 218.7 846.81 219.34C845.75 219.96 844.51 220.27 843.09 220.27C841.63 220.27 840.3 219.91 839.1 219.19C837.92 218.47 836.99 217.46 836.31 216.16C835.63 214.86 835.29 213.38 835.29 211.72ZM849.21 211.75C849.21 210.51 848.96 209.43 848.46 208.51C847.96 207.59 847.28 206.89 846.42 206.41C845.58 205.91 844.65 205.66 843.63 205.66C842.61 205.66 841.68 205.9 840.84 206.38C840 206.86 839.33 207.56 838.83 208.48C838.33 209.4 838.08 210.48 838.08 211.72C838.08 212.98 838.33 214.08 838.83 215.02C839.33 215.94 840 216.65 840.84 217.15C841.68 217.63 842.61 217.87 843.63 217.87C844.65 217.87 845.58 217.63 846.42 217.15C847.28 216.65 847.96 215.94 848.46 215.02C848.96 214.08 849.21 212.99 849.21 211.75ZM871.583 211.15C871.583 211.67 871.553 212.22 871.493 212.8H858.353C858.453 214.42 859.003 215.69 860.003 216.61C861.023 217.51 862.253 217.96 863.693 217.96C864.873 217.96 865.853 217.69 866.633 217.15C867.433 216.59 867.993 215.85 868.313 214.93H871.253C870.813 216.51 869.933 217.8 868.613 218.8C867.293 219.78 865.653 220.27 863.693 220.27C862.133 220.27 860.733 219.92 859.493 219.22C858.273 218.52 857.313 217.53 856.613 216.25C855.913 214.95 855.563 213.45 855.563 211.75C855.563 210.05 855.903 208.56 856.583 207.28C857.263 206 858.213 205.02 859.433 204.34C860.673 203.64 862.093 203.29 863.693 203.29C865.253 203.29 866.633 203.63 867.833 204.31C869.033 204.99 869.953 205.93 870.593 207.13C871.253 208.31 871.583 209.65 871.583 211.15ZM868.763 210.58C868.763 209.54 868.533 208.65 868.073 207.91C867.613 207.15 866.983 206.58 866.183 206.2C865.403 205.8 864.533 205.6 863.573 205.6C862.193 205.6 861.013 206.04 860.033 206.92C859.073 207.8 858.523 209.02 858.383 210.58H868.763ZM881.007 220.27C879.747 220.27 878.617 220.06 877.617 219.64C876.617 219.2 875.827 218.6 875.247 217.84C874.667 217.06 874.347 216.17 874.287 215.17H877.107C877.187 215.99 877.567 216.66 878.247 217.18C878.947 217.7 879.857 217.96 880.977 217.96C882.017 217.96 882.837 217.73 883.437 217.27C884.037 216.81 884.337 216.23 884.337 215.53C884.337 214.81 884.017 214.28 883.377 213.94C882.737 213.58 881.747 213.23 880.407 212.89C879.187 212.57 878.187 212.25 877.407 211.93C876.647 211.59 875.987 211.1 875.427 210.46C874.887 209.8 874.617 208.94 874.617 207.88C874.617 207.04 874.867 206.27 875.367 205.57C875.867 204.87 876.577 204.32 877.497 203.92C878.417 203.5 879.467 203.29 880.647 203.29C882.467 203.29 883.937 203.75 885.057 204.67C886.177 205.59 886.777 206.85 886.857 208.45H884.127C884.067 207.59 883.717 206.9 883.077 206.38C882.457 205.86 881.617 205.6 880.557 205.6C879.577 205.6 878.797 205.81 878.217 206.23C877.637 206.65 877.347 207.2 877.347 207.88C877.347 208.42 877.517 208.87 877.857 209.23C878.217 209.57 878.657 209.85 879.177 210.07C879.717 210.27 880.457 210.5 881.397 210.76C882.577 211.08 883.537 211.4 884.277 211.72C885.017 212.02 885.647 212.48 886.167 213.1C886.707 213.72 886.987 214.53 887.007 215.53C887.007 216.43 886.757 217.24 886.257 217.96C885.757 218.68 885.047 219.25 884.127 219.67C883.227 220.07 882.187 220.27 881.007 220.27ZM894.191 205.81V215.5C894.191 216.3 894.361 216.87 894.701 217.21C895.041 217.53 895.631 217.69 896.471 217.69H898.481V220H896.021C894.501 220 893.361 219.65 892.601 218.95C891.841 218.25 891.461 217.1 891.461 215.5V205.81H889.331V203.56H891.461V199.42H894.191V203.56H898.481V205.81H894.191ZM903.199 200.89C902.679 200.89 902.239 200.71 901.879 200.35C901.519 199.99 901.339 199.55 901.339 199.03C901.339 198.51 901.519 198.07 901.879 197.71C902.239 197.35 902.679 197.17 903.199 197.17C903.699 197.17 904.119 197.35 904.459 197.71C904.819 198.07 904.999 198.51 904.999 199.03C904.999 199.55 904.819 199.99 904.459 200.35C904.119 200.71 903.699 200.89 903.199 200.89ZM904.519 203.56V220H901.789V203.56H904.519ZM917.181 203.26C919.181 203.26 920.801 203.87 922.041 205.09C923.281 206.29 923.901 208.03 923.901 210.31V220H921.201V210.7C921.201 209.06 920.791 207.81 919.971 206.95C919.151 206.07 918.031 205.63 916.611 205.63C915.171 205.63 914.021 206.08 913.161 206.98C912.321 207.88 911.901 209.19 911.901 210.91V220H909.171V203.56H911.901V205.9C912.441 205.06 913.171 204.41 914.091 203.95C915.031 203.49 916.061 203.26 917.181 203.26ZM927.341 211.72C927.341 210.04 927.681 208.57 928.361 207.31C929.041 206.03 929.971 205.04 931.151 204.34C932.351 203.64 933.681 203.29 935.141 203.29C936.581 203.29 937.831 203.6 938.891 204.22C939.951 204.84 940.741 205.62 941.261 206.56V203.56H944.021V220H941.261V216.94C940.721 217.9 939.911 218.7 938.831 219.34C937.771 219.96 936.531 220.27 935.111 220.27C933.651 220.27 932.331 219.91 931.151 219.19C929.971 218.47 929.041 217.46 928.361 216.16C927.681 214.86 927.341 213.38 927.341 211.72ZM941.261 211.75C941.261 210.51 941.011 209.43 940.511 208.51C940.011 207.59 939.331 206.89 938.471 206.41C937.631 205.91 936.701 205.66 935.681 205.66C934.661 205.66 933.731 205.9 932.891 206.38C932.051 206.86 931.381 207.56 930.881 208.48C930.381 209.4 930.131 210.48 930.131 211.72C930.131 212.98 930.381 214.08 930.881 215.02C931.381 215.94 932.051 216.65 932.891 217.15C933.731 217.63 934.661 217.87 935.681 217.87C936.701 217.87 937.631 217.63 938.471 217.15C939.331 216.65 940.011 215.94 940.511 215.02C941.011 214.08 941.261 212.99 941.261 211.75ZM951.964 205.81V215.5C951.964 216.3 952.134 216.87 952.474 217.21C952.814 217.53 953.404 217.69 954.244 217.69H956.254V220H953.794C952.274 220 951.134 219.65 950.374 218.95C949.614 218.25 949.234 217.1 949.234 215.5V205.81H947.104V203.56H949.234V199.42H951.964V203.56H956.254V205.81H951.964ZM960.972 200.89C960.452 200.89 960.012 200.71 959.652 200.35C959.292 199.99 959.112 199.55 959.112 199.03C959.112 198.51 959.292 198.07 959.652 197.71C960.012 197.35 960.452 197.17 960.972 197.17C961.472 197.17 961.892 197.35 962.232 197.71C962.592 198.07 962.772 198.51 962.772 199.03C962.772 199.55 962.592 199.99 962.232 200.35C961.892 200.71 961.472 200.89 960.972 200.89ZM962.292 203.56V220H959.562V203.56H962.292ZM974.115 220.27C972.575 220.27 971.175 219.92 969.915 219.22C968.675 218.52 967.695 217.53 966.975 216.25C966.275 214.95 965.925 213.45 965.925 211.75C965.925 210.07 966.285 208.59 967.005 207.31C967.745 206.01 968.745 205.02 970.005 204.34C971.265 203.64 972.675 203.29 974.235 203.29C975.795 203.29 977.205 203.64 978.465 204.34C979.725 205.02 980.715 206 981.435 207.28C982.175 208.56 982.545 210.05 982.545 211.75C982.545 213.45 982.165 214.95 981.405 216.25C980.665 217.53 979.655 218.52 978.375 219.22C977.095 219.92 975.675 220.27 974.115 220.27ZM974.115 217.87C975.095 217.87 976.015 217.64 976.875 217.18C977.735 216.72 978.425 216.03 978.945 215.11C979.485 214.19 979.755 213.07 979.755 211.75C979.755 210.43 979.495 209.31 978.975 208.39C978.455 207.47 977.775 206.79 976.935 206.35C976.095 205.89 975.185 205.66 974.205 205.66C973.205 205.66 972.285 205.89 971.445 206.35C970.625 206.79 969.965 207.47 969.465 208.39C968.965 209.31 968.715 210.43 968.715 211.75C968.715 213.09 968.955 214.22 969.435 215.14C969.935 216.06 970.595 216.75 971.415 217.21C972.235 217.65 973.135 217.87 974.115 217.87ZM994.144 203.26C996.144 203.26 997.764 203.87 999.004 205.09C1000.24 206.29 1000.86 208.03 1000.86 210.31V220H998.164V210.7C998.164 209.06 997.754 207.81 996.934 206.95C996.114 206.07 994.994 205.63 993.574 205.63C992.134 205.63 990.984 206.08 990.124 206.98C989.284 207.88 988.864 209.19 988.864 210.91V220H986.134V203.56H988.864V205.9C989.404 205.06 990.134 204.41 991.054 203.95C991.994 203.49 993.024 203.26 994.144 203.26ZM1011.14 220.27C1009.88 220.27 1008.75 220.06 1007.75 219.64C1006.75 219.2 1005.96 218.6 1005.38 217.84C1004.8 217.06 1004.48 216.17 1004.42 215.17H1007.24C1007.32 215.99 1007.7 216.66 1008.38 217.18C1009.08 217.7 1009.99 217.96 1011.11 217.96C1012.15 217.96 1012.97 217.73 1013.57 217.27C1014.17 216.81 1014.47 216.23 1014.47 215.53C1014.47 214.81 1014.15 214.28 1013.51 213.94C1012.87 213.58 1011.88 213.23 1010.54 212.89C1009.32 212.57 1008.32 212.25 1007.54 211.93C1006.78 211.59 1006.12 211.1 1005.56 210.46C1005.02 209.8 1004.75 208.94 1004.75 207.88C1004.75 207.04 1005 206.27 1005.5 205.57C1006 204.87 1006.71 204.32 1007.63 203.92C1008.55 203.5 1009.6 203.29 1010.78 203.29C1012.6 203.29 1014.07 203.75 1015.19 204.67C1016.31 205.59 1016.91 206.85 1016.99 208.45H1014.26C1014.2 207.59 1013.85 206.9 1013.21 206.38C1012.59 205.86 1011.75 205.6 1010.69 205.6C1009.71 205.6 1008.93 205.81 1008.35 206.23C1007.77 206.65 1007.48 207.2 1007.48 207.88C1007.48 208.42 1007.65 208.87 1007.99 209.23C1008.35 209.57 1008.79 209.85 1009.31 210.07C1009.85 210.27 1010.59 210.5 1011.53 210.76C1012.71 211.08 1013.67 211.4 1014.41 211.72C1015.15 212.02 1015.78 212.48 1016.3 213.1C1016.84 213.72 1017.12 214.53 1017.14 215.53C1017.14 216.43 1016.89 217.24 1016.39 217.96C1015.89 218.68 1015.18 219.25 1014.26 219.67C1013.36 220.07 1012.32 220.27 1011.14 220.27ZM1050.9 203.56L1045.77 220H1042.95L1038.99 206.95L1035.03 220H1032.21L1027.05 203.56H1029.84L1033.62 217.36L1037.7 203.56H1040.49L1044.48 217.39L1048.2 203.56H1050.9ZM1061.76 203.26C1063 203.26 1064.12 203.53 1065.12 204.07C1066.12 204.59 1066.9 205.38 1067.46 206.44C1068.04 207.5 1068.33 208.79 1068.33 210.31V220H1065.63V210.7C1065.63 209.06 1065.22 207.81 1064.4 206.95C1063.58 206.07 1062.46 205.63 1061.04 205.63C1059.6 205.63 1058.45 206.08 1057.59 206.98C1056.75 207.88 1056.33 209.19 1056.33 210.91V220H1053.6V197.8H1056.33V205.9C1056.87 205.06 1057.61 204.41 1058.55 203.95C1059.51 203.49 1060.58 203.26 1061.76 203.26ZM1087.79 211.15C1087.79 211.67 1087.76 212.22 1087.7 212.8H1074.56C1074.66 214.42 1075.21 215.69 1076.21 216.61C1077.23 217.51 1078.46 217.96 1079.9 217.96C1081.08 217.96 1082.06 217.69 1082.84 217.15C1083.64 216.59 1084.2 215.85 1084.52 214.93H1087.46C1087.02 216.51 1086.14 217.8 1084.82 218.8C1083.5 219.78 1081.86 220.27 1079.9 220.27C1078.34 220.27 1076.94 219.92 1075.7 219.22C1074.48 218.52 1073.52 217.53 1072.82 216.25C1072.12 214.95 1071.77 213.45 1071.77 211.75C1071.77 210.05 1072.11 208.56 1072.79 207.28C1073.47 206 1074.42 205.02 1075.64 204.34C1076.88 203.64 1078.3 203.29 1079.9 203.29C1081.46 203.29 1082.84 203.63 1084.04 204.31C1085.24 204.99 1086.16 205.93 1086.8 207.13C1087.46 208.31 1087.79 209.65 1087.79 211.15ZM1084.97 210.58C1084.97 209.54 1084.74 208.65 1084.28 207.91C1083.82 207.15 1083.19 206.58 1082.39 206.2C1081.61 205.8 1080.74 205.6 1079.78 205.6C1078.4 205.6 1077.22 206.04 1076.24 206.92C1075.28 207.8 1074.73 209.02 1074.59 210.58H1084.97ZM1099.41 203.26C1101.41 203.26 1103.03 203.87 1104.27 205.09C1105.51 206.29 1106.13 208.03 1106.13 210.31V220H1103.43V210.7C1103.43 209.06 1103.02 207.81 1102.2 206.95C1101.38 206.07 1100.26 205.63 1098.84 205.63C1097.4 205.63 1096.25 206.08 1095.39 206.98C1094.55 207.88 1094.13 209.19 1094.13 210.91V220H1091.4V203.56H1094.13V205.9C1094.67 205.06 1095.4 204.41 1096.32 203.95C1097.26 203.49 1098.29 203.26 1099.41 203.26ZM1121.32 206.59C1121.86 205.65 1122.66 204.87 1123.72 204.25C1124.8 203.61 1126.05 203.29 1127.47 203.29C1128.93 203.29 1130.25 203.64 1131.43 204.34C1132.63 205.04 1133.57 206.03 1134.25 207.31C1134.93 208.57 1135.27 210.04 1135.27 211.72C1135.27 213.38 1134.93 214.86 1134.25 216.16C1133.57 217.46 1132.63 218.47 1131.43 219.19C1130.25 219.91 1128.93 220.27 1127.47 220.27C1126.07 220.27 1124.83 219.96 1123.75 219.34C1122.69 218.7 1121.88 217.91 1121.32 216.97V227.8H1118.59V203.56H1121.32V206.59ZM1132.48 211.72C1132.48 210.48 1132.23 209.4 1131.73 208.48C1131.23 207.56 1130.55 206.86 1129.69 206.38C1128.85 205.9 1127.92 205.66 1126.9 205.66C1125.9 205.66 1124.97 205.91 1124.11 206.41C1123.27 206.89 1122.59 207.6 1122.07 208.54C1121.57 209.46 1121.32 210.53 1121.32 211.75C1121.32 212.99 1121.57 214.08 1122.07 215.02C1122.59 215.94 1123.27 216.65 1124.11 217.15C1124.97 217.63 1125.9 217.87 1126.9 217.87C1127.92 217.87 1128.85 217.63 1129.69 217.15C1130.55 216.65 1131.23 215.94 1131.73 215.02C1132.23 214.08 1132.48 212.98 1132.48 211.72ZM1141.59 197.8V220H1138.86V197.8H1141.59ZM1145.22 211.72C1145.22 210.04 1145.56 208.57 1146.24 207.31C1146.92 206.03 1147.85 205.04 1149.03 204.34C1150.23 203.64 1151.56 203.29 1153.02 203.29C1154.46 203.29 1155.71 203.6 1156.77 204.22C1157.83 204.84 1158.62 205.62 1159.14 206.56V203.56H1161.9V220H1159.14V216.94C1158.6 217.9 1157.79 218.7 1156.71 219.34C1155.65 219.96 1154.41 220.27 1152.99 220.27C1151.53 220.27 1150.21 219.91 1149.03 219.19C1147.85 218.47 1146.92 217.46 1146.24 216.16C1145.56 214.86 1145.22 213.38 1145.22 211.72ZM1159.14 211.75C1159.14 210.51 1158.89 209.43 1158.39 208.51C1157.89 207.59 1157.21 206.89 1156.35 206.41C1155.51 205.91 1154.58 205.66 1153.56 205.66C1152.54 205.66 1151.61 205.9 1150.77 206.38C1149.93 206.86 1149.26 207.56 1148.76 208.48C1148.26 209.4 1148.01 210.48 1148.01 211.72C1148.01 212.98 1148.26 214.08 1148.76 215.02C1149.26 215.94 1149.93 216.65 1150.77 217.15C1151.61 217.63 1152.54 217.87 1153.56 217.87C1154.58 217.87 1155.51 217.63 1156.35 217.15C1157.21 216.65 1157.89 215.94 1158.39 215.02C1158.89 214.08 1159.14 212.99 1159.14 211.75ZM1174.53 203.26C1176.53 203.26 1178.15 203.87 1179.39 205.09C1180.63 206.29 1181.25 208.03 1181.25 210.31V220H1178.55V210.7C1178.55 209.06 1178.14 207.81 1177.32 206.95C1176.5 206.07 1175.38 205.63 1173.96 205.63C1172.52 205.63 1171.37 206.08 1170.51 206.98C1169.67 207.88 1169.25 209.19 1169.25 210.91V220H1166.52V203.56H1169.25V205.9C1169.79 205.06 1170.52 204.41 1171.44 203.95C1172.38 203.49 1173.41 203.26 1174.53 203.26ZM1193.71 203.26C1195.71 203.26 1197.33 203.87 1198.57 205.09C1199.81 206.29 1200.43 208.03 1200.43 210.31V220H1197.73V210.7C1197.73 209.06 1197.32 207.81 1196.5 206.95C1195.68 206.07 1194.56 205.63 1193.14 205.63C1191.7 205.63 1190.55 206.08 1189.69 206.98C1188.85 207.88 1188.43 209.19 1188.43 210.91V220H1185.7V203.56H1188.43V205.9C1188.97 205.06 1189.7 204.41 1190.62 203.95C1191.56 203.49 1192.59 203.26 1193.71 203.26ZM1206.3 200.89C1205.78 200.89 1205.34 200.71 1204.98 200.35C1204.62 199.99 1204.44 199.55 1204.44 199.03C1204.44 198.51 1204.62 198.07 1204.98 197.71C1205.34 197.35 1205.78 197.17 1206.3 197.17C1206.8 197.17 1207.22 197.35 1207.56 197.71C1207.92 198.07 1208.1 198.51 1208.1 199.03C1208.1 199.55 1207.92 199.99 1207.56 200.35C1207.22 200.71 1206.8 200.89 1206.3 200.89ZM1207.62 203.56V220H1204.89V203.56H1207.62ZM1220.29 203.26C1222.29 203.26 1223.91 203.87 1225.15 205.09C1226.39 206.29 1227.01 208.03 1227.01 210.31V220H1224.31V210.7C1224.31 209.06 1223.9 207.81 1223.08 206.95C1222.26 206.07 1221.14 205.63 1219.72 205.63C1218.28 205.63 1217.13 206.08 1216.27 206.98C1215.43 207.88 1215.01 209.19 1215.01 210.91V220H1212.28V203.56H1215.01V205.9C1215.55 205.06 1216.28 204.41 1217.2 203.95C1218.14 203.49 1219.17 203.26 1220.29 203.26ZM1238.25 203.29C1239.67 203.29 1240.91 203.6 1241.97 204.22C1243.05 204.84 1243.85 205.62 1244.37 206.56V203.56H1247.13V220.36C1247.13 221.86 1246.81 223.19 1246.17 224.35C1245.53 225.53 1244.61 226.45 1243.41 227.11C1242.23 227.77 1240.85 228.1 1239.27 228.1C1237.11 228.1 1235.31 227.59 1233.87 226.57C1232.43 225.55 1231.58 224.16 1231.32 222.4H1234.02C1234.32 223.4 1234.94 224.2 1235.88 224.8C1236.82 225.42 1237.95 225.73 1239.27 225.73C1240.77 225.73 1241.99 225.26 1242.93 224.32C1243.89 223.38 1244.37 222.06 1244.37 220.36V216.91C1243.83 217.87 1243.03 218.67 1241.97 219.31C1240.91 219.95 1239.67 220.27 1238.25 220.27C1236.79 220.27 1235.46 219.91 1234.26 219.19C1233.08 218.47 1232.15 217.46 1231.47 216.16C1230.79 214.86 1230.45 213.38 1230.45 211.72C1230.45 210.04 1230.79 208.57 1231.47 207.31C1232.15 206.03 1233.08 205.04 1234.26 204.34C1235.46 203.64 1236.79 203.29 1238.25 203.29ZM1244.37 211.75C1244.37 210.51 1244.12 209.43 1243.62 208.51C1243.12 207.59 1242.44 206.89 1241.58 206.41C1240.74 205.91 1239.81 205.66 1238.79 205.66C1237.77 205.66 1236.84 205.9 1236 206.38C1235.16 206.86 1234.49 207.56 1233.99 208.48C1233.49 209.4 1233.24 210.48 1233.24 211.72C1233.24 212.98 1233.49 214.08 1233.99 215.02C1234.49 215.94 1235.16 216.65 1236 217.15C1236.84 217.63 1237.77 217.87 1238.79 217.87C1239.81 217.87 1240.74 217.63 1241.58 217.15C1242.44 216.65 1243.12 215.94 1243.62 215.02C1244.12 214.08 1244.37 212.99 1244.37 211.75ZM1266.43 205.81H1262.98V220H1260.25V205.81H1258.12V203.56H1260.25V202.39C1260.25 200.55 1260.72 199.21 1261.66 198.37C1262.62 197.51 1264.15 197.08 1266.25 197.08V199.36C1265.05 199.36 1264.2 199.6 1263.7 200.08C1263.22 200.54 1262.98 201.31 1262.98 202.39V203.56H1266.43V205.81ZM1276.78 220.27C1275.24 220.27 1273.84 219.92 1272.58 219.22C1271.34 218.52 1270.36 217.53 1269.64 216.25C1268.94 214.95 1268.59 213.45 1268.59 211.75C1268.59 210.07 1268.95 208.59 1269.67 207.31C1270.41 206.01 1271.41 205.02 1272.67 204.34C1273.93 203.64 1275.34 203.29 1276.9 203.29C1278.46 203.29 1279.87 203.64 1281.13 204.34C1282.39 205.02 1283.38 206 1284.1 207.28C1284.84 208.56 1285.21 210.05 1285.21 211.75C1285.21 213.45 1284.83 214.95 1284.07 216.25C1283.33 217.53 1282.32 218.52 1281.04 219.22C1279.76 219.92 1278.34 220.27 1276.78 220.27ZM1276.78 217.87C1277.76 217.87 1278.68 217.64 1279.54 217.18C1280.4 216.72 1281.09 216.03 1281.61 215.11C1282.15 214.19 1282.42 213.07 1282.42 211.75C1282.42 210.43 1282.16 209.31 1281.64 208.39C1281.12 207.47 1280.44 206.79 1279.6 206.35C1278.76 205.89 1277.85 205.66 1276.87 205.66C1275.87 205.66 1274.95 205.89 1274.11 206.35C1273.29 206.79 1272.63 207.47 1272.13 208.39C1271.63 209.31 1271.38 210.43 1271.38 211.75C1271.38 213.09 1271.62 214.22 1272.1 215.14C1272.6 216.06 1273.26 216.75 1274.08 217.21C1274.9 217.65 1275.8 217.87 1276.78 217.87ZM1291.53 206.23C1292.01 205.29 1292.69 204.56 1293.57 204.04C1294.47 203.52 1295.56 203.26 1296.84 203.26V206.08H1296.12C1293.06 206.08 1291.53 207.74 1291.53 211.06V220H1288.8V203.56H1291.53V206.23ZM1311.32 205.81V215.5C1311.32 216.3 1311.49 216.87 1311.83 217.21C1312.17 217.53 1312.76 217.69 1313.6 217.69H1315.61V220H1313.15C1311.63 220 1310.49 219.65 1309.73 218.95C1308.97 218.25 1308.59 217.1 1308.59 215.5V205.81H1306.46V203.56H1308.59V199.42H1311.32V203.56H1315.61V205.81H1311.32ZM1321.65 206.23C1322.13 205.29 1322.81 204.56 1323.69 204.04C1324.59 203.52 1325.68 203.26 1326.96 203.26V206.08H1326.24C1323.18 206.08 1321.65 207.74 1321.65 211.06V220H1318.92V203.56H1321.65V206.23ZM1329.09 211.72C1329.09 210.04 1329.43 208.57 1330.11 207.31C1330.79 206.03 1331.72 205.04 1332.9 204.34C1334.1 203.64 1335.43 203.29 1336.89 203.29C1338.33 203.29 1339.58 203.6 1340.64 204.22C1341.7 204.84 1342.49 205.62 1343.01 206.56V203.56H1345.77V220H1343.01V216.94C1342.47 217.9 1341.66 218.7 1340.58 219.34C1339.52 219.96 1338.28 220.27 1336.86 220.27C1335.4 220.27 1334.08 219.91 1332.9 219.19C1331.72 218.47 1330.79 217.46 1330.11 216.16C1329.43 214.86 1329.09 213.38 1329.09 211.72ZM1343.01 211.75C1343.01 210.51 1342.76 209.43 1342.26 208.51C1341.76 207.59 1341.08 206.89 1340.22 206.41C1339.38 205.91 1338.45 205.66 1337.43 205.66C1336.41 205.66 1335.48 205.9 1334.64 206.38C1333.8 206.86 1333.13 207.56 1332.63 208.48C1332.13 209.4 1331.88 210.48 1331.88 211.72C1331.88 212.98 1332.13 214.08 1332.63 215.02C1333.13 215.94 1333.8 216.65 1334.64 217.15C1335.48 217.63 1336.41 217.87 1337.43 217.87C1338.45 217.87 1339.38 217.63 1340.22 217.15C1341.08 216.65 1341.76 215.94 1342.26 215.02C1342.76 214.08 1343.01 212.99 1343.01 211.75ZM1356.5 217.48L1361.6 203.56H1364.51L1358.06 220H1354.88L1348.43 203.56H1351.37L1356.5 217.48ZM1382.2 211.15C1382.2 211.67 1382.17 212.22 1382.11 212.8H1368.97C1369.07 214.42 1369.62 215.69 1370.62 216.61C1371.64 217.51 1372.87 217.96 1374.31 217.96C1375.49 217.96 1376.47 217.69 1377.25 217.15C1378.05 216.59 1378.61 215.85 1378.93 214.93H1381.87C1381.43 216.51 1380.55 217.8 1379.23 218.8C1377.91 219.78 1376.27 220.27 1374.31 220.27C1372.75 220.27 1371.35 219.92 1370.11 219.22C1368.89 218.52 1367.93 217.53 1367.23 216.25C1366.53 214.95 1366.18 213.45 1366.18 211.75C1366.18 210.05 1366.52 208.56 1367.2 207.28C1367.88 206 1368.83 205.02 1370.05 204.34C1371.29 203.64 1372.71 203.29 1374.31 203.29C1375.87 203.29 1377.25 203.63 1378.45 204.31C1379.65 204.99 1380.57 205.93 1381.21 207.13C1381.87 208.31 1382.2 209.65 1382.2 211.15ZM1379.38 210.58C1379.38 209.54 1379.15 208.65 1378.69 207.91C1378.23 207.15 1377.6 206.58 1376.8 206.2C1376.02 205.8 1375.15 205.6 1374.19 205.6C1372.81 205.6 1371.63 206.04 1370.65 206.92C1369.69 207.8 1369.14 209.02 1369 210.58H1379.38ZM1388.53 197.8V220H1385.8V197.8H1388.53ZM1394.06 220.18C1393.54 220.18 1393.1 220 1392.74 219.64C1392.38 219.28 1392.2 218.84 1392.2 218.32C1392.2 217.8 1392.38 217.36 1392.74 217C1393.1 216.64 1393.54 216.46 1394.06 216.46C1394.56 216.46 1394.98 216.64 1395.32 217C1395.68 217.36 1395.86 217.8 1395.86 218.32C1395.86 218.84 1395.68 219.28 1395.32 219.64C1394.98 220 1394.56 220.18 1394.06 220.18Z" fill="#505050"/>
<path d="M210.2 95.08V123H204.6V104.84L197.12 123H192.88L185.36 104.84V123H179.76V95.08H186.12L195 115.84L203.88 95.08H210.2ZM225.577 123.36C223.443 123.36 221.523 122.893 219.817 121.96C218.11 121 216.763 119.653 215.777 117.92C214.817 116.187 214.337 114.187 214.337 111.92C214.337 109.653 214.83 107.653 215.817 105.92C216.83 104.187 218.203 102.853 219.937 101.92C221.67 100.96 223.603 100.48 225.737 100.48C227.87 100.48 229.803 100.96 231.537 101.92C233.27 102.853 234.63 104.187 235.617 105.92C236.63 107.653 237.137 109.653 237.137 111.92C237.137 114.187 236.617 116.187 235.577 117.92C234.563 119.653 233.177 121 231.417 121.96C229.683 122.893 227.737 123.36 225.577 123.36ZM225.577 118.48C226.59 118.48 227.537 118.24 228.417 117.76C229.323 117.253 230.043 116.507 230.577 115.52C231.11 114.533 231.377 113.333 231.377 111.92C231.377 109.813 230.817 108.2 229.697 107.08C228.603 105.933 227.257 105.36 225.657 105.36C224.057 105.36 222.71 105.933 221.617 107.08C220.55 108.2 220.017 109.813 220.017 111.92C220.017 114.027 220.537 115.653 221.577 116.8C222.643 117.92 223.977 118.48 225.577 118.48ZM249.724 123.36C247.911 123.36 246.284 123.04 244.844 122.4C243.404 121.733 242.258 120.84 241.404 119.72C240.578 118.6 240.124 117.36 240.044 116H245.684C245.791 116.853 246.204 117.56 246.924 118.12C247.671 118.68 248.591 118.96 249.684 118.96C250.751 118.96 251.578 118.747 252.164 118.32C252.778 117.893 253.084 117.347 253.084 116.68C253.084 115.96 252.711 115.427 251.964 115.08C251.244 114.707 250.084 114.307 248.484 113.88C246.831 113.48 245.471 113.067 244.404 112.64C243.364 112.213 242.458 111.56 241.684 110.68C240.938 109.8 240.564 108.613 240.564 107.12C240.564 105.893 240.911 104.773 241.604 103.76C242.324 102.747 243.338 101.947 244.644 101.36C245.978 100.773 247.538 100.48 249.324 100.48C251.964 100.48 254.071 101.147 255.644 102.48C257.218 103.787 258.084 105.56 258.244 107.8H252.884C252.804 106.92 252.431 106.227 251.764 105.72C251.124 105.187 250.258 104.92 249.164 104.92C248.151 104.92 247.364 105.107 246.804 105.48C246.271 105.853 246.004 106.373 246.004 107.04C246.004 107.787 246.378 108.36 247.124 108.76C247.871 109.133 249.031 109.52 250.604 109.92C252.204 110.32 253.524 110.733 254.564 111.16C255.604 111.587 256.498 112.253 257.244 113.16C258.018 114.04 258.418 115.213 258.444 116.68C258.444 117.96 258.084 119.107 257.364 120.12C256.671 121.133 255.658 121.933 254.324 122.52C253.018 123.08 251.484 123.36 249.724 123.36ZM269.561 105.44V116.16C269.561 116.907 269.735 117.453 270.081 117.8C270.455 118.12 271.068 118.28 271.921 118.28H274.521V123H271.001C266.281 123 263.921 120.707 263.921 116.12V105.44H261.281V100.84H263.921V95.36H269.561V100.84H274.521V105.44H269.561ZM309 100.84V123H303.36V120.2C302.64 121.16 301.694 121.92 300.52 122.48C299.374 123.013 298.12 123.28 296.76 123.28C295.027 123.28 293.494 122.92 292.16 122.2C290.827 121.453 289.774 120.373 289 118.96C288.254 117.52 287.88 115.813 287.88 113.84V100.84H293.48V113.04C293.48 114.8 293.92 116.16 294.8 117.12C295.68 118.053 296.88 118.52 298.4 118.52C299.947 118.52 301.16 118.053 302.04 117.12C302.92 116.16 303.36 114.8 303.36 113.04V100.84H309ZM323.006 123.36C321.192 123.36 319.566 123.04 318.126 122.4C316.686 121.733 315.539 120.84 314.686 119.72C313.859 118.6 313.406 117.36 313.326 116H318.966C319.072 116.853 319.486 117.56 320.206 118.12C320.952 118.68 321.872 118.96 322.966 118.96C324.032 118.96 324.859 118.747 325.446 118.32C326.059 117.893 326.366 117.347 326.366 116.68C326.366 115.96 325.992 115.427 325.246 115.08C324.526 114.707 323.366 114.307 321.766 113.88C320.112 113.48 318.752 113.067 317.686 112.64C316.646 112.213 315.739 111.56 314.966 110.68C314.219 109.8 313.846 108.613 313.846 107.12C313.846 105.893 314.192 104.773 314.886 103.76C315.606 102.747 316.619 101.947 317.926 101.36C319.259 100.773 320.819 100.48 322.606 100.48C325.246 100.48 327.352 101.147 328.926 102.48C330.499 103.787 331.366 105.56 331.526 107.8H326.166C326.086 106.92 325.712 106.227 325.046 105.72C324.406 105.187 323.539 104.92 322.446 104.92C321.432 104.92 320.646 105.107 320.086 105.48C319.552 105.853 319.286 106.373 319.286 107.04C319.286 107.787 319.659 108.36 320.406 108.76C321.152 109.133 322.312 109.52 323.886 109.92C325.486 110.32 326.806 110.733 327.846 111.16C328.886 111.587 329.779 112.253 330.526 113.16C331.299 114.04 331.699 115.213 331.726 116.68C331.726 117.96 331.366 119.107 330.646 120.12C329.952 121.133 328.939 121.933 327.606 122.52C326.299 123.08 324.766 123.36 323.006 123.36ZM356.923 111.44C356.923 112.24 356.869 112.96 356.763 113.6H340.563C340.696 115.2 341.256 116.453 342.243 117.36C343.229 118.267 344.443 118.72 345.883 118.72C347.963 118.72 349.443 117.827 350.323 116.04H356.363C355.723 118.173 354.496 119.933 352.683 121.32C350.869 122.68 348.643 123.36 346.003 123.36C343.869 123.36 341.949 122.893 340.243 121.96C338.563 121 337.243 119.653 336.283 117.92C335.349 116.187 334.882 114.187 334.882 111.92C334.882 109.627 335.349 107.613 336.283 105.88C337.216 104.147 338.523 102.813 340.203 101.88C341.883 100.947 343.816 100.48 346.003 100.48C348.109 100.48 349.989 100.933 351.643 101.84C353.323 102.747 354.616 104.04 355.523 105.72C356.456 107.373 356.923 109.28 356.923 111.44ZM351.123 109.84C351.096 108.4 350.576 107.253 349.563 106.4C348.549 105.52 347.309 105.08 345.843 105.08C344.456 105.08 343.283 105.507 342.323 106.36C341.389 107.187 340.816 108.347 340.603 109.84H351.123ZM366.61 104.28C367.33 103.107 368.263 102.187 369.41 101.52C370.583 100.853 371.917 100.52 373.41 100.52V106.4H371.93C370.17 106.4 368.837 106.813 367.93 107.64C367.05 108.467 366.61 109.907 366.61 111.96V123H361.01V100.84H366.61V104.28ZM385.662 123.36C383.849 123.36 382.222 123.04 380.782 122.4C379.342 121.733 378.195 120.84 377.342 119.72C376.515 118.6 376.062 117.36 375.982 116H381.622C381.729 116.853 382.142 117.56 382.862 118.12C383.609 118.68 384.529 118.96 385.622 118.96C386.689 118.96 387.515 118.747 388.102 118.32C388.715 117.893 389.022 117.347 389.022 116.68C389.022 115.96 388.649 115.427 387.902 115.08C387.182 114.707 386.022 114.307 384.422 113.88C382.769 113.48 381.409 113.067 380.342 112.64C379.302 112.213 378.395 111.56 377.622 110.68C376.875 109.8 376.502 108.613 376.502 107.12C376.502 105.893 376.849 104.773 377.542 103.76C378.262 102.747 379.275 101.947 380.582 101.36C381.915 100.773 383.475 100.48 385.262 100.48C387.902 100.48 390.009 101.147 391.582 102.48C393.155 103.787 394.022 105.56 394.182 107.8H388.822C388.742 106.92 388.369 106.227 387.702 105.72C387.062 105.187 386.195 104.92 385.102 104.92C384.089 104.92 383.302 105.107 382.742 105.48C382.209 105.853 381.942 106.373 381.942 107.04C381.942 107.787 382.315 108.36 383.062 108.76C383.809 109.133 384.969 109.52 386.542 109.92C388.142 110.32 389.462 110.733 390.502 111.16C391.542 111.587 392.435 112.253 393.182 113.16C393.955 114.04 394.355 115.213 394.382 116.68C394.382 117.96 394.022 119.107 393.302 120.12C392.609 121.133 391.595 121.933 390.262 122.52C388.955 123.08 387.422 123.36 385.662 123.36ZM429.43 100.84V123H423.79V120.2C423.07 121.16 422.123 121.92 420.95 122.48C419.803 123.013 418.55 123.28 417.19 123.28C415.457 123.28 413.923 122.92 412.59 122.2C411.257 121.453 410.203 120.373 409.43 118.96C408.683 117.52 408.31 115.813 408.31 113.84V100.84H413.91V113.04C413.91 114.8 414.35 116.16 415.23 117.12C416.11 118.053 417.31 118.52 418.83 118.52C420.377 118.52 421.59 118.053 422.47 117.12C423.35 116.16 423.79 114.8 423.79 113.04V100.84H429.43ZM443.435 123.36C441.622 123.36 439.995 123.04 438.555 122.4C437.115 121.733 435.969 120.84 435.115 119.72C434.289 118.6 433.835 117.36 433.755 116H439.395C439.502 116.853 439.915 117.56 440.635 118.12C441.382 118.68 442.302 118.96 443.395 118.96C444.462 118.96 445.289 118.747 445.875 118.32C446.489 117.893 446.795 117.347 446.795 116.68C446.795 115.96 446.422 115.427 445.675 115.08C444.955 114.707 443.795 114.307 442.195 113.88C440.542 113.48 439.182 113.067 438.115 112.64C437.075 112.213 436.169 111.56 435.395 110.68C434.649 109.8 434.275 108.613 434.275 107.12C434.275 105.893 434.622 104.773 435.315 103.76C436.035 102.747 437.049 101.947 438.355 101.36C439.689 100.773 441.249 100.48 443.035 100.48C445.675 100.48 447.782 101.147 449.355 102.48C450.929 103.787 451.795 105.56 451.955 107.8H446.595C446.515 106.92 446.142 106.227 445.475 105.72C444.835 105.187 443.969 104.92 442.875 104.92C441.862 104.92 441.075 105.107 440.515 105.48C439.982 105.853 439.715 106.373 439.715 107.04C439.715 107.787 440.089 108.36 440.835 108.76C441.582 109.133 442.742 109.52 444.315 109.92C445.915 110.32 447.235 110.733 448.275 111.16C449.315 111.587 450.209 112.253 450.955 113.16C451.729 114.04 452.129 115.213 452.155 116.68C452.155 117.96 451.795 119.107 451.075 120.12C450.382 121.133 449.369 121.933 448.035 122.52C446.729 123.08 445.195 123.36 443.435 123.36ZM477.352 111.44C477.352 112.24 477.299 112.96 477.192 113.6H460.992C461.126 115.2 461.686 116.453 462.672 117.36C463.659 118.267 464.872 118.72 466.312 118.72C468.392 118.72 469.872 117.827 470.752 116.04H476.792C476.152 118.173 474.926 119.933 473.112 121.32C471.299 122.68 469.072 123.36 466.432 123.36C464.299 123.36 462.379 122.893 460.672 121.96C458.992 121 457.672 119.653 456.712 117.92C455.779 116.187 455.312 114.187 455.312 111.92C455.312 109.627 455.779 107.613 456.712 105.88C457.646 104.147 458.952 102.813 460.632 101.88C462.312 100.947 464.246 100.48 466.432 100.48C468.539 100.48 470.419 100.933 472.072 101.84C473.752 102.747 475.046 104.04 475.952 105.72C476.886 107.373 477.352 109.28 477.352 111.44ZM471.552 109.84C471.526 108.4 471.006 107.253 469.992 106.4C468.979 105.52 467.739 105.08 466.272 105.08C464.886 105.08 463.712 105.507 462.752 106.36C461.819 107.187 461.246 108.347 461.032 109.84H471.552ZM513.171 95.08L503.731 113.28V123H498.131V113.28L488.651 95.08H494.971L500.971 107.84L506.931 95.08H513.171ZM537.001 111.44C537.001 112.24 536.947 112.96 536.841 113.6H520.641C520.774 115.2 521.334 116.453 522.321 117.36C523.307 118.267 524.521 118.72 525.961 118.72C528.041 118.72 529.521 117.827 530.401 116.04H536.441C535.801 118.173 534.574 119.933 532.761 121.32C530.947 122.68 528.721 123.36 526.081 123.36C523.947 123.36 522.027 122.893 520.321 121.96C518.641 121 517.321 119.653 516.361 117.92C515.427 116.187 514.961 114.187 514.961 111.92C514.961 109.627 515.427 107.613 516.361 105.88C517.294 104.147 518.601 102.813 520.281 101.88C521.961 100.947 523.894 100.48 526.081 100.48C528.187 100.48 530.067 100.933 531.721 101.84C533.401 102.747 534.694 104.04 535.601 105.72C536.534 107.373 537.001 109.28 537.001 111.44ZM531.201 109.84C531.174 108.4 530.654 107.253 529.641 106.4C528.627 105.52 527.387 105.08 525.921 105.08C524.534 105.08 523.361 105.507 522.401 106.36C521.467 107.187 520.894 108.347 520.681 109.84H531.201ZM546.688 93.4V123H541.088V93.4H546.688ZM557.821 104.04C558.541 103.027 559.528 102.187 560.781 101.52C562.061 100.827 563.514 100.48 565.141 100.48C567.034 100.48 568.741 100.947 570.261 101.88C571.808 102.813 573.021 104.147 573.901 105.88C574.808 107.587 575.261 109.573 575.261 111.84C575.261 114.107 574.808 116.12 573.901 117.88C573.021 119.613 571.808 120.96 570.261 121.92C568.741 122.88 567.034 123.36 565.141 123.36C563.514 123.36 562.074 123.027 560.821 122.36C559.594 121.693 558.594 120.853 557.821 119.84V133.56H552.221V100.84H557.821V104.04ZM569.541 111.84C569.541 110.507 569.261 109.36 568.701 108.4C568.168 107.413 567.448 106.667 566.541 106.16C565.661 105.653 564.701 105.4 563.661 105.4C562.648 105.4 561.688 105.667 560.781 106.2C559.901 106.707 559.181 107.453 558.621 108.44C558.088 109.427 557.821 110.587 557.821 111.92C557.821 113.253 558.088 114.413 558.621 115.4C559.181 116.387 559.901 117.147 560.781 117.68C561.688 118.187 562.648 118.44 563.661 118.44C564.701 118.44 565.661 118.173 566.541 117.64C567.448 117.107 568.168 116.347 568.701 115.36C569.261 114.373 569.541 113.2 569.541 111.84ZM594.462 104.08C595.182 103.013 596.168 102.147 597.422 101.48C598.702 100.813 600.155 100.48 601.782 100.48C603.675 100.48 605.382 100.947 606.902 101.88C608.448 102.813 609.662 104.147 610.542 105.88C611.448 107.587 611.902 109.573 611.902 111.84C611.902 114.107 611.448 116.12 610.542 117.88C609.662 119.613 608.448 120.96 606.902 121.92C605.382 122.88 603.675 123.36 601.782 123.36C600.128 123.36 598.675 123.04 597.422 122.4C596.195 121.733 595.208 120.88 594.462 119.84V123H588.862V93.4H594.462V104.08ZM606.182 111.84C606.182 110.507 605.902 109.36 605.342 108.4C604.808 107.413 604.088 106.667 603.182 106.16C602.302 105.653 601.342 105.4 600.302 105.4C599.288 105.4 598.328 105.667 597.422 106.2C596.542 106.707 595.822 107.453 595.262 108.44C594.728 109.427 594.462 110.587 594.462 111.92C594.462 113.253 594.728 114.413 595.262 115.4C595.822 116.387 596.542 117.147 597.422 117.68C598.328 118.187 599.288 118.44 600.302 118.44C601.342 118.44 602.302 118.173 603.182 117.64C604.088 117.107 604.808 116.347 605.342 115.36C605.902 114.373 606.182 113.2 606.182 111.84ZM637.171 100.84L623.451 133.48H617.491L622.291 122.44L613.411 100.84H619.691L625.411 116.32L631.211 100.84H637.171ZM662.001 100.52C664.641 100.52 666.774 101.36 668.401 103.04C670.028 104.693 670.841 107.013 670.841 110V123H665.241V110.76C665.241 109 664.801 107.653 663.921 106.72C663.041 105.76 661.841 105.28 660.321 105.28C658.774 105.28 657.548 105.76 656.641 106.72C655.761 107.653 655.321 109 655.321 110.76V123H649.721V100.84H655.321V103.6C656.068 102.64 657.014 101.893 658.161 101.36C659.334 100.8 660.614 100.52 662.001 100.52ZM696.766 111.44C696.766 112.24 696.713 112.96 696.606 113.6H680.406C680.54 115.2 681.1 116.453 682.086 117.36C683.073 118.267 684.286 118.72 685.726 118.72C687.806 118.72 689.286 117.827 690.166 116.04H696.206C695.566 118.173 694.34 119.933 692.526 121.32C690.713 122.68 688.486 123.36 685.846 123.36C683.713 123.36 681.793 122.893 680.086 121.96C678.406 121 677.086 119.653 676.126 117.92C675.193 116.187 674.726 114.187 674.726 111.92C674.726 109.627 675.193 107.613 676.126 105.88C677.06 104.147 678.366 102.813 680.046 101.88C681.726 100.947 683.66 100.48 685.846 100.48C687.953 100.48 689.833 100.933 691.486 101.84C693.166 102.747 694.46 104.04 695.366 105.72C696.3 107.373 696.766 109.28 696.766 111.44ZM690.966 109.84C690.94 108.4 690.42 107.253 689.406 106.4C688.393 105.52 687.153 105.08 685.686 105.08C684.3 105.08 683.126 105.507 682.166 106.36C681.233 107.187 680.66 108.347 680.446 109.84H690.966ZM721.454 111.44C721.454 112.24 721.4 112.96 721.294 113.6H705.094C705.227 115.2 705.787 116.453 706.774 117.36C707.76 118.267 708.974 118.72 710.414 118.72C712.494 118.72 713.974 117.827 714.854 116.04H720.894C720.254 118.173 719.027 119.933 717.214 121.32C715.4 122.68 713.174 123.36 710.534 123.36C708.4 123.36 706.48 122.893 704.774 121.96C703.094 121 701.774 119.653 700.814 117.92C699.88 116.187 699.414 114.187 699.414 111.92C699.414 109.627 699.88 107.613 700.814 105.88C701.747 104.147 703.054 102.813 704.734 101.88C706.414 100.947 708.347 100.48 710.534 100.48C712.64 100.48 714.52 100.933 716.174 101.84C717.854 102.747 719.147 104.04 720.054 105.72C720.987 107.373 721.454 109.28 721.454 111.44ZM715.654 109.84C715.627 108.4 715.107 107.253 714.094 106.4C713.08 105.52 711.84 105.08 710.374 105.08C708.987 105.08 707.814 105.507 706.854 106.36C705.92 107.187 705.347 108.347 705.134 109.84H715.654ZM724.101 111.84C724.101 109.6 724.541 107.613 725.421 105.88C726.328 104.147 727.555 102.813 729.101 101.88C730.648 100.947 732.368 100.48 734.261 100.48C735.701 100.48 737.075 100.8 738.381 101.44C739.688 102.053 740.728 102.88 741.501 103.92V93.4H747.181V123H741.501V119.72C740.808 120.813 739.835 121.693 738.581 122.36C737.328 123.027 735.875 123.36 734.221 123.36C732.355 123.36 730.648 122.88 729.101 121.92C727.555 120.96 726.328 119.613 725.421 117.88C724.541 116.12 724.101 114.107 724.101 111.84ZM741.541 111.92C741.541 110.56 741.275 109.4 740.741 108.44C740.208 107.453 739.488 106.707 738.581 106.2C737.675 105.667 736.701 105.4 735.661 105.4C734.621 105.4 733.661 105.653 732.781 106.16C731.901 106.667 731.181 107.413 730.621 108.4C730.088 109.36 729.821 110.507 729.821 111.84C729.821 113.173 730.088 114.347 730.621 115.36C731.181 116.347 731.901 117.107 732.781 117.64C733.688 118.173 734.648 118.44 735.661 118.44C736.701 118.44 737.675 118.187 738.581 117.68C739.488 117.147 740.208 116.4 740.741 115.44C741.275 114.453 741.541 113.28 741.541 111.92ZM755.131 123.28C754.117 123.28 753.277 122.973 752.611 122.36C751.971 121.72 751.651 120.933 751.651 120C751.651 119.067 751.971 118.293 752.611 117.68C753.277 117.04 754.117 116.72 755.131 116.72C756.117 116.72 756.931 117.04 757.571 117.68C758.211 118.293 758.531 119.067 758.531 120C758.531 120.933 758.211 121.72 757.571 122.36C756.931 122.973 756.117 123.28 755.131 123.28Z" fill="#505050"/>
<path d="M105.741 116.038C106.826 99.2153 113.248 86.1009 125.006 76.6947C136.944 67.2884 152.139 62.5853 170.59 62.5853C183.252 62.5853 194.196 64.8464 203.421 69.3687C212.646 73.8909 219.611 80.0411 224.314 87.8193C229.017 95.5976 231.368 104.371 231.368 114.139C231.368 125.354 228.384 134.941 222.414 142.9C216.445 150.859 209.3 156.195 200.979 158.909V159.994C211.651 163.25 219.972 169.219 225.942 177.902C231.911 186.404 234.896 197.348 234.896 210.733C234.896 221.406 232.454 230.902 227.57 239.223C222.686 247.544 215.45 254.147 205.863 259.031C196.276 263.734 184.789 266.085 171.404 266.085C151.868 266.085 135.769 261.111 123.106 251.162C110.625 241.032 103.932 226.561 103.028 207.749H132.874C133.598 217.336 137.306 225.204 143.999 231.355C150.692 237.324 159.736 240.309 171.132 240.309C182.167 240.309 190.668 237.324 196.638 231.355C202.607 225.204 205.592 217.336 205.592 207.749C205.592 195.086 201.522 186.132 193.382 180.887C185.423 175.46 173.122 172.747 156.48 172.747H149.426V147.241H156.752C171.404 147.06 182.528 144.618 190.126 139.915C197.904 135.212 201.793 127.796 201.793 117.666C201.793 108.983 198.989 102.11 193.382 97.0447C187.774 91.7989 179.815 89.176 169.504 89.176C159.375 89.176 151.506 91.7989 145.898 97.0447C140.291 102.11 136.944 108.441 135.859 116.038H105.741ZM283.939 266.899C278.332 266.899 273.629 265 269.83 261.201C266.031 257.403 264.132 252.7 264.132 247.092C264.132 241.484 266.031 236.781 269.83 232.983C273.629 229.184 278.332 227.285 283.939 227.285C289.366 227.285 293.979 229.184 297.777 232.983C301.576 236.781 303.475 241.484 303.475 247.092C303.475 252.7 301.576 257.403 297.777 261.201C293.979 265 289.366 266.899 283.939 266.899Z" fill="#C41200" fill-opacity="0.24"/>
</svg>
