<svg width="1533" height="340" viewBox="0 0 1533 340" fill="none" xmlns="http://www.w3.org/2000/svg">
<path d="M849.18 99.09V101.31H843.48V120H840.75V101.31H835.02V99.09H849.18ZM859.71 120.27C858.17 120.27 856.77 119.92 855.51 119.22C854.27 118.52 853.29 117.53 852.57 116.25C851.87 114.95 851.52 113.45 851.52 111.75C851.52 110.07 851.88 108.59 852.6 107.31C853.34 106.01 854.34 105.02 855.6 104.34C856.86 103.64 858.27 103.29 859.83 103.29C861.39 103.29 862.8 103.64 864.06 104.34C865.32 105.02 866.31 106 867.03 107.28C867.77 108.56 868.14 110.05 868.14 111.75C868.14 113.45 867.76 114.95 867 116.25C866.26 117.53 865.25 118.52 863.97 119.22C862.69 119.92 861.27 120.27 859.71 120.27ZM859.71 117.87C860.69 117.87 861.61 117.64 862.47 117.18C863.33 116.72 864.02 116.03 864.54 115.11C865.08 114.19 865.35 113.07 865.35 111.75C865.35 110.43 865.09 109.31 864.57 108.39C864.05 107.47 863.37 106.79 862.53 106.35C861.69 105.89 860.78 105.66 859.8 105.66C858.8 105.66 857.88 105.89 857.04 106.35C856.22 106.79 855.56 107.47 855.06 108.39C854.56 109.31 854.31 110.43 854.31 111.75C854.31 113.09 854.55 114.22 855.03 115.14C855.53 116.06 856.19 116.75 857.01 117.21C857.83 117.65 858.73 117.87 859.71 117.87ZM882.458 106.59C882.998 105.65 883.798 104.87 884.858 104.25C885.938 103.61 887.188 103.29 888.608 103.29C890.068 103.29 891.388 103.64 892.568 104.34C893.768 105.04 894.708 106.03 895.388 107.31C896.068 108.57 896.408 110.04 896.408 111.72C896.408 113.38 896.068 114.86 895.388 116.16C894.708 117.46 893.768 118.47 892.568 119.19C891.388 119.91 890.068 120.27 888.608 120.27C887.208 120.27 885.968 119.96 884.888 119.34C883.828 118.7 883.018 117.91 882.458 116.97V127.8H879.728V103.56H882.458V106.59ZM893.618 111.72C893.618 110.48 893.368 109.4 892.868 108.48C892.368 107.56 891.688 106.86 890.828 106.38C889.988 105.9 889.058 105.66 888.038 105.66C887.038 105.66 886.108 105.91 885.248 106.41C884.408 106.89 883.728 107.6 883.208 108.54C882.708 109.46 882.458 110.53 882.458 111.75C882.458 112.99 882.708 114.08 883.208 115.02C883.728 115.94 884.408 116.65 885.248 117.15C886.108 117.63 887.038 117.87 888.038 117.87C889.058 117.87 889.988 117.63 890.828 117.15C891.688 116.65 892.368 115.94 892.868 115.02C893.368 114.08 893.618 112.98 893.618 111.72ZM914.581 103.56V120H911.851V117.57C911.331 118.41 910.601 119.07 909.661 119.55C908.741 120.01 907.721 120.24 906.601 120.24C905.321 120.24 904.171 119.98 903.151 119.46C902.131 118.92 901.321 118.12 900.721 117.06C900.141 116 899.851 114.71 899.851 113.19V103.56H902.551V112.83C902.551 114.45 902.961 115.7 903.781 116.58C904.601 117.44 905.721 117.87 907.141 117.87C908.601 117.87 909.751 117.42 910.591 116.52C911.431 115.62 911.851 114.31 911.851 112.59V103.56H914.581ZM922.521 105.81V115.5C922.521 116.3 922.691 116.87 923.031 117.21C923.371 117.53 923.961 117.69 924.801 117.69H926.811V120H924.351C922.831 120 921.691 119.65 920.931 118.95C920.171 118.25 919.791 117.1 919.791 115.5V105.81H917.661V103.56H919.791V99.42H922.521V103.56H926.811V105.81H922.521ZM939.527 100.89C939.007 100.89 938.567 100.71 938.207 100.35C937.847 99.99 937.667 99.55 937.667 99.03C937.667 98.51 937.847 98.07 938.207 97.71C938.567 97.35 939.007 97.17 939.527 97.17C940.027 97.17 940.447 97.35 940.787 97.71C941.147 98.07 941.327 98.51 941.327 99.03C941.327 99.55 941.147 99.99 940.787 100.35C940.447 100.71 940.027 100.89 939.527 100.89ZM940.847 103.56V120H938.117V103.56H940.847ZM953.509 103.26C955.509 103.26 957.129 103.87 958.369 105.09C959.609 106.29 960.229 108.03 960.229 110.31V120H957.529V110.7C957.529 109.06 957.119 107.81 956.299 106.95C955.479 106.07 954.359 105.63 952.939 105.63C951.499 105.63 950.349 106.08 949.489 106.98C948.649 107.88 948.229 109.19 948.229 110.91V120H945.499V103.56H948.229V105.9C948.769 105.06 949.499 104.41 950.419 103.95C951.359 103.49 952.389 103.26 953.509 103.26ZM976.017 105.81V115.5C976.017 116.3 976.187 116.87 976.527 117.21C976.867 117.53 977.457 117.69 978.297 117.69H980.307V120H977.847C976.327 120 975.187 119.65 974.427 118.95C973.667 118.25 973.287 117.1 973.287 115.5V105.81H971.157V103.56H973.287V99.42H976.017V103.56H980.307V105.81H976.017ZM991.775 103.26C993.015 103.26 994.135 103.53 995.135 104.07C996.135 104.59 996.915 105.38 997.475 106.44C998.055 107.5 998.345 108.79 998.345 110.31V120H995.645V110.7C995.645 109.06 995.235 107.81 994.415 106.95C993.595 106.07 992.475 105.63 991.055 105.63C989.615 105.63 988.465 106.08 987.605 106.98C986.765 107.88 986.345 109.19 986.345 110.91V120H983.615V97.8H986.345V105.9C986.885 105.06 987.625 104.41 988.565 103.95C989.525 103.49 990.595 103.26 991.775 103.26ZM1017.8 111.15C1017.8 111.67 1017.77 112.22 1017.71 112.8H1004.57C1004.67 114.42 1005.22 115.69 1006.22 116.61C1007.24 117.51 1008.47 117.96 1009.91 117.96C1011.09 117.96 1012.07 117.69 1012.85 117.15C1013.65 116.59 1014.21 115.85 1014.53 114.93H1017.47C1017.03 116.51 1016.15 117.8 1014.83 118.8C1013.51 119.78 1011.87 120.27 1009.91 120.27C1008.35 120.27 1006.95 119.92 1005.71 119.22C1004.49 118.52 1003.53 117.53 1002.83 116.25C1002.13 114.95 1001.78 113.45 1001.78 111.75C1001.78 110.05 1002.12 108.56 1002.8 107.28C1003.48 106 1004.43 105.02 1005.65 104.34C1006.89 103.64 1008.31 103.29 1009.91 103.29C1011.47 103.29 1012.85 103.63 1014.05 104.31C1015.25 104.99 1016.17 105.93 1016.81 107.13C1017.47 108.31 1017.8 109.65 1017.8 111.15ZM1014.98 110.58C1014.98 109.54 1014.75 108.65 1014.29 107.91C1013.83 107.15 1013.2 106.58 1012.4 106.2C1011.62 105.8 1010.75 105.6 1009.79 105.6C1008.41 105.6 1007.23 106.04 1006.25 106.92C1005.29 107.8 1004.74 109.02 1004.6 110.58H1014.98ZM1044.41 111.15C1044.41 111.67 1044.38 112.22 1044.32 112.8H1031.18C1031.28 114.42 1031.83 115.69 1032.83 116.61C1033.85 117.51 1035.08 117.96 1036.52 117.96C1037.7 117.96 1038.68 117.69 1039.46 117.15C1040.26 116.59 1040.82 115.85 1041.14 114.93H1044.08C1043.64 116.51 1042.76 117.8 1041.44 118.8C1040.12 119.78 1038.48 120.27 1036.52 120.27C1034.96 120.27 1033.56 119.92 1032.32 119.22C1031.1 118.52 1030.14 117.53 1029.44 116.25C1028.74 114.95 1028.39 113.45 1028.39 111.75C1028.39 110.05 1028.73 108.56 1029.41 107.28C1030.09 106 1031.04 105.02 1032.26 104.34C1033.5 103.64 1034.92 103.29 1036.52 103.29C1038.08 103.29 1039.46 103.63 1040.66 104.31C1041.86 104.99 1042.78 105.93 1043.42 107.13C1044.08 108.31 1044.41 109.65 1044.41 111.15ZM1041.59 110.58C1041.59 109.54 1041.36 108.65 1040.9 107.91C1040.44 107.15 1039.81 106.58 1039.01 106.2C1038.23 105.8 1037.36 105.6 1036.4 105.6C1035.02 105.6 1033.84 106.04 1032.86 106.92C1031.9 107.8 1031.35 109.02 1031.21 110.58H1041.59ZM1054.7 105.81H1051.25V120H1048.52V105.81H1046.39V103.56H1048.52V102.39C1048.52 100.55 1048.99 99.21 1049.93 98.37C1050.89 97.51 1052.42 97.08 1054.52 97.08V99.36C1053.32 99.36 1052.47 99.6 1051.97 100.08C1051.49 100.54 1051.25 101.31 1051.25 102.39V103.56H1054.7V105.81ZM1064.57 105.81H1061.12V120H1058.39V105.81H1056.26V103.56H1058.39V102.39C1058.39 100.55 1058.86 99.21 1059.8 98.37C1060.76 97.51 1062.29 97.08 1064.39 97.08V99.36C1063.19 99.36 1062.34 99.6 1061.84 100.08C1061.36 100.54 1061.12 101.31 1061.12 102.39V103.56H1064.57V105.81ZM1074.93 120.27C1073.39 120.27 1071.99 119.92 1070.73 119.22C1069.49 118.52 1068.51 117.53 1067.79 116.25C1067.09 114.95 1066.74 113.45 1066.74 111.75C1066.74 110.07 1067.1 108.59 1067.82 107.31C1068.56 106.01 1069.56 105.02 1070.82 104.34C1072.08 103.64 1073.49 103.29 1075.05 103.29C1076.61 103.29 1078.02 103.64 1079.28 104.34C1080.54 105.02 1081.53 106 1082.25 107.28C1082.99 108.56 1083.36 110.05 1083.36 111.75C1083.36 113.45 1082.98 114.95 1082.22 116.25C1081.48 117.53 1080.47 118.52 1079.19 119.22C1077.91 119.92 1076.49 120.27 1074.93 120.27ZM1074.93 117.87C1075.91 117.87 1076.83 117.64 1077.69 117.18C1078.55 116.72 1079.24 116.03 1079.76 115.11C1080.3 114.19 1080.57 113.07 1080.57 111.75C1080.57 110.43 1080.31 109.31 1079.79 108.39C1079.27 107.47 1078.59 106.79 1077.75 106.35C1076.91 105.89 1076 105.66 1075.02 105.66C1074.02 105.66 1073.1 105.89 1072.26 106.35C1071.44 106.79 1070.78 107.47 1070.28 108.39C1069.78 109.31 1069.53 110.43 1069.53 111.75C1069.53 113.09 1069.77 114.22 1070.25 115.14C1070.75 116.06 1071.41 116.75 1072.23 117.21C1073.05 117.65 1073.95 117.87 1074.93 117.87ZM1089.67 106.23C1090.15 105.29 1090.83 104.56 1091.71 104.04C1092.61 103.52 1093.7 103.26 1094.98 103.26V106.08H1094.26C1091.2 106.08 1089.67 107.74 1089.67 111.06V120H1086.94V103.56H1089.67V106.23ZM1101.47 105.81V115.5C1101.47 116.3 1101.64 116.87 1101.98 117.21C1102.32 117.53 1102.91 117.69 1103.75 117.69H1105.76V120H1103.3C1101.78 120 1100.64 119.65 1099.88 118.95C1099.12 118.25 1098.74 117.1 1098.74 115.5V105.81H1096.61V103.56H1098.74V99.42H1101.47V103.56H1105.76V105.81H1101.47ZM1120.39 105.81V115.5C1120.39 116.3 1120.56 116.87 1120.9 117.21C1121.24 117.53 1121.83 117.69 1122.67 117.69H1124.68V120H1122.22C1120.7 120 1119.56 119.65 1118.8 118.95C1118.04 118.25 1117.66 117.1 1117.66 115.5V105.81H1115.53V103.56H1117.66V99.42H1120.39V103.56H1124.68V105.81H1120.39ZM1135.16 120.27C1133.62 120.27 1132.22 119.92 1130.96 119.22C1129.72 118.52 1128.74 117.53 1128.02 116.25C1127.32 114.95 1126.97 113.45 1126.97 111.75C1126.97 110.07 1127.33 108.59 1128.05 107.31C1128.79 106.01 1129.79 105.02 1131.05 104.34C1132.31 103.64 1133.72 103.29 1135.28 103.29C1136.84 103.29 1138.25 103.64 1139.51 104.34C1140.77 105.02 1141.76 106 1142.48 107.28C1143.22 108.56 1143.59 110.05 1143.59 111.75C1143.59 113.45 1143.21 114.95 1142.45 116.25C1141.71 117.53 1140.7 118.52 1139.42 119.22C1138.14 119.92 1136.72 120.27 1135.16 120.27ZM1135.16 117.87C1136.14 117.87 1137.06 117.64 1137.92 117.18C1138.78 116.72 1139.47 116.03 1139.99 115.11C1140.53 114.19 1140.8 113.07 1140.8 111.75C1140.8 110.43 1140.54 109.31 1140.02 108.39C1139.5 107.47 1138.82 106.79 1137.98 106.35C1137.14 105.89 1136.23 105.66 1135.25 105.66C1134.25 105.66 1133.33 105.89 1132.49 106.35C1131.67 106.79 1131.01 107.47 1130.51 108.39C1130.01 109.31 1129.76 110.43 1129.76 111.75C1129.76 113.09 1130 114.22 1130.48 115.14C1130.98 116.06 1131.64 116.75 1132.46 117.21C1133.28 117.65 1134.18 117.87 1135.16 117.87ZM1154.16 111.72C1154.16 110.04 1154.5 108.57 1155.18 107.31C1155.86 106.03 1156.79 105.04 1157.97 104.34C1159.17 103.64 1160.5 103.29 1161.96 103.29C1163.4 103.29 1164.65 103.6 1165.71 104.22C1166.77 104.84 1167.56 105.62 1168.08 106.56V103.56H1170.84V120H1168.08V116.94C1167.54 117.9 1166.73 118.7 1165.65 119.34C1164.59 119.96 1163.35 120.27 1161.93 120.27C1160.47 120.27 1159.15 119.91 1157.97 119.19C1156.79 118.47 1155.86 117.46 1155.18 116.16C1154.5 114.86 1154.16 113.38 1154.16 111.72ZM1168.08 111.75C1168.08 110.51 1167.83 109.43 1167.33 108.51C1166.83 107.59 1166.15 106.89 1165.29 106.41C1164.45 105.91 1163.52 105.66 1162.5 105.66C1161.48 105.66 1160.55 105.9 1159.71 106.38C1158.87 106.86 1158.2 107.56 1157.7 108.48C1157.2 109.4 1156.95 110.48 1156.95 111.72C1156.95 112.98 1157.2 114.08 1157.7 115.02C1158.2 115.94 1158.87 116.65 1159.71 117.15C1160.55 117.63 1161.48 117.87 1162.5 117.87C1163.52 117.87 1164.45 117.63 1165.29 117.15C1166.15 116.65 1166.83 115.94 1167.33 115.02C1167.83 114.08 1168.08 112.99 1168.08 111.75ZM1174.43 111.75C1174.43 110.05 1174.77 108.57 1175.45 107.31C1176.13 106.03 1177.07 105.04 1178.27 104.34C1179.49 103.64 1180.88 103.29 1182.44 103.29C1184.46 103.29 1186.12 103.78 1187.42 104.76C1188.74 105.74 1189.61 107.1 1190.03 108.84H1187.09C1186.81 107.84 1186.26 107.05 1185.44 106.47C1184.64 105.89 1183.64 105.6 1182.44 105.6C1180.88 105.6 1179.62 106.14 1178.66 107.22C1177.7 108.28 1177.22 109.79 1177.22 111.75C1177.22 113.73 1177.7 115.26 1178.66 116.34C1179.62 117.42 1180.88 117.96 1182.44 117.96C1183.64 117.96 1184.64 117.68 1185.44 117.12C1186.24 116.56 1186.79 115.76 1187.09 114.72H1190.03C1189.59 116.4 1188.71 117.75 1187.39 118.77C1186.07 119.77 1184.42 120.27 1182.44 120.27C1180.88 120.27 1179.49 119.92 1178.27 119.22C1177.07 118.52 1176.13 117.53 1175.45 116.25C1174.77 114.97 1174.43 113.47 1174.43 111.75ZM1197 105.81V115.5C1197 116.3 1197.17 116.87 1197.51 117.21C1197.85 117.53 1198.44 117.69 1199.28 117.69H1201.29V120H1198.83C1197.31 120 1196.17 119.65 1195.41 118.95C1194.65 118.25 1194.27 117.1 1194.27 115.5V105.81H1192.14V103.56H1194.27V99.42H1197V103.56H1201.29V105.81H1197ZM1219.18 103.56V120H1216.45V117.57C1215.93 118.41 1215.2 119.07 1214.26 119.55C1213.34 120.01 1212.32 120.24 1211.2 120.24C1209.92 120.24 1208.77 119.98 1207.75 119.46C1206.73 118.92 1205.92 118.12 1205.32 117.06C1204.74 116 1204.45 114.71 1204.45 113.19V103.56H1207.15V112.83C1207.15 114.45 1207.56 115.7 1208.38 116.58C1209.2 117.44 1210.32 117.87 1211.74 117.87C1213.2 117.87 1214.35 117.42 1215.19 116.52C1216.03 115.62 1216.45 114.31 1216.45 112.59V103.56H1219.18ZM1222.77 111.72C1222.77 110.04 1223.11 108.57 1223.79 107.31C1224.47 106.03 1225.4 105.04 1226.58 104.34C1227.78 103.64 1229.11 103.29 1230.57 103.29C1232.01 103.29 1233.26 103.6 1234.32 104.22C1235.38 104.84 1236.17 105.62 1236.69 106.56V103.56H1239.45V120H1236.69V116.94C1236.15 117.9 1235.34 118.7 1234.26 119.34C1233.2 119.96 1231.96 120.27 1230.54 120.27C1229.08 120.27 1227.76 119.91 1226.58 119.19C1225.4 118.47 1224.47 117.46 1223.79 116.16C1223.11 114.86 1222.77 113.38 1222.77 111.72ZM1236.69 111.75C1236.69 110.51 1236.44 109.43 1235.94 108.51C1235.44 107.59 1234.76 106.89 1233.9 106.41C1233.06 105.91 1232.13 105.66 1231.11 105.66C1230.09 105.66 1229.16 105.9 1228.32 106.38C1227.48 106.86 1226.81 107.56 1226.31 108.48C1225.81 109.4 1225.56 110.48 1225.56 111.72C1225.56 112.98 1225.81 114.08 1226.31 115.02C1226.81 115.94 1227.48 116.65 1228.32 117.15C1229.16 117.63 1230.09 117.87 1231.11 117.87C1232.13 117.87 1233.06 117.63 1233.9 117.15C1234.76 116.65 1235.44 115.94 1235.94 115.02C1236.44 114.08 1236.69 112.99 1236.69 111.75ZM1246.79 97.8V120H1244.06V97.8H1246.79ZM1254.18 97.8V120H1251.45V97.8H1254.18ZM1272.99 103.56L1263.09 127.74H1260.27L1263.51 119.82L1256.88 103.56H1259.91L1265.07 116.88L1270.17 103.56H1272.99ZM1286.46 97.8V120H1283.73V97.8H1286.46ZM1306.11 111.15C1306.11 111.67 1306.08 112.22 1306.02 112.8H1292.88C1292.98 114.42 1293.53 115.69 1294.53 116.61C1295.55 117.51 1296.78 117.96 1298.22 117.96C1299.4 117.96 1300.38 117.69 1301.16 117.15C1301.96 116.59 1302.52 115.85 1302.84 114.93H1305.78C1305.34 116.51 1304.46 117.8 1303.14 118.8C1301.82 119.78 1300.18 120.27 1298.22 120.27C1296.66 120.27 1295.26 119.92 1294.02 119.22C1292.8 118.52 1291.84 117.53 1291.14 116.25C1290.44 114.95 1290.09 113.45 1290.09 111.75C1290.09 110.05 1290.43 108.56 1291.11 107.28C1291.79 106 1292.74 105.02 1293.96 104.34C1295.2 103.64 1296.62 103.29 1298.22 103.29C1299.78 103.29 1301.16 103.63 1302.36 104.31C1303.56 104.99 1304.48 105.93 1305.12 107.13C1305.78 108.31 1306.11 109.65 1306.11 111.15ZM1303.29 110.58C1303.29 109.54 1303.06 108.65 1302.6 107.91C1302.14 107.15 1301.51 106.58 1300.71 106.2C1299.93 105.8 1299.06 105.6 1298.1 105.6C1296.72 105.6 1295.54 106.04 1294.56 106.92C1293.6 107.8 1293.05 109.02 1292.91 110.58H1303.29ZM1308.7 111.72C1308.7 110.04 1309.04 108.57 1309.72 107.31C1310.4 106.03 1311.33 105.04 1312.51 104.34C1313.71 103.64 1315.04 103.29 1316.5 103.29C1317.94 103.29 1319.19 103.6 1320.25 104.22C1321.31 104.84 1322.1 105.62 1322.62 106.56V103.56H1325.38V120H1322.62V116.94C1322.08 117.9 1321.27 118.7 1320.19 119.34C1319.13 119.96 1317.89 120.27 1316.47 120.27C1315.01 120.27 1313.69 119.91 1312.51 119.19C1311.33 118.47 1310.4 117.46 1309.72 116.16C1309.04 114.86 1308.7 113.38 1308.7 111.72ZM1322.62 111.75C1322.62 110.51 1322.37 109.43 1321.87 108.51C1321.37 107.59 1320.69 106.89 1319.83 106.41C1318.99 105.91 1318.06 105.66 1317.04 105.66C1316.02 105.66 1315.09 105.9 1314.25 106.38C1313.41 106.86 1312.74 107.56 1312.24 108.48C1311.74 109.4 1311.49 110.48 1311.49 111.72C1311.49 112.98 1311.74 114.08 1312.24 115.02C1312.74 115.94 1313.41 116.65 1314.25 117.15C1315.09 117.63 1316.02 117.87 1317.04 117.87C1318.06 117.87 1318.99 117.63 1319.83 117.15C1320.69 116.65 1321.37 115.94 1321.87 115.02C1322.37 114.08 1322.62 112.99 1322.62 111.75ZM1336.11 117.48L1341.21 103.56H1344.12L1337.67 120H1334.49L1328.04 103.56H1330.98L1336.11 117.48ZM1361.81 111.15C1361.81 111.67 1361.78 112.22 1361.72 112.8H1348.58C1348.68 114.42 1349.23 115.69 1350.23 116.61C1351.25 117.51 1352.48 117.96 1353.92 117.96C1355.1 117.96 1356.08 117.69 1356.86 117.15C1357.66 116.59 1358.22 115.85 1358.54 114.93H1361.48C1361.04 116.51 1360.16 117.8 1358.84 118.8C1357.52 119.78 1355.88 120.27 1353.92 120.27C1352.36 120.27 1350.96 119.92 1349.72 119.22C1348.5 118.52 1347.54 117.53 1346.84 116.25C1346.14 114.95 1345.79 113.45 1345.79 111.75C1345.79 110.05 1346.13 108.56 1346.81 107.28C1347.49 106 1348.44 105.02 1349.66 104.34C1350.9 103.64 1352.32 103.29 1353.92 103.29C1355.48 103.29 1356.86 103.63 1358.06 104.31C1359.26 104.99 1360.18 105.93 1360.82 107.13C1361.48 108.31 1361.81 109.65 1361.81 111.15ZM1358.99 110.58C1358.99 109.54 1358.76 108.65 1358.3 107.91C1357.84 107.15 1357.21 106.58 1356.41 106.2C1355.63 105.8 1354.76 105.6 1353.8 105.6C1352.42 105.6 1351.24 106.04 1350.26 106.92C1349.3 107.8 1348.75 109.02 1348.61 110.58H1358.99ZM1372.39 111.72C1372.39 110.04 1372.73 108.57 1373.41 107.31C1374.09 106.03 1375.02 105.04 1376.2 104.34C1377.4 103.64 1378.73 103.29 1380.19 103.29C1381.63 103.29 1382.88 103.6 1383.94 104.22C1385 104.84 1385.79 105.62 1386.31 106.56V103.56H1389.07V120H1386.31V116.94C1385.77 117.9 1384.96 118.7 1383.88 119.34C1382.82 119.96 1381.58 120.27 1380.16 120.27C1378.7 120.27 1377.38 119.91 1376.2 119.19C1375.02 118.47 1374.09 117.46 1373.41 116.16C1372.73 114.86 1372.39 113.38 1372.39 111.72ZM1386.31 111.75C1386.31 110.51 1386.06 109.43 1385.56 108.51C1385.06 107.59 1384.38 106.89 1383.52 106.41C1382.68 105.91 1381.75 105.66 1380.73 105.66C1379.71 105.66 1378.78 105.9 1377.94 106.38C1377.1 106.86 1376.43 107.56 1375.93 108.48C1375.43 109.4 1375.18 110.48 1375.18 111.72C1375.18 112.98 1375.43 114.08 1375.93 115.02C1376.43 115.94 1377.1 116.65 1377.94 117.15C1378.78 117.63 1379.71 117.87 1380.73 117.87C1381.75 117.87 1382.68 117.63 1383.52 117.15C1384.38 116.65 1385.06 115.94 1385.56 115.02C1386.06 114.08 1386.31 112.99 1386.31 111.75ZM1404.41 106.23C1404.89 105.29 1405.57 104.56 1406.45 104.04C1407.35 103.52 1408.44 103.26 1409.72 103.26V106.08H1409C1405.94 106.08 1404.41 107.74 1404.41 111.06V120H1401.68V103.56H1404.41V106.23ZM1427.87 111.15C1427.87 111.67 1427.84 112.22 1427.78 112.8H1414.64C1414.74 114.42 1415.29 115.69 1416.29 116.61C1417.31 117.51 1418.54 117.96 1419.98 117.96C1421.16 117.96 1422.14 117.69 1422.92 117.15C1423.72 116.59 1424.28 115.85 1424.6 114.93H1427.54C1427.1 116.51 1426.22 117.8 1424.9 118.8C1423.58 119.78 1421.94 120.27 1419.98 120.27C1418.42 120.27 1417.02 119.92 1415.78 119.22C1414.56 118.52 1413.6 117.53 1412.9 116.25C1412.2 114.95 1411.85 113.45 1411.85 111.75C1411.85 110.05 1412.19 108.56 1412.87 107.28C1413.55 106 1414.5 105.02 1415.72 104.34C1416.96 103.64 1418.38 103.29 1419.98 103.29C1421.54 103.29 1422.92 103.63 1424.12 104.31C1425.32 104.99 1426.24 105.93 1426.88 107.13C1427.54 108.31 1427.87 109.65 1427.87 111.15ZM1425.05 110.58C1425.05 109.54 1424.82 108.65 1424.36 107.91C1423.9 107.15 1423.27 106.58 1422.47 106.2C1421.69 105.8 1420.82 105.6 1419.86 105.6C1418.48 105.6 1417.3 106.04 1416.32 106.92C1415.36 107.8 1414.81 109.02 1414.67 110.58H1425.05ZM1437.6 117.48L1442.7 103.56H1445.61L1439.16 120H1435.98L1429.53 103.56H1432.47L1437.6 117.48ZM1449.7 100.89C1449.18 100.89 1448.74 100.71 1448.38 100.35C1448.02 99.99 1447.84 99.55 1447.84 99.03C1447.84 98.51 1448.02 98.07 1448.38 97.71C1448.74 97.35 1449.18 97.17 1449.7 97.17C1450.2 97.17 1450.62 97.35 1450.96 97.71C1451.32 98.07 1451.5 98.51 1451.5 99.03C1451.5 99.55 1451.32 99.99 1450.96 100.35C1450.62 100.71 1450.2 100.89 1449.7 100.89ZM1451.02 103.56V120H1448.29V103.56H1451.02ZM1470.68 111.15C1470.68 111.67 1470.65 112.22 1470.59 112.8H1457.45C1457.55 114.42 1458.1 115.69 1459.1 116.61C1460.12 117.51 1461.35 117.96 1462.79 117.96C1463.97 117.96 1464.95 117.69 1465.73 117.15C1466.53 116.59 1467.09 115.85 1467.41 114.93H1470.35C1469.91 116.51 1469.03 117.8 1467.71 118.8C1466.39 119.78 1464.75 120.27 1462.79 120.27C1461.23 120.27 1459.83 119.92 1458.59 119.22C1457.37 118.52 1456.41 117.53 1455.71 116.25C1455.01 114.95 1454.66 113.45 1454.66 111.75C1454.66 110.05 1455 108.56 1455.68 107.28C1456.36 106 1457.31 105.02 1458.53 104.34C1459.77 103.64 1461.19 103.29 1462.79 103.29C1464.35 103.29 1465.73 103.63 1466.93 104.31C1468.13 104.99 1469.05 105.93 1469.69 107.13C1470.35 108.31 1470.68 109.65 1470.68 111.15ZM1467.86 110.58C1467.86 109.54 1467.63 108.65 1467.17 107.91C1466.71 107.15 1466.08 106.58 1465.28 106.2C1464.5 105.8 1463.63 105.6 1462.67 105.6C1461.29 105.6 1460.11 106.04 1459.13 106.92C1458.17 107.8 1457.62 109.02 1457.48 110.58H1467.86ZM1496.18 103.56L1491.05 120H1488.23L1484.27 106.95L1480.31 120H1477.49L1472.33 103.56H1475.12L1478.9 117.36L1482.98 103.56H1485.77L1489.76 117.39L1493.48 103.56H1496.18ZM1501.71 116.22L1498.35 124.29H1496.52L1498.71 116.22H1501.71ZM839.64 155.81V165.5C839.64 166.3 839.81 166.87 840.15 167.21C840.49 167.53 841.08 167.69 841.92 167.69H843.93V170H841.47C839.95 170 838.81 169.65 838.05 168.95C837.29 168.25 836.91 167.1 836.91 165.5V155.81H834.78V153.56H836.91V149.42H839.64V153.56H843.93V155.81H839.64ZM855.398 153.26C856.638 153.26 857.758 153.53 858.758 154.07C859.758 154.59 860.538 155.38 861.098 156.44C861.678 157.5 861.968 158.79 861.968 160.31V170H859.268V160.7C859.268 159.06 858.858 157.81 858.038 156.95C857.218 156.07 856.098 155.63 854.678 155.63C853.238 155.63 852.088 156.08 851.228 156.98C850.388 157.88 849.968 159.19 849.968 160.91V170H847.238V147.8H849.968V155.9C850.508 155.06 851.248 154.41 852.188 153.95C853.148 153.49 854.218 153.26 855.398 153.26ZM881.427 161.15C881.427 161.67 881.397 162.22 881.337 162.8H868.197C868.297 164.42 868.847 165.69 869.847 166.61C870.867 167.51 872.097 167.96 873.537 167.96C874.717 167.96 875.697 167.69 876.477 167.15C877.277 166.59 877.837 165.85 878.157 164.93H881.097C880.657 166.51 879.777 167.8 878.457 168.8C877.137 169.78 875.497 170.27 873.537 170.27C871.977 170.27 870.577 169.92 869.337 169.22C868.117 168.52 867.157 167.53 866.457 166.25C865.757 164.95 865.407 163.45 865.407 161.75C865.407 160.05 865.747 158.56 866.427 157.28C867.107 156 868.057 155.02 869.277 154.34C870.517 153.64 871.937 153.29 873.537 153.29C875.097 153.29 876.477 153.63 877.677 154.31C878.877 154.99 879.797 155.93 880.437 157.13C881.097 158.31 881.427 159.65 881.427 161.15ZM878.607 160.58C878.607 159.54 878.377 158.65 877.917 157.91C877.457 157.15 876.827 156.58 876.027 156.2C875.247 155.8 874.377 155.6 873.417 155.6C872.037 155.6 870.857 156.04 869.877 156.92C868.917 157.8 868.367 159.02 868.227 160.58H878.607ZM892.009 161.72C892.009 160.04 892.349 158.57 893.029 157.31C893.709 156.03 894.639 155.04 895.819 154.34C897.019 153.64 898.359 153.29 899.839 153.29C901.119 153.29 902.309 153.59 903.409 154.19C904.509 154.77 905.349 155.54 905.929 156.5V147.8H908.689V170H905.929V166.91C905.389 167.89 904.589 168.7 903.529 169.34C902.469 169.96 901.229 170.27 899.809 170.27C898.349 170.27 897.019 169.91 895.819 169.19C894.639 168.47 893.709 167.46 893.029 166.16C892.349 164.86 892.009 163.38 892.009 161.72ZM905.929 161.75C905.929 160.51 905.679 159.43 905.179 158.51C904.679 157.59 903.999 156.89 903.139 156.41C902.299 155.91 901.369 155.66 900.349 155.66C899.329 155.66 898.399 155.9 897.559 156.38C896.719 156.86 896.049 157.56 895.549 158.48C895.049 159.4 894.799 160.48 894.799 161.72C894.799 162.98 895.049 164.08 895.549 165.02C896.049 165.94 896.719 166.65 897.559 167.15C898.399 167.63 899.329 167.87 900.349 167.87C901.369 167.87 902.299 167.63 903.139 167.15C903.999 166.65 904.679 165.94 905.179 165.02C905.679 164.08 905.929 162.99 905.929 161.75ZM914.712 150.89C914.192 150.89 913.752 150.71 913.392 150.35C913.032 149.99 912.852 149.55 912.852 149.03C912.852 148.51 913.032 148.07 913.392 147.71C913.752 147.35 914.192 147.17 914.712 147.17C915.212 147.17 915.632 147.35 915.972 147.71C916.332 148.07 916.512 148.51 916.512 149.03C916.512 149.55 916.332 149.99 915.972 150.35C915.632 150.71 915.212 150.89 914.712 150.89ZM916.032 153.56V170H913.302V153.56H916.032ZM928.695 153.26C930.695 153.26 932.315 153.87 933.555 155.09C934.795 156.29 935.415 158.03 935.415 160.31V170H932.715V160.7C932.715 159.06 932.305 157.81 931.485 156.95C930.665 156.07 929.545 155.63 928.125 155.63C926.685 155.63 925.535 156.08 924.675 156.98C923.835 157.88 923.415 159.19 923.415 160.91V170H920.685V153.56H923.415V155.9C923.955 155.06 924.685 154.41 925.605 153.95C926.545 153.49 927.575 153.26 928.695 153.26ZM941.284 150.89C940.764 150.89 940.324 150.71 939.964 150.35C939.604 149.99 939.424 149.55 939.424 149.03C939.424 148.51 939.604 148.07 939.964 147.71C940.324 147.35 940.764 147.17 941.284 147.17C941.784 147.17 942.204 147.35 942.544 147.71C942.904 148.07 943.084 148.51 943.084 149.03C943.084 149.55 942.904 149.99 942.544 150.35C942.204 150.71 941.784 150.89 941.284 150.89ZM942.604 153.56V170H939.874V153.56H942.604ZM955.267 153.26C957.267 153.26 958.887 153.87 960.127 155.09C961.367 156.29 961.987 158.03 961.987 160.31V170H959.287V160.7C959.287 159.06 958.877 157.81 958.057 156.95C957.237 156.07 956.117 155.63 954.697 155.63C953.257 155.63 952.107 156.08 951.247 156.98C950.407 157.88 949.987 159.19 949.987 160.91V170H947.257V153.56H949.987V155.9C950.527 155.06 951.257 154.41 952.177 153.95C953.117 153.49 954.147 153.26 955.267 153.26ZM973.227 153.29C974.647 153.29 975.887 153.6 976.947 154.22C978.027 154.84 978.827 155.62 979.347 156.56V153.56H982.107V170.36C982.107 171.86 981.787 173.19 981.147 174.35C980.507 175.53 979.587 176.45 978.387 177.11C977.207 177.77 975.827 178.1 974.247 178.1C972.087 178.1 970.287 177.59 968.847 176.57C967.407 175.55 966.557 174.16 966.297 172.4H968.997C969.297 173.4 969.917 174.2 970.857 174.8C971.797 175.42 972.927 175.73 974.247 175.73C975.747 175.73 976.967 175.26 977.907 174.32C978.867 173.38 979.347 172.06 979.347 170.36V166.91C978.807 167.87 978.007 168.67 976.947 169.31C975.887 169.95 974.647 170.27 973.227 170.27C971.767 170.27 970.437 169.91 969.237 169.19C968.057 168.47 967.127 167.46 966.447 166.16C965.767 164.86 965.427 163.38 965.427 161.72C965.427 160.04 965.767 158.57 966.447 157.31C967.127 156.03 968.057 155.04 969.237 154.34C970.437 153.64 971.767 153.29 973.227 153.29ZM979.347 161.75C979.347 160.51 979.097 159.43 978.597 158.51C978.097 157.59 977.417 156.89 976.557 156.41C975.717 155.91 974.787 155.66 973.767 155.66C972.747 155.66 971.817 155.9 970.977 156.38C970.137 156.86 969.467 157.56 968.967 158.48C968.467 159.4 968.217 160.48 968.217 161.72C968.217 162.98 968.467 164.08 968.967 165.02C969.467 165.94 970.137 166.65 970.977 167.15C971.817 167.63 972.747 167.87 973.767 167.87C974.787 167.87 975.717 167.63 976.557 167.15C977.417 166.65 978.097 165.94 978.597 165.02C979.097 164.08 979.347 162.99 979.347 161.75ZM1009.72 161.15C1009.72 161.67 1009.69 162.22 1009.63 162.8H996.488C996.588 164.42 997.138 165.69 998.138 166.61C999.158 167.51 1000.39 167.96 1001.83 167.96C1003.01 167.96 1003.99 167.69 1004.77 167.15C1005.57 166.59 1006.13 165.85 1006.45 164.93H1009.39C1008.95 166.51 1008.07 167.8 1006.75 168.8C1005.43 169.78 1003.79 170.27 1001.83 170.27C1000.27 170.27 998.868 169.92 997.628 169.22C996.408 168.52 995.448 167.53 994.748 166.25C994.048 164.95 993.698 163.45 993.698 161.75C993.698 160.05 994.038 158.56 994.718 157.28C995.398 156 996.348 155.02 997.568 154.34C998.808 153.64 1000.23 153.29 1001.83 153.29C1003.39 153.29 1004.77 153.63 1005.97 154.31C1007.17 154.99 1008.09 155.93 1008.73 157.13C1009.39 158.31 1009.72 159.65 1009.72 161.15ZM1006.9 160.58C1006.9 159.54 1006.67 158.65 1006.21 157.91C1005.75 157.15 1005.12 156.58 1004.32 156.2C1003.54 155.8 1002.67 155.6 1001.71 155.6C1000.33 155.6 999.148 156.04 998.168 156.92C997.208 157.8 996.658 159.02 996.518 160.58H1006.9ZM1021.9 170L1018 163.88L1014.25 170H1011.4L1016.71 161.84L1011.4 153.56H1014.49L1018.39 159.65L1022.11 153.56H1024.96L1019.68 161.69L1024.99 170H1021.9ZM1030.41 156.59C1030.95 155.65 1031.75 154.87 1032.81 154.25C1033.89 153.61 1035.14 153.29 1036.56 153.29C1038.02 153.29 1039.34 153.64 1040.52 154.34C1041.72 155.04 1042.66 156.03 1043.34 157.31C1044.02 158.57 1044.36 160.04 1044.36 161.72C1044.36 163.38 1044.02 164.86 1043.34 166.16C1042.66 167.46 1041.72 168.47 1040.52 169.19C1039.34 169.91 1038.02 170.27 1036.56 170.27C1035.16 170.27 1033.92 169.96 1032.84 169.34C1031.78 168.7 1030.97 167.91 1030.41 166.97V177.8H1027.68V153.56H1030.41V156.59ZM1041.57 161.72C1041.57 160.48 1041.32 159.4 1040.82 158.48C1040.32 157.56 1039.64 156.86 1038.78 156.38C1037.94 155.9 1037.01 155.66 1035.99 155.66C1034.99 155.66 1034.06 155.91 1033.2 156.41C1032.36 156.89 1031.68 157.6 1031.16 158.54C1030.66 159.46 1030.41 160.53 1030.41 161.75C1030.41 162.99 1030.66 164.08 1031.16 165.02C1031.68 165.94 1032.36 166.65 1033.2 167.15C1034.06 167.63 1034.99 167.87 1035.99 167.87C1037.01 167.87 1037.94 167.63 1038.78 167.15C1039.64 166.65 1040.32 165.94 1040.82 165.02C1041.32 164.08 1041.57 162.98 1041.57 161.72ZM1062.95 161.15C1062.95 161.67 1062.92 162.22 1062.86 162.8H1049.72C1049.82 164.42 1050.37 165.69 1051.37 166.61C1052.39 167.51 1053.62 167.96 1055.06 167.96C1056.24 167.96 1057.22 167.69 1058 167.15C1058.8 166.59 1059.36 165.85 1059.68 164.93H1062.62C1062.18 166.51 1061.3 167.8 1059.98 168.8C1058.66 169.78 1057.02 170.27 1055.06 170.27C1053.5 170.27 1052.1 169.92 1050.86 169.22C1049.64 168.52 1048.68 167.53 1047.98 166.25C1047.28 164.95 1046.93 163.45 1046.93 161.75C1046.93 160.05 1047.27 158.56 1047.95 157.28C1048.63 156 1049.58 155.02 1050.8 154.34C1052.04 153.64 1053.46 153.29 1055.06 153.29C1056.62 153.29 1058 153.63 1059.2 154.31C1060.4 154.99 1061.32 155.93 1061.96 157.13C1062.62 158.31 1062.95 159.65 1062.95 161.15ZM1060.13 160.58C1060.13 159.54 1059.9 158.65 1059.44 157.91C1058.98 157.15 1058.35 156.58 1057.55 156.2C1056.77 155.8 1055.9 155.6 1054.94 155.6C1053.56 155.6 1052.38 156.04 1051.4 156.92C1050.44 157.8 1049.89 159.02 1049.75 160.58H1060.13ZM1069.28 156.23C1069.76 155.29 1070.44 154.56 1071.32 154.04C1072.22 153.52 1073.31 153.26 1074.59 153.26V156.08H1073.87C1070.81 156.08 1069.28 157.74 1069.28 161.06V170H1066.55V153.56H1069.28V156.23ZM1079.16 150.89C1078.64 150.89 1078.2 150.71 1077.84 150.35C1077.48 149.99 1077.3 149.55 1077.3 149.03C1077.3 148.51 1077.48 148.07 1077.84 147.71C1078.2 147.35 1078.64 147.17 1079.16 147.17C1079.66 147.17 1080.08 147.35 1080.42 147.71C1080.78 148.07 1080.96 148.51 1080.96 149.03C1080.96 149.55 1080.78 149.99 1080.42 150.35C1080.08 150.71 1079.66 150.89 1079.16 150.89ZM1080.48 153.56V170H1077.75V153.56H1080.48ZM1100.13 161.15C1100.13 161.67 1100.1 162.22 1100.04 162.8H1086.9C1087 164.42 1087.55 165.69 1088.55 166.61C1089.57 167.51 1090.8 167.96 1092.24 167.96C1093.42 167.96 1094.4 167.69 1095.18 167.15C1095.98 166.59 1096.54 165.85 1096.86 164.93H1099.8C1099.36 166.51 1098.48 167.8 1097.16 168.8C1095.84 169.78 1094.2 170.27 1092.24 170.27C1090.68 170.27 1089.28 169.92 1088.04 169.22C1086.82 168.52 1085.86 167.53 1085.16 166.25C1084.46 164.95 1084.11 163.45 1084.11 161.75C1084.11 160.05 1084.45 158.56 1085.13 157.28C1085.81 156 1086.76 155.02 1087.98 154.34C1089.22 153.64 1090.64 153.29 1092.24 153.29C1093.8 153.29 1095.18 153.63 1096.38 154.31C1097.58 154.99 1098.5 155.93 1099.14 157.13C1099.8 158.31 1100.13 159.65 1100.13 161.15ZM1097.31 160.58C1097.31 159.54 1097.08 158.65 1096.62 157.91C1096.16 157.15 1095.53 156.58 1094.73 156.2C1093.95 155.8 1093.08 155.6 1092.12 155.6C1090.74 155.6 1089.56 156.04 1088.58 156.92C1087.62 157.8 1087.07 159.02 1086.93 160.58H1097.31ZM1111.74 153.26C1113.74 153.26 1115.36 153.87 1116.6 155.09C1117.84 156.29 1118.46 158.03 1118.46 160.31V170H1115.76V160.7C1115.76 159.06 1115.35 157.81 1114.53 156.95C1113.71 156.07 1112.59 155.63 1111.17 155.63C1109.73 155.63 1108.58 156.08 1107.72 156.98C1106.88 157.88 1106.46 159.19 1106.46 160.91V170H1103.73V153.56H1106.46V155.9C1107 155.06 1107.73 154.41 1108.65 153.95C1109.59 153.49 1110.62 153.26 1111.74 153.26ZM1121.9 161.75C1121.9 160.05 1122.24 158.57 1122.92 157.31C1123.6 156.03 1124.54 155.04 1125.74 154.34C1126.96 153.64 1128.35 153.29 1129.91 153.29C1131.93 153.29 1133.59 153.78 1134.89 154.76C1136.21 155.74 1137.08 157.1 1137.5 158.84H1134.56C1134.28 157.84 1133.73 157.05 1132.91 156.47C1132.11 155.89 1131.11 155.6 1129.91 155.6C1128.35 155.6 1127.09 156.14 1126.13 157.22C1125.17 158.28 1124.69 159.79 1124.69 161.75C1124.69 163.73 1125.17 165.26 1126.13 166.34C1127.09 167.42 1128.35 167.96 1129.91 167.96C1131.11 167.96 1132.11 167.68 1132.91 167.12C1133.71 166.56 1134.26 165.76 1134.56 164.72H1137.5C1137.06 166.4 1136.18 167.75 1134.86 168.77C1133.54 169.77 1131.89 170.27 1129.91 170.27C1128.35 170.27 1126.96 169.92 1125.74 169.22C1124.54 168.52 1123.6 167.53 1122.92 166.25C1122.24 164.97 1121.9 163.47 1121.9 161.75ZM1156.14 161.15C1156.14 161.67 1156.11 162.22 1156.05 162.8H1142.91C1143.01 164.42 1143.56 165.69 1144.56 166.61C1145.58 167.51 1146.81 167.96 1148.25 167.96C1149.43 167.96 1150.41 167.69 1151.19 167.15C1151.99 166.59 1152.55 165.85 1152.87 164.93H1155.81C1155.37 166.51 1154.49 167.8 1153.17 168.8C1151.85 169.78 1150.21 170.27 1148.25 170.27C1146.69 170.27 1145.29 169.92 1144.05 169.22C1142.83 168.52 1141.87 167.53 1141.17 166.25C1140.47 164.95 1140.12 163.45 1140.12 161.75C1140.12 160.05 1140.46 158.56 1141.14 157.28C1141.82 156 1142.77 155.02 1143.99 154.34C1145.23 153.64 1146.65 153.29 1148.25 153.29C1149.81 153.29 1151.19 153.63 1152.39 154.31C1153.59 154.99 1154.51 155.93 1155.15 157.13C1155.81 158.31 1156.14 159.65 1156.14 161.15ZM1153.32 160.58C1153.32 159.54 1153.09 158.65 1152.63 157.91C1152.17 157.15 1151.54 156.58 1150.74 156.2C1149.96 155.8 1149.09 155.6 1148.13 155.6C1146.75 155.6 1145.57 156.04 1144.59 156.92C1143.63 157.8 1143.08 159.02 1142.94 160.58H1153.32ZM1187.52 153.26C1188.8 153.26 1189.94 153.53 1190.94 154.07C1191.94 154.59 1192.73 155.38 1193.31 156.44C1193.89 157.5 1194.18 158.79 1194.18 160.31V170H1191.48V160.7C1191.48 159.06 1191.07 157.81 1190.25 156.95C1189.45 156.07 1188.36 155.63 1186.98 155.63C1185.56 155.63 1184.43 156.09 1183.59 157.01C1182.75 157.91 1182.33 159.22 1182.33 160.94V170H1179.63V160.7C1179.63 159.06 1179.22 157.81 1178.4 156.95C1177.6 156.07 1176.51 155.63 1175.13 155.63C1173.71 155.63 1172.58 156.09 1171.74 157.01C1170.9 157.91 1170.48 159.22 1170.48 160.94V170H1167.75V153.56H1170.48V155.93C1171.02 155.07 1171.74 154.41 1172.64 153.95C1173.56 153.49 1174.57 153.26 1175.67 153.26C1177.05 153.26 1178.27 153.57 1179.33 154.19C1180.39 154.81 1181.18 155.72 1181.7 156.92C1182.16 155.76 1182.92 154.86 1183.98 154.22C1185.04 153.58 1186.22 153.26 1187.52 153.26ZM1213.23 153.56V170H1210.5V167.57C1209.98 168.41 1209.25 169.07 1208.31 169.55C1207.39 170.01 1206.37 170.24 1205.25 170.24C1203.97 170.24 1202.82 169.98 1201.8 169.46C1200.78 168.92 1199.97 168.12 1199.37 167.06C1198.79 166 1198.5 164.71 1198.5 163.19V153.56H1201.2V162.83C1201.2 164.45 1201.61 165.7 1202.43 166.58C1203.25 167.44 1204.37 167.87 1205.79 167.87C1207.25 167.87 1208.4 167.42 1209.24 166.52C1210.08 165.62 1210.5 164.31 1210.5 162.59V153.56H1213.23ZM1223.66 170.27C1222.4 170.27 1221.27 170.06 1220.27 169.64C1219.27 169.2 1218.48 168.6 1217.9 167.84C1217.32 167.06 1217 166.17 1216.94 165.17H1219.76C1219.84 165.99 1220.22 166.66 1220.9 167.18C1221.6 167.7 1222.51 167.96 1223.63 167.96C1224.67 167.96 1225.49 167.73 1226.09 167.27C1226.69 166.81 1226.99 166.23 1226.99 165.53C1226.99 164.81 1226.67 164.28 1226.03 163.94C1225.39 163.58 1224.4 163.23 1223.06 162.89C1221.84 162.57 1220.84 162.25 1220.06 161.93C1219.3 161.59 1218.64 161.1 1218.08 160.46C1217.54 159.8 1217.27 158.94 1217.27 157.88C1217.27 157.04 1217.52 156.27 1218.02 155.57C1218.52 154.87 1219.23 154.32 1220.15 153.92C1221.07 153.5 1222.12 153.29 1223.3 153.29C1225.12 153.29 1226.59 153.75 1227.71 154.67C1228.83 155.59 1229.43 156.85 1229.51 158.45H1226.78C1226.72 157.59 1226.37 156.9 1225.73 156.38C1225.11 155.86 1224.27 155.6 1223.21 155.6C1222.23 155.6 1221.45 155.81 1220.87 156.23C1220.29 156.65 1220 157.2 1220 157.88C1220 158.42 1220.17 158.87 1220.51 159.23C1220.87 159.57 1221.31 159.85 1221.83 160.07C1222.37 160.27 1223.11 160.5 1224.05 160.76C1225.23 161.08 1226.19 161.4 1226.93 161.72C1227.67 162.02 1228.3 162.48 1228.82 163.1C1229.36 163.72 1229.64 164.53 1229.66 165.53C1229.66 166.43 1229.41 167.24 1228.91 167.96C1228.41 168.68 1227.7 169.25 1226.78 169.67C1225.88 170.07 1224.84 170.27 1223.66 170.27ZM1236.85 155.81V165.5C1236.85 166.3 1237.02 166.87 1237.36 167.21C1237.7 167.53 1238.29 167.69 1239.13 167.69H1241.14V170H1238.68C1237.16 170 1236.02 169.65 1235.26 168.95C1234.5 168.25 1234.12 167.1 1234.12 165.5V155.81H1231.99V153.56H1234.12V149.42H1236.85V153.56H1241.14V155.81H1236.85ZM1255.17 156.62C1255.73 155.64 1256.55 154.84 1257.63 154.22C1258.71 153.6 1259.94 153.29 1261.32 153.29C1262.8 153.29 1264.13 153.64 1265.31 154.34C1266.49 155.04 1267.42 156.03 1268.1 157.31C1268.78 158.57 1269.12 160.04 1269.12 161.72C1269.12 163.38 1268.78 164.86 1268.1 166.16C1267.42 167.46 1266.48 168.47 1265.28 169.19C1264.1 169.91 1262.78 170.27 1261.32 170.27C1259.9 170.27 1258.65 169.96 1257.57 169.34C1256.51 168.72 1255.71 167.93 1255.17 166.97V170H1252.44V147.8H1255.17V156.62ZM1266.33 161.72C1266.33 160.48 1266.08 159.4 1265.58 158.48C1265.08 157.56 1264.4 156.86 1263.54 156.38C1262.7 155.9 1261.77 155.66 1260.75 155.66C1259.75 155.66 1258.82 155.91 1257.96 156.41C1257.12 156.89 1256.44 157.6 1255.92 158.54C1255.42 159.46 1255.17 160.53 1255.17 161.75C1255.17 162.99 1255.42 164.08 1255.92 165.02C1256.44 165.94 1257.12 166.65 1257.96 167.15C1258.82 167.63 1259.75 167.87 1260.75 167.87C1261.77 167.87 1262.7 167.63 1263.54 167.15C1264.4 166.65 1265.08 165.94 1265.58 165.02C1266.08 164.08 1266.33 162.98 1266.33 161.72ZM1287.72 161.15C1287.72 161.67 1287.69 162.22 1287.63 162.8H1274.49C1274.59 164.42 1275.14 165.69 1276.14 166.61C1277.16 167.51 1278.39 167.96 1279.83 167.96C1281.01 167.96 1281.99 167.69 1282.77 167.15C1283.57 166.59 1284.13 165.85 1284.45 164.93H1287.39C1286.95 166.51 1286.07 167.8 1284.75 168.8C1283.43 169.78 1281.79 170.27 1279.83 170.27C1278.27 170.27 1276.87 169.92 1275.63 169.22C1274.41 168.52 1273.45 167.53 1272.75 166.25C1272.05 164.95 1271.7 163.45 1271.7 161.75C1271.7 160.05 1272.04 158.56 1272.72 157.28C1273.4 156 1274.35 155.02 1275.57 154.34C1276.81 153.64 1278.23 153.29 1279.83 153.29C1281.39 153.29 1282.77 153.63 1283.97 154.31C1285.17 154.99 1286.09 155.93 1286.73 157.13C1287.39 158.31 1287.72 159.65 1287.72 161.15ZM1284.9 160.58C1284.9 159.54 1284.67 158.65 1284.21 157.91C1283.75 157.15 1283.12 156.58 1282.32 156.2C1281.54 155.8 1280.67 155.6 1279.71 155.6C1278.33 155.6 1277.15 156.04 1276.17 156.92C1275.21 157.8 1274.66 159.02 1274.52 160.58H1284.9ZM1314.32 161.15C1314.32 161.67 1314.29 162.22 1314.23 162.8H1301.09C1301.19 164.42 1301.74 165.69 1302.74 166.61C1303.76 167.51 1304.99 167.96 1306.43 167.96C1307.61 167.96 1308.59 167.69 1309.37 167.15C1310.17 166.59 1310.73 165.85 1311.05 164.93H1313.99C1313.55 166.51 1312.67 167.8 1311.35 168.8C1310.03 169.78 1308.39 170.27 1306.43 170.27C1304.87 170.27 1303.47 169.92 1302.23 169.22C1301.01 168.52 1300.05 167.53 1299.35 166.25C1298.65 164.95 1298.3 163.45 1298.3 161.75C1298.3 160.05 1298.64 158.56 1299.32 157.28C1300 156 1300.95 155.02 1302.17 154.34C1303.41 153.64 1304.83 153.29 1306.43 153.29C1307.99 153.29 1309.37 153.63 1310.57 154.31C1311.77 154.99 1312.69 155.93 1313.33 157.13C1313.99 158.31 1314.32 159.65 1314.32 161.15ZM1311.5 160.58C1311.5 159.54 1311.27 158.65 1310.81 157.91C1310.35 157.15 1309.72 156.58 1308.92 156.2C1308.14 155.8 1307.27 155.6 1306.31 155.6C1304.93 155.6 1303.75 156.04 1302.77 156.92C1301.81 157.8 1301.26 159.02 1301.12 160.58H1311.5ZM1326.5 170L1322.6 163.88L1318.85 170H1316L1321.31 161.84L1316 153.56H1319.09L1322.99 159.65L1326.71 153.56H1329.56L1324.28 161.69L1329.59 170H1326.5ZM1331.26 161.75C1331.26 160.05 1331.6 158.57 1332.28 157.31C1332.96 156.03 1333.9 155.04 1335.1 154.34C1336.32 153.64 1337.71 153.29 1339.27 153.29C1341.29 153.29 1342.95 153.78 1344.25 154.76C1345.57 155.74 1346.44 157.1 1346.86 158.84H1343.92C1343.64 157.84 1343.09 157.05 1342.27 156.47C1341.47 155.89 1340.47 155.6 1339.27 155.6C1337.71 155.6 1336.45 156.14 1335.49 157.22C1334.53 158.28 1334.05 159.79 1334.05 161.75C1334.05 163.73 1334.53 165.26 1335.49 166.34C1336.45 167.42 1337.71 167.96 1339.27 167.96C1340.47 167.96 1341.47 167.68 1342.27 167.12C1343.07 166.56 1343.62 165.76 1343.92 164.72H1346.86C1346.42 166.4 1345.54 167.75 1344.22 168.77C1342.9 169.77 1341.25 170.27 1339.27 170.27C1337.71 170.27 1336.32 169.92 1335.1 169.22C1333.9 168.52 1332.96 167.53 1332.28 166.25C1331.6 164.97 1331.26 163.47 1331.26 161.75ZM1365.5 161.15C1365.5 161.67 1365.47 162.22 1365.41 162.8H1352.27C1352.37 164.42 1352.92 165.69 1353.92 166.61C1354.94 167.51 1356.17 167.96 1357.61 167.96C1358.79 167.96 1359.77 167.69 1360.55 167.15C1361.35 166.59 1361.91 165.85 1362.23 164.93H1365.17C1364.73 166.51 1363.85 167.8 1362.53 168.8C1361.21 169.78 1359.57 170.27 1357.61 170.27C1356.05 170.27 1354.65 169.92 1353.41 169.22C1352.19 168.52 1351.23 167.53 1350.53 166.25C1349.83 164.95 1349.48 163.45 1349.48 161.75C1349.48 160.05 1349.82 158.56 1350.5 157.28C1351.18 156 1352.13 155.02 1353.35 154.34C1354.59 153.64 1356.01 153.29 1357.61 153.29C1359.17 153.29 1360.55 153.63 1361.75 154.31C1362.95 154.99 1363.87 155.93 1364.51 157.13C1365.17 158.31 1365.5 159.65 1365.5 161.15ZM1362.68 160.58C1362.68 159.54 1362.45 158.65 1361.99 157.91C1361.53 157.15 1360.9 156.58 1360.1 156.2C1359.32 155.8 1358.45 155.6 1357.49 155.6C1356.11 155.6 1354.93 156.04 1353.95 156.92C1352.99 157.8 1352.44 159.02 1352.3 160.58H1362.68ZM1371.83 156.59C1372.37 155.65 1373.17 154.87 1374.23 154.25C1375.31 153.61 1376.56 153.29 1377.98 153.29C1379.44 153.29 1380.76 153.64 1381.94 154.34C1383.14 155.04 1384.08 156.03 1384.76 157.31C1385.44 158.57 1385.78 160.04 1385.78 161.72C1385.78 163.38 1385.44 164.86 1384.76 166.16C1384.08 167.46 1383.14 168.47 1381.94 169.19C1380.76 169.91 1379.44 170.27 1377.98 170.27C1376.58 170.27 1375.34 169.96 1374.26 169.34C1373.2 168.7 1372.39 167.91 1371.83 166.97V177.8H1369.1V153.56H1371.83V156.59ZM1382.99 161.72C1382.99 160.48 1382.74 159.4 1382.24 158.48C1381.74 157.56 1381.06 156.86 1380.2 156.38C1379.36 155.9 1378.43 155.66 1377.41 155.66C1376.41 155.66 1375.48 155.91 1374.62 156.41C1373.78 156.89 1373.1 157.6 1372.58 158.54C1372.08 159.46 1371.83 160.53 1371.83 161.75C1371.83 162.99 1372.08 164.08 1372.58 165.02C1373.1 165.94 1373.78 166.65 1374.62 167.15C1375.48 167.63 1376.41 167.87 1377.41 167.87C1378.43 167.87 1379.36 167.63 1380.2 167.15C1381.06 166.65 1381.74 165.94 1382.24 165.02C1382.74 164.08 1382.99 162.98 1382.99 161.72ZM1392.71 155.81V165.5C1392.71 166.3 1392.88 166.87 1393.22 167.21C1393.56 167.53 1394.15 167.69 1394.99 167.69H1397V170H1394.54C1393.02 170 1391.88 169.65 1391.12 168.95C1390.36 168.25 1389.98 167.1 1389.98 165.5V155.81H1387.85V153.56H1389.98V149.42H1392.71V153.56H1397V155.81H1392.71ZM1401.71 150.89C1401.19 150.89 1400.75 150.71 1400.39 150.35C1400.03 149.99 1399.85 149.55 1399.85 149.03C1399.85 148.51 1400.03 148.07 1400.39 147.71C1400.75 147.35 1401.19 147.17 1401.71 147.17C1402.21 147.17 1402.63 147.35 1402.97 147.71C1403.33 148.07 1403.51 148.51 1403.51 149.03C1403.51 149.55 1403.33 149.99 1402.97 150.35C1402.63 150.71 1402.21 150.89 1401.71 150.89ZM1403.03 153.56V170H1400.3V153.56H1403.03ZM1414.86 170.27C1413.32 170.27 1411.92 169.92 1410.66 169.22C1409.42 168.52 1408.44 167.53 1407.72 166.25C1407.02 164.95 1406.67 163.45 1406.67 161.75C1406.67 160.07 1407.03 158.59 1407.75 157.31C1408.49 156.01 1409.49 155.02 1410.75 154.34C1412.01 153.64 1413.42 153.29 1414.98 153.29C1416.54 153.29 1417.95 153.64 1419.21 154.34C1420.47 155.02 1421.46 156 1422.18 157.28C1422.92 158.56 1423.29 160.05 1423.29 161.75C1423.29 163.45 1422.91 164.95 1422.15 166.25C1421.41 167.53 1420.4 168.52 1419.12 169.22C1417.84 169.92 1416.42 170.27 1414.86 170.27ZM1414.86 167.87C1415.84 167.87 1416.76 167.64 1417.62 167.18C1418.48 166.72 1419.17 166.03 1419.69 165.11C1420.23 164.19 1420.5 163.07 1420.5 161.75C1420.5 160.43 1420.24 159.31 1419.72 158.39C1419.2 157.47 1418.52 156.79 1417.68 156.35C1416.84 155.89 1415.93 155.66 1414.95 155.66C1413.95 155.66 1413.03 155.89 1412.19 156.35C1411.37 156.79 1410.71 157.47 1410.21 158.39C1409.71 159.31 1409.46 160.43 1409.46 161.75C1409.46 163.09 1409.7 164.22 1410.18 165.14C1410.68 166.06 1411.34 166.75 1412.16 167.21C1412.98 167.65 1413.88 167.87 1414.86 167.87ZM1434.89 153.26C1436.89 153.26 1438.51 153.87 1439.75 155.09C1440.99 156.29 1441.61 158.03 1441.61 160.31V170H1438.91V160.7C1438.91 159.06 1438.5 157.81 1437.68 156.95C1436.86 156.07 1435.74 155.63 1434.32 155.63C1432.88 155.63 1431.73 156.08 1430.87 156.98C1430.03 157.88 1429.61 159.19 1429.61 160.91V170H1426.88V153.56H1429.61V155.9C1430.15 155.06 1430.88 154.41 1431.8 153.95C1432.74 153.49 1433.77 153.26 1434.89 153.26ZM1445.05 161.72C1445.05 160.04 1445.39 158.57 1446.07 157.31C1446.75 156.03 1447.68 155.04 1448.86 154.34C1450.06 153.64 1451.39 153.29 1452.85 153.29C1454.29 153.29 1455.54 153.6 1456.6 154.22C1457.66 154.84 1458.45 155.62 1458.97 156.56V153.56H1461.73V170H1458.97V166.94C1458.43 167.9 1457.62 168.7 1456.54 169.34C1455.48 169.96 1454.24 170.27 1452.82 170.27C1451.36 170.27 1450.04 169.91 1448.86 169.19C1447.68 168.47 1446.75 167.46 1446.07 166.16C1445.39 164.86 1445.05 163.38 1445.05 161.72ZM1458.97 161.75C1458.97 160.51 1458.72 159.43 1458.22 158.51C1457.72 157.59 1457.04 156.89 1456.18 156.41C1455.34 155.91 1454.41 155.66 1453.39 155.66C1452.37 155.66 1451.44 155.9 1450.6 156.38C1449.76 156.86 1449.09 157.56 1448.59 158.48C1448.09 159.4 1447.84 160.48 1447.84 161.72C1447.84 162.98 1448.09 164.08 1448.59 165.02C1449.09 165.94 1449.76 166.65 1450.6 167.15C1451.44 167.63 1452.37 167.87 1453.39 167.87C1454.41 167.87 1455.34 167.63 1456.18 167.15C1457.04 166.65 1457.72 165.94 1458.22 165.02C1458.72 164.08 1458.97 162.99 1458.97 161.75ZM1469.07 147.8V170H1466.34V147.8H1469.07ZM1488.89 170.27C1487.35 170.27 1485.95 169.92 1484.69 169.22C1483.45 168.52 1482.47 167.53 1481.75 166.25C1481.05 164.95 1480.7 163.45 1480.7 161.75C1480.7 160.07 1481.06 158.59 1481.78 157.31C1482.52 156.01 1483.52 155.02 1484.78 154.34C1486.04 153.64 1487.45 153.29 1489.01 153.29C1490.57 153.29 1491.98 153.64 1493.24 154.34C1494.5 155.02 1495.49 156 1496.21 157.28C1496.95 158.56 1497.32 160.05 1497.32 161.75C1497.32 163.45 1496.94 164.95 1496.18 166.25C1495.44 167.53 1494.43 168.52 1493.15 169.22C1491.87 169.92 1490.45 170.27 1488.89 170.27ZM1488.89 167.87C1489.87 167.87 1490.79 167.64 1491.65 167.18C1492.51 166.72 1493.2 166.03 1493.72 165.11C1494.26 164.19 1494.53 163.07 1494.53 161.75C1494.53 160.43 1494.27 159.31 1493.75 158.39C1493.23 157.47 1492.55 156.79 1491.71 156.35C1490.87 155.89 1489.96 155.66 1488.98 155.66C1487.98 155.66 1487.06 155.89 1486.22 156.35C1485.4 156.79 1484.74 157.47 1484.24 158.39C1483.74 159.31 1483.49 160.43 1483.49 161.75C1483.49 163.09 1483.73 164.22 1484.21 165.14C1484.71 166.06 1485.37 166.75 1486.19 167.21C1487.01 167.65 1487.91 167.87 1488.89 167.87ZM1503.64 156.23C1504.12 155.29 1504.8 154.56 1505.68 154.04C1506.58 153.52 1507.67 153.26 1508.95 153.26V156.08H1508.23C1505.17 156.08 1503.64 157.74 1503.64 161.06V170H1500.91V153.56H1503.64V156.23ZM835.29 211.72C835.29 210.04 835.63 208.57 836.31 207.31C836.99 206.03 837.92 205.04 839.1 204.34C840.3 203.64 841.63 203.29 843.09 203.29C844.53 203.29 845.78 203.6 846.84 204.22C847.9 204.84 848.69 205.62 849.21 206.56V203.56H851.97V220H849.21V216.94C848.67 217.9 847.86 218.7 846.78 219.34C845.72 219.96 844.48 220.27 843.06 220.27C841.6 220.27 840.28 219.91 839.1 219.19C837.92 218.47 836.99 217.46 836.31 216.16C835.63 214.86 835.29 213.38 835.29 211.72ZM849.21 211.75C849.21 210.51 848.96 209.43 848.46 208.51C847.96 207.59 847.28 206.89 846.42 206.41C845.58 205.91 844.65 205.66 843.63 205.66C842.61 205.66 841.68 205.9 840.84 206.38C840 206.86 839.33 207.56 838.83 208.48C838.33 209.4 838.08 210.48 838.08 211.72C838.08 212.98 838.33 214.08 838.83 215.02C839.33 215.94 840 216.65 840.84 217.15C841.68 217.63 842.61 217.87 843.63 217.87C844.65 217.87 845.58 217.63 846.42 217.15C847.28 216.65 847.96 215.94 848.46 215.02C848.96 214.08 849.21 212.99 849.21 211.75ZM859.913 205.81V215.5C859.913 216.3 860.083 216.87 860.423 217.21C860.763 217.53 861.353 217.69 862.193 217.69H864.203V220H861.743C860.223 220 859.083 219.65 858.323 218.95C857.563 218.25 857.183 217.1 857.183 215.5V205.81H855.053V203.56H857.183V199.42H859.913V203.56H864.203V205.81H859.913ZM870.241 206.23C870.721 205.29 871.401 204.56 872.281 204.04C873.181 203.52 874.271 203.26 875.551 203.26V206.08H874.831C871.771 206.08 870.241 207.74 870.241 211.06V220H867.511V203.56H870.241V206.23ZM885.873 220.27C884.333 220.27 882.933 219.92 881.673 219.22C880.433 218.52 879.453 217.53 878.733 216.25C878.033 214.95 877.683 213.45 877.683 211.75C877.683 210.07 878.043 208.59 878.763 207.31C879.503 206.01 880.503 205.02 881.763 204.34C883.023 203.64 884.433 203.29 885.993 203.29C887.553 203.29 888.963 203.64 890.223 204.34C891.483 205.02 892.473 206 893.193 207.28C893.933 208.56 894.303 210.05 894.303 211.75C894.303 213.45 893.923 214.95 893.163 216.25C892.423 217.53 891.413 218.52 890.133 219.22C888.853 219.92 887.433 220.27 885.873 220.27ZM885.873 217.87C886.853 217.87 887.773 217.64 888.633 217.18C889.493 216.72 890.183 216.03 890.703 215.11C891.243 214.19 891.513 213.07 891.513 211.75C891.513 210.43 891.253 209.31 890.733 208.39C890.213 207.47 889.533 206.79 888.693 206.35C887.853 205.89 886.943 205.66 885.963 205.66C884.963 205.66 884.043 205.89 883.203 206.35C882.383 206.79 881.723 207.47 881.223 208.39C880.723 209.31 880.473 210.43 880.473 211.75C880.473 213.09 880.713 214.22 881.193 215.14C881.693 216.06 882.353 216.75 883.173 217.21C883.993 217.65 884.893 217.87 885.873 217.87ZM896.872 211.75C896.872 210.05 897.212 208.57 897.892 207.31C898.572 206.03 899.512 205.04 900.712 204.34C901.932 203.64 903.322 203.29 904.882 203.29C906.902 203.29 908.562 203.78 909.862 204.76C911.182 205.74 912.052 207.1 912.472 208.84H909.532C909.252 207.84 908.702 207.05 907.882 206.47C907.082 205.89 906.082 205.6 904.882 205.6C903.322 205.6 902.062 206.14 901.102 207.22C900.142 208.28 899.662 209.79 899.662 211.75C899.662 213.73 900.142 215.26 901.102 216.34C902.062 217.42 903.322 217.96 904.882 217.96C906.082 217.96 907.082 217.68 907.882 217.12C908.682 216.56 909.232 215.76 909.532 214.72H912.472C912.032 216.4 911.152 217.75 909.832 218.77C908.512 219.77 906.862 220.27 904.882 220.27C903.322 220.27 901.932 219.92 900.712 219.22C899.512 218.52 898.572 217.53 897.892 216.25C897.212 214.97 896.872 213.47 896.872 211.75ZM917.525 200.89C917.005 200.89 916.565 200.71 916.205 200.35C915.845 199.99 915.665 199.55 915.665 199.03C915.665 198.51 915.845 198.07 916.205 197.71C916.565 197.35 917.005 197.17 917.525 197.17C918.025 197.17 918.445 197.35 918.785 197.71C919.145 198.07 919.325 198.51 919.325 199.03C919.325 199.55 919.145 199.99 918.785 200.35C918.445 200.71 918.025 200.89 917.525 200.89ZM918.845 203.56V220H916.115V203.56H918.845ZM930.668 220.27C929.128 220.27 927.728 219.92 926.468 219.22C925.228 218.52 924.248 217.53 923.528 216.25C922.828 214.95 922.478 213.45 922.478 211.75C922.478 210.07 922.838 208.59 923.558 207.31C924.298 206.01 925.298 205.02 926.558 204.34C927.818 203.64 929.228 203.29 930.788 203.29C932.348 203.29 933.758 203.64 935.018 204.34C936.278 205.02 937.268 206 937.988 207.28C938.728 208.56 939.098 210.05 939.098 211.75C939.098 213.45 938.718 214.95 937.958 216.25C937.218 217.53 936.208 218.52 934.928 219.22C933.648 219.92 932.228 220.27 930.668 220.27ZM930.668 217.87C931.648 217.87 932.568 217.64 933.428 217.18C934.288 216.72 934.978 216.03 935.498 215.11C936.038 214.19 936.308 213.07 936.308 211.75C936.308 210.43 936.048 209.31 935.528 208.39C935.008 207.47 934.328 206.79 933.488 206.35C932.648 205.89 931.738 205.66 930.758 205.66C929.758 205.66 928.838 205.89 927.998 206.35C927.178 206.79 926.518 207.47 926.018 208.39C925.518 209.31 925.268 210.43 925.268 211.75C925.268 213.09 925.508 214.22 925.988 215.14C926.488 216.06 927.148 216.75 927.968 217.21C928.788 217.65 929.688 217.87 930.668 217.87ZM957.267 203.56V220H954.537V217.57C954.017 218.41 953.287 219.07 952.347 219.55C951.427 220.01 950.407 220.24 949.287 220.24C948.007 220.24 946.857 219.98 945.837 219.46C944.817 218.92 944.007 218.12 943.407 217.06C942.827 216 942.537 214.71 942.537 213.19V203.56H945.237V212.83C945.237 214.45 945.647 215.7 946.467 216.58C947.287 217.44 948.407 217.87 949.827 217.87C951.287 217.87 952.437 217.42 953.277 216.52C954.117 215.62 954.537 214.31 954.537 212.59V203.56H957.267ZM967.696 220.27C966.436 220.27 965.306 220.06 964.306 219.64C963.306 219.2 962.516 218.6 961.936 217.84C961.356 217.06 961.036 216.17 960.976 215.17H963.796C963.876 215.99 964.256 216.66 964.936 217.18C965.636 217.7 966.546 217.96 967.666 217.96C968.706 217.96 969.526 217.73 970.126 217.27C970.726 216.81 971.026 216.23 971.026 215.53C971.026 214.81 970.706 214.28 970.066 213.94C969.426 213.58 968.436 213.23 967.096 212.89C965.876 212.57 964.876 212.25 964.096 211.93C963.336 211.59 962.676 211.1 962.116 210.46C961.576 209.8 961.306 208.94 961.306 207.88C961.306 207.04 961.556 206.27 962.056 205.57C962.556 204.87 963.266 204.32 964.186 203.92C965.106 203.5 966.156 203.29 967.336 203.29C969.156 203.29 970.626 203.75 971.746 204.67C972.866 205.59 973.466 206.85 973.546 208.45H970.816C970.756 207.59 970.406 206.9 969.766 206.38C969.146 205.86 968.306 205.6 967.246 205.6C966.266 205.6 965.486 205.81 964.906 206.23C964.326 206.65 964.036 207.2 964.036 207.88C964.036 208.42 964.206 208.87 964.546 209.23C964.906 209.57 965.346 209.85 965.866 210.07C966.406 210.27 967.146 210.5 968.086 210.76C969.266 211.08 970.226 211.4 970.966 211.72C971.706 212.02 972.336 212.48 972.856 213.1C973.396 213.72 973.676 214.53 973.696 215.53C973.696 216.43 973.446 217.24 972.946 217.96C972.446 218.68 971.736 219.25 970.816 219.67C969.916 220.07 968.876 220.27 967.696 220.27ZM978.42 220.18C977.9 220.18 977.46 220 977.1 219.64C976.74 219.28 976.56 218.84 976.56 218.32C976.56 217.8 976.74 217.36 977.1 217C977.46 216.64 977.9 216.46 978.42 216.46C978.92 216.46 979.34 216.64 979.68 217C980.04 217.36 980.22 217.8 980.22 218.32C980.22 218.84 980.04 219.28 979.68 219.64C979.34 220 978.92 220.18 978.42 220.18Z" fill="#505050"/>
<path d="M194.16 123L188 112.12H185.36V123H179.76V95.08H190.24C192.4 95.08 194.24 95.4667 195.76 96.24C197.28 96.9867 198.413 98.0133 199.16 99.32C199.933 100.6 200.32 102.04 200.32 103.64C200.32 105.48 199.787 107.147 198.72 108.64C197.653 110.107 196.067 111.12 193.96 111.68L200.64 123H194.16ZM185.36 107.92H190.04C191.56 107.92 192.693 107.56 193.44 106.84C194.187 106.093 194.56 105.067 194.56 103.76C194.56 102.48 194.187 101.493 193.44 100.8C192.693 100.08 191.56 99.72 190.04 99.72H185.36V107.92ZM225.985 111.44C225.985 112.24 225.932 112.96 225.825 113.6H209.625C209.758 115.2 210.318 116.453 211.305 117.36C212.292 118.267 213.505 118.72 214.945 118.72C217.025 118.72 218.505 117.827 219.385 116.04H225.425C224.785 118.173 223.558 119.933 221.745 121.32C219.932 122.68 217.705 123.36 215.065 123.36C212.932 123.36 211.012 122.893 209.305 121.96C207.625 121 206.305 119.653 205.345 117.92C204.412 116.187 203.945 114.187 203.945 111.92C203.945 109.627 204.412 107.613 205.345 105.88C206.278 104.147 207.585 102.813 209.265 101.88C210.945 100.947 212.878 100.48 215.065 100.48C217.172 100.48 219.052 100.933 220.705 101.84C222.385 102.747 223.678 104.04 224.585 105.72C225.518 107.373 225.985 109.28 225.985 111.44ZM220.185 109.84C220.158 108.4 219.638 107.253 218.625 106.4C217.612 105.52 216.372 105.08 214.905 105.08C213.518 105.08 212.345 105.507 211.385 106.36C210.452 107.187 209.878 108.347 209.665 109.84H220.185ZM239.313 117.84L244.913 100.84H250.873L242.673 123H235.873L227.713 100.84H233.713L239.313 117.84ZM256.858 98.2C255.871 98.2 255.044 97.8933 254.378 97.28C253.738 96.64 253.418 95.8533 253.418 94.92C253.418 93.9867 253.738 93.2133 254.378 92.6C255.044 91.96 255.871 91.64 256.858 91.64C257.844 91.64 258.658 91.96 259.298 92.6C259.964 93.2133 260.298 93.9867 260.298 94.92C260.298 95.8533 259.964 96.64 259.298 97.28C258.658 97.8933 257.844 98.2 256.858 98.2ZM259.618 100.84V123H254.018V100.84H259.618ZM285.751 111.44C285.751 112.24 285.697 112.96 285.591 113.6H269.391C269.524 115.2 270.084 116.453 271.071 117.36C272.057 118.267 273.271 118.72 274.711 118.72C276.791 118.72 278.271 117.827 279.151 116.04H285.191C284.551 118.173 283.324 119.933 281.511 121.32C279.697 122.68 277.471 123.36 274.831 123.36C272.697 123.36 270.777 122.893 269.071 121.96C267.391 121 266.071 119.653 265.111 117.92C264.177 116.187 263.711 114.187 263.711 111.92C263.711 109.627 264.177 107.613 265.111 105.88C266.044 104.147 267.351 102.813 269.031 101.88C270.711 100.947 272.644 100.48 274.831 100.48C276.937 100.48 278.817 100.933 280.471 101.84C282.151 102.747 283.444 104.04 284.351 105.72C285.284 107.373 285.751 109.28 285.751 111.44ZM279.951 109.84C279.924 108.4 279.404 107.253 278.391 106.4C277.377 105.52 276.137 105.08 274.671 105.08C273.284 105.08 272.111 105.507 271.151 106.36C270.217 107.187 269.644 108.347 269.431 109.84H279.951ZM320.558 100.84L314.078 123H308.038L303.998 107.52L299.958 123H293.878L287.358 100.84H293.038L296.958 117.72L301.198 100.84H307.118L311.278 117.68L315.198 100.84H320.558ZM332.068 123.36C330.255 123.36 328.628 123.04 327.188 122.4C325.748 121.733 324.601 120.84 323.748 119.72C322.921 118.6 322.468 117.36 322.388 116H328.028C328.135 116.853 328.548 117.56 329.268 118.12C330.015 118.68 330.935 118.96 332.028 118.96C333.095 118.96 333.921 118.747 334.508 118.32C335.121 117.893 335.428 117.347 335.428 116.68C335.428 115.96 335.055 115.427 334.308 115.08C333.588 114.707 332.428 114.307 330.828 113.88C329.175 113.48 327.815 113.067 326.748 112.64C325.708 112.213 324.801 111.56 324.028 110.68C323.281 109.8 322.908 108.613 322.908 107.12C322.908 105.893 323.255 104.773 323.948 103.76C324.668 102.747 325.681 101.947 326.988 101.36C328.321 100.773 329.881 100.48 331.668 100.48C334.308 100.48 336.415 101.147 337.988 102.48C339.561 103.787 340.428 105.56 340.588 107.8H335.228C335.148 106.92 334.775 106.227 334.108 105.72C333.468 105.187 332.601 104.92 331.508 104.92C330.495 104.92 329.708 105.107 329.148 105.48C328.615 105.853 328.348 106.373 328.348 107.04C328.348 107.787 328.721 108.36 329.468 108.76C330.215 109.133 331.375 109.52 332.948 109.92C334.548 110.32 335.868 110.733 336.908 111.16C337.948 111.587 338.841 112.253 339.588 113.16C340.361 114.04 340.761 115.213 340.788 116.68C340.788 117.96 340.428 119.107 339.708 120.12C339.015 121.133 338.001 121.933 336.668 122.52C335.361 123.08 333.828 123.36 332.068 123.36ZM365.076 105.44H361.196V123H355.516V105.44H352.996V100.84H355.516V99.72C355.516 97 356.29 95 357.836 93.72C359.383 92.44 361.716 91.84 364.836 91.92V96.64C363.476 96.6133 362.53 96.84 361.996 97.32C361.463 97.8 361.196 98.6667 361.196 99.92V100.84H365.076V105.44ZM367.265 111.84C367.265 109.6 367.705 107.613 368.585 105.88C369.492 104.147 370.705 102.813 372.225 101.88C373.772 100.947 375.492 100.48 377.385 100.48C379.039 100.48 380.479 100.813 381.705 101.48C382.959 102.147 383.959 102.987 384.705 104V100.84H390.345V123H384.705V119.76C383.985 120.8 382.985 121.667 381.705 122.36C380.452 123.027 378.999 123.36 377.345 123.36C375.479 123.36 373.772 122.88 372.225 121.92C370.705 120.96 369.492 119.613 368.585 117.88C367.705 116.12 367.265 114.107 367.265 111.84ZM384.705 111.92C384.705 110.56 384.439 109.4 383.905 108.44C383.372 107.453 382.652 106.707 381.745 106.2C380.839 105.667 379.865 105.4 378.825 105.4C377.785 105.4 376.825 105.653 375.945 106.16C375.065 106.667 374.345 107.413 373.785 108.4C373.252 109.36 372.985 110.507 372.985 111.84C372.985 113.173 373.252 114.347 373.785 115.36C374.345 116.347 375.065 117.107 375.945 117.64C376.852 118.173 377.812 118.44 378.825 118.44C379.865 118.44 380.839 118.187 381.745 117.68C382.652 117.147 383.372 116.4 383.905 115.44C384.439 114.453 384.705 113.28 384.705 111.92ZM401.415 93.4V123H395.815V93.4H401.415ZM412.548 93.4V123H406.948V93.4H412.548ZM448.532 100.84V123H442.892V120.2C442.172 121.16 441.225 121.92 440.052 122.48C438.905 123.013 437.652 123.28 436.292 123.28C434.558 123.28 433.025 122.92 431.692 122.2C430.358 121.453 429.305 120.373 428.532 118.96C427.785 117.52 427.412 115.813 427.412 113.84V100.84H433.012V113.04C433.012 114.8 433.452 116.16 434.332 117.12C435.212 118.053 436.412 118.52 437.932 118.52C439.478 118.52 440.692 118.053 441.572 117.12C442.452 116.16 442.892 114.8 442.892 113.04V100.84H448.532ZM466.337 100.52C468.977 100.52 471.11 101.36 472.737 103.04C474.364 104.693 475.177 107.013 475.177 110V123H469.577V110.76C469.577 109 469.137 107.653 468.257 106.72C467.377 105.76 466.177 105.28 464.657 105.28C463.11 105.28 461.884 105.76 460.977 106.72C460.097 107.653 459.657 109 459.657 110.76V123H454.057V100.84H459.657V103.6C460.404 102.64 461.35 101.893 462.497 101.36C463.67 100.8 464.95 100.52 466.337 100.52ZM479.062 111.84C479.062 109.6 479.502 107.613 480.382 105.88C481.289 104.147 482.516 102.813 484.062 101.88C485.609 100.947 487.329 100.48 489.222 100.48C490.662 100.48 492.036 100.8 493.342 101.44C494.649 102.053 495.689 102.88 496.462 103.92V93.4H502.142V123H496.462V119.72C495.769 120.813 494.796 121.693 493.542 122.36C492.289 123.027 490.836 123.36 489.182 123.36C487.316 123.36 485.609 122.88 484.062 121.92C482.516 120.96 481.289 119.613 480.382 117.88C479.502 116.12 479.062 114.107 479.062 111.84ZM496.502 111.92C496.502 110.56 496.236 109.4 495.702 108.44C495.169 107.453 494.449 106.707 493.542 106.2C492.636 105.667 491.662 105.4 490.622 105.4C489.582 105.4 488.622 105.653 487.742 106.16C486.862 106.667 486.142 107.413 485.582 108.4C485.049 109.36 484.782 110.507 484.782 111.84C484.782 113.173 485.049 114.347 485.582 115.36C486.142 116.347 486.862 117.107 487.742 117.64C488.649 118.173 489.609 118.44 490.622 118.44C491.662 118.44 492.636 118.187 493.542 117.68C494.449 117.147 495.169 116.4 495.702 115.44C496.236 114.453 496.502 113.28 496.502 111.92ZM528.212 111.44C528.212 112.24 528.158 112.96 528.052 113.6H511.852C511.985 115.2 512.545 116.453 513.532 117.36C514.518 118.267 515.732 118.72 517.172 118.72C519.252 118.72 520.732 117.827 521.612 116.04H527.652C527.012 118.173 525.785 119.933 523.972 121.32C522.158 122.68 519.932 123.36 517.292 123.36C515.158 123.36 513.238 122.893 511.532 121.96C509.852 121 508.532 119.653 507.572 117.92C506.638 116.187 506.172 114.187 506.172 111.92C506.172 109.627 506.638 107.613 507.572 105.88C508.505 104.147 509.812 102.813 511.492 101.88C513.172 100.947 515.105 100.48 517.292 100.48C519.398 100.48 521.278 100.933 522.932 101.84C524.612 102.747 525.905 104.04 526.812 105.72C527.745 107.373 528.212 109.28 528.212 111.44ZM522.412 109.84C522.385 108.4 521.865 107.253 520.852 106.4C519.838 105.52 518.598 105.08 517.132 105.08C515.745 105.08 514.572 105.507 513.612 106.36C512.678 107.187 512.105 108.347 511.892 109.84H522.412ZM537.899 104.28C538.619 103.107 539.552 102.187 540.699 101.52C541.872 100.853 543.206 100.52 544.699 100.52V106.4H543.219C541.459 106.4 540.126 106.813 539.219 107.64C538.339 108.467 537.899 109.907 537.899 111.96V123H532.299V100.84H537.899V104.28ZM578.602 111.44C578.602 112.24 578.549 112.96 578.442 113.6H562.242C562.376 115.2 562.936 116.453 563.922 117.36C564.909 118.267 566.122 118.72 567.562 118.72C569.642 118.72 571.122 117.827 572.002 116.04H578.042C577.402 118.173 576.176 119.933 574.362 121.32C572.549 122.68 570.322 123.36 567.682 123.36C565.549 123.36 563.629 122.893 561.922 121.96C560.242 121 558.922 119.653 557.962 117.92C557.029 116.187 556.562 114.187 556.562 111.92C556.562 109.627 557.029 107.613 557.962 105.88C558.896 104.147 560.202 102.813 561.882 101.88C563.562 100.947 565.496 100.48 567.682 100.48C569.789 100.48 571.669 100.933 573.322 101.84C575.002 102.747 576.296 104.04 577.202 105.72C578.136 107.373 578.602 109.28 578.602 111.44ZM572.802 109.84C572.776 108.4 572.256 107.253 571.242 106.4C570.229 105.52 568.989 105.08 567.522 105.08C566.136 105.08 564.962 105.507 564.002 106.36C563.069 107.187 562.496 108.347 562.282 109.84H572.802ZM594.93 123L590.37 116.12L586.33 123H580.33L587.57 111.88L580.25 100.84H586.57L591.09 107.68L595.17 100.84H601.17L593.89 111.88L601.25 123H594.93ZM610.811 105.44V116.16C610.811 116.907 610.985 117.453 611.331 117.8C611.705 118.12 612.318 118.28 613.171 118.28H615.771V123H612.251C607.531 123 605.171 120.707 605.171 116.12V105.44H602.531V100.84H605.171V95.36H610.811V100.84H615.771V105.44H610.811ZM625.399 104.28C626.119 103.107 627.052 102.187 628.199 101.52C629.372 100.853 630.706 100.52 632.199 100.52V106.4H630.719C628.959 106.4 627.626 106.813 626.719 107.64C625.839 108.467 625.399 109.907 625.399 111.96V123H619.799V100.84H625.399V104.28ZM656.571 111.44C656.571 112.24 656.518 112.96 656.411 113.6H640.211C640.344 115.2 640.904 116.453 641.891 117.36C642.878 118.267 644.091 118.72 645.531 118.72C647.611 118.72 649.091 117.827 649.971 116.04H656.011C655.371 118.173 654.144 119.933 652.331 121.32C650.518 122.68 648.291 123.36 645.651 123.36C643.518 123.36 641.598 122.893 639.891 121.96C638.211 121 636.891 119.653 635.931 117.92C634.998 116.187 634.531 114.187 634.531 111.92C634.531 109.627 634.998 107.613 635.931 105.88C636.864 104.147 638.171 102.813 639.851 101.88C641.531 100.947 643.464 100.48 645.651 100.48C647.758 100.48 649.638 100.933 651.291 101.84C652.971 102.747 654.264 104.04 655.171 105.72C656.104 107.373 656.571 109.28 656.571 111.44ZM650.771 109.84C650.744 108.4 650.224 107.253 649.211 106.4C648.198 105.52 646.958 105.08 645.491 105.08C644.104 105.08 642.931 105.507 641.971 106.36C641.038 107.187 640.464 108.347 640.251 109.84H650.771ZM688.178 100.52C690.898 100.52 693.085 101.36 694.738 103.04C696.418 104.693 697.258 107.013 697.258 110V123H691.658V110.76C691.658 109.027 691.218 107.707 690.338 106.8C689.458 105.867 688.258 105.4 686.738 105.4C685.218 105.4 684.005 105.867 683.098 106.8C682.218 107.707 681.778 109.027 681.778 110.76V123H676.178V110.76C676.178 109.027 675.738 107.707 674.858 106.8C673.978 105.867 672.778 105.4 671.258 105.4C669.712 105.4 668.485 105.867 667.578 106.8C666.698 107.707 666.258 109.027 666.258 110.76V123H660.658V100.84H666.258V103.52C666.978 102.587 667.898 101.853 669.018 101.32C670.165 100.787 671.418 100.52 672.778 100.52C674.512 100.52 676.058 100.893 677.418 101.64C678.778 102.36 679.832 103.4 680.578 104.76C681.298 103.48 682.338 102.453 683.698 101.68C685.085 100.907 686.578 100.52 688.178 100.52ZM723.173 111.44C723.173 112.24 723.119 112.96 723.013 113.6H706.813C706.946 115.2 707.506 116.453 708.493 117.36C709.479 118.267 710.693 118.72 712.133 118.72C714.213 118.72 715.693 117.827 716.573 116.04H722.613C721.973 118.173 720.746 119.933 718.933 121.32C717.119 122.68 714.893 123.36 712.253 123.36C710.119 123.36 708.199 122.893 706.493 121.96C704.813 121 703.493 119.653 702.533 117.92C701.599 116.187 701.132 114.187 701.132 111.92C701.132 109.627 701.599 107.613 702.533 105.88C703.466 104.147 704.773 102.813 706.453 101.88C708.133 100.947 710.066 100.48 712.253 100.48C714.359 100.48 716.239 100.933 717.893 101.84C719.573 102.747 720.866 104.04 721.773 105.72C722.706 107.373 723.173 109.28 723.173 111.44ZM717.373 109.84C717.346 108.4 716.826 107.253 715.813 106.4C714.799 105.52 713.559 105.08 712.093 105.08C710.706 105.08 709.533 105.507 708.573 106.36C707.639 107.187 707.066 108.347 706.853 109.84H717.373ZM200.36 161.44C200.36 162.24 200.307 162.96 200.2 163.6H184C184.133 165.2 184.693 166.453 185.68 167.36C186.667 168.267 187.88 168.72 189.32 168.72C191.4 168.72 192.88 167.827 193.76 166.04H199.8C199.16 168.173 197.933 169.933 196.12 171.32C194.307 172.68 192.08 173.36 189.44 173.36C187.307 173.36 185.387 172.893 183.68 171.96C182 171 180.68 169.653 179.72 167.92C178.787 166.187 178.32 164.187 178.32 161.92C178.32 159.627 178.787 157.613 179.72 155.88C180.653 154.147 181.96 152.813 183.64 151.88C185.32 150.947 187.253 150.48 189.44 150.48C191.547 150.48 193.427 150.933 195.08 151.84C196.76 152.747 198.053 154.04 198.96 155.72C199.893 157.373 200.36 159.28 200.36 161.44ZM194.56 159.84C194.533 158.4 194.013 157.253 193 156.4C191.987 155.52 190.747 155.08 189.28 155.08C187.893 155.08 186.72 155.507 185.76 156.36C184.827 157.187 184.253 158.347 184.04 159.84H194.56ZM216.688 173L212.128 166.12L208.088 173H202.088L209.328 161.88L202.008 150.84H208.328L212.848 157.68L216.928 150.84H222.928L215.648 161.88L223.008 173H216.688ZM231.649 154.04C232.369 153.027 233.356 152.187 234.609 151.52C235.889 150.827 237.342 150.48 238.969 150.48C240.862 150.48 242.569 150.947 244.089 151.88C245.636 152.813 246.849 154.147 247.729 155.88C248.636 157.587 249.089 159.573 249.089 161.84C249.089 164.107 248.636 166.12 247.729 167.88C246.849 169.613 245.636 170.96 244.089 171.92C242.569 172.88 240.862 173.36 238.969 173.36C237.342 173.36 235.902 173.027 234.649 172.36C233.422 171.693 232.422 170.853 231.649 169.84V183.56H226.049V150.84H231.649V154.04ZM243.369 161.84C243.369 160.507 243.089 159.36 242.529 158.4C241.996 157.413 241.276 156.667 240.369 156.16C239.489 155.653 238.529 155.4 237.489 155.4C236.476 155.4 235.516 155.667 234.609 156.2C233.729 156.707 233.009 157.453 232.449 158.44C231.916 159.427 231.649 160.587 231.649 161.92C231.649 163.253 231.916 164.413 232.449 165.4C233.009 166.387 233.729 167.147 234.609 167.68C235.516 168.187 236.476 168.44 237.489 168.44C238.529 168.44 239.489 168.173 240.369 167.64C241.276 167.107 241.996 166.347 242.529 165.36C243.089 164.373 243.369 163.2 243.369 161.84ZM273.758 161.44C273.758 162.24 273.705 162.96 273.598 163.6H257.398C257.532 165.2 258.092 166.453 259.078 167.36C260.065 168.267 261.278 168.72 262.718 168.72C264.798 168.72 266.278 167.827 267.158 166.04H273.198C272.558 168.173 271.332 169.933 269.518 171.32C267.705 172.68 265.478 173.36 262.838 173.36C260.705 173.36 258.785 172.893 257.078 171.96C255.398 171 254.078 169.653 253.118 167.92C252.185 166.187 251.718 164.187 251.718 161.92C251.718 159.627 252.185 157.613 253.118 155.88C254.052 154.147 255.358 152.813 257.038 151.88C258.718 150.947 260.652 150.48 262.838 150.48C264.945 150.48 266.825 150.933 268.478 151.84C270.158 152.747 271.452 154.04 272.358 155.72C273.292 157.373 273.758 159.28 273.758 161.44ZM267.958 159.84C267.932 158.4 267.412 157.253 266.398 156.4C265.385 155.52 264.145 155.08 262.678 155.08C261.292 155.08 260.118 155.507 259.158 156.36C258.225 157.187 257.652 158.347 257.438 159.84H267.958ZM283.446 154.28C284.166 153.107 285.099 152.187 286.246 151.52C287.419 150.853 288.753 150.52 290.246 150.52V156.4H288.766C287.006 156.4 285.673 156.813 284.766 157.64C283.886 158.467 283.446 159.907 283.446 161.96V173H277.846V150.84H283.446V154.28ZM296.858 148.2C295.871 148.2 295.044 147.893 294.378 147.28C293.738 146.64 293.418 145.853 293.418 144.92C293.418 143.987 293.738 143.213 294.378 142.6C295.044 141.96 295.871 141.64 296.858 141.64C297.844 141.64 298.658 141.96 299.298 142.6C299.964 143.213 300.298 143.987 300.298 144.92C300.298 145.853 299.964 146.64 299.298 147.28C298.658 147.893 297.844 148.2 296.858 148.2ZM299.618 150.84V173H294.018V150.84H299.618ZM325.751 161.44C325.751 162.24 325.697 162.96 325.591 163.6H309.391C309.524 165.2 310.084 166.453 311.071 167.36C312.057 168.267 313.271 168.72 314.711 168.72C316.791 168.72 318.271 167.827 319.151 166.04H325.191C324.551 168.173 323.324 169.933 321.511 171.32C319.697 172.68 317.471 173.36 314.831 173.36C312.697 173.36 310.777 172.893 309.071 171.96C307.391 171 306.071 169.653 305.111 167.92C304.177 166.187 303.711 164.187 303.711 161.92C303.711 159.627 304.177 157.613 305.111 155.88C306.044 154.147 307.351 152.813 309.031 151.88C310.711 150.947 312.644 150.48 314.831 150.48C316.937 150.48 318.817 150.933 320.471 151.84C322.151 152.747 323.444 154.04 324.351 155.72C325.284 157.373 325.751 159.28 325.751 161.44ZM319.951 159.84C319.924 158.4 319.404 157.253 318.391 156.4C317.377 155.52 316.137 155.08 314.671 155.08C313.284 155.08 312.111 155.507 311.151 156.36C310.217 157.187 309.644 158.347 309.431 159.84H319.951ZM342.118 150.52C344.758 150.52 346.891 151.36 348.518 153.04C350.145 154.693 350.958 157.013 350.958 160V173H345.358V160.76C345.358 159 344.918 157.653 344.038 156.72C343.158 155.76 341.958 155.28 340.438 155.28C338.891 155.28 337.665 155.76 336.758 156.72C335.878 157.653 335.438 159 335.438 160.76V173H329.838V150.84H335.438V153.6C336.185 152.64 337.131 151.893 338.278 151.36C339.451 150.8 340.731 150.52 342.118 150.52ZM354.843 161.92C354.843 159.627 355.31 157.627 356.243 155.92C357.177 154.187 358.47 152.853 360.123 151.92C361.777 150.96 363.67 150.48 365.803 150.48C368.55 150.48 370.817 151.173 372.603 152.56C374.417 153.92 375.63 155.84 376.243 158.32H370.203C369.883 157.36 369.337 156.613 368.563 156.08C367.817 155.52 366.883 155.24 365.763 155.24C364.163 155.24 362.897 155.827 361.963 157C361.03 158.147 360.563 159.787 360.563 161.92C360.563 164.027 361.03 165.667 361.963 166.84C362.897 167.987 364.163 168.56 365.763 168.56C368.03 168.56 369.51 167.547 370.203 165.52H376.243C375.63 167.92 374.417 169.827 372.603 171.24C370.79 172.653 368.523 173.36 365.803 173.36C363.67 173.36 361.777 172.893 360.123 171.96C358.47 171 357.177 169.667 356.243 167.96C355.31 166.227 354.843 164.213 354.843 161.92ZM400.946 161.44C400.946 162.24 400.893 162.96 400.786 163.6H384.586C384.719 165.2 385.279 166.453 386.266 167.36C387.253 168.267 388.466 168.72 389.906 168.72C391.986 168.72 393.466 167.827 394.346 166.04H400.386C399.746 168.173 398.519 169.933 396.706 171.32C394.893 172.68 392.666 173.36 390.026 173.36C387.893 173.36 385.973 172.893 384.266 171.96C382.586 171 381.266 169.653 380.306 167.92C379.373 166.187 378.906 164.187 378.906 161.92C378.906 159.627 379.373 157.613 380.306 155.88C381.239 154.147 382.546 152.813 384.226 151.88C385.906 150.947 387.839 150.48 390.026 150.48C392.133 150.48 394.013 150.933 395.666 151.84C397.346 152.747 398.639 154.04 399.546 155.72C400.479 157.373 400.946 159.28 400.946 161.44ZM395.146 159.84C395.119 158.4 394.599 157.253 393.586 156.4C392.573 155.52 391.333 155.08 389.866 155.08C388.479 155.08 387.306 155.507 386.346 156.36C385.413 157.187 384.839 158.347 384.626 159.84H395.146ZM413.513 173.36C411.7 173.36 410.073 173.04 408.633 172.4C407.193 171.733 406.047 170.84 405.193 169.72C404.367 168.6 403.913 167.36 403.833 166H409.473C409.58 166.853 409.993 167.56 410.713 168.12C411.46 168.68 412.38 168.96 413.473 168.96C414.54 168.96 415.367 168.747 415.953 168.32C416.567 167.893 416.873 167.347 416.873 166.68C416.873 165.96 416.5 165.427 415.753 165.08C415.033 164.707 413.873 164.307 412.273 163.88C410.62 163.48 409.26 163.067 408.193 162.64C407.153 162.213 406.247 161.56 405.473 160.68C404.727 159.8 404.353 158.613 404.353 157.12C404.353 155.893 404.7 154.773 405.393 153.76C406.113 152.747 407.127 151.947 408.433 151.36C409.767 150.773 411.327 150.48 413.113 150.48C415.753 150.48 417.86 151.147 419.433 152.48C421.007 153.787 421.873 155.56 422.033 157.8H416.673C416.593 156.92 416.22 156.227 415.553 155.72C414.913 155.187 414.047 154.92 412.953 154.92C411.94 154.92 411.153 155.107 410.593 155.48C410.06 155.853 409.793 156.373 409.793 157.04C409.793 157.787 410.167 158.36 410.913 158.76C411.66 159.133 412.82 159.52 414.393 159.92C415.993 160.32 417.313 160.733 418.353 161.16C419.393 161.587 420.287 162.253 421.033 163.16C421.807 164.04 422.207 165.213 422.233 166.68C422.233 167.96 421.873 169.107 421.153 170.12C420.46 171.133 419.447 171.933 418.113 172.52C416.807 173.08 415.273 173.36 413.513 173.36ZM432.95 167.12L428.27 178.36H424.67L427.27 167.12H432.95ZM456.358 173.36C454.224 173.36 452.304 172.893 450.598 171.96C448.891 171 447.544 169.653 446.558 167.92C445.598 166.187 445.118 164.187 445.118 161.92C445.118 159.653 445.611 157.653 446.598 155.92C447.611 154.187 448.984 152.853 450.718 151.92C452.451 150.96 454.384 150.48 456.518 150.48C458.651 150.48 460.584 150.96 462.318 151.92C464.051 152.853 465.411 154.187 466.398 155.92C467.411 157.653 467.918 159.653 467.918 161.92C467.918 164.187 467.398 166.187 466.358 167.92C465.344 169.653 463.958 171 462.198 171.96C460.464 172.893 458.518 173.36 456.358 173.36ZM456.358 168.48C457.371 168.48 458.318 168.24 459.198 167.76C460.104 167.253 460.824 166.507 461.358 165.52C461.891 164.533 462.158 163.333 462.158 161.92C462.158 159.813 461.598 158.2 460.478 157.08C459.384 155.933 458.038 155.36 456.438 155.36C454.838 155.36 453.491 155.933 452.398 157.08C451.331 158.2 450.798 159.813 450.798 161.92C450.798 164.027 451.318 165.653 452.358 166.8C453.424 167.92 454.758 168.48 456.358 168.48ZM484.306 150.52C486.946 150.52 489.079 151.36 490.706 153.04C492.332 154.693 493.146 157.013 493.146 160V173H487.546V160.76C487.546 159 487.106 157.653 486.226 156.72C485.346 155.76 484.146 155.28 482.626 155.28C481.079 155.28 479.852 155.76 478.946 156.72C478.066 157.653 477.626 159 477.626 160.76V173H472.026V150.84H477.626V153.6C478.372 152.64 479.319 151.893 480.466 151.36C481.639 150.8 482.919 150.52 484.306 150.52ZM528.602 161.44C528.602 162.24 528.549 162.96 528.442 163.6H512.242C512.376 165.2 512.936 166.453 513.922 167.36C514.909 168.267 516.122 168.72 517.562 168.72C519.642 168.72 521.122 167.827 522.002 166.04H528.042C527.402 168.173 526.176 169.933 524.362 171.32C522.549 172.68 520.322 173.36 517.682 173.36C515.549 173.36 513.629 172.893 511.922 171.96C510.242 171 508.922 169.653 507.962 167.92C507.029 166.187 506.562 164.187 506.562 161.92C506.562 159.627 507.029 157.613 507.962 155.88C508.896 154.147 510.202 152.813 511.882 151.88C513.562 150.947 515.496 150.48 517.682 150.48C519.789 150.48 521.669 150.933 523.322 151.84C525.002 152.747 526.296 154.04 527.202 155.72C528.136 157.373 528.602 159.28 528.602 161.44ZM522.802 159.84C522.776 158.4 522.256 157.253 521.242 156.4C520.229 155.52 518.989 155.08 517.522 155.08C516.136 155.08 514.962 155.507 514.002 156.36C513.069 157.187 512.496 158.347 512.282 159.84H522.802ZM535.53 148.2C534.543 148.2 533.716 147.893 533.05 147.28C532.41 146.64 532.09 145.853 532.09 144.92C532.09 143.987 532.41 143.213 533.05 142.6C533.716 141.96 534.543 141.64 535.53 141.64C536.516 141.64 537.33 141.96 537.97 142.6C538.636 143.213 538.97 143.987 538.97 144.92C538.97 145.853 538.636 146.64 537.97 147.28C537.33 147.893 536.516 148.2 535.53 148.2ZM538.29 150.84V173H532.69V150.84H538.29ZM550.343 155.44V166.16C550.343 166.907 550.516 167.453 550.863 167.8C551.236 168.12 551.849 168.28 552.703 168.28H555.303V173H551.783C547.063 173 544.703 170.707 544.703 166.12V155.44H542.063V150.84H544.703V145.36H550.343V150.84H555.303V155.44H550.343ZM571.81 150.52C573.49 150.52 574.984 150.893 576.29 151.64C577.597 152.36 578.61 153.44 579.33 154.88C580.077 156.293 580.45 158 580.45 160V173H574.85V160.76C574.85 159 574.41 157.653 573.53 156.72C572.65 155.76 571.45 155.28 569.93 155.28C568.384 155.28 567.157 155.76 566.25 156.72C565.37 157.653 564.93 159 564.93 160.76V173H559.33V143.4H564.93V153.6C565.65 152.64 566.61 151.893 567.81 151.36C569.01 150.8 570.344 150.52 571.81 150.52ZM606.376 161.44C606.376 162.24 606.322 162.96 606.216 163.6H590.016C590.149 165.2 590.709 166.453 591.696 167.36C592.682 168.267 593.896 168.72 595.336 168.72C597.416 168.72 598.896 167.827 599.776 166.04H605.816C605.176 168.173 603.949 169.933 602.136 171.32C600.322 172.68 598.096 173.36 595.456 173.36C593.322 173.36 591.402 172.893 589.696 171.96C588.016 171 586.696 169.653 585.736 167.92C584.802 166.187 584.336 164.187 584.336 161.92C584.336 159.627 584.802 157.613 585.736 155.88C586.669 154.147 587.976 152.813 589.656 151.88C591.336 150.947 593.269 150.48 595.456 150.48C597.562 150.48 599.442 150.933 601.096 151.84C602.776 152.747 604.069 154.04 604.976 155.72C605.909 157.373 606.376 159.28 606.376 161.44ZM600.576 159.84C600.549 158.4 600.029 157.253 599.016 156.4C598.002 155.52 596.762 155.08 595.296 155.08C593.909 155.08 592.736 155.507 591.776 156.36C590.842 157.187 590.269 158.347 590.056 159.84H600.576ZM616.063 154.28C616.783 153.107 617.716 152.187 618.863 151.52C620.036 150.853 621.37 150.52 622.863 150.52V156.4H621.383C619.623 156.4 618.29 156.813 617.383 157.64C616.503 158.467 616.063 159.907 616.063 161.96V173H610.463V150.84H616.063V154.28ZM188.24 223.36C186.427 223.36 184.8 223.04 183.36 222.4C181.92 221.733 180.773 220.84 179.92 219.72C179.093 218.6 178.64 217.36 178.56 216H184.2C184.307 216.853 184.72 217.56 185.44 218.12C186.187 218.68 187.107 218.96 188.2 218.96C189.267 218.96 190.093 218.747 190.68 218.32C191.293 217.893 191.6 217.347 191.6 216.68C191.6 215.96 191.227 215.427 190.48 215.08C189.76 214.707 188.6 214.307 187 213.88C185.347 213.48 183.987 213.067 182.92 212.64C181.88 212.213 180.973 211.56 180.2 210.68C179.453 209.8 179.08 208.613 179.08 207.12C179.08 205.893 179.427 204.773 180.12 203.76C180.84 202.747 181.853 201.947 183.16 201.36C184.493 200.773 186.053 200.48 187.84 200.48C190.48 200.48 192.587 201.147 194.16 202.48C195.733 203.787 196.6 205.56 196.76 207.8H191.4C191.32 206.92 190.947 206.227 190.28 205.72C189.64 205.187 188.773 204.92 187.68 204.92C186.667 204.92 185.88 205.107 185.32 205.48C184.787 205.853 184.52 206.373 184.52 207.04C184.52 207.787 184.893 208.36 185.64 208.76C186.387 209.133 187.547 209.52 189.12 209.92C190.72 210.32 192.04 210.733 193.08 211.16C194.12 211.587 195.013 212.253 195.76 213.16C196.533 214.04 196.933 215.213 196.96 216.68C196.96 217.96 196.6 219.107 195.88 220.12C195.187 221.133 194.173 221.933 192.84 222.52C191.533 223.08 190 223.36 188.24 223.36ZM207.157 204.04C207.877 203.027 208.864 202.187 210.117 201.52C211.397 200.827 212.85 200.48 214.477 200.48C216.37 200.48 218.077 200.947 219.597 201.88C221.144 202.813 222.357 204.147 223.237 205.88C224.144 207.587 224.597 209.573 224.597 211.84C224.597 214.107 224.144 216.12 223.237 217.88C222.357 219.613 221.144 220.96 219.597 221.92C218.077 222.88 216.37 223.36 214.477 223.36C212.85 223.36 211.41 223.027 210.157 222.36C208.93 221.693 207.93 220.853 207.157 219.84V233.56H201.557V200.84H207.157V204.04ZM218.877 211.84C218.877 210.507 218.597 209.36 218.037 208.4C217.504 207.413 216.784 206.667 215.877 206.16C214.997 205.653 214.037 205.4 212.997 205.4C211.984 205.4 211.024 205.667 210.117 206.2C209.237 206.707 208.517 207.453 207.957 208.44C207.424 209.427 207.157 210.587 207.157 211.92C207.157 213.253 207.424 214.413 207.957 215.4C208.517 216.387 209.237 217.147 210.117 217.68C211.024 218.187 211.984 218.44 212.997 218.44C214.037 218.44 214.997 218.173 215.877 217.64C216.784 217.107 217.504 216.347 218.037 215.36C218.597 214.373 218.877 213.2 218.877 211.84ZM249.266 211.44C249.266 212.24 249.213 212.96 249.106 213.6H232.906C233.04 215.2 233.6 216.453 234.586 217.36C235.573 218.267 236.786 218.72 238.226 218.72C240.306 218.72 241.786 217.827 242.666 216.04H248.706C248.066 218.173 246.84 219.933 245.026 221.32C243.213 222.68 240.986 223.36 238.346 223.36C236.213 223.36 234.293 222.893 232.586 221.96C230.906 221 229.586 219.653 228.626 217.92C227.693 216.187 227.226 214.187 227.226 211.92C227.226 209.627 227.693 207.613 228.626 205.88C229.56 204.147 230.866 202.813 232.546 201.88C234.226 200.947 236.16 200.48 238.346 200.48C240.453 200.48 242.333 200.933 243.986 201.84C245.666 202.747 246.96 204.04 247.866 205.72C248.8 207.373 249.266 209.28 249.266 211.44ZM243.466 209.84C243.44 208.4 242.92 207.253 241.906 206.4C240.893 205.52 239.653 205.08 238.186 205.08C236.8 205.08 235.626 205.507 234.666 206.36C233.733 207.187 233.16 208.347 232.946 209.84H243.466ZM251.914 211.92C251.914 209.627 252.38 207.627 253.314 205.92C254.247 204.187 255.54 202.853 257.194 201.92C258.847 200.96 260.74 200.48 262.874 200.48C265.62 200.48 267.887 201.173 269.674 202.56C271.487 203.92 272.7 205.84 273.314 208.32H267.274C266.954 207.36 266.407 206.613 265.634 206.08C264.887 205.52 263.954 205.24 262.834 205.24C261.234 205.24 259.967 205.827 259.034 207C258.1 208.147 257.634 209.787 257.634 211.92C257.634 214.027 258.1 215.667 259.034 216.84C259.967 217.987 261.234 218.56 262.834 218.56C265.1 218.56 266.58 217.547 267.274 215.52H273.314C272.7 217.92 271.487 219.827 269.674 221.24C267.86 222.653 265.594 223.36 262.874 223.36C260.74 223.36 258.847 222.893 257.194 221.96C255.54 221 254.247 219.667 253.314 217.96C252.38 216.227 251.914 214.213 251.914 211.92ZM283.936 205.44V216.16C283.936 216.907 284.11 217.453 284.456 217.8C284.83 218.12 285.443 218.28 286.296 218.28H288.896V223H285.376C280.656 223 278.296 220.707 278.296 216.12V205.44H275.656V200.84H278.296V195.36H283.936V200.84H288.896V205.44H283.936ZM298.524 204.28C299.244 203.107 300.177 202.187 301.324 201.52C302.497 200.853 303.831 200.52 305.324 200.52V206.4H303.844C302.084 206.4 300.751 206.813 299.844 207.64C298.964 208.467 298.524 209.907 298.524 211.96V223H292.924V200.84H298.524V204.28ZM330.016 200.84V223H324.376V220.2C323.656 221.16 322.709 221.92 321.536 222.48C320.389 223.013 319.136 223.28 317.776 223.28C316.043 223.28 314.509 222.92 313.176 222.2C311.843 221.453 310.789 220.373 310.016 218.96C309.269 217.52 308.896 215.813 308.896 213.84V200.84H314.496V213.04C314.496 214.8 314.936 216.16 315.816 217.12C316.696 218.053 317.896 218.52 319.416 218.52C320.963 218.52 322.176 218.053 323.056 217.12C323.936 216.16 324.376 214.8 324.376 213.04V200.84H330.016ZM363.061 200.52C365.781 200.52 367.968 201.36 369.621 203.04C371.301 204.693 372.141 207.013 372.141 210V223H366.541V210.76C366.541 209.027 366.101 207.707 365.221 206.8C364.341 205.867 363.141 205.4 361.621 205.4C360.101 205.4 358.888 205.867 357.981 206.8C357.101 207.707 356.661 209.027 356.661 210.76V223H351.061V210.76C351.061 209.027 350.621 207.707 349.741 206.8C348.861 205.867 347.661 205.4 346.141 205.4C344.595 205.4 343.368 205.867 342.461 206.8C341.581 207.707 341.141 209.027 341.141 210.76V223H335.541V200.84H341.141V203.52C341.861 202.587 342.781 201.853 343.901 201.32C345.048 200.787 346.301 200.52 347.661 200.52C349.395 200.52 350.941 200.893 352.301 201.64C353.661 202.36 354.715 203.4 355.461 204.76C356.181 203.48 357.221 202.453 358.581 201.68C359.968 200.907 361.461 200.52 363.061 200.52ZM396.827 223.36C394.693 223.36 392.773 222.893 391.067 221.96C389.36 221 388.013 219.653 387.027 217.92C386.067 216.187 385.587 214.187 385.587 211.92C385.587 209.653 386.08 207.653 387.067 205.92C388.08 204.187 389.453 202.853 391.187 201.92C392.92 200.96 394.853 200.48 396.987 200.48C399.12 200.48 401.053 200.96 402.787 201.92C404.52 202.853 405.88 204.187 406.867 205.92C407.88 207.653 408.387 209.653 408.387 211.92C408.387 214.187 407.867 216.187 406.827 217.92C405.813 219.653 404.427 221 402.667 221.96C400.933 222.893 398.987 223.36 396.827 223.36ZM396.827 218.48C397.84 218.48 398.787 218.24 399.667 217.76C400.573 217.253 401.293 216.507 401.827 215.52C402.36 214.533 402.627 213.333 402.627 211.92C402.627 209.813 402.067 208.2 400.947 207.08C399.853 205.933 398.507 205.36 396.907 205.36C395.307 205.36 393.96 205.933 392.867 207.08C391.8 208.2 391.267 209.813 391.267 211.92C391.267 214.027 391.787 215.653 392.827 216.8C393.893 217.92 395.227 218.48 396.827 218.48ZM422.654 205.44H418.774V223H413.094V205.44H410.574V200.84H413.094V199.72C413.094 197 413.868 195 415.414 193.72C416.961 192.44 419.294 191.84 422.414 191.92V196.64C421.054 196.613 420.108 196.84 419.574 197.32C419.041 197.8 418.774 198.667 418.774 199.92V200.84H422.654V205.44ZM434.375 211.92C434.375 209.627 434.841 207.627 435.775 205.92C436.708 204.187 438.001 202.853 439.655 201.92C441.308 200.96 443.201 200.48 445.335 200.48C448.081 200.48 450.348 201.173 452.135 202.56C453.948 203.92 455.161 205.84 455.775 208.32H449.735C449.415 207.36 448.868 206.613 448.095 206.08C447.348 205.52 446.415 205.24 445.295 205.24C443.695 205.24 442.428 205.827 441.495 207C440.561 208.147 440.095 209.787 440.095 211.92C440.095 214.027 440.561 215.667 441.495 216.84C442.428 217.987 443.695 218.56 445.295 218.56C447.561 218.56 449.041 217.547 449.735 215.52H455.775C455.161 217.92 453.948 219.827 452.135 221.24C450.321 222.653 448.055 223.36 445.335 223.36C443.201 223.36 441.308 222.893 439.655 221.96C438.001 221 436.708 219.667 435.775 217.96C434.841 216.227 434.375 214.213 434.375 211.92ZM462.717 198.2C461.731 198.2 460.904 197.893 460.237 197.28C459.597 196.64 459.277 195.853 459.277 194.92C459.277 193.987 459.597 193.213 460.237 192.6C460.904 191.96 461.731 191.64 462.717 191.64C463.704 191.64 464.517 191.96 465.157 192.6C465.824 193.213 466.157 193.987 466.157 194.92C466.157 195.853 465.824 196.64 465.157 197.28C464.517 197.893 463.704 198.2 462.717 198.2ZM465.477 200.84V223H459.877V200.84H465.477ZM476.61 204.28C477.33 203.107 478.263 202.187 479.41 201.52C480.583 200.853 481.917 200.52 483.41 200.52V206.4H481.93C480.17 206.4 478.837 206.813 477.93 207.64C477.05 208.467 476.61 209.907 476.61 211.96V223H471.01V200.84H476.61V204.28ZM485.742 211.92C485.742 209.627 486.209 207.627 487.142 205.92C488.075 204.187 489.369 202.853 491.022 201.92C492.675 200.96 494.569 200.48 496.702 200.48C499.449 200.48 501.715 201.173 503.502 202.56C505.315 203.92 506.529 205.84 507.142 208.32H501.102C500.782 207.36 500.235 206.613 499.462 206.08C498.715 205.52 497.782 205.24 496.662 205.24C495.062 205.24 493.795 205.827 492.862 207C491.929 208.147 491.462 209.787 491.462 211.92C491.462 214.027 491.929 215.667 492.862 216.84C493.795 217.987 495.062 218.56 496.662 218.56C498.929 218.56 500.409 217.547 501.102 215.52H507.142C506.529 217.92 505.315 219.827 503.502 221.24C501.689 222.653 499.422 223.36 496.702 223.36C494.569 223.36 492.675 222.893 491.022 221.96C489.369 221 488.075 219.667 487.142 217.96C486.209 216.227 485.742 214.213 485.742 211.92ZM532.164 200.84V223H526.524V220.2C525.804 221.16 524.858 221.92 523.684 222.48C522.538 223.013 521.284 223.28 519.924 223.28C518.191 223.28 516.658 222.92 515.324 222.2C513.991 221.453 512.938 220.373 512.164 218.96C511.418 217.52 511.044 215.813 511.044 213.84V200.84H516.644V213.04C516.644 214.8 517.084 216.16 517.964 217.12C518.844 218.053 520.044 218.52 521.564 218.52C523.111 218.52 524.324 218.053 525.204 217.12C526.084 216.16 526.524 214.8 526.524 213.04V200.84H532.164ZM565.21 200.52C567.93 200.52 570.116 201.36 571.77 203.04C573.45 204.693 574.29 207.013 574.29 210V223H568.69V210.76C568.69 209.027 568.25 207.707 567.37 206.8C566.49 205.867 565.29 205.4 563.77 205.4C562.25 205.4 561.036 205.867 560.13 206.8C559.25 207.707 558.81 209.027 558.81 210.76V223H553.21V210.76C553.21 209.027 552.77 207.707 551.89 206.8C551.01 205.867 549.81 205.4 548.29 205.4C546.743 205.4 545.516 205.867 544.61 206.8C543.73 207.707 543.29 209.027 543.29 210.76V223H537.69V200.84H543.29V203.52C544.01 202.587 544.93 201.853 546.05 201.32C547.196 200.787 548.45 200.52 549.81 200.52C551.543 200.52 553.09 200.893 554.45 201.64C555.81 202.36 556.863 203.4 557.61 204.76C558.33 203.48 559.37 202.453 560.73 201.68C562.116 200.907 563.61 200.52 565.21 200.52ZM588.084 223.36C586.27 223.36 584.644 223.04 583.204 222.4C581.764 221.733 580.617 220.84 579.764 219.72C578.937 218.6 578.484 217.36 578.404 216H584.044C584.15 216.853 584.564 217.56 585.284 218.12C586.03 218.68 586.95 218.96 588.044 218.96C589.11 218.96 589.937 218.747 590.524 218.32C591.137 217.893 591.444 217.347 591.444 216.68C591.444 215.96 591.07 215.427 590.324 215.08C589.604 214.707 588.444 214.307 586.844 213.88C585.19 213.48 583.83 213.067 582.764 212.64C581.724 212.213 580.817 211.56 580.044 210.68C579.297 209.8 578.924 208.613 578.924 207.12C578.924 205.893 579.27 204.773 579.964 203.76C580.684 202.747 581.697 201.947 583.004 201.36C584.337 200.773 585.897 200.48 587.684 200.48C590.324 200.48 592.43 201.147 594.004 202.48C595.577 203.787 596.444 205.56 596.604 207.8H591.244C591.164 206.92 590.79 206.227 590.124 205.72C589.484 205.187 588.617 204.92 587.524 204.92C586.51 204.92 585.724 205.107 585.164 205.48C584.63 205.853 584.364 206.373 584.364 207.04C584.364 207.787 584.737 208.36 585.484 208.76C586.23 209.133 587.39 209.52 588.964 209.92C590.564 210.32 591.884 210.733 592.924 211.16C593.964 211.587 594.857 212.253 595.604 213.16C596.377 214.04 596.777 215.213 596.804 216.68C596.804 217.96 596.444 219.107 595.724 220.12C595.03 221.133 594.017 221.933 592.684 222.52C591.377 223.08 589.844 223.36 588.084 223.36ZM607.921 205.44V216.16C607.921 216.907 608.094 217.453 608.441 217.8C608.814 218.12 609.427 218.28 610.281 218.28H612.881V223H609.361C604.641 223 602.281 220.707 602.281 216.12V205.44H599.641V200.84H602.281V195.36H607.921V200.84H612.881V205.44H607.921ZM615.468 211.84C615.468 209.6 615.908 207.613 616.788 205.88C617.695 204.147 618.908 202.813 620.428 201.88C621.975 200.947 623.695 200.48 625.588 200.48C627.242 200.48 628.682 200.813 629.908 201.48C631.162 202.147 632.162 202.987 632.908 204V200.84H638.548V223H632.908V219.76C632.188 220.8 631.188 221.667 629.908 222.36C628.655 223.027 627.202 223.36 625.548 223.36C623.682 223.36 621.975 222.88 620.428 221.92C618.908 220.96 617.695 219.613 616.788 217.88C615.908 216.12 615.468 214.107 615.468 211.84ZM632.908 211.92C632.908 210.56 632.642 209.4 632.108 208.44C631.575 207.453 630.855 206.707 629.948 206.2C629.042 205.667 628.068 205.4 627.028 205.4C625.988 205.4 625.028 205.653 624.148 206.16C623.268 206.667 622.548 207.413 621.988 208.4C621.455 209.36 621.188 210.507 621.188 211.84C621.188 213.173 621.455 214.347 621.988 215.36C622.548 216.347 623.268 217.107 624.148 217.64C625.055 218.173 626.015 218.44 627.028 218.44C628.068 218.44 629.042 218.187 629.948 217.68C630.855 217.147 631.575 216.4 632.108 215.44C632.642 214.453 632.908 213.28 632.908 211.92ZM656.298 200.52C658.938 200.52 661.071 201.36 662.698 203.04C664.324 204.693 665.138 207.013 665.138 210V223H659.538V210.76C659.538 209 659.098 207.653 658.218 206.72C657.338 205.76 656.138 205.28 654.618 205.28C653.071 205.28 651.844 205.76 650.938 206.72C650.058 207.653 649.618 209 649.618 210.76V223H644.018V200.84H649.618V203.6C650.364 202.64 651.311 201.893 652.458 201.36C653.631 200.8 654.911 200.52 656.298 200.52ZM669.023 211.92C669.023 209.627 669.49 207.627 670.423 205.92C671.356 204.187 672.65 202.853 674.303 201.92C675.956 200.96 677.85 200.48 679.983 200.48C682.73 200.48 684.996 201.173 686.783 202.56C688.596 203.92 689.81 205.84 690.423 208.32H684.383C684.063 207.36 683.516 206.613 682.743 206.08C681.996 205.52 681.063 205.24 679.943 205.24C678.343 205.24 677.076 205.827 676.143 207C675.21 208.147 674.743 209.787 674.743 211.92C674.743 214.027 675.21 215.667 676.143 216.84C677.076 217.987 678.343 218.56 679.943 218.56C682.21 218.56 683.69 217.547 684.383 215.52H690.423C689.81 217.92 688.596 219.827 686.783 221.24C684.97 222.653 682.703 223.36 679.983 223.36C677.85 223.36 675.956 222.893 674.303 221.96C672.65 221 671.356 219.667 670.423 217.96C669.49 216.227 669.023 214.213 669.023 211.92ZM715.126 211.44C715.126 212.24 715.072 212.96 714.966 213.6H698.766C698.899 215.2 699.459 216.453 700.446 217.36C701.432 218.267 702.646 218.72 704.086 218.72C706.166 218.72 707.646 217.827 708.526 216.04H714.566C713.926 218.173 712.699 219.933 710.886 221.32C709.072 222.68 706.846 223.36 704.206 223.36C702.072 223.36 700.152 222.893 698.446 221.96C696.766 221 695.446 219.653 694.486 217.92C693.552 216.187 693.086 214.187 693.086 211.92C693.086 209.627 693.552 207.613 694.486 205.88C695.419 204.147 696.726 202.813 698.406 201.88C700.086 200.947 702.019 200.48 704.206 200.48C706.312 200.48 708.192 200.933 709.846 201.84C711.526 202.747 712.819 204.04 713.726 205.72C714.659 207.373 715.126 209.28 715.126 211.44ZM709.326 209.84C709.299 208.4 708.779 207.253 707.766 206.4C706.752 205.52 705.512 205.08 704.046 205.08C702.659 205.08 701.486 205.507 700.526 206.36C699.592 207.187 699.019 208.347 698.806 209.84H709.326ZM727.693 223.36C725.88 223.36 724.253 223.04 722.813 222.4C721.373 221.733 720.226 220.84 719.373 219.72C718.546 218.6 718.093 217.36 718.013 216H723.653C723.76 216.853 724.173 217.56 724.893 218.12C725.64 218.68 726.56 218.96 727.653 218.96C728.72 218.96 729.546 218.747 730.133 218.32C730.746 217.893 731.053 217.347 731.053 216.68C731.053 215.96 730.68 215.427 729.933 215.08C729.213 214.707 728.053 214.307 726.453 213.88C724.8 213.48 723.44 213.067 722.373 212.64C721.333 212.213 720.426 211.56 719.653 210.68C718.906 209.8 718.533 208.613 718.533 207.12C718.533 205.893 718.88 204.773 719.573 203.76C720.293 202.747 721.306 201.947 722.613 201.36C723.946 200.773 725.506 200.48 727.293 200.48C729.933 200.48 732.04 201.147 733.613 202.48C735.186 203.787 736.053 205.56 736.213 207.8H730.853C730.773 206.92 730.4 206.227 729.733 205.72C729.093 205.187 728.226 204.92 727.133 204.92C726.12 204.92 725.333 205.107 724.773 205.48C724.24 205.853 723.973 206.373 723.973 207.04C723.973 207.787 724.346 208.36 725.093 208.76C725.84 209.133 727 209.52 728.573 209.92C730.173 210.32 731.493 210.733 732.533 211.16C733.573 211.587 734.466 212.253 735.213 213.16C735.986 214.04 736.386 215.213 736.413 216.68C736.413 217.96 736.053 219.107 735.333 220.12C734.64 221.133 733.626 221.933 732.293 222.52C730.986 223.08 729.453 223.36 727.693 223.36ZM743.49 223.28C742.477 223.28 741.637 222.973 740.97 222.36C740.33 221.72 740.01 220.933 740.01 220C740.01 219.067 740.33 218.293 740.97 217.68C741.637 217.04 742.477 216.72 743.49 216.72C744.477 216.72 745.29 217.04 745.93 217.68C746.57 218.293 746.89 219.067 746.89 220C746.89 220.933 746.57 221.72 745.93 222.36C745.29 222.973 744.477 223.28 743.49 223.28Z" fill="#505050"/>
<path d="M99.7972 221.315V202.593L195.035 70.7253H224.61V199.88H251.744V221.315H224.61V265H200.19V221.315H99.7972ZM201.276 96.502L128.287 199.88H201.276V96.502ZM288.348 266.628C283.645 266.628 279.666 265 276.41 261.744C273.154 258.488 271.526 254.508 271.526 249.805C271.526 245.102 273.154 241.123 276.41 237.867C279.666 234.611 283.645 232.983 288.348 232.983C292.871 232.983 296.669 234.611 299.744 237.867C303 241.123 304.628 245.102 304.628 249.805C304.628 254.508 303 258.488 299.744 261.744C296.669 265 292.871 266.628 288.348 266.628Z" fill="#C41200" fill-opacity="0.24"/>
</svg>
