<svg width="1728" height="619" viewBox="0 0 1728 619" fill="none" xmlns="http://www.w3.org/2000/svg">
<g filter="url(#filter0_f_3105_9001)">
<ellipse cx="872.5" cy="309.5" rx="682.5" ry="109.5" fill="#FFF7E1"/>
</g>
<path d="M641.508 226.605V251H638.323V239.94H625.898V251H622.713V226.605H625.898V237.315H638.323V226.605H641.508ZM655.311 251.315C653.515 251.315 651.881 250.907 650.411 250.09C648.965 249.273 647.821 248.118 646.981 246.625C646.165 245.108 645.756 243.358 645.756 241.375C645.756 239.415 646.176 237.688 647.016 236.195C647.88 234.678 649.046 233.523 650.516 232.73C651.986 231.913 653.631 231.505 655.451 231.505C657.271 231.505 658.916 231.913 660.386 232.73C661.856 233.523 663.011 234.667 663.851 236.16C664.715 237.653 665.146 239.392 665.146 241.375C665.146 243.358 664.703 245.108 663.816 246.625C662.953 248.118 661.775 249.273 660.281 250.09C658.788 250.907 657.131 251.315 655.311 251.315ZM655.311 248.515C656.455 248.515 657.528 248.247 658.531 247.71C659.535 247.173 660.34 246.368 660.946 245.295C661.576 244.222 661.891 242.915 661.891 241.375C661.891 239.835 661.588 238.528 660.981 237.455C660.375 236.382 659.581 235.588 658.601 235.075C657.621 234.538 656.56 234.27 655.416 234.27C654.25 234.27 653.176 234.538 652.196 235.075C651.24 235.588 650.47 236.382 649.886 237.455C649.303 238.528 649.011 239.835 649.011 241.375C649.011 242.938 649.291 244.257 649.851 245.33C650.435 246.403 651.205 247.208 652.161 247.745C653.118 248.258 654.168 248.515 655.311 248.515ZM694.884 231.82L688.899 251H685.609L680.989 235.775L676.369 251H673.079L667.059 231.82H670.314L674.724 247.92L679.484 231.82H682.739L687.394 247.955L691.734 231.82H694.884ZM706.186 241.375C706.186 239.392 706.583 237.665 707.376 236.195C708.169 234.702 709.266 233.547 710.666 232.73C712.089 231.913 713.711 231.505 715.531 231.505C717.888 231.505 719.824 232.077 721.341 233.22C722.881 234.363 723.896 235.95 724.386 237.98H720.956C720.629 236.813 719.988 235.892 719.031 235.215C718.098 234.538 716.931 234.2 715.531 234.2C713.711 234.2 712.241 234.83 711.121 236.09C710.001 237.327 709.441 239.088 709.441 241.375C709.441 243.685 710.001 245.47 711.121 246.73C712.241 247.99 713.711 248.62 715.531 248.62C716.931 248.62 718.098 248.293 719.031 247.64C719.964 246.987 720.606 246.053 720.956 244.84H724.386C723.873 246.8 722.846 248.375 721.306 249.565C719.766 250.732 717.841 251.315 715.531 251.315C713.711 251.315 712.089 250.907 710.666 250.09C709.266 249.273 708.169 248.118 707.376 246.625C706.583 245.132 706.186 243.382 706.186 241.375ZM727.446 241.34C727.446 239.38 727.843 237.665 728.636 236.195C729.429 234.702 730.514 233.547 731.891 232.73C733.291 231.913 734.843 231.505 736.546 231.505C738.226 231.505 739.684 231.867 740.921 232.59C742.158 233.313 743.079 234.223 743.686 235.32V231.82H746.906V251H743.686V247.43C743.056 248.55 742.111 249.483 740.851 250.23C739.614 250.953 738.168 251.315 736.511 251.315C734.808 251.315 733.268 250.895 731.891 250.055C730.514 249.215 729.429 248.037 728.636 246.52C727.843 245.003 727.446 243.277 727.446 241.34ZM743.686 241.375C743.686 239.928 743.394 238.668 742.811 237.595C742.228 236.522 741.434 235.705 740.431 235.145C739.451 234.562 738.366 234.27 737.176 234.27C735.986 234.27 734.901 234.55 733.921 235.11C732.941 235.67 732.159 236.487 731.576 237.56C730.993 238.633 730.701 239.893 730.701 241.34C730.701 242.81 730.993 244.093 731.576 245.19C732.159 246.263 732.941 247.092 733.921 247.675C734.901 248.235 735.986 248.515 737.176 248.515C738.366 248.515 739.451 248.235 740.431 247.675C741.434 247.092 742.228 246.263 742.811 245.19C743.394 244.093 743.686 242.822 743.686 241.375ZM761.633 231.47C763.967 231.47 765.857 232.182 767.303 233.605C768.75 235.005 769.473 237.035 769.473 239.695V251H766.323V240.15C766.323 238.237 765.845 236.778 764.888 235.775C763.932 234.748 762.625 234.235 760.968 234.235C759.288 234.235 757.947 234.76 756.943 235.81C755.963 236.86 755.473 238.388 755.473 240.395V251H752.288V231.82H755.473V234.55C756.103 233.57 756.955 232.812 758.028 232.275C759.125 231.738 760.327 231.47 761.633 231.47ZM809.557 231.82L803.572 251H800.282L795.662 235.775L791.042 251H787.752L781.732 231.82H784.987L789.397 247.92L794.157 231.82H797.412L802.067 247.955L806.407 231.82H809.557ZM830.218 240.675C830.218 241.282 830.183 241.923 830.113 242.6H814.783C814.9 244.49 815.541 245.972 816.708 247.045C817.898 248.095 819.333 248.62 821.013 248.62C822.39 248.62 823.533 248.305 824.443 247.675C825.376 247.022 826.03 246.158 826.403 245.085H829.833C829.32 246.928 828.293 248.433 826.753 249.6C825.213 250.743 823.3 251.315 821.013 251.315C819.193 251.315 817.56 250.907 816.113 250.09C814.69 249.273 813.57 248.118 812.753 246.625C811.936 245.108 811.528 243.358 811.528 241.375C811.528 239.392 811.925 237.653 812.718 236.16C813.511 234.667 814.62 233.523 816.043 232.73C817.49 231.913 819.146 231.505 821.013 231.505C822.833 231.505 824.443 231.902 825.843 232.695C827.243 233.488 828.316 234.585 829.063 235.985C829.833 237.362 830.218 238.925 830.218 240.675ZM826.928 240.01C826.928 238.797 826.66 237.758 826.123 236.895C825.586 236.008 824.851 235.343 823.918 234.9C823.008 234.433 821.993 234.2 820.873 234.2C819.263 234.2 817.886 234.713 816.743 235.74C815.623 236.767 814.981 238.19 814.818 240.01H826.928ZM1061.3 251.315C1059.83 251.315 1058.51 251.07 1057.34 250.58C1056.17 250.067 1055.25 249.367 1054.58 248.48C1053.9 247.57 1053.53 246.532 1053.46 245.365H1056.75C1056.84 246.322 1057.28 247.103 1058.08 247.71C1058.89 248.317 1059.95 248.62 1061.26 248.62C1062.47 248.62 1063.43 248.352 1064.13 247.815C1064.83 247.278 1065.18 246.602 1065.18 245.785C1065.18 244.945 1064.81 244.327 1064.06 243.93C1063.31 243.51 1062.16 243.102 1060.6 242.705C1059.17 242.332 1058.01 241.958 1057.1 241.585C1056.21 241.188 1055.44 240.617 1054.79 239.87C1054.16 239.1 1053.84 238.097 1053.84 236.86C1053.84 235.88 1054.13 234.982 1054.72 234.165C1055.3 233.348 1056.13 232.707 1057.2 232.24C1058.27 231.75 1059.5 231.505 1060.88 231.505C1063 231.505 1064.71 232.042 1066.02 233.115C1067.33 234.188 1068.03 235.658 1068.12 237.525H1064.94C1064.87 236.522 1064.46 235.717 1063.71 235.11C1062.99 234.503 1062.01 234.2 1060.77 234.2C1059.63 234.2 1058.72 234.445 1058.04 234.935C1057.36 235.425 1057.03 236.067 1057.03 236.86C1057.03 237.49 1057.22 238.015 1057.62 238.435C1058.04 238.832 1058.55 239.158 1059.16 239.415C1059.79 239.648 1060.65 239.917 1061.75 240.22C1063.13 240.593 1064.25 240.967 1065.11 241.34C1065.97 241.69 1066.71 242.227 1067.32 242.95C1067.95 243.673 1068.27 244.618 1068.3 245.785C1068.3 246.835 1068 247.78 1067.42 248.62C1066.84 249.46 1066.01 250.125 1064.94 250.615C1063.89 251.082 1062.67 251.315 1061.3 251.315ZM1089.8 231.82V251H1086.62V248.165C1086.01 249.145 1085.16 249.915 1084.06 250.475C1082.99 251.012 1081.8 251.28 1080.49 251.28C1079 251.28 1077.66 250.977 1076.47 250.37C1075.28 249.74 1074.33 248.807 1073.63 247.57C1072.95 246.333 1072.62 244.828 1072.62 243.055V231.82H1075.77V242.635C1075.77 244.525 1076.24 245.983 1077.2 247.01C1078.16 248.013 1079.46 248.515 1081.12 248.515C1082.82 248.515 1084.17 247.99 1085.15 246.94C1086.13 245.89 1086.62 244.362 1086.62 242.355V231.82H1089.8ZM1098.36 235.355C1098.99 234.258 1099.93 233.348 1101.16 232.625C1102.42 231.878 1103.88 231.505 1105.54 231.505C1107.24 231.505 1108.78 231.913 1110.16 232.73C1111.56 233.547 1112.66 234.702 1113.45 236.195C1114.24 237.665 1114.64 239.38 1114.64 241.34C1114.64 243.277 1114.24 245.003 1113.45 246.52C1112.66 248.037 1111.56 249.215 1110.16 250.055C1108.78 250.895 1107.24 251.315 1105.54 251.315C1103.91 251.315 1102.46 250.953 1101.2 250.23C1099.96 249.483 1099.02 248.562 1098.36 247.465V260.1H1095.18V231.82H1098.36V235.355ZM1111.38 241.34C1111.38 239.893 1111.09 238.633 1110.51 237.56C1109.93 236.487 1109.13 235.67 1108.13 235.11C1107.15 234.55 1106.06 234.27 1104.87 234.27C1103.71 234.27 1102.62 234.562 1101.62 235.145C1100.64 235.705 1099.85 236.533 1099.24 237.63C1098.66 238.703 1098.36 239.952 1098.36 241.375C1098.36 242.822 1098.66 244.093 1099.24 245.19C1099.85 246.263 1100.64 247.092 1101.62 247.675C1102.62 248.235 1103.71 248.515 1104.87 248.515C1106.06 248.515 1107.15 248.235 1108.13 247.675C1109.13 247.092 1109.93 246.263 1110.51 245.19C1111.09 244.093 1111.38 242.81 1111.38 241.34ZM1122.02 235.355C1122.65 234.258 1123.58 233.348 1124.82 232.625C1126.08 231.878 1127.53 231.505 1129.19 231.505C1130.89 231.505 1132.43 231.913 1133.81 232.73C1135.21 233.547 1136.31 234.702 1137.1 236.195C1137.89 237.665 1138.29 239.38 1138.29 241.34C1138.29 243.277 1137.89 245.003 1137.1 246.52C1136.31 248.037 1135.21 249.215 1133.81 250.055C1132.43 250.895 1130.89 251.315 1129.19 251.315C1127.56 251.315 1126.11 250.953 1124.85 250.23C1123.61 249.483 1122.67 248.562 1122.02 247.465V260.1H1118.83V231.82H1122.02V235.355ZM1135.04 241.34C1135.04 239.893 1134.74 238.633 1134.16 237.56C1133.58 236.487 1132.78 235.67 1131.78 235.11C1130.8 234.55 1129.72 234.27 1128.53 234.27C1127.36 234.27 1126.27 234.562 1125.27 235.145C1124.29 235.705 1123.5 236.533 1122.89 237.63C1122.31 238.703 1122.02 239.952 1122.02 241.375C1122.02 242.822 1122.31 244.093 1122.89 245.19C1123.5 246.263 1124.29 247.092 1125.27 247.675C1126.27 248.235 1127.36 248.515 1128.53 248.515C1129.72 248.515 1130.8 248.235 1131.78 247.675C1132.78 247.092 1133.58 246.263 1134.16 245.19C1134.74 244.093 1135.04 242.81 1135.04 241.34ZM1150.85 251.315C1149.05 251.315 1147.42 250.907 1145.95 250.09C1144.5 249.273 1143.36 248.118 1142.52 246.625C1141.7 245.108 1141.29 243.358 1141.29 241.375C1141.29 239.415 1141.71 237.688 1142.55 236.195C1143.42 234.678 1144.58 233.523 1146.05 232.73C1147.52 231.913 1149.17 231.505 1150.99 231.505C1152.81 231.505 1154.45 231.913 1155.92 232.73C1157.39 233.523 1158.55 234.667 1159.39 236.16C1160.25 237.653 1160.68 239.392 1160.68 241.375C1160.68 243.358 1160.24 245.108 1159.35 246.625C1158.49 248.118 1157.31 249.273 1155.82 250.09C1154.33 250.907 1152.67 251.315 1150.85 251.315ZM1150.85 248.515C1151.99 248.515 1153.07 248.247 1154.07 247.71C1155.07 247.173 1155.88 246.368 1156.48 245.295C1157.11 244.222 1157.43 242.915 1157.43 241.375C1157.43 239.835 1157.13 238.528 1156.52 237.455C1155.91 236.382 1155.12 235.588 1154.14 235.075C1153.16 234.538 1152.1 234.27 1150.95 234.27C1149.79 234.27 1148.71 234.538 1147.73 235.075C1146.78 235.588 1146.01 236.382 1145.42 237.455C1144.84 238.528 1144.55 239.835 1144.55 241.375C1144.55 242.938 1144.83 244.257 1145.39 245.33C1145.97 246.403 1146.74 247.208 1147.7 247.745C1148.66 248.258 1149.71 248.515 1150.85 248.515ZM1168.06 234.935C1168.62 233.838 1169.41 232.987 1170.44 232.38C1171.49 231.773 1172.76 231.47 1174.25 231.47V234.76H1173.41C1169.84 234.76 1168.06 236.697 1168.06 240.57V251H1164.87V231.82H1168.06V234.935ZM1181.81 234.445V245.75C1181.81 246.683 1182.01 247.348 1182.41 247.745C1182.8 248.118 1183.49 248.305 1184.47 248.305H1186.82V251H1183.95C1182.17 251 1180.84 250.592 1179.96 249.775C1179.07 248.958 1178.63 247.617 1178.63 245.75V234.445H1176.14V231.82H1178.63V226.99H1181.81V231.82H1186.82V234.445H1181.81ZM1286.28 281.705C1285.68 281.705 1285.16 281.495 1284.74 281.075C1284.32 280.655 1284.11 280.142 1284.11 279.535C1284.11 278.928 1284.32 278.415 1284.74 277.995C1285.16 277.575 1285.68 277.365 1286.28 277.365C1286.87 277.365 1287.36 277.575 1287.75 277.995C1288.17 278.415 1288.38 278.928 1288.38 279.535C1288.38 280.142 1288.17 280.655 1287.75 281.075C1287.36 281.495 1286.87 281.705 1286.28 281.705ZM1287.82 284.82V304H1284.64V284.82H1287.82ZM1302.6 284.47C1304.93 284.47 1306.82 285.182 1308.27 286.605C1309.71 288.005 1310.44 290.035 1310.44 292.695V304H1307.29V293.15C1307.29 291.237 1306.81 289.778 1305.85 288.775C1304.89 287.748 1303.59 287.235 1301.93 287.235C1300.25 287.235 1298.91 287.76 1297.91 288.81C1296.93 289.86 1296.44 291.388 1296.44 293.395V304H1293.25V284.82H1296.44V287.55C1297.07 286.57 1297.92 285.812 1298.99 285.275C1300.09 284.738 1301.29 284.47 1302.6 284.47ZM1323.78 294.34C1323.78 292.38 1324.18 290.665 1324.97 289.195C1325.76 287.702 1326.85 286.547 1328.22 285.73C1329.62 284.913 1331.18 284.505 1332.88 284.505C1334.56 284.505 1336.02 284.867 1337.25 285.59C1338.49 286.313 1339.41 287.223 1340.02 288.32V284.82H1343.24V304H1340.02V300.43C1339.39 301.55 1338.44 302.483 1337.18 303.23C1335.95 303.953 1334.5 304.315 1332.84 304.315C1331.14 304.315 1329.6 303.895 1328.22 303.055C1326.85 302.215 1325.76 301.037 1324.97 299.52C1324.18 298.003 1323.78 296.277 1323.78 294.34ZM1340.02 294.375C1340.02 292.928 1339.73 291.668 1339.14 290.595C1338.56 289.522 1337.77 288.705 1336.76 288.145C1335.78 287.562 1334.7 287.27 1333.51 287.27C1332.32 287.27 1331.23 287.55 1330.25 288.11C1329.27 288.67 1328.49 289.487 1327.91 290.56C1327.33 291.633 1327.03 292.893 1327.03 294.34C1327.03 295.81 1327.33 297.093 1327.91 298.19C1328.49 299.263 1329.27 300.092 1330.25 300.675C1331.23 301.235 1332.32 301.515 1333.51 301.515C1334.7 301.515 1335.78 301.235 1336.76 300.675C1337.77 300.092 1338.56 299.263 1339.14 298.19C1339.73 297.093 1340.02 295.822 1340.02 294.375ZM1383.5 284.82L1377.52 304H1374.23L1369.61 288.775L1364.99 304H1361.7L1355.68 284.82H1358.93L1363.34 300.92L1368.1 284.82H1371.36L1376.01 300.955L1380.35 284.82H1383.5ZM1385.47 294.34C1385.47 292.38 1385.87 290.665 1386.66 289.195C1387.46 287.702 1388.54 286.547 1389.92 285.73C1391.32 284.913 1392.87 284.505 1394.57 284.505C1396.25 284.505 1397.71 284.867 1398.95 285.59C1400.18 286.313 1401.11 287.223 1401.71 288.32V284.82H1404.93V304H1401.71V300.43C1401.08 301.55 1400.14 302.483 1398.88 303.23C1397.64 303.953 1396.19 304.315 1394.54 304.315C1392.83 304.315 1391.29 303.895 1389.92 303.055C1388.54 302.215 1387.46 301.037 1386.66 299.52C1385.87 298.003 1385.47 296.277 1385.47 294.34ZM1401.71 294.375C1401.71 292.928 1401.42 291.668 1400.84 290.595C1400.25 289.522 1399.46 288.705 1398.46 288.145C1397.48 287.562 1396.39 287.27 1395.2 287.27C1394.01 287.27 1392.93 287.55 1391.95 288.11C1390.97 288.67 1390.19 289.487 1389.6 290.56C1389.02 291.633 1388.73 292.893 1388.73 294.34C1388.73 295.81 1389.02 297.093 1389.6 298.19C1390.19 299.263 1390.97 300.092 1391.95 300.675C1392.93 301.235 1394.01 301.515 1395.2 301.515C1396.39 301.515 1397.48 301.235 1398.46 300.675C1399.46 300.092 1400.25 299.263 1400.84 298.19C1401.42 297.093 1401.71 295.822 1401.71 294.375ZM1426.84 284.82L1415.29 313.03H1412L1415.78 303.79L1408.04 284.82H1411.58L1417.6 300.36L1423.55 284.82H1426.84ZM1443.25 287.445V298.75C1443.25 299.683 1443.45 300.348 1443.85 300.745C1444.25 301.118 1444.93 301.305 1445.91 301.305H1448.26V304H1445.39C1443.62 304 1442.29 303.592 1441.4 302.775C1440.51 301.958 1440.07 300.617 1440.07 298.75V287.445H1437.58V284.82H1440.07V279.99H1443.25V284.82H1448.26V287.445H1443.25ZM1461.64 284.47C1463.08 284.47 1464.39 284.785 1465.56 285.415C1466.72 286.022 1467.63 286.943 1468.29 288.18C1468.96 289.417 1469.3 290.922 1469.3 292.695V304H1466.15V293.15C1466.15 291.237 1465.67 289.778 1464.72 288.775C1463.76 287.748 1462.45 287.235 1460.8 287.235C1459.12 287.235 1457.78 287.76 1456.77 288.81C1455.79 289.86 1455.3 291.388 1455.3 293.395V304H1452.12V278.1H1455.3V287.55C1455.93 286.57 1456.8 285.812 1457.89 285.275C1459.01 284.738 1460.26 284.47 1461.64 284.47ZM1473.32 294.34C1473.32 292.38 1473.71 290.665 1474.51 289.195C1475.3 287.702 1476.38 286.547 1477.76 285.73C1479.16 284.913 1480.71 284.505 1482.42 284.505C1484.1 284.505 1485.55 284.867 1486.79 285.59C1488.03 286.313 1488.95 287.223 1489.56 288.32V284.82H1492.78V304H1489.56V300.43C1488.93 301.55 1487.98 302.483 1486.72 303.23C1485.48 303.953 1484.04 304.315 1482.38 304.315C1480.68 304.315 1479.14 303.895 1477.76 303.055C1476.38 302.215 1475.3 301.037 1474.51 299.52C1473.71 298.003 1473.32 296.277 1473.32 294.34ZM1489.56 294.375C1489.56 292.928 1489.26 291.668 1488.68 290.595C1488.1 289.522 1487.3 288.705 1486.3 288.145C1485.32 287.562 1484.24 287.27 1483.05 287.27C1481.86 287.27 1480.77 287.55 1479.79 288.11C1478.81 288.67 1478.03 289.487 1477.45 290.56C1476.86 291.633 1476.57 292.893 1476.57 294.34C1476.57 295.81 1476.86 297.093 1477.45 298.19C1478.03 299.263 1478.81 300.092 1479.79 300.675C1480.77 301.235 1481.86 301.515 1483.05 301.515C1484.24 301.515 1485.32 301.235 1486.3 300.675C1487.3 300.092 1488.1 299.263 1488.68 298.19C1489.26 297.093 1489.56 295.822 1489.56 294.375ZM1502.04 287.445V298.75C1502.04 299.683 1502.24 300.348 1502.64 300.745C1503.03 301.118 1503.72 301.305 1504.7 301.305H1507.05V304H1504.18C1502.4 304 1501.07 303.592 1500.19 302.775C1499.3 301.958 1498.86 300.617 1498.86 298.75V287.445H1496.37V284.82H1498.86V279.99H1502.04V284.82H1507.05V287.445H1502.04ZM726.316 334.705C725.709 334.705 725.196 334.495 724.776 334.075C724.356 333.655 724.146 333.142 724.146 332.535C724.146 331.928 724.356 331.415 724.776 330.995C725.196 330.575 725.709 330.365 726.316 330.365C726.899 330.365 727.389 330.575 727.786 330.995C728.206 331.415 728.416 331.928 728.416 332.535C728.416 333.142 728.206 333.655 727.786 334.075C727.389 334.495 726.899 334.705 726.316 334.705ZM727.856 337.82V357H724.671V337.82H727.856ZM742.629 337.47C744.963 337.47 746.853 338.182 748.299 339.605C749.746 341.005 750.469 343.035 750.469 345.695V357H747.319V346.15C747.319 344.237 746.841 342.778 745.884 341.775C744.928 340.748 743.621 340.235 741.964 340.235C740.284 340.235 738.943 340.76 737.939 341.81C736.959 342.86 736.469 344.388 736.469 346.395V357H733.284V337.82H736.469V340.55C737.099 339.57 737.951 338.812 739.024 338.275C740.121 337.738 741.323 337.47 742.629 337.47ZM768.888 340.445V351.75C768.888 352.683 769.086 353.348 769.483 353.745C769.88 354.118 770.568 354.305 771.548 354.305H773.893V357H771.023C769.25 357 767.92 356.592 767.033 355.775C766.146 354.958 765.703 353.617 765.703 351.75V340.445H763.218V337.82H765.703V332.99H768.888V337.82H773.893V340.445H768.888ZM787.272 337.47C788.719 337.47 790.025 337.785 791.192 338.415C792.359 339.022 793.269 339.943 793.922 341.18C794.599 342.417 794.937 343.922 794.937 345.695V357H791.787V346.15C791.787 344.237 791.309 342.778 790.352 341.775C789.395 340.748 788.089 340.235 786.432 340.235C784.752 340.235 783.41 340.76 782.407 341.81C781.427 342.86 780.937 344.388 780.937 346.395V357H777.752V331.1H780.937V340.55C781.567 339.57 782.43 338.812 783.527 338.275C784.647 337.738 785.895 337.47 787.272 337.47ZM817.64 346.675C817.64 347.282 817.605 347.923 817.535 348.6H802.205C802.321 350.49 802.963 351.972 804.13 353.045C805.32 354.095 806.755 354.62 808.435 354.62C809.811 354.62 810.955 354.305 811.865 353.675C812.798 353.022 813.451 352.158 813.825 351.085H817.255C816.741 352.928 815.715 354.433 814.175 355.6C812.635 356.743 810.721 357.315 808.435 357.315C806.615 357.315 804.981 356.907 803.535 356.09C802.111 355.273 800.991 354.118 800.175 352.625C799.358 351.108 798.95 349.358 798.95 347.375C798.95 345.392 799.346 343.653 800.14 342.16C800.933 340.667 802.041 339.523 803.465 338.73C804.911 337.913 806.568 337.505 808.435 337.505C810.255 337.505 811.865 337.902 813.265 338.695C814.665 339.488 815.738 340.585 816.485 341.985C817.255 343.362 817.64 344.925 817.64 346.675ZM814.35 346.01C814.35 344.797 814.081 343.758 813.545 342.895C813.008 342.008 812.273 341.343 811.34 340.9C810.43 340.433 809.415 340.2 808.295 340.2C806.685 340.2 805.308 340.713 804.165 341.74C803.045 342.767 802.403 344.19 802.24 346.01H814.35ZM823.489 334.705C822.882 334.705 822.369 334.495 821.949 334.075C821.529 333.655 821.319 333.142 821.319 332.535C821.319 331.928 821.529 331.415 821.949 330.995C822.369 330.575 822.882 330.365 823.489 330.365C824.072 330.365 824.562 330.575 824.959 330.995C825.379 331.415 825.589 331.928 825.589 332.535C825.589 333.142 825.379 333.655 824.959 334.075C824.562 334.495 824.072 334.705 823.489 334.705ZM825.029 337.82V357H821.844V337.82H825.029ZM833.642 340.935C834.202 339.838 834.996 338.987 836.022 338.38C837.072 337.773 838.344 337.47 839.837 337.47V340.76H838.997C835.427 340.76 833.642 342.697 833.642 346.57V357H830.457V337.82H833.642V340.935ZM856.03 341.355C856.66 340.258 857.593 339.348 858.83 338.625C860.09 337.878 861.548 337.505 863.205 337.505C864.908 337.505 866.448 337.913 867.825 338.73C869.225 339.547 870.322 340.702 871.115 342.195C871.908 343.665 872.305 345.38 872.305 347.34C872.305 349.277 871.908 351.003 871.115 352.52C870.322 354.037 869.225 355.215 867.825 356.055C866.448 356.895 864.908 357.315 863.205 357.315C861.572 357.315 860.125 356.953 858.865 356.23C857.628 355.483 856.683 354.562 856.03 353.465V366.1H852.845V337.82H856.03V341.355ZM869.05 347.34C869.05 345.893 868.758 344.633 868.175 343.56C867.592 342.487 866.798 341.67 865.795 341.11C864.815 340.55 863.73 340.27 862.54 340.27C861.373 340.27 860.288 340.562 859.285 341.145C858.305 341.705 857.512 342.533 856.905 343.63C856.322 344.703 856.03 345.952 856.03 347.375C856.03 348.822 856.322 350.093 856.905 351.19C857.512 352.263 858.305 353.092 859.285 353.675C860.288 354.235 861.373 354.515 862.54 354.515C863.73 354.515 864.815 354.235 865.795 353.675C866.798 353.092 867.592 352.263 868.175 351.19C868.758 350.093 869.05 348.81 869.05 347.34ZM879.682 340.935C880.242 339.838 881.036 338.987 882.062 338.38C883.112 337.773 884.384 337.47 885.877 337.47V340.76H885.037C881.467 340.76 879.682 342.697 879.682 346.57V357H876.497V337.82H879.682V340.935ZM907.054 346.675C907.054 347.282 907.019 347.923 906.949 348.6H891.619C891.736 350.49 892.377 351.972 893.544 353.045C894.734 354.095 896.169 354.62 897.849 354.62C899.226 354.62 900.369 354.305 901.279 353.675C902.212 353.022 902.866 352.158 903.239 351.085H906.669C906.156 352.928 905.129 354.433 903.589 355.6C902.049 356.743 900.136 357.315 897.849 357.315C896.029 357.315 894.396 356.907 892.949 356.09C891.526 355.273 890.406 354.118 889.589 352.625C888.772 351.108 888.364 349.358 888.364 347.375C888.364 345.392 888.761 343.653 889.554 342.16C890.347 340.667 891.456 339.523 892.879 338.73C894.326 337.913 895.982 337.505 897.849 337.505C899.669 337.505 901.279 337.902 902.679 338.695C904.079 339.488 905.152 340.585 905.899 341.985C906.669 343.362 907.054 344.925 907.054 346.675ZM903.764 346.01C903.764 344.797 903.496 343.758 902.959 342.895C902.422 342.008 901.687 341.343 900.754 340.9C899.844 340.433 898.829 340.2 897.709 340.2C896.099 340.2 894.722 340.713 893.579 341.74C892.459 342.767 891.817 344.19 891.654 346.01H903.764ZM914.443 341.355C915.073 340.258 916.006 339.348 917.243 338.625C918.503 337.878 919.961 337.505 921.618 337.505C923.321 337.505 924.861 337.913 926.238 338.73C927.638 339.547 928.735 340.702 929.528 342.195C930.321 343.665 930.718 345.38 930.718 347.34C930.718 349.277 930.321 351.003 929.528 352.52C928.735 354.037 927.638 355.215 926.238 356.055C924.861 356.895 923.321 357.315 921.618 357.315C919.985 357.315 918.538 356.953 917.278 356.23C916.041 355.483 915.096 354.562 914.443 353.465V366.1H911.258V337.82H914.443V341.355ZM927.463 347.34C927.463 345.893 927.171 344.633 926.588 343.56C926.005 342.487 925.211 341.67 924.208 341.11C923.228 340.55 922.143 340.27 920.953 340.27C919.786 340.27 918.701 340.562 917.698 341.145C916.718 341.705 915.925 342.533 915.318 343.63C914.735 344.703 914.443 345.952 914.443 347.375C914.443 348.822 914.735 350.093 915.318 351.19C915.925 352.263 916.718 353.092 917.698 353.675C918.701 354.235 919.786 354.515 920.953 354.515C922.143 354.515 923.228 354.235 924.208 353.675C925.211 353.092 926.005 352.263 926.588 351.19C927.171 350.093 927.463 348.81 927.463 347.34ZM933.72 347.34C933.72 345.38 934.117 343.665 934.91 342.195C935.704 340.702 936.789 339.547 938.165 338.73C939.565 337.913 941.117 337.505 942.82 337.505C944.5 337.505 945.959 337.867 947.195 338.59C948.432 339.313 949.354 340.223 949.96 341.32V337.82H953.18V357H949.96V353.43C949.33 354.55 948.385 355.483 947.125 356.23C945.889 356.953 944.442 357.315 942.785 357.315C941.082 357.315 939.542 356.895 938.165 356.055C936.789 355.215 935.704 354.037 934.91 352.52C934.117 351.003 933.72 349.277 933.72 347.34ZM949.96 347.375C949.96 345.928 949.669 344.668 949.085 343.595C948.502 342.522 947.709 341.705 946.705 341.145C945.725 340.562 944.64 340.27 943.45 340.27C942.26 340.27 941.175 340.55 940.195 341.11C939.215 341.67 938.434 342.487 937.85 343.56C937.267 344.633 936.975 345.893 936.975 347.34C936.975 348.81 937.267 350.093 937.85 351.19C938.434 352.263 939.215 353.092 940.195 353.675C941.175 354.235 942.26 354.515 943.45 354.515C944.64 354.515 945.725 354.235 946.705 353.675C947.709 353.092 948.502 352.263 949.085 351.19C949.669 350.093 949.96 348.822 949.96 347.375ZM961.748 340.935C962.308 339.838 963.101 338.987 964.128 338.38C965.178 337.773 966.449 337.47 967.943 337.47V340.76H967.103C963.533 340.76 961.748 342.697 961.748 346.57V357H958.563V337.82H961.748V340.935ZM970.429 347.34C970.429 345.38 970.826 343.665 971.619 342.195C972.413 340.702 973.498 339.547 974.874 338.73C976.274 337.913 977.826 337.505 979.529 337.505C981.209 337.505 982.668 337.867 983.904 338.59C985.141 339.313 986.063 340.223 986.669 341.32V337.82H989.889V357H986.669V353.43C986.039 354.55 985.094 355.483 983.834 356.23C982.598 356.953 981.151 357.315 979.494 357.315C977.791 357.315 976.251 356.895 974.874 356.055C973.498 355.215 972.413 354.037 971.619 352.52C970.826 351.003 970.429 349.277 970.429 347.34ZM986.669 347.375C986.669 345.928 986.378 344.668 985.794 343.595C985.211 342.522 984.418 341.705 983.414 341.145C982.434 340.562 981.349 340.27 980.159 340.27C978.969 340.27 977.884 340.55 976.904 341.11C975.924 341.67 975.143 342.487 974.559 343.56C973.976 344.633 973.684 345.893 973.684 347.34C973.684 348.81 973.976 350.093 974.559 351.19C975.143 352.263 975.924 353.092 976.904 353.675C977.884 354.235 978.969 354.515 980.159 354.515C981.349 354.515 982.434 354.235 983.414 353.675C984.418 353.092 985.211 352.263 985.794 351.19C986.378 350.093 986.669 348.822 986.669 347.375ZM999.157 340.445V351.75C999.157 352.683 999.355 353.348 999.752 353.745C1000.15 354.118 1000.84 354.305 1001.82 354.305H1004.16V357H1001.29C999.518 357 998.188 356.592 997.302 355.775C996.415 354.958 995.972 353.617 995.972 351.75V340.445H993.487V337.82H995.972V332.99H999.157V337.82H1004.16V340.445H999.157ZM1009.67 334.705C1009.06 334.705 1008.55 334.495 1008.13 334.075C1007.71 333.655 1007.5 333.142 1007.5 332.535C1007.5 331.928 1007.71 331.415 1008.13 330.995C1008.55 330.575 1009.06 330.365 1009.67 330.365C1010.25 330.365 1010.74 330.575 1011.14 330.995C1011.56 331.415 1011.77 331.928 1011.77 332.535C1011.77 333.142 1011.56 333.655 1011.14 334.075C1010.74 334.495 1010.25 334.705 1009.67 334.705ZM1011.21 337.82V357H1008.02V337.82H1011.21ZM1025 357.315C1023.2 357.315 1021.57 356.907 1020.1 356.09C1018.65 355.273 1017.51 354.118 1016.67 352.625C1015.85 351.108 1015.44 349.358 1015.44 347.375C1015.44 345.415 1015.86 343.688 1016.7 342.195C1017.57 340.678 1018.73 339.523 1020.2 338.73C1021.67 337.913 1023.32 337.505 1025.14 337.505C1026.96 337.505 1028.6 337.913 1030.07 338.73C1031.54 339.523 1032.7 340.667 1033.54 342.16C1034.4 343.653 1034.83 345.392 1034.83 347.375C1034.83 349.358 1034.39 351.108 1033.5 352.625C1032.64 354.118 1031.46 355.273 1029.97 356.09C1028.48 356.907 1026.82 357.315 1025 357.315ZM1025 354.515C1026.14 354.515 1027.22 354.247 1028.22 353.71C1029.22 353.173 1030.03 352.368 1030.63 351.295C1031.26 350.222 1031.58 348.915 1031.58 347.375C1031.58 345.835 1031.28 344.528 1030.67 343.455C1030.06 342.382 1029.27 341.588 1028.29 341.075C1027.31 340.538 1026.25 340.27 1025.1 340.27C1023.94 340.27 1022.86 340.538 1021.88 341.075C1020.93 341.588 1020.16 342.382 1019.57 343.455C1018.99 344.528 1018.7 345.835 1018.7 347.375C1018.7 348.938 1018.98 350.257 1019.54 351.33C1020.12 352.403 1020.89 353.208 1021.85 353.745C1022.81 354.258 1023.86 354.515 1025 354.515ZM1048.37 337.47C1050.7 337.47 1052.59 338.182 1054.04 339.605C1055.48 341.005 1056.21 343.035 1056.21 345.695V357H1053.06V346.15C1053.06 344.237 1052.58 342.778 1051.62 341.775C1050.66 340.748 1049.36 340.235 1047.7 340.235C1046.02 340.235 1044.68 340.76 1043.68 341.81C1042.7 342.86 1042.21 344.388 1042.21 346.395V357H1039.02V337.82H1042.21V340.55C1042.84 339.57 1043.69 338.812 1044.76 338.275C1045.86 337.738 1047.06 337.47 1048.37 337.47ZM1078.55 340.445H1074.52V357H1071.34V340.445H1068.85V337.82H1071.34V336.455C1071.34 334.308 1071.88 332.745 1072.98 331.765C1074.1 330.762 1075.89 330.26 1078.34 330.26V332.92C1076.94 332.92 1075.94 333.2 1075.36 333.76C1074.8 334.297 1074.52 335.195 1074.52 336.455V337.82H1078.55V340.445ZM1090.62 357.315C1088.83 357.315 1087.19 356.907 1085.72 356.09C1084.28 355.273 1083.13 354.118 1082.29 352.625C1081.48 351.108 1081.07 349.358 1081.07 347.375C1081.07 345.415 1081.49 343.688 1082.33 342.195C1083.19 340.678 1084.36 339.523 1085.83 338.73C1087.3 337.913 1088.94 337.505 1090.76 337.505C1092.58 337.505 1094.23 337.913 1095.7 338.73C1097.17 339.523 1098.32 340.667 1099.16 342.16C1100.03 343.653 1100.46 345.392 1100.46 347.375C1100.46 349.358 1100.02 351.108 1099.13 352.625C1098.27 354.118 1097.09 355.273 1095.59 356.09C1094.1 356.907 1092.44 357.315 1090.62 357.315ZM1090.62 354.515C1091.77 354.515 1092.84 354.247 1093.84 353.71C1094.85 353.173 1095.65 352.368 1096.26 351.295C1096.89 350.222 1097.2 348.915 1097.2 347.375C1097.2 345.835 1096.9 344.528 1096.29 343.455C1095.69 342.382 1094.89 341.588 1093.91 341.075C1092.93 340.538 1091.87 340.27 1090.73 340.27C1089.56 340.27 1088.49 340.538 1087.51 341.075C1086.55 341.588 1085.78 342.382 1085.2 343.455C1084.62 344.528 1084.32 345.835 1084.32 347.375C1084.32 348.938 1084.6 350.257 1085.16 351.33C1085.75 352.403 1086.52 353.208 1087.47 353.745C1088.43 354.258 1089.48 354.515 1090.62 354.515ZM1107.83 340.935C1108.39 339.838 1109.18 338.987 1110.21 338.38C1111.26 337.773 1112.53 337.47 1114.03 337.47V340.76H1113.19C1109.62 340.76 1107.83 342.697 1107.83 346.57V357H1104.65V337.82H1107.83V340.935ZM1142.05 332.605V335.195H1135.4V357H1132.21V335.195H1125.53V332.605H1142.05ZM1163.47 346.675C1163.47 347.282 1163.43 347.923 1163.36 348.6H1148.03C1148.15 350.49 1148.79 351.972 1149.96 353.045C1151.15 354.095 1152.58 354.62 1154.26 354.62C1155.64 354.62 1156.78 354.305 1157.69 353.675C1158.63 353.022 1159.28 352.158 1159.65 351.085H1163.08C1162.57 352.928 1161.54 354.433 1160 355.6C1158.46 356.743 1156.55 357.315 1154.26 357.315C1152.44 357.315 1150.81 356.907 1149.36 356.09C1147.94 355.273 1146.82 354.118 1146 352.625C1145.19 351.108 1144.78 349.358 1144.78 347.375C1144.78 345.392 1145.18 343.653 1145.97 342.16C1146.76 340.667 1147.87 339.523 1149.29 338.73C1150.74 337.913 1152.4 337.505 1154.26 337.505C1156.08 337.505 1157.69 337.902 1159.09 338.695C1160.49 339.488 1161.57 340.585 1162.31 341.985C1163.08 343.362 1163.47 344.925 1163.47 346.675ZM1160.18 346.01C1160.18 344.797 1159.91 343.758 1159.37 342.895C1158.84 342.008 1158.1 341.343 1157.17 340.9C1156.26 340.433 1155.24 340.2 1154.12 340.2C1152.51 340.2 1151.14 340.713 1149.99 341.74C1148.87 342.767 1148.23 344.19 1148.07 346.01H1160.18ZM1170.86 331.1V357H1167.67V331.1H1170.86ZM1193.79 346.675C1193.79 347.282 1193.75 347.923 1193.68 348.6H1178.35C1178.47 350.49 1179.11 351.972 1180.28 353.045C1181.47 354.095 1182.9 354.62 1184.58 354.62C1185.96 354.62 1187.1 354.305 1188.01 353.675C1188.95 353.022 1189.6 352.158 1189.97 351.085H1193.4C1192.89 352.928 1191.86 354.433 1190.32 355.6C1188.78 356.743 1186.87 357.315 1184.58 357.315C1182.76 357.315 1181.13 356.907 1179.68 356.09C1178.26 355.273 1177.14 354.118 1176.32 352.625C1175.51 351.108 1175.1 349.358 1175.1 347.375C1175.1 345.392 1175.49 343.653 1176.29 342.16C1177.08 340.667 1178.19 339.523 1179.61 338.73C1181.06 337.913 1182.72 337.505 1184.58 337.505C1186.4 337.505 1188.01 337.902 1189.41 338.695C1190.81 339.488 1191.89 340.585 1192.63 341.985C1193.4 343.362 1193.79 344.925 1193.79 346.675ZM1190.5 346.01C1190.5 344.797 1190.23 343.758 1189.69 342.895C1189.16 342.008 1188.42 341.343 1187.49 340.9C1186.58 340.433 1185.56 340.2 1184.44 340.2C1182.83 340.2 1181.46 340.713 1180.31 341.74C1179.19 342.767 1178.55 344.19 1178.39 346.01H1190.5ZM1207.51 337.47C1208.96 337.47 1210.26 337.785 1211.43 338.415C1212.6 339.022 1213.51 339.943 1214.16 341.18C1214.84 342.417 1215.18 343.922 1215.18 345.695V357H1212.03V346.15C1212.03 344.237 1211.55 342.778 1210.59 341.775C1209.63 340.748 1208.33 340.235 1206.67 340.235C1204.99 340.235 1203.65 340.76 1202.65 341.81C1201.67 342.86 1201.18 344.388 1201.18 346.395V357H1197.99V331.1H1201.18V340.55C1201.81 339.57 1202.67 338.812 1203.77 338.275C1204.89 337.738 1206.13 337.47 1207.51 337.47ZM1237.88 346.675C1237.88 347.282 1237.84 347.923 1237.77 348.6H1222.44C1222.56 350.49 1223.2 351.972 1224.37 353.045C1225.56 354.095 1226.99 354.62 1228.67 354.62C1230.05 354.62 1231.19 354.305 1232.1 353.675C1233.04 353.022 1233.69 352.158 1234.06 351.085H1237.49C1236.98 352.928 1235.95 354.433 1234.41 355.6C1232.87 356.743 1230.96 357.315 1228.67 357.315C1226.85 357.315 1225.22 356.907 1223.77 356.09C1222.35 355.273 1221.23 354.118 1220.41 352.625C1219.6 351.108 1219.19 349.358 1219.19 347.375C1219.19 345.392 1219.59 343.653 1220.38 342.16C1221.17 340.667 1222.28 339.523 1223.7 338.73C1225.15 337.913 1226.81 337.505 1228.67 337.505C1230.49 337.505 1232.1 337.902 1233.5 338.695C1234.9 339.488 1235.98 340.585 1236.72 341.985C1237.49 343.362 1237.88 344.925 1237.88 346.675ZM1234.59 346.01C1234.59 344.797 1234.32 343.758 1233.78 342.895C1233.25 342.008 1232.51 341.343 1231.58 340.9C1230.67 340.433 1229.65 340.2 1228.53 340.2C1226.92 340.2 1225.55 340.713 1224.4 341.74C1223.28 342.767 1222.64 344.19 1222.48 346.01H1234.59ZM1240.89 347.34C1240.89 345.38 1241.29 343.665 1242.08 342.195C1242.88 340.702 1243.96 339.547 1245.34 338.73C1246.74 337.913 1248.29 337.505 1249.99 337.505C1251.67 337.505 1253.13 337.867 1254.37 338.59C1255.6 339.313 1256.53 340.223 1257.13 341.32V337.82H1260.35V357H1257.13V353.43C1256.5 354.55 1255.56 355.483 1254.3 356.23C1253.06 356.953 1251.61 357.315 1249.96 357.315C1248.25 357.315 1246.71 356.895 1245.34 356.055C1243.96 355.215 1242.88 354.037 1242.08 352.52C1241.29 351.003 1240.89 349.277 1240.89 347.34ZM1257.13 347.375C1257.13 345.928 1256.84 344.668 1256.26 343.595C1255.67 342.522 1254.88 341.705 1253.88 341.145C1252.9 340.562 1251.81 340.27 1250.62 340.27C1249.43 340.27 1248.35 340.55 1247.37 341.11C1246.39 341.67 1245.61 342.487 1245.02 343.56C1244.44 344.633 1244.15 345.893 1244.15 347.34C1244.15 348.81 1244.44 350.093 1245.02 351.19C1245.61 352.263 1246.39 353.092 1247.37 353.675C1248.35 354.235 1249.43 354.515 1250.62 354.515C1251.81 354.515 1252.9 354.235 1253.88 353.675C1254.88 353.092 1255.67 352.263 1256.26 351.19C1256.84 350.093 1257.13 348.822 1257.13 347.375ZM1268.92 331.1V357H1265.74V331.1H1268.92ZM1278.23 340.445V351.75C1278.23 352.683 1278.43 353.348 1278.83 353.745C1279.23 354.118 1279.91 354.305 1280.89 354.305H1283.24V357H1280.37C1278.6 357 1277.27 356.592 1276.38 355.775C1275.49 354.958 1275.05 353.617 1275.05 351.75V340.445H1272.56V337.82H1275.05V332.99H1278.23V337.82H1283.24V340.445H1278.23ZM1296.62 337.47C1298.06 337.47 1299.37 337.785 1300.54 338.415C1301.7 339.022 1302.61 339.943 1303.27 341.18C1303.94 342.417 1304.28 343.922 1304.28 345.695V357H1301.13V346.15C1301.13 344.237 1300.65 342.778 1299.7 341.775C1298.74 340.748 1297.43 340.235 1295.78 340.235C1294.1 340.235 1292.76 340.76 1291.75 341.81C1290.77 342.86 1290.28 344.388 1290.28 346.395V357H1287.1V331.1H1290.28V340.55C1290.91 339.57 1291.78 338.812 1292.87 338.275C1293.99 337.738 1295.24 337.47 1296.62 337.47ZM1325.96 354.06L1331.91 337.82H1335.3L1327.78 357H1324.07L1316.54 337.82H1319.97L1325.96 354.06ZM1340.08 334.705C1339.47 334.705 1338.96 334.495 1338.54 334.075C1338.12 333.655 1337.91 333.142 1337.91 332.535C1337.91 331.928 1338.12 331.415 1338.54 330.995C1338.96 330.575 1339.47 330.365 1340.08 330.365C1340.66 330.365 1341.15 330.575 1341.55 330.995C1341.97 331.415 1342.18 331.928 1342.18 332.535C1342.18 333.142 1341.97 333.655 1341.55 334.075C1341.15 334.495 1340.66 334.705 1340.08 334.705ZM1341.62 337.82V357H1338.44V337.82H1341.62ZM1353.84 357.315C1352.37 357.315 1351.05 357.07 1349.88 356.58C1348.72 356.067 1347.8 355.367 1347.12 354.48C1346.44 353.57 1346.07 352.532 1346 351.365H1349.29C1349.38 352.322 1349.83 353.103 1350.62 353.71C1351.44 354.317 1352.5 354.62 1353.8 354.62C1355.02 354.62 1355.97 354.352 1356.67 353.815C1357.37 353.278 1357.72 352.602 1357.72 351.785C1357.72 350.945 1357.35 350.327 1356.6 349.93C1355.86 349.51 1354.7 349.102 1353.14 348.705C1351.72 348.332 1350.55 347.958 1349.64 347.585C1348.75 347.188 1347.98 346.617 1347.33 345.87C1346.7 345.1 1346.38 344.097 1346.38 342.86C1346.38 341.88 1346.68 340.982 1347.26 340.165C1347.84 339.348 1348.67 338.707 1349.74 338.24C1350.82 337.75 1352.04 337.505 1353.42 337.505C1355.54 337.505 1357.26 338.042 1358.56 339.115C1359.87 340.188 1360.57 341.658 1360.66 343.525H1357.48C1357.41 342.522 1357 341.717 1356.25 341.11C1355.53 340.503 1354.55 340.2 1353.31 340.2C1352.17 340.2 1351.26 340.445 1350.58 340.935C1349.91 341.425 1349.57 342.067 1349.57 342.86C1349.57 343.49 1349.77 344.015 1350.16 344.435C1350.58 344.832 1351.1 345.158 1351.7 345.415C1352.33 345.648 1353.2 345.917 1354.29 346.22C1355.67 346.593 1356.79 346.967 1357.65 347.34C1358.52 347.69 1359.25 348.227 1359.86 348.95C1360.49 349.673 1360.82 350.618 1360.84 351.785C1360.84 352.835 1360.55 353.78 1359.96 354.62C1359.38 355.46 1358.55 356.125 1357.48 356.615C1356.43 357.082 1355.22 357.315 1353.84 357.315ZM1366.98 334.705C1366.37 334.705 1365.86 334.495 1365.44 334.075C1365.02 333.655 1364.81 333.142 1364.81 332.535C1364.81 331.928 1365.02 331.415 1365.44 330.995C1365.86 330.575 1366.37 330.365 1366.98 330.365C1367.56 330.365 1368.05 330.575 1368.45 330.995C1368.87 331.415 1369.08 331.928 1369.08 332.535C1369.08 333.142 1368.87 333.655 1368.45 334.075C1368.05 334.495 1367.56 334.705 1366.98 334.705ZM1368.52 337.82V357H1365.34V337.82H1368.52ZM1377.83 340.445V351.75C1377.83 352.683 1378.03 353.348 1378.43 353.745C1378.83 354.118 1379.51 354.305 1380.49 354.305H1382.84V357H1379.97C1378.2 357 1376.87 356.592 1375.98 355.775C1375.09 354.958 1374.65 353.617 1374.65 351.75V340.445H1372.16V337.82H1374.65V332.99H1377.83V337.82H1382.84V340.445H1377.83ZM1393.49 357.315C1392.02 357.315 1390.7 357.07 1389.53 356.58C1388.37 356.067 1387.44 355.367 1386.77 354.48C1386.09 353.57 1385.72 352.532 1385.65 351.365H1388.94C1389.03 352.322 1389.47 353.103 1390.27 353.71C1391.08 354.317 1392.15 354.62 1393.45 354.62C1394.67 354.62 1395.62 354.352 1396.32 353.815C1397.02 353.278 1397.37 352.602 1397.37 351.785C1397.37 350.945 1397 350.327 1396.25 349.93C1395.51 349.51 1394.35 349.102 1392.79 348.705C1391.36 348.332 1390.2 347.958 1389.29 347.585C1388.4 347.188 1387.63 346.617 1386.98 345.87C1386.35 345.1 1386.03 344.097 1386.03 342.86C1386.03 341.88 1386.32 340.982 1386.91 340.165C1387.49 339.348 1388.32 338.707 1389.39 338.24C1390.47 337.75 1391.69 337.505 1393.07 337.505C1395.19 337.505 1396.91 338.042 1398.21 339.115C1399.52 340.188 1400.22 341.658 1400.31 343.525H1397.13C1397.06 342.522 1396.65 341.717 1395.9 341.11C1395.18 340.503 1394.2 340.2 1392.96 340.2C1391.82 340.2 1390.91 340.445 1390.23 340.935C1389.56 341.425 1389.22 342.067 1389.22 342.86C1389.22 343.49 1389.42 344.015 1389.81 344.435C1390.23 344.832 1390.75 345.158 1391.35 345.415C1391.98 345.648 1392.85 345.917 1393.94 346.22C1395.32 346.593 1396.44 346.967 1397.3 347.34C1398.17 347.69 1398.9 348.227 1399.51 348.95C1400.14 349.673 1400.46 350.618 1400.49 351.785C1400.49 352.835 1400.2 353.78 1399.61 354.62C1399.03 355.46 1398.2 356.125 1397.13 356.615C1396.08 357.082 1394.86 357.315 1393.49 357.315ZM1411.21 332.29C1413.52 332.29 1415.39 332.943 1416.81 334.25C1418.24 335.557 1418.95 337.307 1418.95 339.5C1418.95 341.95 1418.19 343.77 1416.67 344.96C1415.16 346.127 1413.1 346.71 1410.51 346.71L1410.41 350.035H1407.64L1407.5 344.505H1408.52C1410.83 344.505 1412.64 344.155 1413.94 343.455C1415.25 342.755 1415.9 341.437 1415.9 339.5C1415.9 338.1 1415.48 336.992 1414.64 336.175C1413.8 335.358 1412.67 334.95 1411.25 334.95C1409.8 334.95 1408.66 335.347 1407.82 336.14C1407 336.91 1406.59 337.972 1406.59 339.325H1403.58C1403.58 337.925 1403.9 336.7 1404.53 335.65C1405.16 334.577 1406.05 333.748 1407.19 333.165C1408.36 332.582 1409.7 332.29 1411.21 332.29ZM1409.01 357.21C1408.4 357.21 1407.89 357 1407.47 356.58C1407.05 356.16 1406.84 355.647 1406.84 355.04C1406.84 354.433 1407.05 353.92 1407.47 353.5C1407.89 353.08 1408.4 352.87 1409.01 352.87C1409.59 352.87 1410.08 353.08 1410.48 353.5C1410.9 353.92 1411.11 354.433 1411.11 355.04C1411.11 355.647 1410.9 356.16 1410.48 356.58C1410.08 357 1409.59 357.21 1409.01 357.21Z" fill="#505050"/>
<path d="M849.259 251.28C847.556 251.28 846.039 250.988 844.709 250.405C843.379 249.822 842.329 249.028 841.559 248.025C840.789 246.998 840.357 245.855 840.264 244.595H846.179C846.249 245.272 846.564 245.82 847.124 246.24C847.684 246.66 848.372 246.87 849.189 246.87C849.936 246.87 850.507 246.73 850.904 246.45C851.324 246.147 851.534 245.762 851.534 245.295C851.534 244.735 851.242 244.327 850.659 244.07C850.076 243.79 849.131 243.487 847.824 243.16C846.424 242.833 845.257 242.495 844.324 242.145C843.391 241.772 842.586 241.2 841.909 240.43C841.232 239.637 840.894 238.575 840.894 237.245C840.894 236.125 841.197 235.11 841.804 234.2C842.434 233.267 843.344 232.532 844.534 231.995C845.747 231.458 847.182 231.19 848.839 231.19C851.289 231.19 853.214 231.797 854.614 233.01C856.037 234.223 856.854 235.833 857.064 237.84H851.534C851.441 237.163 851.137 236.627 850.624 236.23C850.134 235.833 849.481 235.635 848.664 235.635C847.964 235.635 847.427 235.775 847.054 236.055C846.681 236.312 846.494 236.673 846.494 237.14C846.494 237.7 846.786 238.12 847.369 238.4C847.976 238.68 848.909 238.96 850.169 239.24C851.616 239.613 852.794 239.987 853.704 240.36C854.614 240.71 855.407 241.293 856.084 242.11C856.784 242.903 857.146 243.977 857.169 245.33C857.169 246.473 856.842 247.5 856.189 248.41C855.559 249.297 854.637 249.997 853.424 250.51C852.234 251.023 850.846 251.28 849.259 251.28ZM879.241 240.92C879.241 241.48 879.206 242.063 879.136 242.67H865.591C865.684 243.883 866.069 244.817 866.746 245.47C867.446 246.1 868.297 246.415 869.301 246.415C870.794 246.415 871.832 245.785 872.416 244.525H878.786C878.459 245.808 877.864 246.963 877.001 247.99C876.161 249.017 875.099 249.822 873.816 250.405C872.532 250.988 871.097 251.28 869.511 251.28C867.597 251.28 865.894 250.872 864.401 250.055C862.907 249.238 861.741 248.072 860.901 246.555C860.061 245.038 859.641 243.265 859.641 241.235C859.641 239.205 860.049 237.432 860.866 235.915C861.706 234.398 862.872 233.232 864.366 232.415C865.859 231.598 867.574 231.19 869.511 231.19C871.401 231.19 873.081 231.587 874.551 232.38C876.021 233.173 877.164 234.305 877.981 235.775C878.821 237.245 879.241 238.96 879.241 240.92ZM873.116 239.345C873.116 238.318 872.766 237.502 872.066 236.895C871.366 236.288 870.491 235.985 869.441 235.985C868.437 235.985 867.586 236.277 866.886 236.86C866.209 237.443 865.789 238.272 865.626 239.345H873.116ZM881.208 241.2C881.208 239.193 881.581 237.432 882.328 235.915C883.098 234.398 884.136 233.232 885.443 232.415C886.75 231.598 888.208 231.19 889.818 231.19C891.195 231.19 892.396 231.47 893.423 232.03C894.473 232.59 895.278 233.325 895.838 234.235V231.47H901.823V251H895.838V248.235C895.255 249.145 894.438 249.88 893.388 250.44C892.361 251 891.16 251.28 889.783 251.28C888.196 251.28 886.75 250.872 885.443 250.055C884.136 249.215 883.098 248.037 882.328 246.52C881.581 244.98 881.208 243.207 881.208 241.2ZM895.838 241.235C895.838 239.742 895.418 238.563 894.578 237.7C893.761 236.837 892.758 236.405 891.568 236.405C890.378 236.405 889.363 236.837 888.523 237.7C887.706 238.54 887.298 239.707 887.298 241.2C887.298 242.693 887.706 243.883 888.523 244.77C889.363 245.633 890.378 246.065 891.568 246.065C892.758 246.065 893.761 245.633 894.578 244.77C895.418 243.907 895.838 242.728 895.838 241.235ZM931.073 231.26C933.5 231.26 935.425 231.995 936.848 233.465C938.295 234.935 939.018 236.977 939.018 239.59V251H933.068V240.395C933.068 239.135 932.73 238.167 932.053 237.49C931.4 236.79 930.49 236.44 929.323 236.44C928.156 236.44 927.235 236.79 926.558 237.49C925.905 238.167 925.578 239.135 925.578 240.395V251H919.628V240.395C919.628 239.135 919.29 238.167 918.613 237.49C917.96 236.79 917.05 236.44 915.883 236.44C914.716 236.44 913.795 236.79 913.118 237.49C912.465 238.167 912.138 239.135 912.138 240.395V251H906.153V231.47H912.138V233.92C912.745 233.103 913.538 232.462 914.518 231.995C915.498 231.505 916.606 231.26 917.843 231.26C919.313 231.26 920.62 231.575 921.763 232.205C922.93 232.835 923.84 233.733 924.493 234.9C925.17 233.827 926.091 232.952 927.258 232.275C928.425 231.598 929.696 231.26 931.073 231.26ZM949.189 225.1V251H943.204V225.1H949.189ZM971.936 240.92C971.936 241.48 971.901 242.063 971.831 242.67H958.286C958.379 243.883 958.764 244.817 959.441 245.47C960.141 246.1 960.993 246.415 961.996 246.415C963.489 246.415 964.528 245.785 965.111 244.525H971.481C971.154 245.808 970.559 246.963 969.696 247.99C968.856 249.017 967.794 249.822 966.511 250.405C965.228 250.988 963.793 251.28 962.206 251.28C960.293 251.28 958.589 250.872 957.096 250.055C955.603 249.238 954.436 248.072 953.596 246.555C952.756 245.038 952.336 243.265 952.336 241.235C952.336 239.205 952.744 237.432 953.561 235.915C954.401 234.398 955.568 233.232 957.061 232.415C958.554 231.598 960.269 231.19 962.206 231.19C964.096 231.19 965.776 231.587 967.246 232.38C968.716 233.173 969.859 234.305 970.676 235.775C971.516 237.245 971.936 238.96 971.936 240.92ZM965.811 239.345C965.811 238.318 965.461 237.502 964.761 236.895C964.061 236.288 963.186 235.985 962.136 235.985C961.133 235.985 960.281 236.277 959.581 236.86C958.904 237.443 958.484 238.272 958.321 239.345H965.811ZM983.038 251.28C981.335 251.28 979.818 250.988 978.488 250.405C977.158 249.822 976.108 249.028 975.338 248.025C974.568 246.998 974.137 245.855 974.043 244.595H979.958C980.028 245.272 980.343 245.82 980.903 246.24C981.463 246.66 982.152 246.87 982.968 246.87C983.715 246.87 984.287 246.73 984.683 246.45C985.103 246.147 985.313 245.762 985.313 245.295C985.313 244.735 985.022 244.327 984.438 244.07C983.855 243.79 982.91 243.487 981.603 243.16C980.203 242.833 979.037 242.495 978.103 242.145C977.17 241.772 976.365 241.2 975.688 240.43C975.012 239.637 974.673 238.575 974.673 237.245C974.673 236.125 974.977 235.11 975.583 234.2C976.213 233.267 977.123 232.532 978.313 231.995C979.527 231.458 980.962 231.19 982.618 231.19C985.068 231.19 986.993 231.797 988.393 233.01C989.817 234.223 990.633 235.833 990.843 237.84H985.313C985.22 237.163 984.917 236.627 984.403 236.23C983.913 235.833 983.26 235.635 982.443 235.635C981.743 235.635 981.207 235.775 980.833 236.055C980.46 236.312 980.273 236.673 980.273 237.14C980.273 237.7 980.565 238.12 981.148 238.4C981.755 238.68 982.688 238.96 983.948 239.24C985.395 239.613 986.573 239.987 987.483 240.36C988.393 240.71 989.187 241.293 989.863 242.11C990.563 242.903 990.925 243.977 990.948 245.33C990.948 246.473 990.622 247.5 989.968 248.41C989.338 249.297 988.417 249.997 987.203 250.51C986.013 251.023 984.625 251.28 983.038 251.28ZM1002.55 251.28C1000.85 251.28 999.335 250.988 998.005 250.405C996.675 249.822 995.625 249.028 994.855 248.025C994.085 246.998 993.653 245.855 993.56 244.595H999.475C999.545 245.272 999.86 245.82 1000.42 246.24C1000.98 246.66 1001.67 246.87 1002.48 246.87C1003.23 246.87 1003.8 246.73 1004.2 246.45C1004.62 246.147 1004.83 245.762 1004.83 245.295C1004.83 244.735 1004.54 244.327 1003.95 244.07C1003.37 243.79 1002.43 243.487 1001.12 243.16C999.72 242.833 998.553 242.495 997.62 242.145C996.687 241.772 995.882 241.2 995.205 240.43C994.528 239.637 994.19 238.575 994.19 237.245C994.19 236.125 994.493 235.11 995.1 234.2C995.73 233.267 996.64 232.532 997.83 231.995C999.043 231.458 1000.48 231.19 1002.13 231.19C1004.58 231.19 1006.51 231.797 1007.91 233.01C1009.33 234.223 1010.15 235.833 1010.36 237.84H1004.83C1004.74 237.163 1004.43 236.627 1003.92 236.23C1003.43 235.833 1002.78 235.635 1001.96 235.635C1001.26 235.635 1000.72 235.775 1000.35 236.055C999.977 236.312 999.79 236.673 999.79 237.14C999.79 237.7 1000.08 238.12 1000.66 238.4C1001.27 238.68 1002.2 238.96 1003.46 239.24C1004.91 239.613 1006.09 239.987 1007 240.36C1007.91 240.71 1008.7 241.293 1009.38 242.11C1010.08 242.903 1010.44 243.977 1010.46 245.33C1010.46 246.473 1010.14 247.5 1009.48 248.41C1008.85 249.297 1007.93 249.997 1006.72 250.51C1005.53 251.023 1004.14 251.28 1002.55 251.28ZM1020.11 225.1V251H1014.13V225.1H1020.11ZM1044.4 231.47L1032.15 260.275H1025.71L1030.19 250.335L1022.24 231.47H1028.93L1033.44 243.685L1037.92 231.47H1044.4ZM321.244 284.47V304H315.259V301.34C314.652 302.203 313.824 302.903 312.774 303.44C311.747 303.953 310.604 304.21 309.344 304.21C307.85 304.21 306.532 303.883 305.389 303.23C304.245 302.553 303.359 301.585 302.729 300.325C302.099 299.065 301.784 297.583 301.784 295.88V284.47H307.734V295.075C307.734 296.382 308.072 297.397 308.749 298.12C309.425 298.843 310.335 299.205 311.479 299.205C312.645 299.205 313.567 298.843 314.244 298.12C314.92 297.397 315.259 296.382 315.259 295.075V284.47H321.244ZM333.488 304.28C331.784 304.28 330.268 303.988 328.938 303.405C327.608 302.822 326.558 302.028 325.788 301.025C325.018 299.998 324.586 298.855 324.493 297.595H330.408C330.478 298.272 330.793 298.82 331.353 299.24C331.913 299.66 332.601 299.87 333.418 299.87C334.164 299.87 334.736 299.73 335.133 299.45C335.553 299.147 335.763 298.762 335.763 298.295C335.763 297.735 335.471 297.327 334.888 297.07C334.304 296.79 333.359 296.487 332.053 296.16C330.653 295.833 329.486 295.495 328.553 295.145C327.619 294.772 326.814 294.2 326.138 293.43C325.461 292.637 325.123 291.575 325.123 290.245C325.123 289.125 325.426 288.11 326.033 287.2C326.663 286.267 327.573 285.532 328.763 284.995C329.976 284.458 331.411 284.19 333.068 284.19C335.518 284.19 337.443 284.797 338.843 286.01C340.266 287.223 341.083 288.833 341.293 290.84H335.763C335.669 290.163 335.366 289.627 334.853 289.23C334.363 288.833 333.709 288.635 332.893 288.635C332.193 288.635 331.656 288.775 331.283 289.055C330.909 289.312 330.723 289.673 330.723 290.14C330.723 290.7 331.014 291.12 331.598 291.4C332.204 291.68 333.138 291.96 334.398 292.24C335.844 292.613 337.023 292.987 337.933 293.36C338.843 293.71 339.636 294.293 340.313 295.11C341.013 295.903 341.374 296.977 341.398 298.33C341.398 299.473 341.071 300.5 340.418 301.41C339.788 302.297 338.866 302.997 337.653 303.51C336.463 304.023 335.074 304.28 333.488 304.28ZM363.469 293.92C363.469 294.48 363.434 295.063 363.364 295.67H349.819C349.912 296.883 350.297 297.817 350.974 298.47C351.674 299.1 352.526 299.415 353.529 299.415C355.022 299.415 356.061 298.785 356.644 297.525H363.014C362.687 298.808 362.092 299.963 361.229 300.99C360.389 302.017 359.327 302.822 358.044 303.405C356.761 303.988 355.326 304.28 353.739 304.28C351.826 304.28 350.122 303.872 348.629 303.055C347.136 302.238 345.969 301.072 345.129 299.555C344.289 298.038 343.869 296.265 343.869 294.235C343.869 292.205 344.277 290.432 345.094 288.915C345.934 287.398 347.101 286.232 348.594 285.415C350.087 284.598 351.802 284.19 353.739 284.19C355.629 284.19 357.309 284.587 358.779 285.38C360.249 286.173 361.392 287.305 362.209 288.775C363.049 290.245 363.469 291.96 363.469 293.92ZM357.344 292.345C357.344 291.318 356.994 290.502 356.294 289.895C355.594 289.288 354.719 288.985 353.669 288.985C352.666 288.985 351.814 289.277 351.114 289.86C350.437 290.443 350.017 291.272 349.854 292.345H357.344ZM372.612 287.725C373.312 286.652 374.187 285.812 375.237 285.205C376.287 284.575 377.453 284.26 378.737 284.26V290.595H377.092C375.598 290.595 374.478 290.922 373.732 291.575C372.985 292.205 372.612 293.325 372.612 294.935V304H366.627V284.47H372.612V287.725ZM389.542 304.28C387.839 304.28 386.322 303.988 384.992 303.405C383.662 302.822 382.612 302.028 381.842 301.025C381.072 299.998 380.641 298.855 380.547 297.595H386.462C386.532 298.272 386.847 298.82 387.407 299.24C387.967 299.66 388.656 299.87 389.472 299.87C390.219 299.87 390.791 299.73 391.187 299.45C391.607 299.147 391.817 298.762 391.817 298.295C391.817 297.735 391.526 297.327 390.942 297.07C390.359 296.79 389.414 296.487 388.107 296.16C386.707 295.833 385.541 295.495 384.607 295.145C383.674 294.772 382.869 294.2 382.192 293.43C381.516 292.637 381.177 291.575 381.177 290.245C381.177 289.125 381.481 288.11 382.087 287.2C382.717 286.267 383.627 285.532 384.817 284.995C386.031 284.458 387.466 284.19 389.122 284.19C391.572 284.19 393.497 284.797 394.897 286.01C396.321 287.223 397.137 288.833 397.347 290.84H391.817C391.724 290.163 391.421 289.627 390.907 289.23C390.417 288.833 389.764 288.635 388.947 288.635C388.247 288.635 387.711 288.775 387.337 289.055C386.964 289.312 386.777 289.673 386.777 290.14C386.777 290.7 387.069 291.12 387.652 291.4C388.259 291.68 389.192 291.96 390.452 292.24C391.899 292.613 393.077 292.987 393.987 293.36C394.897 293.71 395.691 294.293 396.367 295.11C397.067 295.903 397.429 296.977 397.452 298.33C397.452 299.473 397.126 300.5 396.472 301.41C395.842 302.297 394.921 302.997 393.707 303.51C392.517 304.023 391.129 304.28 389.542 304.28ZM436.566 284.47L431.281 304H424.666L421.586 291.33L418.401 304H411.821L406.501 284.47H412.486L415.251 298.435L418.541 284.47H424.876L428.201 298.365L430.931 284.47H436.566ZM441.858 282.44C440.808 282.44 439.945 282.137 439.268 281.53C438.615 280.9 438.288 280.13 438.288 279.22C438.288 278.287 438.615 277.517 439.268 276.91C439.945 276.28 440.808 275.965 441.858 275.965C442.885 275.965 443.725 276.28 444.378 276.91C445.055 277.517 445.393 278.287 445.393 279.22C445.393 280.13 445.055 280.9 444.378 281.53C443.725 282.137 442.885 282.44 441.858 282.44ZM444.833 284.47V304H438.848V284.47H444.833ZM460.055 298.925V304H457.01C454.84 304 453.149 303.475 451.935 302.425C450.722 301.352 450.115 299.613 450.115 297.21V289.44H447.735V284.47H450.115V279.71H456.1V284.47H460.02V289.44H456.1V297.28C456.1 297.863 456.24 298.283 456.52 298.54C456.8 298.797 457.267 298.925 457.92 298.925H460.055ZM475.394 284.26C477.634 284.26 479.431 285.007 480.784 286.5C482.138 287.97 482.814 290 482.814 292.59V304H476.864V293.395C476.864 292.088 476.526 291.073 475.849 290.35C475.173 289.627 474.263 289.265 473.119 289.265C471.976 289.265 471.066 289.627 470.389 290.35C469.713 291.073 469.374 292.088 469.374 293.395V304H463.389V278.1H469.374V287.095C469.981 286.232 470.809 285.543 471.859 285.03C472.909 284.517 474.088 284.26 475.394 284.26ZM503.175 298.4L507.41 284.47H513.78L506.85 304H499.465L492.535 284.47H498.94L503.175 298.4ZM515.109 294.2C515.109 292.193 515.483 290.432 516.229 288.915C516.999 287.398 518.038 286.232 519.344 285.415C520.651 284.598 522.109 284.19 523.719 284.19C525.096 284.19 526.298 284.47 527.324 285.03C528.374 285.59 529.179 286.325 529.739 287.235V284.47H535.724V304H529.739V301.235C529.156 302.145 528.339 302.88 527.289 303.44C526.263 304 525.061 304.28 523.684 304.28C522.098 304.28 520.651 303.872 519.344 303.055C518.038 302.215 516.999 301.037 516.229 299.52C515.483 297.98 515.109 296.207 515.109 294.2ZM529.739 294.235C529.739 292.742 529.319 291.563 528.479 290.7C527.663 289.837 526.659 289.405 525.469 289.405C524.279 289.405 523.264 289.837 522.424 290.7C521.608 291.54 521.199 292.707 521.199 294.2C521.199 295.693 521.608 296.883 522.424 297.77C523.264 298.633 524.279 299.065 525.469 299.065C526.659 299.065 527.663 298.633 528.479 297.77C529.319 296.907 529.739 295.728 529.739 294.235ZM546.039 287.725C546.739 286.652 547.614 285.812 548.664 285.205C549.714 284.575 550.881 284.26 552.164 284.26V290.595H550.519C549.026 290.595 547.906 290.922 547.159 291.575C546.413 292.205 546.039 293.325 546.039 294.935V304H540.054V284.47H546.039V287.725ZM574.975 284.47L562.725 313.275H556.285L560.765 303.335L552.82 284.47H559.505L564.02 296.685L568.5 284.47H574.975ZM580.149 282.44C579.099 282.44 578.236 282.137 577.559 281.53C576.906 280.9 576.579 280.13 576.579 279.22C576.579 278.287 576.906 277.517 577.559 276.91C578.236 276.28 579.099 275.965 580.149 275.965C581.176 275.965 582.016 276.28 582.669 276.91C583.346 277.517 583.684 278.287 583.684 279.22C583.684 280.13 583.346 280.9 582.669 281.53C582.016 282.137 581.176 282.44 580.149 282.44ZM583.124 284.47V304H577.139V284.47H583.124ZM599.362 284.26C601.648 284.26 603.468 285.007 604.822 286.5C606.198 287.97 606.887 290 606.887 292.59V304H600.937V293.395C600.937 292.088 600.598 291.073 599.922 290.35C599.245 289.627 598.335 289.265 597.192 289.265C596.048 289.265 595.138 289.627 594.462 290.35C593.785 291.073 593.447 292.088 593.447 293.395V304H587.462V284.47H593.447V287.06C594.053 286.197 594.87 285.52 595.897 285.03C596.923 284.517 598.078 284.26 599.362 284.26ZM618.465 284.19C619.842 284.19 621.044 284.47 622.07 285.03C623.12 285.59 623.925 286.325 624.485 287.235V284.47H630.47V303.965C630.47 305.762 630.109 307.383 629.385 308.83C628.685 310.3 627.6 311.467 626.13 312.33C624.684 313.193 622.875 313.625 620.705 313.625C617.812 313.625 615.467 312.937 613.67 311.56C611.874 310.207 610.847 308.363 610.59 306.03H616.505C616.692 306.777 617.135 307.36 617.835 307.78C618.535 308.223 619.399 308.445 620.425 308.445C621.662 308.445 622.642 308.083 623.365 307.36C624.112 306.66 624.485 305.528 624.485 303.965V301.2C623.902 302.11 623.097 302.857 622.07 303.44C621.044 304 619.842 304.28 618.465 304.28C616.855 304.28 615.397 303.872 614.09 303.055C612.784 302.215 611.745 301.037 610.975 299.52C610.229 297.98 609.855 296.207 609.855 294.2C609.855 292.193 610.229 290.432 610.975 288.915C611.745 287.398 612.784 286.232 614.09 285.415C615.397 284.598 616.855 284.19 618.465 284.19ZM624.485 294.235C624.485 292.742 624.065 291.563 623.225 290.7C622.409 289.837 621.405 289.405 620.215 289.405C619.025 289.405 618.01 289.837 617.17 290.7C616.354 291.54 615.945 292.707 615.945 294.2C615.945 295.693 616.354 296.883 617.17 297.77C618.01 298.633 619.025 299.065 620.215 299.065C621.405 299.065 622.409 298.633 623.225 297.77C624.065 296.907 624.485 295.728 624.485 294.235ZM653.102 298.925V304H650.057C647.887 304 646.196 303.475 644.982 302.425C643.769 301.352 643.162 299.613 643.162 297.21V289.44H640.782V284.47H643.162V279.71H649.147V284.47H653.067V289.44H649.147V297.28C649.147 297.863 649.287 298.283 649.567 298.54C649.847 298.797 650.314 298.925 650.967 298.925H653.102ZM674.846 293.92C674.846 294.48 674.811 295.063 674.741 295.67H661.196C661.289 296.883 661.674 297.817 662.351 298.47C663.051 299.1 663.903 299.415 664.906 299.415C666.399 299.415 667.438 298.785 668.021 297.525H674.391C674.064 298.808 673.469 299.963 672.606 300.99C671.766 302.017 670.704 302.822 669.421 303.405C668.138 303.988 666.703 304.28 665.116 304.28C663.203 304.28 661.499 303.872 660.006 303.055C658.513 302.238 657.346 301.072 656.506 299.555C655.666 298.038 655.246 296.265 655.246 294.235C655.246 292.205 655.654 290.432 656.471 288.915C657.311 287.398 658.478 286.232 659.971 285.415C661.464 284.598 663.179 284.19 665.116 284.19C667.006 284.19 668.686 284.587 670.156 285.38C671.626 286.173 672.769 287.305 673.586 288.775C674.426 290.245 674.846 291.96 674.846 293.92ZM668.721 292.345C668.721 291.318 668.371 290.502 667.671 289.895C666.971 289.288 666.096 288.985 665.046 288.985C664.043 288.985 663.191 289.277 662.491 289.86C661.814 290.443 661.394 291.272 661.231 292.345H668.721ZM676.813 294.235C676.813 292.205 677.222 290.432 678.038 288.915C678.878 287.398 680.033 286.232 681.503 285.415C682.997 284.598 684.7 284.19 686.613 284.19C689.063 284.19 691.105 284.832 692.738 286.115C694.395 287.398 695.48 289.207 695.993 291.54H689.623C689.087 290.047 688.048 289.3 686.508 289.3C685.412 289.3 684.537 289.732 683.883 290.595C683.23 291.435 682.903 292.648 682.903 294.235C682.903 295.822 683.23 297.047 683.883 297.91C684.537 298.75 685.412 299.17 686.508 299.17C688.048 299.17 689.087 298.423 689.623 296.93H695.993C695.48 299.217 694.395 301.013 692.738 302.32C691.082 303.627 689.04 304.28 686.613 304.28C684.7 304.28 682.997 303.872 681.503 303.055C680.033 302.238 678.878 301.072 678.038 299.555C677.222 298.038 676.813 296.265 676.813 294.235ZM711.2 284.26C713.44 284.26 715.237 285.007 716.59 286.5C717.943 287.97 718.62 290 718.62 292.59V304H712.67V293.395C712.67 292.088 712.332 291.073 711.655 290.35C710.978 289.627 710.068 289.265 708.925 289.265C707.782 289.265 706.872 289.627 706.195 290.35C705.518 291.073 705.18 292.088 705.18 293.395V304H699.195V278.1H705.18V287.095C705.787 286.232 706.615 285.543 707.665 285.03C708.715 284.517 709.893 284.26 711.2 284.26ZM734.679 284.26C736.966 284.26 738.786 285.007 740.139 286.5C741.516 287.97 742.204 290 742.204 292.59V304H736.254V293.395C736.254 292.088 735.916 291.073 735.239 290.35C734.562 289.627 733.652 289.265 732.509 289.265C731.366 289.265 730.456 289.627 729.779 290.35C729.102 291.073 728.764 292.088 728.764 293.395V304H722.779V284.47H728.764V287.06C729.371 286.197 730.187 285.52 731.214 285.03C732.241 284.517 733.396 284.26 734.679 284.26ZM755.253 304.28C753.34 304.28 751.613 303.872 750.073 303.055C748.556 302.238 747.355 301.072 746.468 299.555C745.605 298.038 745.173 296.265 745.173 294.235C745.173 292.228 745.616 290.467 746.503 288.95C747.39 287.41 748.603 286.232 750.143 285.415C751.683 284.598 753.41 284.19 755.323 284.19C757.236 284.19 758.963 284.598 760.503 285.415C762.043 286.232 763.256 287.41 764.143 288.95C765.03 290.467 765.473 292.228 765.473 294.235C765.473 296.242 765.018 298.015 764.108 299.555C763.221 301.072 761.996 302.238 760.433 303.055C758.893 303.872 757.166 304.28 755.253 304.28ZM755.253 299.1C756.396 299.1 757.365 298.68 758.158 297.84C758.975 297 759.383 295.798 759.383 294.235C759.383 292.672 758.986 291.47 758.193 290.63C757.423 289.79 756.466 289.37 755.323 289.37C754.156 289.37 753.188 289.79 752.418 290.63C751.648 291.447 751.263 292.648 751.263 294.235C751.263 295.798 751.636 297 752.383 297.84C753.153 298.68 754.11 299.1 755.253 299.1ZM774.633 278.1V304H768.648V278.1H774.633ZM787.86 304.28C785.947 304.28 784.22 303.872 782.68 303.055C781.164 302.238 779.962 301.072 779.075 299.555C778.212 298.038 777.78 296.265 777.78 294.235C777.78 292.228 778.224 290.467 779.11 288.95C779.997 287.41 781.21 286.232 782.75 285.415C784.29 284.598 786.017 284.19 787.93 284.19C789.844 284.19 791.57 284.598 793.11 285.415C794.65 286.232 795.864 287.41 796.75 288.95C797.637 290.467 798.08 292.228 798.08 294.235C798.08 296.242 797.625 298.015 796.715 299.555C795.829 301.072 794.604 302.238 793.04 303.055C791.5 303.872 789.774 304.28 787.86 304.28ZM787.86 299.1C789.004 299.1 789.972 298.68 790.765 297.84C791.582 297 791.99 295.798 791.99 294.235C791.99 292.672 791.594 291.47 790.8 290.63C790.03 289.79 789.074 289.37 787.93 289.37C786.764 289.37 785.795 289.79 785.025 290.63C784.255 291.447 783.87 292.648 783.87 294.235C783.87 295.798 784.244 297 784.99 297.84C785.76 298.68 786.717 299.1 787.86 299.1ZM808.675 284.19C810.052 284.19 811.254 284.47 812.28 285.03C813.33 285.59 814.135 286.325 814.695 287.235V284.47H820.68V303.965C820.68 305.762 820.319 307.383 819.595 308.83C818.895 310.3 817.81 311.467 816.34 312.33C814.894 313.193 813.085 313.625 810.915 313.625C808.022 313.625 805.677 312.937 803.88 311.56C802.084 310.207 801.057 308.363 800.8 306.03H806.715C806.902 306.777 807.345 307.36 808.045 307.78C808.745 308.223 809.609 308.445 810.635 308.445C811.872 308.445 812.852 308.083 813.575 307.36C814.322 306.66 814.695 305.528 814.695 303.965V301.2C814.112 302.11 813.307 302.857 812.28 303.44C811.254 304 810.052 304.28 808.675 304.28C807.065 304.28 805.607 303.872 804.3 303.055C802.994 302.215 801.955 301.037 801.185 299.52C800.439 297.98 800.065 296.207 800.065 294.2C800.065 292.193 800.439 290.432 801.185 288.915C801.955 287.398 802.994 286.232 804.3 285.415C805.607 284.598 807.065 284.19 808.675 284.19ZM814.695 294.235C814.695 292.742 814.275 291.563 813.435 290.7C812.619 289.837 811.615 289.405 810.425 289.405C809.235 289.405 808.22 289.837 807.38 290.7C806.564 291.54 806.155 292.707 806.155 294.2C806.155 295.693 806.564 296.883 807.38 297.77C808.22 298.633 809.235 299.065 810.425 299.065C811.615 299.065 812.619 298.633 813.435 297.77C814.275 296.907 814.695 295.728 814.695 294.235ZM844.96 284.47L832.71 313.275H826.27L830.75 303.335L822.805 284.47H829.49L834.005 296.685L838.485 284.47H844.96ZM862.487 304.28C860.783 304.28 859.267 303.988 857.937 303.405C856.607 302.822 855.557 302.028 854.787 301.025C854.017 299.998 853.585 298.855 853.492 297.595H859.407C859.477 298.272 859.792 298.82 860.352 299.24C860.912 299.66 861.6 299.87 862.417 299.87C863.163 299.87 863.735 299.73 864.132 299.45C864.552 299.147 864.762 298.762 864.762 298.295C864.762 297.735 864.47 297.327 863.887 297.07C863.303 296.79 862.358 296.487 861.052 296.16C859.652 295.833 858.485 295.495 857.552 295.145C856.618 294.772 855.813 294.2 855.137 293.43C854.46 292.637 854.122 291.575 854.122 290.245C854.122 289.125 854.425 288.11 855.032 287.2C855.662 286.267 856.572 285.532 857.762 284.995C858.975 284.458 860.41 284.19 862.067 284.19C864.517 284.19 866.442 284.797 867.842 286.01C869.265 287.223 870.082 288.833 870.292 290.84H864.762C864.668 290.163 864.365 289.627 863.852 289.23C863.362 288.833 862.708 288.635 861.892 288.635C861.192 288.635 860.655 288.775 860.282 289.055C859.908 289.312 859.722 289.673 859.722 290.14C859.722 290.7 860.013 291.12 860.597 291.4C861.203 291.68 862.137 291.96 863.397 292.24C864.843 292.613 866.022 292.987 866.932 293.36C867.842 293.71 868.635 294.293 869.312 295.11C870.012 295.903 870.373 296.977 870.397 298.33C870.397 299.473 870.07 300.5 869.417 301.41C868.787 302.297 867.865 302.997 866.652 303.51C865.462 304.023 864.073 304.28 862.487 304.28ZM885.993 304L880.043 295.81V304H874.058V278.1H880.043V292.415L885.958 284.47H893.343L885.223 294.27L893.413 304H885.993ZM898.704 282.44C897.654 282.44 896.791 282.137 896.114 281.53C895.461 280.9 895.134 280.13 895.134 279.22C895.134 278.287 895.461 277.517 896.114 276.91C896.791 276.28 897.654 275.965 898.704 275.965C899.731 275.965 900.571 276.28 901.224 276.91C901.901 277.517 902.239 278.287 902.239 279.22C902.239 280.13 901.901 280.9 901.224 281.53C900.571 282.137 899.731 282.44 898.704 282.44ZM901.679 284.47V304H895.694V284.47H901.679ZM912.001 278.1V304H906.016V278.1H912.001ZM922.323 278.1V304H916.338V278.1H922.323ZM934.606 304.28C932.902 304.28 931.386 303.988 930.056 303.405C928.726 302.822 927.676 302.028 926.906 301.025C926.136 299.998 925.704 298.855 925.611 297.595H931.526C931.596 298.272 931.911 298.82 932.471 299.24C933.031 299.66 933.719 299.87 934.536 299.87C935.282 299.87 935.854 299.73 936.251 299.45C936.671 299.147 936.881 298.762 936.881 298.295C936.881 297.735 936.589 297.327 936.006 297.07C935.422 296.79 934.477 296.487 933.171 296.16C931.771 295.833 930.604 295.495 929.671 295.145C928.737 294.772 927.932 294.2 927.256 293.43C926.579 292.637 926.241 291.575 926.241 290.245C926.241 289.125 926.544 288.11 927.151 287.2C927.781 286.267 928.691 285.532 929.881 284.995C931.094 284.458 932.529 284.19 934.186 284.19C936.636 284.19 938.561 284.797 939.961 286.01C941.384 287.223 942.201 288.833 942.411 290.84H936.881C936.787 290.163 936.484 289.627 935.971 289.23C935.481 288.833 934.827 288.635 934.011 288.635C933.311 288.635 932.774 288.775 932.401 289.055C932.027 289.312 931.841 289.673 931.841 290.14C931.841 290.7 932.132 291.12 932.716 291.4C933.322 291.68 934.256 291.96 935.516 292.24C936.962 292.613 938.141 292.987 939.051 293.36C939.961 293.71 940.754 294.293 941.431 295.11C942.131 295.903 942.492 296.977 942.516 298.33C942.516 299.473 942.189 300.5 941.536 301.41C940.906 302.297 939.984 302.997 938.771 303.51C937.581 304.023 936.192 304.28 934.606 304.28ZM952.404 294.2C952.404 292.193 952.778 290.432 953.524 288.915C954.294 287.398 955.333 286.232 956.639 285.415C957.946 284.598 959.404 284.19 961.014 284.19C962.391 284.19 963.593 284.47 964.619 285.03C965.669 285.59 966.474 286.325 967.034 287.235V284.47H973.019V304H967.034V301.235C966.451 302.145 965.634 302.88 964.584 303.44C963.558 304 962.356 304.28 960.979 304.28C959.393 304.28 957.946 303.872 956.639 303.055C955.333 302.215 954.294 301.037 953.524 299.52C952.778 297.98 952.404 296.207 952.404 294.2ZM967.034 294.235C967.034 292.742 966.614 291.563 965.774 290.7C964.958 289.837 963.954 289.405 962.764 289.405C961.574 289.405 960.559 289.837 959.719 290.7C958.903 291.54 958.494 292.707 958.494 294.2C958.494 295.693 958.903 296.883 959.719 297.77C960.559 298.633 961.574 299.065 962.764 299.065C963.954 299.065 964.958 298.633 965.774 297.77C966.614 296.907 967.034 295.728 967.034 294.235ZM989.249 284.26C991.536 284.26 993.356 285.007 994.709 286.5C996.086 287.97 996.774 290 996.774 292.59V304H990.824V293.395C990.824 292.088 990.486 291.073 989.809 290.35C989.133 289.627 988.223 289.265 987.079 289.265C985.936 289.265 985.026 289.627 984.349 290.35C983.673 291.073 983.334 292.088 983.334 293.395V304H977.349V284.47H983.334V287.06C983.941 286.197 984.758 285.52 985.784 285.03C986.811 284.517 987.966 284.26 989.249 284.26ZM999.743 294.2C999.743 292.193 1000.12 290.432 1000.86 288.915C1001.63 287.398 1002.67 286.232 1003.98 285.415C1005.28 284.598 1006.74 284.19 1008.35 284.19C1009.64 284.19 1010.8 284.458 1011.85 284.995C1012.93 285.532 1013.77 286.255 1014.37 287.165V278.1H1020.36V304H1014.37V301.2C1013.81 302.133 1013.01 302.88 1011.96 303.44C1010.93 304 1009.73 304.28 1008.35 304.28C1006.74 304.28 1005.28 303.872 1003.98 303.055C1002.67 302.215 1001.63 301.037 1000.86 299.52C1000.12 297.98 999.743 296.207 999.743 294.2ZM1014.37 294.235C1014.37 292.742 1013.95 291.563 1013.11 290.7C1012.3 289.837 1011.29 289.405 1010.1 289.405C1008.91 289.405 1007.9 289.837 1007.06 290.7C1006.24 291.54 1005.83 292.707 1005.83 294.2C1005.83 295.693 1006.24 296.883 1007.06 297.77C1007.9 298.633 1008.91 299.065 1010.1 299.065C1011.29 299.065 1012.3 298.633 1013.11 297.77C1013.95 296.907 1014.37 295.728 1014.37 294.235ZM1042.99 298.925V304H1039.95C1037.78 304 1036.08 303.475 1034.87 302.425C1033.66 301.352 1033.05 299.613 1033.05 297.21V289.44H1030.67V284.47H1033.05V279.71H1039.04V284.47H1042.96V289.44H1039.04V297.28C1039.04 297.863 1039.18 298.283 1039.46 298.54C1039.74 298.797 1040.2 298.925 1040.86 298.925H1042.99ZM1064.73 293.92C1064.73 294.48 1064.7 295.063 1064.63 295.67H1051.08C1051.18 296.883 1051.56 297.817 1052.24 298.47C1052.94 299.1 1053.79 299.415 1054.79 299.415C1056.29 299.415 1057.33 298.785 1057.91 297.525H1064.28C1063.95 298.808 1063.36 299.963 1062.49 300.99C1061.65 302.017 1060.59 302.822 1059.31 303.405C1058.03 303.988 1056.59 304.28 1055 304.28C1053.09 304.28 1051.39 303.872 1049.89 303.055C1048.4 302.238 1047.23 301.072 1046.39 299.555C1045.55 298.038 1045.13 296.265 1045.13 294.235C1045.13 292.205 1045.54 290.432 1046.36 288.915C1047.2 287.398 1048.37 286.232 1049.86 285.415C1051.35 284.598 1053.07 284.19 1055 284.19C1056.89 284.19 1058.57 284.587 1060.04 285.38C1061.51 286.173 1062.66 287.305 1063.47 288.775C1064.31 290.245 1064.73 291.96 1064.73 293.92ZM1058.61 292.345C1058.61 291.318 1058.26 290.502 1057.56 289.895C1056.86 289.288 1055.98 288.985 1054.93 288.985C1053.93 288.985 1053.08 289.277 1052.38 289.86C1051.7 290.443 1051.28 291.272 1051.12 292.345H1058.61ZM1075.84 304.28C1074.13 304.28 1072.62 303.988 1071.29 303.405C1069.96 302.822 1068.91 302.028 1068.14 301.025C1067.37 299.998 1066.93 298.855 1066.84 297.595H1072.76C1072.83 298.272 1073.14 298.82 1073.7 299.24C1074.26 299.66 1074.95 299.87 1075.77 299.87C1076.51 299.87 1077.08 299.73 1077.48 299.45C1077.9 299.147 1078.11 298.762 1078.11 298.295C1078.11 297.735 1077.82 297.327 1077.24 297.07C1076.65 296.79 1075.71 296.487 1074.4 296.16C1073 295.833 1071.83 295.495 1070.9 295.145C1069.97 294.772 1069.16 294.2 1068.49 293.43C1067.81 292.637 1067.47 291.575 1067.47 290.245C1067.47 289.125 1067.77 288.11 1068.38 287.2C1069.01 286.267 1069.92 285.532 1071.11 284.995C1072.32 284.458 1073.76 284.19 1075.42 284.19C1077.87 284.19 1079.79 284.797 1081.19 286.01C1082.61 287.223 1083.43 288.833 1083.64 290.84H1078.11C1078.02 290.163 1077.71 289.627 1077.2 289.23C1076.71 288.833 1076.06 288.635 1075.24 288.635C1074.54 288.635 1074 288.775 1073.63 289.055C1073.26 289.312 1073.07 289.673 1073.07 290.14C1073.07 290.7 1073.36 291.12 1073.95 291.4C1074.55 291.68 1075.49 291.96 1076.75 292.24C1078.19 292.613 1079.37 292.987 1080.28 293.36C1081.19 293.71 1081.98 294.293 1082.66 295.11C1083.36 295.903 1083.72 296.977 1083.75 298.33C1083.75 299.473 1083.42 300.5 1082.77 301.41C1082.14 302.297 1081.21 302.997 1080 303.51C1078.81 304.023 1077.42 304.28 1075.84 304.28ZM1098.29 298.925V304H1095.25C1093.08 304 1091.39 303.475 1090.17 302.425C1088.96 301.352 1088.35 299.613 1088.35 297.21V289.44H1085.97V284.47H1088.35V279.71H1094.34V284.47H1098.26V289.44H1094.34V297.28C1094.34 297.863 1094.48 298.283 1094.76 298.54C1095.04 298.797 1095.5 298.925 1096.16 298.925H1098.29ZM1104.64 282.44C1103.59 282.44 1102.72 282.137 1102.05 281.53C1101.39 280.9 1101.07 280.13 1101.07 279.22C1101.07 278.287 1101.39 277.517 1102.05 276.91C1102.72 276.28 1103.59 275.965 1104.64 275.965C1105.66 275.965 1106.5 276.28 1107.16 276.91C1107.83 277.517 1108.17 278.287 1108.17 279.22C1108.17 280.13 1107.83 280.9 1107.16 281.53C1106.5 282.137 1105.66 282.44 1104.64 282.44ZM1107.61 284.47V304H1101.63V284.47H1107.61ZM1123.85 284.26C1126.14 284.26 1127.96 285.007 1129.31 286.5C1130.69 287.97 1131.37 290 1131.37 292.59V304H1125.42V293.395C1125.42 292.088 1125.09 291.073 1124.41 290.35C1123.73 289.627 1122.82 289.265 1121.68 289.265C1120.54 289.265 1119.63 289.627 1118.95 290.35C1118.27 291.073 1117.93 292.088 1117.93 293.395V304H1111.95V284.47H1117.93V287.06C1118.54 286.197 1119.36 285.52 1120.38 285.03C1121.41 284.517 1122.57 284.26 1123.85 284.26ZM1142.95 284.19C1144.33 284.19 1145.53 284.47 1146.56 285.03C1147.61 285.59 1148.41 286.325 1148.97 287.235V284.47H1154.96V303.965C1154.96 305.762 1154.6 307.383 1153.87 308.83C1153.17 310.3 1152.09 311.467 1150.62 312.33C1149.17 313.193 1147.36 313.625 1145.19 313.625C1142.3 313.625 1139.95 312.937 1138.16 311.56C1136.36 310.207 1135.33 308.363 1135.08 306.03H1140.99C1141.18 306.777 1141.62 307.36 1142.32 307.78C1143.02 308.223 1143.89 308.445 1144.91 308.445C1146.15 308.445 1147.13 308.083 1147.85 307.36C1148.6 306.66 1148.97 305.528 1148.97 303.965V301.2C1148.39 302.11 1147.58 302.857 1146.56 303.44C1145.53 304 1144.33 304.28 1142.95 304.28C1141.34 304.28 1139.88 303.872 1138.58 303.055C1137.27 302.215 1136.23 301.037 1135.46 299.52C1134.72 297.98 1134.34 296.207 1134.34 294.2C1134.34 292.193 1134.72 290.432 1135.46 288.915C1136.23 287.398 1137.27 286.232 1138.58 285.415C1139.88 284.598 1141.34 284.19 1142.95 284.19ZM1148.97 294.235C1148.97 292.742 1148.55 291.563 1147.71 290.7C1146.9 289.837 1145.89 289.405 1144.7 289.405C1143.51 289.405 1142.5 289.837 1141.66 290.7C1140.84 291.54 1140.43 292.707 1140.43 294.2C1140.43 295.693 1140.84 296.883 1141.66 297.77C1142.5 298.633 1143.51 299.065 1144.7 299.065C1145.89 299.065 1146.9 298.633 1147.71 297.77C1148.55 296.907 1148.97 295.728 1148.97 294.235ZM1178.6 284.26C1180.89 284.26 1182.71 285.007 1184.06 286.5C1185.44 287.97 1186.13 290 1186.13 292.59V304H1180.18V293.395C1180.18 292.088 1179.84 291.073 1179.16 290.35C1178.49 289.627 1177.58 289.265 1176.43 289.265C1175.29 289.265 1174.38 289.627 1173.7 290.35C1173.03 291.073 1172.69 292.088 1172.69 293.395V304H1166.7V284.47H1172.69V287.06C1173.3 286.197 1174.11 285.52 1175.14 285.03C1176.17 284.517 1177.32 284.26 1178.6 284.26ZM1208.7 293.92C1208.7 294.48 1208.66 295.063 1208.59 295.67H1195.05C1195.14 296.883 1195.53 297.817 1196.2 298.47C1196.9 299.1 1197.76 299.415 1198.76 299.415C1200.25 299.415 1201.29 298.785 1201.87 297.525H1208.24C1207.92 298.808 1207.32 299.963 1206.46 300.99C1205.62 302.017 1204.56 302.822 1203.27 303.405C1201.99 303.988 1200.56 304.28 1198.97 304.28C1197.06 304.28 1195.35 303.872 1193.86 303.055C1192.37 302.238 1191.2 301.072 1190.36 299.555C1189.52 298.038 1189.1 296.265 1189.1 294.235C1189.1 292.205 1189.51 290.432 1190.32 288.915C1191.16 287.398 1192.33 286.232 1193.82 285.415C1195.32 284.598 1197.03 284.19 1198.97 284.19C1200.86 284.19 1202.54 284.587 1204.01 285.38C1205.48 286.173 1206.62 287.305 1207.44 288.775C1208.28 290.245 1208.7 291.96 1208.7 293.92ZM1202.57 292.345C1202.57 291.318 1202.22 290.502 1201.52 289.895C1200.82 289.288 1199.95 288.985 1198.9 288.985C1197.9 288.985 1197.04 289.277 1196.34 289.86C1195.67 290.443 1195.25 291.272 1195.08 292.345H1202.57ZM1230.27 293.92C1230.27 294.48 1230.23 295.063 1230.16 295.67H1216.62C1216.71 296.883 1217.09 297.817 1217.77 298.47C1218.47 299.1 1219.32 299.415 1220.33 299.415C1221.82 299.415 1222.86 298.785 1223.44 297.525H1229.81C1229.48 298.808 1228.89 299.963 1228.03 300.99C1227.19 302.017 1226.12 302.822 1224.84 303.405C1223.56 303.988 1222.12 304.28 1220.54 304.28C1218.62 304.28 1216.92 303.872 1215.43 303.055C1213.93 302.238 1212.77 301.072 1211.93 299.555C1211.09 298.038 1210.67 296.265 1210.67 294.235C1210.67 292.205 1211.07 290.432 1211.89 288.915C1212.73 287.398 1213.9 286.232 1215.39 285.415C1216.88 284.598 1218.6 284.19 1220.54 284.19C1222.43 284.19 1224.11 284.587 1225.58 285.38C1227.05 286.173 1228.19 287.305 1229.01 288.775C1229.85 290.245 1230.27 291.96 1230.27 293.92ZM1224.14 292.345C1224.14 291.318 1223.79 290.502 1223.09 289.895C1222.39 289.288 1221.52 288.985 1220.47 288.985C1219.46 288.985 1218.61 289.277 1217.91 289.86C1217.23 290.443 1216.81 291.272 1216.65 292.345H1224.14ZM1232.23 294.2C1232.23 292.193 1232.61 290.432 1233.35 288.915C1234.12 287.398 1235.16 286.232 1236.47 285.415C1237.78 284.598 1239.23 284.19 1240.84 284.19C1242.13 284.19 1243.29 284.458 1244.34 284.995C1245.42 285.532 1246.26 286.255 1246.86 287.165V278.1H1252.85V304H1246.86V301.2C1246.3 302.133 1245.5 302.88 1244.45 303.44C1243.42 304 1242.22 304.28 1240.84 304.28C1239.23 304.28 1237.78 303.872 1236.47 303.055C1235.16 302.215 1234.12 301.037 1233.35 299.52C1232.61 297.98 1232.23 296.207 1232.23 294.2ZM1246.86 294.235C1246.86 292.742 1246.44 291.563 1245.6 290.7C1244.79 289.837 1243.78 289.405 1242.59 289.405C1241.4 289.405 1240.39 289.837 1239.55 290.7C1238.73 291.54 1238.32 292.707 1238.32 294.2C1238.32 295.693 1238.73 296.883 1239.55 297.77C1240.39 298.633 1241.4 299.065 1242.59 299.065C1243.78 299.065 1244.79 298.633 1245.6 297.77C1246.44 296.907 1246.86 295.728 1246.86 294.235ZM1265.12 304.28C1263.42 304.28 1261.9 303.988 1260.57 303.405C1259.24 302.822 1258.19 302.028 1257.42 301.025C1256.65 299.998 1256.22 298.855 1256.13 297.595H1262.04C1262.11 298.272 1262.43 298.82 1262.99 299.24C1263.55 299.66 1264.24 299.87 1265.05 299.87C1265.8 299.87 1266.37 299.73 1266.77 299.45C1267.19 299.147 1267.4 298.762 1267.4 298.295C1267.4 297.735 1267.11 297.327 1266.52 297.07C1265.94 296.79 1264.99 296.487 1263.69 296.16C1262.29 295.833 1261.12 295.495 1260.19 295.145C1259.25 294.772 1258.45 294.2 1257.77 293.43C1257.1 292.637 1256.76 291.575 1256.76 290.245C1256.76 289.125 1257.06 288.11 1257.67 287.2C1258.3 286.267 1259.21 285.532 1260.4 284.995C1261.61 284.458 1263.05 284.19 1264.7 284.19C1267.15 284.19 1269.08 284.797 1270.48 286.01C1271.9 287.223 1272.72 288.833 1272.93 290.84H1267.4C1267.3 290.163 1267 289.627 1266.49 289.23C1266 288.833 1265.34 288.635 1264.53 288.635C1263.83 288.635 1263.29 288.775 1262.92 289.055C1262.54 289.312 1262.36 289.673 1262.36 290.14C1262.36 290.7 1262.65 291.12 1263.23 291.4C1263.84 291.68 1264.77 291.96 1266.03 292.24C1267.48 292.613 1268.66 292.987 1269.57 293.36C1270.48 293.71 1271.27 294.293 1271.95 295.11C1272.65 295.903 1273.01 296.977 1273.03 298.33C1273.03 299.473 1272.71 300.5 1272.05 301.41C1271.42 302.297 1270.5 302.997 1269.29 303.51C1268.1 304.023 1266.71 304.28 1265.12 304.28ZM392.537 335.44C391.487 335.44 390.624 335.137 389.947 334.53C389.294 333.9 388.967 333.13 388.967 332.22C388.967 331.287 389.294 330.517 389.947 329.91C390.624 329.28 391.487 328.965 392.537 328.965C393.564 328.965 394.404 329.28 395.057 329.91C395.734 330.517 396.072 331.287 396.072 332.22C396.072 333.13 395.734 333.9 395.057 334.53C394.404 335.137 393.564 335.44 392.537 335.44ZM395.512 337.47V357H389.527V337.47H395.512ZM411.749 337.26C414.036 337.26 415.856 338.007 417.209 339.5C418.586 340.97 419.274 343 419.274 345.59V357H413.324V346.395C413.324 345.088 412.986 344.073 412.309 343.35C411.633 342.627 410.723 342.265 409.579 342.265C408.436 342.265 407.526 342.627 406.849 343.35C406.173 344.073 405.834 345.088 405.834 346.395V357H399.849V337.47H405.834V340.06C406.441 339.197 407.258 338.52 408.284 338.03C409.311 337.517 410.466 337.26 411.749 337.26ZM431.378 357.28C429.675 357.28 428.158 356.988 426.828 356.405C425.498 355.822 424.448 355.028 423.678 354.025C422.908 352.998 422.477 351.855 422.383 350.595H428.298C428.368 351.272 428.683 351.82 429.243 352.24C429.803 352.66 430.492 352.87 431.308 352.87C432.055 352.87 432.627 352.73 433.023 352.45C433.443 352.147 433.653 351.762 433.653 351.295C433.653 350.735 433.362 350.327 432.778 350.07C432.195 349.79 431.25 349.487 429.943 349.16C428.543 348.833 427.377 348.495 426.443 348.145C425.51 347.772 424.705 347.2 424.028 346.43C423.352 345.637 423.013 344.575 423.013 343.245C423.013 342.125 423.317 341.11 423.923 340.2C424.553 339.267 425.463 338.532 426.653 337.995C427.867 337.458 429.302 337.19 430.958 337.19C433.408 337.19 435.333 337.797 436.733 339.01C438.157 340.223 438.973 341.833 439.183 343.84H433.653C433.56 343.163 433.257 342.627 432.743 342.23C432.253 341.833 431.6 341.635 430.783 341.635C430.083 341.635 429.547 341.775 429.173 342.055C428.8 342.312 428.613 342.673 428.613 343.14C428.613 343.7 428.905 344.12 429.488 344.4C430.095 344.68 431.028 344.96 432.288 345.24C433.735 345.613 434.913 345.987 435.823 346.36C436.733 346.71 437.527 347.293 438.203 348.11C438.903 348.903 439.265 349.977 439.288 351.33C439.288 352.473 438.962 353.5 438.308 354.41C437.678 355.297 436.757 355.997 435.543 356.51C434.353 357.023 432.965 357.28 431.378 357.28ZM453.835 351.925V357H450.79C448.62 357 446.928 356.475 445.715 355.425C444.501 354.352 443.895 352.613 443.895 350.21V342.44H441.515V337.47H443.895V332.71H449.88V337.47H453.8V342.44H449.88V350.28C449.88 350.863 450.02 351.283 450.3 351.54C450.58 351.797 451.046 351.925 451.7 351.925H453.835ZM460.179 335.44C459.129 335.44 458.265 335.137 457.589 334.53C456.935 333.9 456.609 333.13 456.609 332.22C456.609 331.287 456.935 330.517 457.589 329.91C458.265 329.28 459.129 328.965 460.179 328.965C461.205 328.965 462.045 329.28 462.699 329.91C463.375 330.517 463.714 331.287 463.714 332.22C463.714 333.13 463.375 333.9 462.699 334.53C462.045 335.137 461.205 335.44 460.179 335.44ZM463.154 337.47V357H457.169V337.47H463.154ZM473.476 331.1V357H467.491V331.1H473.476ZM483.798 331.1V357H477.813V331.1H483.798ZM496.08 357.28C494.377 357.28 492.86 356.988 491.53 356.405C490.2 355.822 489.15 355.028 488.38 354.025C487.61 352.998 487.179 351.855 487.085 350.595H493C493.07 351.272 493.385 351.82 493.945 352.24C494.505 352.66 495.194 352.87 496.01 352.87C496.757 352.87 497.329 352.73 497.725 352.45C498.145 352.147 498.355 351.762 498.355 351.295C498.355 350.735 498.064 350.327 497.48 350.07C496.897 349.79 495.952 349.487 494.645 349.16C493.245 348.833 492.079 348.495 491.145 348.145C490.212 347.772 489.407 347.2 488.73 346.43C488.054 345.637 487.715 344.575 487.715 343.245C487.715 342.125 488.019 341.11 488.625 340.2C489.255 339.267 490.165 338.532 491.355 337.995C492.569 337.458 494.004 337.19 495.66 337.19C498.11 337.19 500.035 337.797 501.435 339.01C502.859 340.223 503.675 341.833 503.885 343.84H498.355C498.262 343.163 497.959 342.627 497.445 342.23C496.955 341.833 496.302 341.635 495.485 341.635C494.785 341.635 494.249 341.775 493.875 342.055C493.502 342.312 493.315 342.673 493.315 343.14C493.315 343.7 493.607 344.12 494.19 344.4C494.797 344.68 495.73 344.96 496.99 345.24C498.437 345.613 499.615 345.987 500.525 346.36C501.435 346.71 502.229 347.293 502.905 348.11C503.605 348.903 503.967 349.977 503.99 351.33C503.99 352.473 503.664 353.5 503.01 354.41C502.38 355.297 501.459 355.997 500.245 356.51C499.055 357.023 497.667 357.28 496.08 357.28ZM513.879 347.235C513.879 345.205 514.287 343.432 515.104 341.915C515.944 340.398 517.099 339.232 518.569 338.415C520.062 337.598 521.766 337.19 523.679 337.19C526.129 337.19 528.171 337.832 529.804 339.115C531.461 340.398 532.546 342.207 533.059 344.54H526.689C526.152 343.047 525.114 342.3 523.574 342.3C522.477 342.3 521.602 342.732 520.949 343.595C520.296 344.435 519.969 345.648 519.969 347.235C519.969 348.822 520.296 350.047 520.949 350.91C521.602 351.75 522.477 352.17 523.574 352.17C525.114 352.17 526.152 351.423 526.689 349.93H533.059C532.546 352.217 531.461 354.013 529.804 355.32C528.147 356.627 526.106 357.28 523.679 357.28C521.766 357.28 520.062 356.872 518.569 356.055C517.099 355.238 515.944 354.072 515.104 352.555C514.287 351.038 513.879 349.265 513.879 347.235ZM545.15 357.28C543.237 357.28 541.51 356.872 539.97 356.055C538.454 355.238 537.252 354.072 536.365 352.555C535.502 351.038 535.07 349.265 535.07 347.235C535.07 345.228 535.514 343.467 536.4 341.95C537.287 340.41 538.5 339.232 540.04 338.415C541.58 337.598 543.307 337.19 545.22 337.19C547.134 337.19 548.86 337.598 550.4 338.415C551.94 339.232 553.154 340.41 554.04 341.95C554.927 343.467 555.37 345.228 555.37 347.235C555.37 349.242 554.915 351.015 554.005 352.555C553.119 354.072 551.894 355.238 550.33 356.055C548.79 356.872 547.064 357.28 545.15 357.28ZM545.15 352.1C546.294 352.1 547.262 351.68 548.055 350.84C548.872 350 549.28 348.798 549.28 347.235C549.28 345.672 548.884 344.47 548.09 343.63C547.32 342.79 546.364 342.37 545.22 342.37C544.054 342.37 543.085 342.79 542.315 343.63C541.545 344.447 541.16 345.648 541.16 347.235C541.16 348.798 541.534 350 542.28 350.84C543.05 351.68 544.007 352.1 545.15 352.1ZM570.445 337.26C572.732 337.26 574.552 338.007 575.905 339.5C577.282 340.97 577.97 343 577.97 345.59V357H572.02V346.395C572.02 345.088 571.682 344.073 571.005 343.35C570.329 342.627 569.419 342.265 568.275 342.265C567.132 342.265 566.222 342.627 565.545 343.35C564.869 344.073 564.53 345.088 564.53 346.395V357H558.545V337.47H564.53V340.06C565.137 339.197 565.954 338.52 566.98 338.03C568.007 337.517 569.162 337.26 570.445 337.26ZM591.929 342.44H588.709V357H582.724V342.44H580.554V337.47H582.724V336.91C582.724 334.507 583.413 332.687 584.789 331.45C586.166 330.19 588.184 329.56 590.844 329.56C591.288 329.56 591.614 329.572 591.824 329.595V334.67C590.681 334.6 589.876 334.763 589.409 335.16C588.943 335.557 588.709 336.268 588.709 337.295V337.47H591.929V342.44ZM597.752 335.44C596.702 335.44 595.838 335.137 595.162 334.53C594.508 333.9 594.182 333.13 594.182 332.22C594.182 331.287 594.508 330.517 595.162 329.91C595.838 329.28 596.702 328.965 597.752 328.965C598.778 328.965 599.618 329.28 600.272 329.91C600.948 330.517 601.287 331.287 601.287 332.22C601.287 333.13 600.948 333.9 600.272 334.53C599.618 335.137 598.778 335.44 597.752 335.44ZM600.727 337.47V357H594.742V337.47H600.727ZM603.874 347.2C603.874 345.193 604.247 343.432 604.994 341.915C605.764 340.398 606.802 339.232 608.109 338.415C609.416 337.598 610.874 337.19 612.484 337.19C613.767 337.19 614.934 337.458 615.984 337.995C617.057 338.532 617.897 339.255 618.504 340.165V331.1H624.489V357H618.504V354.2C617.944 355.133 617.139 355.88 616.089 356.44C615.062 357 613.861 357.28 612.484 357.28C610.874 357.28 609.416 356.872 608.109 356.055C606.802 355.215 605.764 354.037 604.994 352.52C604.247 350.98 603.874 349.207 603.874 347.2ZM618.504 347.235C618.504 345.742 618.084 344.563 617.244 343.7C616.427 342.837 615.424 342.405 614.234 342.405C613.044 342.405 612.029 342.837 611.189 343.7C610.372 344.54 609.964 345.707 609.964 347.2C609.964 348.693 610.372 349.883 611.189 350.77C612.029 351.633 613.044 352.065 614.234 352.065C615.424 352.065 616.427 351.633 617.244 350.77C618.084 349.907 618.504 348.728 618.504 347.235ZM647.229 346.92C647.229 347.48 647.194 348.063 647.124 348.67H633.579C633.672 349.883 634.057 350.817 634.734 351.47C635.434 352.1 636.286 352.415 637.289 352.415C638.782 352.415 639.821 351.785 640.404 350.525H646.774C646.447 351.808 645.852 352.963 644.989 353.99C644.149 355.017 643.087 355.822 641.804 356.405C640.521 356.988 639.086 357.28 637.499 357.28C635.586 357.28 633.882 356.872 632.389 356.055C630.896 355.238 629.729 354.072 628.889 352.555C628.049 351.038 627.629 349.265 627.629 347.235C627.629 345.205 628.037 343.432 628.854 341.915C629.694 340.398 630.861 339.232 632.354 338.415C633.847 337.598 635.562 337.19 637.499 337.19C639.389 337.19 641.069 337.587 642.539 338.38C644.009 339.173 645.152 340.305 645.969 341.775C646.809 343.245 647.229 344.96 647.229 346.92ZM641.104 345.345C641.104 344.318 640.754 343.502 640.054 342.895C639.354 342.288 638.479 341.985 637.429 341.985C636.426 341.985 635.574 342.277 634.874 342.86C634.197 343.443 633.777 344.272 633.614 345.345H641.104ZM662.286 337.26C664.573 337.26 666.393 338.007 667.746 339.5C669.123 340.97 669.811 343 669.811 345.59V357H663.861V346.395C663.861 345.088 663.523 344.073 662.846 343.35C662.17 342.627 661.26 342.265 660.116 342.265C658.973 342.265 658.063 342.627 657.386 343.35C656.71 344.073 656.371 345.088 656.371 346.395V357H650.386V337.47H656.371V340.06C656.978 339.197 657.795 338.52 658.821 338.03C659.848 337.517 661.003 337.26 662.286 337.26ZM672.78 347.235C672.78 345.205 673.189 343.432 674.005 341.915C674.845 340.398 676 339.232 677.47 338.415C678.964 337.598 680.667 337.19 682.58 337.19C685.03 337.19 687.072 337.832 688.705 339.115C690.362 340.398 691.447 342.207 691.96 344.54H685.59C685.054 343.047 684.015 342.3 682.475 342.3C681.379 342.3 680.504 342.732 679.85 343.595C679.197 344.435 678.87 345.648 678.87 347.235C678.87 348.822 679.197 350.047 679.85 350.91C680.504 351.75 681.379 352.17 682.475 352.17C684.015 352.17 685.054 351.423 685.59 349.93H691.96C691.447 352.217 690.362 354.013 688.705 355.32C687.049 356.627 685.007 357.28 682.58 357.28C680.667 357.28 678.964 356.872 677.47 356.055C676 355.238 674.845 354.072 674.005 352.555C673.189 351.038 672.78 349.265 672.78 347.235ZM713.572 346.92C713.572 347.48 713.537 348.063 713.467 348.67H699.922C700.015 349.883 700.4 350.817 701.077 351.47C701.777 352.1 702.628 352.415 703.632 352.415C705.125 352.415 706.163 351.785 706.747 350.525H713.117C712.79 351.808 712.195 352.963 711.332 353.99C710.492 355.017 709.43 355.822 708.147 356.405C706.863 356.988 705.428 357.28 703.842 357.28C701.928 357.28 700.225 356.872 698.732 356.055C697.238 355.238 696.072 354.072 695.232 352.555C694.392 351.038 693.972 349.265 693.972 347.235C693.972 345.205 694.38 343.432 695.197 341.915C696.037 340.398 697.203 339.232 698.697 338.415C700.19 337.598 701.905 337.19 703.842 337.19C705.732 337.19 707.412 337.587 708.882 338.38C710.352 339.173 711.495 340.305 712.312 341.775C713.152 343.245 713.572 344.96 713.572 346.92ZM707.447 345.345C707.447 344.318 707.097 343.502 706.397 342.895C705.697 342.288 704.822 341.985 703.772 341.985C702.768 341.985 701.917 342.277 701.217 342.86C700.54 343.443 700.12 344.272 699.957 345.345H707.447Z" fill="#E94664"/>
<defs>
<filter id="filter0_f_3105_9001" x="-10" y="0" width="1765" height="619" filterUnits="userSpaceOnUse" color-interpolation-filters="sRGB">
<feFlood flood-opacity="0" result="BackgroundImageFix"/>
<feBlend mode="normal" in="SourceGraphic" in2="BackgroundImageFix" result="shape"/>
<feGaussianBlur stdDeviation="100" result="effect1_foregroundBlur_3105_9001"/>
</filter>
</defs>
</svg>
