<svg width="720" height="211" viewBox="0 0 720 211" fill="none" xmlns="http://www.w3.org/2000/svg">
<path d="M95.1031 96C85.8041 96 78.6186 92.9673 73.5464 86.902C68.6856 80.6275 66.2552 72.1569 66.2552 61.4902C66.2552 48.1046 70.5876 35.8693 79.2526 24.7843C87.9175 13.6993 102.5 5.43791 123 0V3.13725C116.871 5.22877 111.165 7.63399 105.881 10.3529C100.809 13.0719 96.6881 16.4183 93.518 20.3922C90.3479 24.1569 88.7629 29.0719 88.7629 35.1372C88.7629 40.1569 89.7139 43.817 91.616 46.1176C93.7294 48.4183 96.2655 50.1961 99.2242 51.451C102.183 52.4967 105.036 53.7516 107.784 55.2157C110.742 56.4706 113.173 58.4575 115.075 61.1765C117.188 63.8954 118.245 67.9739 118.245 73.4118C118.245 81.7778 115.92 87.634 111.271 90.9804C106.621 94.3268 101.232 96 95.1031 96ZM28.8479 96C19.549 96 12.3634 92.9673 7.29124 86.902C2.43041 80.6275 0 72.1569 0 61.4902C0 48.1046 4.33247 35.8693 12.9974 24.7843C21.6624 13.6993 36.2448 5.43791 56.7448 0V3.13725C50.616 5.22877 44.9098 7.63399 39.6263 10.3529C34.5541 13.0719 30.433 16.4183 27.2629 20.3922C24.0928 24.1569 22.5077 29.0719 22.5077 35.1372C22.5077 40.1569 23.4588 43.817 25.3608 46.1176C27.4742 48.4183 30.0103 50.1961 32.9691 51.451C35.9278 52.4967 38.7809 53.7516 41.5283 55.2157C44.4871 56.4706 46.9175 58.4575 48.8196 61.1765C50.933 63.8954 51.9897 67.9739 51.9897 73.4118C51.9897 81.7778 49.6649 87.634 45.0155 90.9804C40.366 94.3268 34.9768 96 28.8479 96Z" fill="#54ACF7" fill-opacity="0.23"/>
<path d="M624.897 115C634.196 115 641.381 118.033 646.454 124.098C651.314 130.373 653.745 138.843 653.745 149.51C653.745 162.895 649.412 175.131 640.747 186.216C632.082 197.301 617.5 205.562 597 211V207.863C603.129 205.771 608.835 203.366 614.119 200.647C619.191 197.928 623.312 194.582 626.482 190.608C629.652 186.843 631.237 181.928 631.237 175.863C631.237 170.843 630.286 167.183 628.384 164.882C626.271 162.582 623.735 160.804 620.776 159.549C617.817 158.503 614.964 157.248 612.216 155.784C609.258 154.529 606.827 152.542 604.925 149.824C602.812 147.105 601.755 143.026 601.755 137.588C601.755 129.222 604.08 123.366 608.729 120.02C613.379 116.673 618.768 115 624.897 115ZM691.152 115C700.451 115 707.637 118.033 712.709 124.098C717.57 130.373 720 138.843 720 149.51C720 162.895 715.668 175.131 707.003 186.216C698.338 197.301 683.755 205.562 663.255 211V207.863C669.384 205.771 675.09 203.366 680.374 200.647C685.446 197.928 689.567 194.582 692.737 190.608C695.907 186.843 697.492 181.928 697.492 175.863C697.492 170.843 696.541 167.183 694.639 164.882C692.526 162.582 689.99 160.804 687.031 159.549C684.072 158.503 681.219 157.248 678.472 155.784C675.513 154.529 673.082 152.542 671.18 149.824C669.067 147.105 668.01 143.026 668.01 137.588C668.01 129.222 670.335 123.366 674.985 120.02C679.634 116.673 685.023 115 691.152 115Z" fill="#54ACF7" fill-opacity="0.23"/>
<path d="M70.225 154.55V172H66.725V154.55H70.225ZM77.758 161.025V167.725C77.758 168.192 77.8663 168.533 78.083 168.75C78.3163 168.95 78.6997 169.05 79.233 169.05H80.858V172H78.658C75.708 172 74.233 170.567 74.233 167.7V161.025H72.583V158.15H74.233V154.725H77.758V158.15H80.858V161.025H77.758ZM108.532 158.15L104.482 172H100.707L98.1824 162.325L95.6574 172H91.8574L87.7824 158.15H91.3324L93.7824 168.7L96.4324 158.15H100.132L102.732 168.675L105.182 158.15H108.532ZM109.526 165.025C109.526 163.625 109.801 162.383 110.351 161.3C110.918 160.217 111.676 159.383 112.626 158.8C113.593 158.217 114.668 157.925 115.851 157.925C116.885 157.925 117.785 158.133 118.551 158.55C119.335 158.967 119.96 159.492 120.426 160.125V158.15H123.951V172H120.426V169.975C119.976 170.625 119.351 171.167 118.551 171.6C117.768 172.017 116.86 172.225 115.826 172.225C114.66 172.225 113.593 171.925 112.626 171.325C111.676 170.725 110.918 169.883 110.351 168.8C109.801 167.7 109.526 166.442 109.526 165.025ZM120.426 165.075C120.426 164.225 120.26 163.5 119.926 162.9C119.593 162.283 119.143 161.817 118.576 161.5C118.01 161.167 117.401 161 116.751 161C116.101 161 115.501 161.158 114.951 161.475C114.401 161.792 113.951 162.258 113.601 162.875C113.268 163.475 113.101 164.192 113.101 165.025C113.101 165.858 113.268 166.592 113.601 167.225C113.951 167.842 114.401 168.317 114.951 168.65C115.518 168.983 116.118 169.15 116.751 169.15C117.401 169.15 118.01 168.992 118.576 168.675C119.143 168.342 119.593 167.875 119.926 167.275C120.26 166.658 120.426 165.925 120.426 165.075ZM132.67 172.225C131.536 172.225 130.52 172.025 129.62 171.625C128.72 171.208 128.003 170.65 127.47 169.95C126.953 169.25 126.67 168.475 126.62 167.625H130.145C130.211 168.158 130.47 168.6 130.92 168.95C131.386 169.3 131.961 169.475 132.645 169.475C133.311 169.475 133.828 169.342 134.195 169.075C134.578 168.808 134.77 168.467 134.77 168.05C134.77 167.6 134.536 167.267 134.07 167.05C133.62 166.817 132.895 166.567 131.895 166.3C130.861 166.05 130.011 165.792 129.345 165.525C128.695 165.258 128.128 164.85 127.645 164.3C127.178 163.75 126.945 163.008 126.945 162.075C126.945 161.308 127.161 160.608 127.595 159.975C128.045 159.342 128.678 158.842 129.495 158.475C130.328 158.108 131.303 157.925 132.42 157.925C134.07 157.925 135.386 158.342 136.37 159.175C137.353 159.992 137.895 161.1 137.995 162.5H134.645C134.595 161.95 134.361 161.517 133.945 161.2C133.545 160.867 133.003 160.7 132.32 160.7C131.686 160.7 131.195 160.817 130.845 161.05C130.511 161.283 130.345 161.608 130.345 162.025C130.345 162.492 130.578 162.85 131.045 163.1C131.511 163.333 132.236 163.575 133.22 163.825C134.22 164.075 135.045 164.333 135.695 164.6C136.345 164.867 136.903 165.283 137.37 165.85C137.853 166.4 138.103 167.133 138.12 168.05C138.12 168.85 137.895 169.567 137.445 170.2C137.011 170.833 136.378 171.333 135.545 171.7C134.728 172.05 133.77 172.225 132.67 172.225ZM148.725 156.5C148.108 156.5 147.591 156.308 147.175 155.925C146.775 155.525 146.575 155.033 146.575 154.45C146.575 153.867 146.775 153.383 147.175 153C147.591 152.6 148.108 152.4 148.725 152.4C149.341 152.4 149.85 152.6 150.25 153C150.666 153.383 150.875 153.867 150.875 154.45C150.875 155.033 150.666 155.525 150.25 155.925C149.85 156.308 149.341 156.5 148.725 156.5ZM150.45 158.15V172H146.95V158.15H150.45ZM161.583 157.95C163.233 157.95 164.566 158.475 165.583 159.525C166.599 160.558 167.108 162.008 167.108 163.875V172H163.608V164.35C163.608 163.25 163.333 162.408 162.783 161.825C162.233 161.225 161.483 160.925 160.533 160.925C159.566 160.925 158.799 161.225 158.233 161.825C157.683 162.408 157.408 163.25 157.408 164.35V172H153.908V158.15H157.408V159.875C157.874 159.275 158.466 158.808 159.183 158.475C159.916 158.125 160.716 157.95 161.583 157.95ZM174.511 161.025V167.725C174.511 168.192 174.619 168.533 174.836 168.75C175.069 168.95 175.453 169.05 175.986 169.05H177.611V172H175.411C172.461 172 170.986 170.567 170.986 167.7V161.025H169.336V158.15H170.986V154.725H174.511V158.15H177.611V161.025H174.511ZM193.203 158.15V172H189.678V170.25C189.228 170.85 188.637 171.325 187.903 171.675C187.187 172.008 186.403 172.175 185.553 172.175C184.47 172.175 183.512 171.95 182.678 171.5C181.845 171.033 181.187 170.358 180.703 169.475C180.237 168.575 180.003 167.508 180.003 166.275V158.15H183.503V165.775C183.503 166.875 183.778 167.725 184.328 168.325C184.878 168.908 185.628 169.2 186.578 169.2C187.545 169.2 188.303 168.908 188.853 168.325C189.403 167.725 189.678 166.875 189.678 165.775V158.15H193.203ZM198.432 156.5C197.815 156.5 197.298 156.308 196.882 155.925C196.482 155.525 196.282 155.033 196.282 154.45C196.282 153.867 196.482 153.383 196.882 153C197.298 152.6 197.815 152.4 198.432 152.4C199.048 152.4 199.557 152.6 199.957 153C200.373 153.383 200.582 153.867 200.582 154.45C200.582 155.033 200.373 155.525 199.957 155.925C199.557 156.308 199.048 156.5 198.432 156.5ZM200.157 158.15V172H196.657V158.15H200.157ZM207.69 161.025V167.725C207.69 168.192 207.798 168.533 208.015 168.75C208.248 168.95 208.631 169.05 209.165 169.05H210.79V172H208.59C205.64 172 204.165 170.567 204.165 167.7V161.025H202.515V158.15H204.165V154.725H207.69V158.15H210.79V161.025H207.69ZM215.082 156.5C214.465 156.5 213.949 156.308 213.532 155.925C213.132 155.525 212.932 155.033 212.932 154.45C212.932 153.867 213.132 153.383 213.532 153C213.949 152.6 214.465 152.4 215.082 152.4C215.699 152.4 216.207 152.6 216.607 153C217.024 153.383 217.232 153.867 217.232 154.45C217.232 155.033 217.024 155.525 216.607 155.925C216.207 156.308 215.699 156.5 215.082 156.5ZM216.807 158.15V172H213.307V158.15H216.807ZM226.04 168.775L229.54 158.15H233.265L228.14 172H223.89L218.79 158.15H222.54L226.04 168.775ZM248.106 164.775C248.106 165.275 248.073 165.725 248.006 166.125H237.881C237.964 167.125 238.314 167.908 238.931 168.475C239.548 169.042 240.306 169.325 241.206 169.325C242.506 169.325 243.431 168.767 243.981 167.65H247.756C247.356 168.983 246.589 170.083 245.456 170.95C244.323 171.8 242.931 172.225 241.281 172.225C239.948 172.225 238.748 171.933 237.681 171.35C236.631 170.75 235.806 169.908 235.206 168.825C234.623 167.742 234.331 166.492 234.331 165.075C234.331 163.642 234.623 162.383 235.206 161.3C235.789 160.217 236.606 159.383 237.656 158.8C238.706 158.217 239.914 157.925 241.281 157.925C242.598 157.925 243.773 158.208 244.806 158.775C245.856 159.342 246.664 160.15 247.231 161.2C247.814 162.233 248.106 163.425 248.106 164.775ZM244.481 163.775C244.464 162.875 244.139 162.158 243.506 161.625C242.873 161.075 242.098 160.8 241.181 160.8C240.314 160.8 239.581 161.067 238.981 161.6C238.398 162.117 238.039 162.842 237.906 163.775H244.481ZM275.818 158.15L271.768 172H267.993L265.468 162.325L262.943 172H259.143L255.068 158.15H258.618L261.068 168.7L263.718 158.15H267.418L270.018 168.675L272.468 158.15H275.818ZM285.511 157.95C286.561 157.95 287.495 158.183 288.311 158.65C289.128 159.1 289.761 159.775 290.211 160.675C290.678 161.558 290.911 162.625 290.911 163.875V172H287.411V164.35C287.411 163.25 287.136 162.408 286.586 161.825C286.036 161.225 285.286 160.925 284.336 160.925C283.37 160.925 282.603 161.225 282.036 161.825C281.486 162.408 281.211 163.25 281.211 164.35V172H277.711V153.5H281.211V159.875C281.661 159.275 282.261 158.808 283.011 158.475C283.761 158.125 284.595 157.95 285.511 157.95ZM307.115 164.775C307.115 165.275 307.081 165.725 307.015 166.125H296.89C296.973 167.125 297.323 167.908 297.94 168.475C298.556 169.042 299.315 169.325 300.215 169.325C301.515 169.325 302.44 168.767 302.99 167.65H306.765C306.365 168.983 305.598 170.083 304.465 170.95C303.331 171.8 301.94 172.225 300.29 172.225C298.956 172.225 297.756 171.933 296.69 171.35C295.64 170.75 294.815 169.908 294.215 168.825C293.631 167.742 293.34 166.492 293.34 165.075C293.34 163.642 293.631 162.383 294.215 161.3C294.798 160.217 295.615 159.383 296.665 158.8C297.715 158.217 298.923 157.925 300.29 157.925C301.606 157.925 302.781 158.208 303.815 158.775C304.865 159.342 305.673 160.15 306.24 161.2C306.823 162.233 307.115 163.425 307.115 164.775ZM303.49 163.775C303.473 162.875 303.148 162.158 302.515 161.625C301.881 161.075 301.106 160.8 300.19 160.8C299.323 160.8 298.59 161.067 297.99 161.6C297.406 162.117 297.048 162.842 296.915 163.775H303.49ZM313.169 160.3C313.619 159.567 314.203 158.992 314.919 158.575C315.653 158.158 316.486 157.95 317.419 157.95V161.625H316.494C315.394 161.625 314.561 161.883 313.994 162.4C313.444 162.917 313.169 163.817 313.169 165.1V172H309.669V158.15H313.169V160.3ZM332.652 164.775C332.652 165.275 332.618 165.725 332.552 166.125H322.427C322.51 167.125 322.86 167.908 323.477 168.475C324.093 169.042 324.852 169.325 325.752 169.325C327.052 169.325 327.977 168.767 328.527 167.65H332.302C331.902 168.983 331.135 170.083 330.002 170.95C328.868 171.8 327.477 172.225 325.827 172.225C324.493 172.225 323.293 171.933 322.227 171.35C321.177 170.75 320.352 169.908 319.752 168.825C319.168 167.742 318.877 166.492 318.877 165.075C318.877 163.642 319.168 162.383 319.752 161.3C320.335 160.217 321.152 159.383 322.202 158.8C323.252 158.217 324.46 157.925 325.827 157.925C327.143 157.925 328.318 158.208 329.352 158.775C330.402 159.342 331.21 160.15 331.777 161.2C332.36 162.233 332.652 163.425 332.652 164.775ZM329.027 163.775C329.01 162.875 328.685 162.158 328.052 161.625C327.418 161.075 326.643 160.8 325.727 160.8C324.86 160.8 324.127 161.067 323.527 161.6C322.943 162.117 322.585 162.842 322.452 163.775H329.027ZM344.663 154.55V172H341.163V154.55H344.663ZM361.754 157.95C363.404 157.95 364.737 158.475 365.754 159.525C366.77 160.558 367.279 162.008 367.279 163.875V172H363.779V164.35C363.779 163.25 363.504 162.408 362.954 161.825C362.404 161.225 361.654 160.925 360.704 160.925C359.737 160.925 358.97 161.225 358.404 161.825C357.854 162.408 357.579 163.25 357.579 164.35V172H354.079V158.15H357.579V159.875C358.045 159.275 358.637 158.808 359.354 158.475C360.087 158.125 360.887 157.95 361.754 157.95ZM383.482 164.775C383.482 165.275 383.449 165.725 383.382 166.125H373.257C373.34 167.125 373.69 167.908 374.307 168.475C374.924 169.042 375.682 169.325 376.582 169.325C377.882 169.325 378.807 168.767 379.357 167.65H383.132C382.732 168.983 381.965 170.083 380.832 170.95C379.699 171.8 378.307 172.225 376.657 172.225C375.324 172.225 374.124 171.933 373.057 171.35C372.007 170.75 371.182 169.908 370.582 168.825C369.999 167.742 369.707 166.492 369.707 165.075C369.707 163.642 369.999 162.383 370.582 161.3C371.165 160.217 371.982 159.383 373.032 158.8C374.082 158.217 375.29 157.925 376.657 157.925C377.974 157.925 379.149 158.208 380.182 158.775C381.232 159.342 382.04 160.15 382.607 161.2C383.19 162.233 383.482 163.425 383.482 164.775ZM379.857 163.775C379.84 162.875 379.515 162.158 378.882 161.625C378.249 161.075 377.474 160.8 376.557 160.8C375.69 160.8 374.957 161.067 374.357 161.6C373.774 162.117 373.415 162.842 373.282 163.775H379.857ZM398.912 164.775C398.912 165.275 398.878 165.725 398.812 166.125H388.687C388.77 167.125 389.12 167.908 389.737 168.475C390.353 169.042 391.112 169.325 392.012 169.325C393.312 169.325 394.237 168.767 394.787 167.65H398.562C398.162 168.983 397.395 170.083 396.262 170.95C395.128 171.8 393.737 172.225 392.087 172.225C390.753 172.225 389.553 171.933 388.487 171.35C387.437 170.75 386.612 169.908 386.012 168.825C385.428 167.742 385.137 166.492 385.137 165.075C385.137 163.642 385.428 162.383 386.012 161.3C386.595 160.217 387.412 159.383 388.462 158.8C389.512 158.217 390.72 157.925 392.087 157.925C393.403 157.925 394.578 158.208 395.612 158.775C396.662 159.342 397.47 160.15 398.037 161.2C398.62 162.233 398.912 163.425 398.912 164.775ZM395.287 163.775C395.27 162.875 394.945 162.158 394.312 161.625C393.678 161.075 392.903 160.8 391.987 160.8C391.12 160.8 390.387 161.067 389.787 161.6C389.203 162.117 388.845 162.842 388.712 163.775H395.287ZM400.566 165.025C400.566 163.625 400.841 162.383 401.391 161.3C401.958 160.217 402.725 159.383 403.691 158.8C404.658 158.217 405.733 157.925 406.916 157.925C407.816 157.925 408.675 158.125 409.491 158.525C410.308 158.908 410.958 159.425 411.441 160.075V153.5H414.991V172H411.441V169.95C411.008 170.633 410.4 171.183 409.616 171.6C408.833 172.017 407.925 172.225 406.891 172.225C405.725 172.225 404.658 171.925 403.691 171.325C402.725 170.725 401.958 169.883 401.391 168.8C400.841 167.7 400.566 166.442 400.566 165.025ZM411.466 165.075C411.466 164.225 411.3 163.5 410.966 162.9C410.633 162.283 410.183 161.817 409.616 161.5C409.05 161.167 408.441 161 407.791 161C407.141 161 406.541 161.158 405.991 161.475C405.441 161.792 404.991 162.258 404.641 162.875C404.308 163.475 404.141 164.192 404.141 165.025C404.141 165.858 404.308 166.592 404.641 167.225C404.991 167.842 405.441 168.317 405.991 168.65C406.558 168.983 407.158 169.15 407.791 169.15C408.441 169.15 409.05 168.992 409.616 168.675C410.183 168.342 410.633 167.875 410.966 167.275C411.3 166.658 411.466 165.925 411.466 165.075ZM431.285 164.775C431.285 165.275 431.251 165.725 431.185 166.125H421.06C421.143 167.125 421.493 167.908 422.11 168.475C422.726 169.042 423.485 169.325 424.385 169.325C425.685 169.325 426.61 168.767 427.16 167.65H430.935C430.535 168.983 429.768 170.083 428.635 170.95C427.501 171.8 426.11 172.225 424.46 172.225C423.126 172.225 421.926 171.933 420.86 171.35C419.81 170.75 418.985 169.908 418.385 168.825C417.801 167.742 417.51 166.492 417.51 165.075C417.51 163.642 417.801 162.383 418.385 161.3C418.968 160.217 419.785 159.383 420.835 158.8C421.885 158.217 423.093 157.925 424.46 157.925C425.776 157.925 426.951 158.208 427.985 158.775C429.035 159.342 429.843 160.15 430.41 161.2C430.993 162.233 431.285 163.425 431.285 164.775ZM427.66 163.775C427.643 162.875 427.318 162.158 426.685 161.625C426.051 161.075 425.276 160.8 424.36 160.8C423.493 160.8 422.76 161.067 422.16 161.6C421.576 162.117 421.218 162.842 421.085 163.775H427.66ZM432.939 165.025C432.939 163.625 433.214 162.383 433.764 161.3C434.331 160.217 435.098 159.383 436.064 158.8C437.031 158.217 438.106 157.925 439.289 157.925C440.189 157.925 441.048 158.125 441.864 158.525C442.681 158.908 443.331 159.425 443.814 160.075V153.5H447.364V172H443.814V169.95C443.381 170.633 442.773 171.183 441.989 171.6C441.206 172.017 440.298 172.225 439.264 172.225C438.098 172.225 437.031 171.925 436.064 171.325C435.098 170.725 434.331 169.883 433.764 168.8C433.214 167.7 432.939 166.442 432.939 165.025ZM443.839 165.075C443.839 164.225 443.673 163.5 443.339 162.9C443.006 162.283 442.556 161.817 441.989 161.5C441.423 161.167 440.814 161 440.164 161C439.514 161 438.914 161.158 438.364 161.475C437.814 161.792 437.364 162.258 437.014 162.875C436.681 163.475 436.514 164.192 436.514 165.025C436.514 165.858 436.681 166.592 437.014 167.225C437.364 167.842 437.814 168.317 438.364 168.65C438.931 168.983 439.531 169.15 440.164 169.15C440.814 169.15 441.423 168.992 441.989 168.675C442.556 168.342 443.006 167.875 443.339 167.275C443.673 166.658 443.839 165.925 443.839 165.075ZM460.815 161.025V167.725C460.815 168.192 460.923 168.533 461.14 168.75C461.373 168.95 461.756 169.05 462.29 169.05H463.915V172H461.715C458.765 172 457.29 170.567 457.29 167.7V161.025H455.64V158.15H457.29V154.725H460.815V158.15H463.915V161.025H460.815ZM472.582 172.225C471.249 172.225 470.049 171.933 468.982 171.35C467.915 170.75 467.074 169.908 466.457 168.825C465.857 167.742 465.557 166.492 465.557 165.075C465.557 163.658 465.865 162.408 466.482 161.325C467.115 160.242 467.974 159.408 469.057 158.825C470.14 158.225 471.349 157.925 472.682 157.925C474.015 157.925 475.224 158.225 476.307 158.825C477.39 159.408 478.24 160.242 478.857 161.325C479.49 162.408 479.807 163.658 479.807 165.075C479.807 166.492 479.482 167.742 478.832 168.825C478.199 169.908 477.332 170.75 476.232 171.35C475.149 171.933 473.932 172.225 472.582 172.225ZM472.582 169.175C473.215 169.175 473.807 169.025 474.357 168.725C474.924 168.408 475.374 167.942 475.707 167.325C476.04 166.708 476.207 165.958 476.207 165.075C476.207 163.758 475.857 162.75 475.157 162.05C474.474 161.333 473.632 160.975 472.632 160.975C471.632 160.975 470.79 161.333 470.107 162.05C469.44 162.75 469.107 163.758 469.107 165.075C469.107 166.392 469.432 167.408 470.082 168.125C470.749 168.825 471.582 169.175 472.582 169.175ZM493.756 157.925C494.79 157.925 495.698 158.133 496.481 158.55C497.265 158.95 497.881 159.475 498.331 160.125V158.15H501.856V172.1C501.856 173.383 501.598 174.525 501.081 175.525C500.565 176.542 499.79 177.342 498.756 177.925C497.723 178.525 496.473 178.825 495.006 178.825C493.04 178.825 491.423 178.367 490.156 177.45C488.906 176.533 488.198 175.283 488.031 173.7H491.506C491.69 174.333 492.081 174.833 492.681 175.2C493.298 175.583 494.04 175.775 494.906 175.775C495.923 175.775 496.748 175.467 497.381 174.85C498.015 174.25 498.331 173.333 498.331 172.1V169.95C497.881 170.6 497.256 171.142 496.456 171.575C495.673 172.008 494.773 172.225 493.756 172.225C492.59 172.225 491.523 171.925 490.556 171.325C489.59 170.725 488.823 169.883 488.256 168.8C487.706 167.7 487.431 166.442 487.431 165.025C487.431 163.625 487.706 162.383 488.256 161.3C488.823 160.217 489.581 159.383 490.531 158.8C491.498 158.217 492.573 157.925 493.756 157.925ZM498.331 165.075C498.331 164.225 498.165 163.5 497.831 162.9C497.498 162.283 497.048 161.817 496.481 161.5C495.915 161.167 495.306 161 494.656 161C494.006 161 493.406 161.158 492.856 161.475C492.306 161.792 491.856 162.258 491.506 162.875C491.173 163.475 491.006 164.192 491.006 165.025C491.006 165.858 491.173 166.592 491.506 167.225C491.856 167.842 492.306 168.317 492.856 168.65C493.423 168.983 494.023 169.15 494.656 169.15C495.306 169.15 495.915 168.992 496.481 168.675C497.048 168.342 497.498 167.875 497.831 167.275C498.165 166.658 498.331 165.925 498.331 165.075ZM511.425 172.225C510.091 172.225 508.891 171.933 507.825 171.35C506.758 170.75 505.916 169.908 505.3 168.825C504.7 167.742 504.4 166.492 504.4 165.075C504.4 163.658 504.708 162.408 505.325 161.325C505.958 160.242 506.816 159.408 507.9 158.825C508.983 158.225 510.191 157.925 511.525 157.925C512.858 157.925 514.066 158.225 515.15 158.825C516.233 159.408 517.083 160.242 517.7 161.325C518.333 162.408 518.65 163.658 518.65 165.075C518.65 166.492 518.325 167.742 517.675 168.825C517.041 169.908 516.175 170.75 515.075 171.35C513.991 171.933 512.775 172.225 511.425 172.225ZM511.425 169.175C512.058 169.175 512.65 169.025 513.2 168.725C513.766 168.408 514.216 167.942 514.55 167.325C514.883 166.708 515.05 165.958 515.05 165.075C515.05 163.758 514.7 162.75 514 162.05C513.316 161.333 512.475 160.975 511.475 160.975C510.475 160.975 509.633 161.333 508.95 162.05C508.283 162.75 507.95 163.758 507.95 165.075C507.95 166.392 508.275 167.408 508.925 168.125C509.591 168.825 510.425 169.175 511.425 169.175ZM534.849 157.95C536.499 157.95 537.833 158.475 538.849 159.525C539.866 160.558 540.374 162.008 540.374 163.875V172H536.874V164.35C536.874 163.25 536.599 162.408 536.049 161.825C535.499 161.225 534.749 160.925 533.799 160.925C532.833 160.925 532.066 161.225 531.499 161.825C530.949 162.408 530.674 163.25 530.674 164.35V172H527.174V158.15H530.674V159.875C531.141 159.275 531.733 158.808 532.449 158.475C533.183 158.125 533.983 157.95 534.849 157.95ZM556.578 164.775C556.578 165.275 556.544 165.725 556.478 166.125H546.353C546.436 167.125 546.786 167.908 547.403 168.475C548.019 169.042 548.778 169.325 549.678 169.325C550.978 169.325 551.903 168.767 552.453 167.65H556.228C555.828 168.983 555.061 170.083 553.928 170.95C552.794 171.8 551.403 172.225 549.753 172.225C548.419 172.225 547.219 171.933 546.153 171.35C545.103 170.75 544.278 169.908 543.678 168.825C543.094 167.742 542.803 166.492 542.803 165.075C542.803 163.642 543.094 162.383 543.678 161.3C544.261 160.217 545.078 159.383 546.128 158.8C547.178 158.217 548.386 157.925 549.753 157.925C551.069 157.925 552.244 158.208 553.278 158.775C554.328 159.342 555.136 160.15 555.703 161.2C556.286 162.233 556.578 163.425 556.578 164.775ZM552.953 163.775C552.936 162.875 552.611 162.158 551.978 161.625C551.344 161.075 550.569 160.8 549.653 160.8C548.786 160.8 548.053 161.067 547.453 161.6C546.869 162.117 546.511 162.842 546.378 163.775H552.953ZM566.782 172L563.932 167.7L561.407 172H557.657L562.182 165.05L557.607 158.15H561.557L564.382 162.425L566.932 158.15H570.682L566.132 165.05L570.732 172H566.782ZM576.708 161.025V167.725C576.708 168.192 576.817 168.533 577.033 168.75C577.267 168.95 577.65 169.05 578.183 169.05H579.808V172H577.608C574.658 172 573.183 170.567 573.183 167.7V161.025H571.533V158.15H573.183V154.725H576.708V158.15H579.808V161.025H576.708ZM583.876 172.175C583.242 172.175 582.717 171.983 582.301 171.6C581.901 171.2 581.701 170.708 581.701 170.125C581.701 169.542 581.901 169.058 582.301 168.675C582.717 168.275 583.242 168.075 583.876 168.075C584.492 168.075 585.001 168.275 585.401 168.675C585.801 169.058 586.001 169.542 586.001 170.125C586.001 170.708 585.801 171.2 585.401 171.6C585.001 171.983 584.492 172.175 583.876 172.175Z" fill="#505050"/>
<path d="M235.75 124.175C234.533 124.175 233.433 123.967 232.45 123.55C231.483 123.133 230.717 122.533 230.15 121.75C229.583 120.967 229.292 120.042 229.275 118.975H233.025C233.075 119.692 233.325 120.258 233.775 120.675C234.242 121.092 234.875 121.3 235.675 121.3C236.492 121.3 237.133 121.108 237.6 120.725C238.067 120.325 238.3 119.808 238.3 119.175C238.3 118.658 238.142 118.233 237.825 117.9C237.508 117.567 237.108 117.308 236.625 117.125C236.158 116.925 235.508 116.708 234.675 116.475C233.542 116.142 232.617 115.817 231.9 115.5C231.2 115.167 230.592 114.675 230.075 114.025C229.575 113.358 229.325 112.475 229.325 111.375C229.325 110.342 229.583 109.442 230.1 108.675C230.617 107.908 231.342 107.325 232.275 106.925C233.208 106.508 234.275 106.3 235.475 106.3C237.275 106.3 238.733 106.742 239.85 107.625C240.983 108.492 241.608 109.708 241.725 111.275H237.875C237.842 110.675 237.583 110.183 237.1 109.8C236.633 109.4 236.008 109.2 235.225 109.2C234.542 109.2 233.992 109.375 233.575 109.725C233.175 110.075 232.975 110.583 232.975 111.25C232.975 111.717 233.125 112.108 233.425 112.425C233.742 112.725 234.125 112.975 234.575 113.175C235.042 113.358 235.692 113.575 236.525 113.825C237.658 114.158 238.583 114.492 239.3 114.825C240.017 115.158 240.633 115.658 241.15 116.325C241.667 116.992 241.925 117.867 241.925 118.95C241.925 119.883 241.683 120.75 241.2 121.55C240.717 122.35 240.008 122.992 239.075 123.475C238.142 123.942 237.033 124.175 235.75 124.175ZM258.034 110.15V124H254.509V122.25C254.059 122.85 253.468 123.325 252.734 123.675C252.018 124.008 251.234 124.175 250.384 124.175C249.301 124.175 248.343 123.95 247.509 123.5C246.676 123.033 246.018 122.358 245.534 121.475C245.068 120.575 244.834 119.508 244.834 118.275V110.15H248.334V117.775C248.334 118.875 248.609 119.725 249.159 120.325C249.709 120.908 250.459 121.2 251.409 121.2C252.376 121.2 253.134 120.908 253.684 120.325C254.234 119.725 254.509 118.875 254.509 117.775V110.15H258.034ZM264.988 112.15C265.438 111.517 266.054 110.992 266.838 110.575C267.638 110.142 268.546 109.925 269.563 109.925C270.746 109.925 271.813 110.217 272.763 110.8C273.729 111.383 274.488 112.217 275.038 113.3C275.604 114.367 275.888 115.608 275.888 117.025C275.888 118.442 275.604 119.7 275.038 120.8C274.488 121.883 273.729 122.725 272.763 123.325C271.813 123.925 270.746 124.225 269.563 124.225C268.546 124.225 267.646 124.017 266.863 123.6C266.096 123.183 265.471 122.658 264.988 122.025V130.6H261.488V110.15H264.988V112.15ZM272.313 117.025C272.313 116.192 272.138 115.475 271.788 114.875C271.454 114.258 271.004 113.792 270.438 113.475C269.888 113.158 269.288 113 268.638 113C268.004 113 267.404 113.167 266.838 113.5C266.288 113.817 265.838 114.283 265.488 114.9C265.154 115.517 264.988 116.242 264.988 117.075C264.988 117.908 265.154 118.633 265.488 119.25C265.838 119.867 266.288 120.342 266.838 120.675C267.404 120.992 268.004 121.15 268.638 121.15C269.288 121.15 269.888 120.983 270.438 120.65C271.004 120.317 271.454 119.842 271.788 119.225C272.138 118.608 272.313 117.875 272.313 117.025ZM291.306 116.775C291.306 117.275 291.273 117.725 291.206 118.125H281.081C281.164 119.125 281.514 119.908 282.131 120.475C282.748 121.042 283.506 121.325 284.406 121.325C285.706 121.325 286.631 120.767 287.181 119.65H290.956C290.556 120.983 289.789 122.083 288.656 122.95C287.523 123.8 286.131 124.225 284.481 124.225C283.148 124.225 281.948 123.933 280.881 123.35C279.831 122.75 279.006 121.908 278.406 120.825C277.823 119.742 277.531 118.492 277.531 117.075C277.531 115.642 277.823 114.383 278.406 113.3C278.989 112.217 279.806 111.383 280.856 110.8C281.906 110.217 283.114 109.925 284.481 109.925C285.798 109.925 286.973 110.208 288.006 110.775C289.056 111.342 289.864 112.15 290.431 113.2C291.014 114.233 291.306 115.425 291.306 116.775ZM287.681 115.775C287.664 114.875 287.339 114.158 286.706 113.625C286.073 113.075 285.298 112.8 284.381 112.8C283.514 112.8 282.781 113.067 282.181 113.6C281.598 114.117 281.239 114.842 281.106 115.775H287.681ZM297.361 112.3C297.811 111.567 298.394 110.992 299.111 110.575C299.844 110.158 300.677 109.95 301.611 109.95V113.625H300.686C299.586 113.625 298.752 113.883 298.186 114.4C297.636 114.917 297.361 115.817 297.361 117.1V124H293.861V110.15H297.361V112.3ZM315.225 124.225C314.092 124.225 313.075 124.025 312.175 123.625C311.275 123.208 310.559 122.65 310.025 121.95C309.509 121.25 309.225 120.475 309.175 119.625H312.7C312.767 120.158 313.025 120.6 313.475 120.95C313.942 121.3 314.517 121.475 315.2 121.475C315.867 121.475 316.384 121.342 316.75 121.075C317.134 120.808 317.325 120.467 317.325 120.05C317.325 119.6 317.092 119.267 316.625 119.05C316.175 118.817 315.45 118.567 314.45 118.3C313.417 118.05 312.567 117.792 311.9 117.525C311.25 117.258 310.684 116.85 310.2 116.3C309.734 115.75 309.5 115.008 309.5 114.075C309.5 113.308 309.717 112.608 310.15 111.975C310.6 111.342 311.234 110.842 312.05 110.475C312.884 110.108 313.859 109.925 314.975 109.925C316.625 109.925 317.942 110.342 318.925 111.175C319.909 111.992 320.45 113.1 320.55 114.5H317.2C317.15 113.95 316.917 113.517 316.5 113.2C316.1 112.867 315.559 112.7 314.875 112.7C314.242 112.7 313.75 112.817 313.4 113.05C313.067 113.283 312.9 113.608 312.9 114.025C312.9 114.492 313.134 114.85 313.6 115.1C314.067 115.333 314.792 115.575 315.775 115.825C316.775 116.075 317.6 116.333 318.25 116.6C318.9 116.867 319.459 117.283 319.925 117.85C320.409 118.4 320.659 119.133 320.675 120.05C320.675 120.85 320.45 121.567 320 122.2C319.567 122.833 318.934 123.333 318.1 123.7C317.284 124.05 316.325 124.225 315.225 124.225ZM327.623 113.025V119.725C327.623 120.192 327.732 120.533 327.948 120.75C328.182 120.95 328.565 121.05 329.098 121.05H330.723V124H328.523C325.573 124 324.098 122.567 324.098 119.7V113.025H322.448V110.15H324.098V106.725H327.623V110.15H330.723V113.025H327.623ZM336.741 112.3C337.191 111.567 337.774 110.992 338.491 110.575C339.224 110.158 340.057 109.95 340.991 109.95V113.625H340.066C338.966 113.625 338.132 113.883 337.566 114.4C337.016 114.917 336.741 115.817 336.741 117.1V124H333.241V110.15H336.741V112.3ZM342.448 117.025C342.448 115.625 342.723 114.383 343.273 113.3C343.84 112.217 344.598 111.383 345.548 110.8C346.515 110.217 347.59 109.925 348.773 109.925C349.806 109.925 350.706 110.133 351.473 110.55C352.256 110.967 352.881 111.492 353.348 112.125V110.15H356.873V124H353.348V121.975C352.898 122.625 352.273 123.167 351.473 123.6C350.69 124.017 349.781 124.225 348.748 124.225C347.581 124.225 346.515 123.925 345.548 123.325C344.598 122.725 343.84 121.883 343.273 120.8C342.723 119.7 342.448 118.442 342.448 117.025ZM353.348 117.075C353.348 116.225 353.181 115.5 352.848 114.9C352.515 114.283 352.065 113.817 351.498 113.5C350.931 113.167 350.323 113 349.673 113C349.023 113 348.423 113.158 347.873 113.475C347.323 113.792 346.873 114.258 346.523 114.875C346.19 115.475 346.023 116.192 346.023 117.025C346.023 117.858 346.19 118.592 346.523 119.225C346.873 119.842 347.323 120.317 347.873 120.65C348.44 120.983 349.04 121.15 349.673 121.15C350.323 121.15 350.931 120.992 351.498 120.675C352.065 120.342 352.515 119.875 352.848 119.275C353.181 118.658 353.348 117.925 353.348 117.075ZM362.066 108.5C361.45 108.5 360.933 108.308 360.516 107.925C360.116 107.525 359.916 107.033 359.916 106.45C359.916 105.867 360.116 105.383 360.516 105C360.933 104.6 361.45 104.4 362.066 104.4C362.683 104.4 363.191 104.6 363.591 105C364.008 105.383 364.216 105.867 364.216 106.45C364.216 107.033 364.008 107.525 363.591 107.925C363.191 108.308 362.683 108.5 362.066 108.5ZM363.791 110.15V124H360.291V110.15H363.791ZM372.674 109.925C373.708 109.925 374.616 110.133 375.399 110.55C376.183 110.95 376.799 111.475 377.249 112.125V110.15H380.774V124.1C380.774 125.383 380.516 126.525 379.999 127.525C379.483 128.542 378.708 129.342 377.674 129.925C376.641 130.525 375.391 130.825 373.924 130.825C371.958 130.825 370.341 130.367 369.074 129.45C367.824 128.533 367.116 127.283 366.949 125.7H370.424C370.608 126.333 370.999 126.833 371.599 127.2C372.216 127.583 372.958 127.775 373.824 127.775C374.841 127.775 375.666 127.467 376.299 126.85C376.933 126.25 377.249 125.333 377.249 124.1V121.95C376.799 122.6 376.174 123.142 375.374 123.575C374.591 124.008 373.691 124.225 372.674 124.225C371.508 124.225 370.441 123.925 369.474 123.325C368.508 122.725 367.741 121.883 367.174 120.8C366.624 119.7 366.349 118.442 366.349 117.025C366.349 115.625 366.624 114.383 367.174 113.3C367.741 112.217 368.499 111.383 369.449 110.8C370.416 110.217 371.491 109.925 372.674 109.925ZM377.249 117.075C377.249 116.225 377.083 115.5 376.749 114.9C376.416 114.283 375.966 113.817 375.399 113.5C374.833 113.167 374.224 113 373.574 113C372.924 113 372.324 113.158 371.774 113.475C371.224 113.792 370.774 114.258 370.424 114.875C370.091 115.475 369.924 116.192 369.924 117.025C369.924 117.858 370.091 118.592 370.424 119.225C370.774 119.842 371.224 120.317 371.774 120.65C372.341 120.983 372.941 121.15 373.574 121.15C374.224 121.15 374.833 120.992 375.399 120.675C375.966 120.342 376.416 119.875 376.749 119.275C377.083 118.658 377.249 117.925 377.249 117.075ZM391.993 109.95C393.043 109.95 393.976 110.183 394.793 110.65C395.609 111.1 396.243 111.775 396.693 112.675C397.159 113.558 397.393 114.625 397.393 115.875V124H393.893V116.35C393.893 115.25 393.618 114.408 393.068 113.825C392.518 113.225 391.768 112.925 390.818 112.925C389.851 112.925 389.084 113.225 388.518 113.825C387.968 114.408 387.693 115.25 387.693 116.35V124H384.193V105.5H387.693V111.875C388.143 111.275 388.743 110.808 389.493 110.475C390.243 110.125 391.076 109.95 391.993 109.95ZM404.796 113.025V119.725C404.796 120.192 404.904 120.533 405.121 120.75C405.354 120.95 405.738 121.05 406.271 121.05H407.896V124H405.696C402.746 124 401.271 122.567 401.271 119.7V113.025H399.621V110.15H401.271V106.725H404.796V110.15H407.896V113.025H404.796ZM416.763 113.025H414.338V124H410.788V113.025H409.213V110.15H410.788V109.45C410.788 107.75 411.272 106.5 412.238 105.7C413.205 104.9 414.663 104.525 416.613 104.575V107.525C415.763 107.508 415.172 107.65 414.838 107.95C414.505 108.25 414.338 108.792 414.338 109.575V110.15H416.763V113.025ZM425.182 124.225C423.848 124.225 422.648 123.933 421.582 123.35C420.515 122.75 419.673 121.908 419.057 120.825C418.457 119.742 418.157 118.492 418.157 117.075C418.157 115.658 418.465 114.408 419.082 113.325C419.715 112.242 420.573 111.408 421.657 110.825C422.74 110.225 423.948 109.925 425.282 109.925C426.615 109.925 427.823 110.225 428.907 110.825C429.99 111.408 430.84 112.242 431.457 113.325C432.09 114.408 432.407 115.658 432.407 117.075C432.407 118.492 432.082 119.742 431.432 120.825C430.798 121.908 429.932 122.75 428.832 123.35C427.748 123.933 426.532 124.225 425.182 124.225ZM425.182 121.175C425.815 121.175 426.407 121.025 426.957 120.725C427.523 120.408 427.973 119.942 428.307 119.325C428.64 118.708 428.807 117.958 428.807 117.075C428.807 115.758 428.457 114.75 427.757 114.05C427.073 113.333 426.232 112.975 425.232 112.975C424.232 112.975 423.39 113.333 422.707 114.05C422.04 114.75 421.707 115.758 421.707 117.075C421.707 118.392 422.032 119.408 422.682 120.125C423.348 120.825 424.182 121.175 425.182 121.175ZM438.474 112.3C438.924 111.567 439.507 110.992 440.224 110.575C440.957 110.158 441.791 109.95 442.724 109.95V113.625H441.799C440.699 113.625 439.866 113.883 439.299 114.4C438.749 114.917 438.474 115.817 438.474 117.1V124H434.974V110.15H438.474V112.3ZM464.281 110.15L460.231 124H456.456L453.931 114.325L451.406 124H447.606L443.531 110.15H447.081L449.531 120.7L452.181 110.15H455.881L458.481 120.675L460.931 110.15H464.281ZM465.275 117.025C465.275 115.625 465.55 114.383 466.1 113.3C466.667 112.217 467.425 111.383 468.375 110.8C469.342 110.217 470.417 109.925 471.6 109.925C472.634 109.925 473.534 110.133 474.3 110.55C475.084 110.967 475.709 111.492 476.175 112.125V110.15H479.7V124H476.175V121.975C475.725 122.625 475.1 123.167 474.3 123.6C473.517 124.017 472.609 124.225 471.575 124.225C470.409 124.225 469.342 123.925 468.375 123.325C467.425 122.725 466.667 121.883 466.1 120.8C465.55 119.7 465.275 118.442 465.275 117.025ZM476.175 117.075C476.175 116.225 476.009 115.5 475.675 114.9C475.342 114.283 474.892 113.817 474.325 113.5C473.759 113.167 473.15 113 472.5 113C471.85 113 471.25 113.158 470.7 113.475C470.15 113.792 469.7 114.258 469.35 114.875C469.017 115.475 468.85 116.192 468.85 117.025C468.85 117.858 469.017 118.592 469.35 119.225C469.7 119.842 470.15 120.317 470.7 120.65C471.267 120.983 471.867 121.15 472.5 121.15C473.15 121.15 473.759 120.992 474.325 120.675C474.892 120.342 475.342 119.875 475.675 119.275C476.009 118.658 476.175 117.925 476.175 117.075ZM486.619 112.3C487.069 111.567 487.652 110.992 488.369 110.575C489.102 110.158 489.935 109.95 490.869 109.95V113.625H489.944C488.844 113.625 488.01 113.883 487.444 114.4C486.894 114.917 486.619 115.817 486.619 117.1V124H483.119V110.15H486.619V112.3ZM492.326 117.025C492.326 115.625 492.601 114.383 493.151 113.3C493.718 112.217 494.484 111.383 495.451 110.8C496.418 110.217 497.493 109.925 498.676 109.925C499.576 109.925 500.434 110.125 501.251 110.525C502.068 110.908 502.718 111.425 503.201 112.075V105.5H506.751V124H503.201V121.95C502.768 122.633 502.159 123.183 501.376 123.6C500.593 124.017 499.684 124.225 498.651 124.225C497.484 124.225 496.418 123.925 495.451 123.325C494.484 122.725 493.718 121.883 493.151 120.8C492.601 119.7 492.326 118.442 492.326 117.025ZM503.226 117.075C503.226 116.225 503.059 115.5 502.726 114.9C502.393 114.283 501.943 113.817 501.376 113.5C500.809 113.167 500.201 113 499.551 113C498.901 113 498.301 113.158 497.751 113.475C497.201 113.792 496.751 114.258 496.401 114.875C496.068 115.475 495.901 116.192 495.901 117.025C495.901 117.858 496.068 118.592 496.401 119.225C496.751 119.842 497.201 120.317 497.751 120.65C498.318 120.983 498.918 121.15 499.551 121.15C500.201 121.15 500.809 120.992 501.376 120.675C501.943 120.342 502.393 119.875 502.726 119.275C503.059 118.658 503.226 117.925 503.226 117.075ZM515.226 117.025C515.226 115.625 515.501 114.383 516.051 113.3C516.618 112.217 517.376 111.383 518.326 110.8C519.293 110.217 520.368 109.925 521.551 109.925C522.585 109.925 523.485 110.133 524.251 110.55C525.035 110.967 525.66 111.492 526.126 112.125V110.15H529.651V124H526.126V121.975C525.676 122.625 525.051 123.167 524.251 123.6C523.468 124.017 522.56 124.225 521.526 124.225C520.36 124.225 519.293 123.925 518.326 123.325C517.376 122.725 516.618 121.883 516.051 120.8C515.501 119.7 515.226 118.442 515.226 117.025ZM526.126 117.075C526.126 116.225 525.96 115.5 525.626 114.9C525.293 114.283 524.843 113.817 524.276 113.5C523.71 113.167 523.101 113 522.451 113C521.801 113 521.201 113.158 520.651 113.475C520.101 113.792 519.651 114.258 519.301 114.875C518.968 115.475 518.801 116.192 518.801 117.025C518.801 117.858 518.968 118.592 519.301 119.225C519.651 119.842 520.101 120.317 520.651 120.65C521.218 120.983 521.818 121.15 522.451 121.15C523.101 121.15 523.71 120.992 524.276 120.675C524.843 120.342 525.293 119.875 525.626 119.275C525.96 118.658 526.126 117.925 526.126 117.075ZM540.745 109.95C542.395 109.95 543.728 110.475 544.745 111.525C545.761 112.558 546.27 114.008 546.27 115.875V124H542.77V116.35C542.77 115.25 542.495 114.408 541.945 113.825C541.395 113.225 540.645 112.925 539.695 112.925C538.728 112.925 537.961 113.225 537.395 113.825C536.845 114.408 536.57 115.25 536.57 116.35V124H533.07V110.15H536.57V111.875C537.036 111.275 537.628 110.808 538.345 110.475C539.078 110.125 539.878 109.95 540.745 109.95ZM548.698 117.025C548.698 115.625 548.973 114.383 549.523 113.3C550.09 112.217 550.856 111.383 551.823 110.8C552.79 110.217 553.865 109.925 555.048 109.925C555.948 109.925 556.806 110.125 557.623 110.525C558.44 110.908 559.09 111.425 559.573 112.075V105.5H563.123V124H559.573V121.95C559.14 122.633 558.531 123.183 557.748 123.6C556.965 124.017 556.056 124.225 555.023 124.225C553.856 124.225 552.79 123.925 551.823 123.325C550.856 122.725 550.09 121.883 549.523 120.8C548.973 119.7 548.698 118.442 548.698 117.025ZM559.598 117.075C559.598 116.225 559.431 115.5 559.098 114.9C558.765 114.283 558.315 113.817 557.748 113.5C557.181 113.167 556.573 113 555.923 113C555.273 113 554.673 113.158 554.123 113.475C553.573 113.792 553.123 114.258 552.773 114.875C552.44 115.475 552.273 116.192 552.273 117.025C552.273 117.858 552.44 118.592 552.773 119.225C553.123 119.842 553.573 120.317 554.123 120.65C554.69 120.983 555.29 121.15 555.923 121.15C556.573 121.15 557.181 120.992 557.748 120.675C558.315 120.342 558.765 119.875 559.098 119.275C559.431 118.658 559.598 117.925 559.598 117.075ZM571.598 117.075C571.598 115.642 571.89 114.392 572.473 113.325C573.057 112.242 573.865 111.408 574.898 110.825C575.932 110.225 577.115 109.925 578.448 109.925C580.165 109.925 581.582 110.358 582.698 111.225C583.832 112.075 584.59 113.275 584.973 114.825H581.198C580.998 114.225 580.657 113.758 580.173 113.425C579.707 113.075 579.123 112.9 578.423 112.9C577.423 112.9 576.632 113.267 576.048 114C575.465 114.717 575.173 115.742 575.173 117.075C575.173 118.392 575.465 119.417 576.048 120.15C576.632 120.867 577.423 121.225 578.423 121.225C579.84 121.225 580.765 120.592 581.198 119.325H584.973C584.59 120.825 583.832 122.017 582.698 122.9C581.565 123.783 580.148 124.225 578.448 124.225C577.115 124.225 575.932 123.933 574.898 123.35C573.865 122.75 573.057 121.917 572.473 120.85C571.89 119.767 571.598 118.508 571.598 117.075ZM591.038 105.5V124H587.538V105.5H591.038ZM607.371 116.775C607.371 117.275 607.337 117.725 607.271 118.125H597.146C597.229 119.125 597.579 119.908 598.196 120.475C598.812 121.042 599.571 121.325 600.471 121.325C601.771 121.325 602.696 120.767 603.246 119.65H607.021C606.621 120.983 605.854 122.083 604.721 122.95C603.587 123.8 602.196 124.225 600.546 124.225C599.212 124.225 598.012 123.933 596.946 123.35C595.896 122.75 595.071 121.908 594.471 120.825C593.887 119.742 593.596 118.492 593.596 117.075C593.596 115.642 593.887 114.383 594.471 113.3C595.054 112.217 595.871 111.383 596.921 110.8C597.971 110.217 599.179 109.925 600.546 109.925C601.862 109.925 603.037 110.208 604.071 110.775C605.121 111.342 605.929 112.15 606.496 113.2C607.079 114.233 607.371 115.425 607.371 116.775ZM603.746 115.775C603.729 114.875 603.404 114.158 602.771 113.625C602.137 113.075 601.362 112.8 600.446 112.8C599.579 112.8 598.846 113.067 598.246 113.6C597.662 114.117 597.304 114.842 597.171 115.775H603.746ZM609.025 117.025C609.025 115.625 609.3 114.383 609.85 113.3C610.417 112.217 611.175 111.383 612.125 110.8C613.092 110.217 614.167 109.925 615.35 109.925C616.384 109.925 617.284 110.133 618.05 110.55C618.834 110.967 619.459 111.492 619.925 112.125V110.15H623.45V124H619.925V121.975C619.475 122.625 618.85 123.167 618.05 123.6C617.267 124.017 616.359 124.225 615.325 124.225C614.159 124.225 613.092 123.925 612.125 123.325C611.175 122.725 610.417 121.883 609.85 120.8C609.3 119.7 609.025 118.442 609.025 117.025ZM619.925 117.075C619.925 116.225 619.759 115.5 619.425 114.9C619.092 114.283 618.642 113.817 618.075 113.5C617.509 113.167 616.9 113 616.25 113C615.6 113 615 113.158 614.45 113.475C613.9 113.792 613.45 114.258 613.1 114.875C612.767 115.475 612.6 116.192 612.6 117.025C612.6 117.858 612.767 118.592 613.1 119.225C613.45 119.842 613.9 120.317 614.45 120.65C615.017 120.983 615.617 121.15 616.25 121.15C616.9 121.15 617.509 120.992 618.075 120.675C618.642 120.342 619.092 119.875 619.425 119.275C619.759 118.658 619.925 117.925 619.925 117.075ZM634.544 109.95C636.194 109.95 637.527 110.475 638.544 111.525C639.56 112.558 640.069 114.008 640.069 115.875V124H636.569V116.35C636.569 115.25 636.294 114.408 635.744 113.825C635.194 113.225 634.444 112.925 633.494 112.925C632.527 112.925 631.76 113.225 631.194 113.825C630.644 114.408 630.369 115.25 630.369 116.35V124H626.869V110.15H630.369V111.875C630.835 111.275 631.427 110.808 632.144 110.475C632.877 110.125 633.677 109.95 634.544 109.95ZM647.922 106.25L647.522 118.325H644.572L644.147 106.25H647.922ZM646.122 124.175C645.489 124.175 644.964 123.983 644.547 123.6C644.147 123.2 643.947 122.708 643.947 122.125C643.947 121.542 644.147 121.058 644.547 120.675C644.964 120.275 645.489 120.075 646.122 120.075C646.739 120.075 647.247 120.275 647.647 120.675C648.047 121.058 648.247 121.542 648.247 122.125C648.247 122.708 648.047 123.2 647.647 123.6C647.247 123.983 646.739 124.175 646.122 124.175Z" fill="#505050"/>
<path d="M108.6 58.55V61.375H103.95V76H100.45V61.375H95.8V58.55H108.6ZM118.954 61.95C120.004 61.95 120.937 62.1833 121.754 62.65C122.57 63.1 123.204 63.775 123.654 64.675C124.12 65.5583 124.354 66.625 124.354 67.875V76H120.854V68.35C120.854 67.25 120.579 66.4083 120.029 65.825C119.479 65.225 118.729 64.925 117.779 64.925C116.812 64.925 116.045 65.225 115.479 65.825C114.929 66.4083 114.654 67.25 114.654 68.35V76H111.154V57.5H114.654V63.875C115.104 63.275 115.704 62.8083 116.454 62.475C117.204 62.125 118.037 61.95 118.954 61.95ZM140.557 68.775C140.557 69.275 140.524 69.725 140.457 70.125H130.332C130.415 71.125 130.765 71.9083 131.382 72.475C131.999 73.0417 132.757 73.325 133.657 73.325C134.957 73.325 135.882 72.7667 136.432 71.65H140.207C139.807 72.9833 139.04 74.0833 137.907 74.95C136.774 75.8 135.382 76.225 133.732 76.225C132.399 76.225 131.199 75.9333 130.132 75.35C129.082 74.75 128.257 73.9083 127.657 72.825C127.074 71.7417 126.782 70.4917 126.782 69.075C126.782 67.6417 127.074 66.3833 127.657 65.3C128.24 64.2167 129.057 63.3833 130.107 62.8C131.157 62.2167 132.365 61.925 133.732 61.925C135.049 61.925 136.224 62.2083 137.257 62.775C138.307 63.3417 139.115 64.15 139.682 65.2C140.265 66.2333 140.557 67.425 140.557 68.775ZM136.932 67.775C136.915 66.875 136.59 66.1583 135.957 65.625C135.324 65.075 134.549 64.8 133.632 64.8C132.765 64.8 132.032 65.0667 131.432 65.6C130.849 66.1167 130.49 66.8417 130.357 67.775H136.932ZM152.569 64.15C153.019 63.5167 153.635 62.9917 154.419 62.575C155.219 62.1417 156.127 61.925 157.144 61.925C158.327 61.925 159.394 62.2167 160.344 62.8C161.31 63.3833 162.069 64.2167 162.619 65.3C163.185 66.3667 163.469 67.6083 163.469 69.025C163.469 70.4417 163.185 71.7 162.619 72.8C162.069 73.8833 161.31 74.725 160.344 75.325C159.394 75.925 158.327 76.225 157.144 76.225C156.127 76.225 155.227 76.0167 154.444 75.6C153.677 75.1833 153.052 74.6583 152.569 74.025V82.6H149.069V62.15H152.569V64.15ZM159.894 69.025C159.894 68.1917 159.719 67.475 159.369 66.875C159.035 66.2583 158.585 65.7917 158.019 65.475C157.469 65.1583 156.869 65 156.219 65C155.585 65 154.985 65.1667 154.419 65.5C153.869 65.8167 153.419 66.2833 153.069 66.9C152.735 67.5167 152.569 68.2417 152.569 69.075C152.569 69.9083 152.735 70.6333 153.069 71.25C153.419 71.8667 153.869 72.3417 154.419 72.675C154.985 72.9917 155.585 73.15 156.219 73.15C156.869 73.15 157.469 72.9833 158.019 72.65C158.585 72.3167 159.035 71.8417 159.369 71.225C159.719 70.6083 159.894 69.875 159.894 69.025ZM169.512 64.3C169.962 63.5667 170.545 62.9917 171.262 62.575C171.995 62.1583 172.829 61.95 173.762 61.95V65.625H172.837C171.737 65.625 170.904 65.8833 170.337 66.4C169.787 66.9167 169.512 67.8167 169.512 69.1V76H166.012V62.15H169.512V64.3ZM182.27 76.225C180.936 76.225 179.736 75.9333 178.67 75.35C177.603 74.75 176.761 73.9083 176.145 72.825C175.545 71.7417 175.245 70.4917 175.245 69.075C175.245 67.6583 175.553 66.4083 176.17 65.325C176.803 64.2417 177.661 63.4083 178.745 62.825C179.828 62.225 181.036 61.925 182.37 61.925C183.703 61.925 184.911 62.225 185.995 62.825C187.078 63.4083 187.928 64.2417 188.545 65.325C189.178 66.4083 189.495 67.6583 189.495 69.075C189.495 70.4917 189.17 71.7417 188.52 72.825C187.886 73.9083 187.02 74.75 185.92 75.35C184.836 75.9333 183.62 76.225 182.27 76.225ZM182.27 73.175C182.903 73.175 183.495 73.025 184.045 72.725C184.611 72.4083 185.061 71.9417 185.395 71.325C185.728 70.7083 185.895 69.9583 185.895 69.075C185.895 67.7583 185.545 66.75 184.845 66.05C184.161 65.3333 183.32 64.975 182.32 64.975C181.32 64.975 180.478 65.3333 179.795 66.05C179.128 66.75 178.795 67.7583 178.795 69.075C178.795 70.3917 179.12 71.4083 179.77 72.125C180.436 72.825 181.27 73.175 182.27 73.175ZM191.162 69.075C191.162 67.6417 191.454 66.3917 192.037 65.325C192.62 64.2417 193.429 63.4083 194.462 62.825C195.495 62.225 196.679 61.925 198.012 61.925C199.729 61.925 201.145 62.3583 202.262 63.225C203.395 64.075 204.154 65.275 204.537 66.825H200.762C200.562 66.225 200.22 65.7583 199.737 65.425C199.27 65.075 198.687 64.9 197.987 64.9C196.987 64.9 196.195 65.2667 195.612 66C195.029 66.7167 194.737 67.7417 194.737 69.075C194.737 70.3917 195.029 71.4167 195.612 72.15C196.195 72.8667 196.987 73.225 197.987 73.225C199.404 73.225 200.329 72.5917 200.762 71.325H204.537C204.154 72.825 203.395 74.0167 202.262 74.9C201.129 75.7833 199.712 76.225 198.012 76.225C196.679 76.225 195.495 75.9333 194.462 75.35C193.429 74.75 192.62 73.9167 192.037 72.85C191.454 71.7667 191.162 70.5083 191.162 69.075ZM219.976 68.775C219.976 69.275 219.943 69.725 219.876 70.125H209.751C209.834 71.125 210.184 71.9083 210.801 72.475C211.418 73.0417 212.176 73.325 213.076 73.325C214.376 73.325 215.301 72.7667 215.851 71.65H219.626C219.226 72.9833 218.459 74.0833 217.326 74.95C216.193 75.8 214.801 76.225 213.151 76.225C211.818 76.225 210.618 75.9333 209.551 75.35C208.501 74.75 207.676 73.9083 207.076 72.825C206.493 71.7417 206.201 70.4917 206.201 69.075C206.201 67.6417 206.493 66.3833 207.076 65.3C207.659 64.2167 208.476 63.3833 209.526 62.8C210.576 62.2167 211.784 61.925 213.151 61.925C214.468 61.925 215.643 62.2083 216.676 62.775C217.726 63.3417 218.534 64.15 219.101 65.2C219.684 66.2333 219.976 67.425 219.976 68.775ZM216.351 67.775C216.334 66.875 216.009 66.1583 215.376 65.625C214.743 65.075 213.968 64.8 213.051 64.8C212.184 64.8 211.451 65.0667 210.851 65.6C210.268 66.1167 209.909 66.8417 209.776 67.775H216.351ZM227.831 76.225C226.697 76.225 225.681 76.025 224.781 75.625C223.881 75.2083 223.164 74.65 222.631 73.95C222.114 73.25 221.831 72.475 221.781 71.625H225.306C225.372 72.1583 225.631 72.6 226.081 72.95C226.547 73.3 227.122 73.475 227.806 73.475C228.472 73.475 228.989 73.3417 229.356 73.075C229.739 72.8083 229.931 72.4667 229.931 72.05C229.931 71.6 229.697 71.2667 229.231 71.05C228.781 70.8167 228.056 70.5667 227.056 70.3C226.022 70.05 225.172 69.7917 224.506 69.525C223.856 69.2583 223.289 68.85 222.806 68.3C222.339 67.75 222.106 67.0083 222.106 66.075C222.106 65.3083 222.322 64.6083 222.756 63.975C223.206 63.3417 223.839 62.8417 224.656 62.475C225.489 62.1083 226.464 61.925 227.581 61.925C229.231 61.925 230.547 62.3417 231.531 63.175C232.514 63.9917 233.056 65.1 233.156 66.5H229.806C229.756 65.95 229.522 65.5167 229.106 65.2C228.706 64.8667 228.164 64.7 227.481 64.7C226.847 64.7 226.356 64.8167 226.006 65.05C225.672 65.2833 225.506 65.6083 225.506 66.025C225.506 66.4917 225.739 66.85 226.206 67.1C226.672 67.3333 227.397 67.575 228.381 67.825C229.381 68.075 230.206 68.3333 230.856 68.6C231.506 68.8667 232.064 69.2833 232.531 69.85C233.014 70.4 233.264 71.1333 233.281 72.05C233.281 72.85 233.056 73.5667 232.606 74.2C232.172 74.8333 231.539 75.3333 230.706 75.7C229.889 76.05 228.931 76.225 227.831 76.225ZM241.454 76.225C240.32 76.225 239.304 76.025 238.404 75.625C237.504 75.2083 236.787 74.65 236.254 73.95C235.737 73.25 235.454 72.475 235.404 71.625H238.929C238.995 72.1583 239.254 72.6 239.704 72.95C240.17 73.3 240.745 73.475 241.429 73.475C242.095 73.475 242.612 73.3417 242.979 73.075C243.362 72.8083 243.554 72.4667 243.554 72.05C243.554 71.6 243.32 71.2667 242.854 71.05C242.404 70.8167 241.679 70.5667 240.679 70.3C239.645 70.05 238.795 69.7917 238.129 69.525C237.479 69.2583 236.912 68.85 236.429 68.3C235.962 67.75 235.729 67.0083 235.729 66.075C235.729 65.3083 235.945 64.6083 236.379 63.975C236.829 63.3417 237.462 62.8417 238.279 62.475C239.112 62.1083 240.087 61.925 241.204 61.925C242.854 61.925 244.17 62.3417 245.154 63.175C246.137 63.9917 246.679 65.1 246.779 66.5H243.429C243.379 65.95 243.145 65.5167 242.729 65.2C242.329 64.8667 241.787 64.7 241.104 64.7C240.47 64.7 239.979 64.8167 239.629 65.05C239.295 65.2833 239.129 65.6083 239.129 66.025C239.129 66.4917 239.362 66.85 239.829 67.1C240.295 67.3333 241.02 67.575 242.004 67.825C243.004 68.075 243.829 68.3333 244.479 68.6C245.129 68.8667 245.687 69.2833 246.154 69.85C246.637 70.4 246.887 71.1333 246.904 72.05C246.904 72.85 246.679 73.5667 246.229 74.2C245.795 74.8333 245.162 75.3333 244.329 75.7C243.512 76.05 242.554 76.225 241.454 76.225ZM274.934 62.15L270.884 76H267.109L264.584 66.325L262.059 76H258.259L254.184 62.15H257.734L260.184 72.7L262.834 62.15H266.534L269.134 72.675L271.584 62.15H274.934ZM275.928 69.025C275.928 67.625 276.203 66.3833 276.753 65.3C277.319 64.2167 278.078 63.3833 279.028 62.8C279.994 62.2167 281.069 61.925 282.253 61.925C283.286 61.925 284.186 62.1333 284.953 62.55C285.736 62.9667 286.361 63.4917 286.828 64.125V62.15H290.353V76H286.828V73.975C286.378 74.625 285.753 75.1667 284.953 75.6C284.169 76.0167 283.261 76.225 282.228 76.225C281.061 76.225 279.994 75.925 279.028 75.325C278.078 74.725 277.319 73.8833 276.753 72.8C276.203 71.7 275.928 70.4417 275.928 69.025ZM286.828 69.075C286.828 68.225 286.661 67.5 286.328 66.9C285.994 66.2833 285.544 65.8167 284.978 65.5C284.411 65.1667 283.803 65 283.153 65C282.503 65 281.903 65.1583 281.353 65.475C280.803 65.7917 280.353 66.2583 280.003 66.875C279.669 67.475 279.503 68.1917 279.503 69.025C279.503 69.8583 279.669 70.5917 280.003 71.225C280.353 71.8417 280.803 72.3167 281.353 72.65C281.919 72.9833 282.519 73.15 283.153 73.15C283.803 73.15 284.411 72.9917 284.978 72.675C285.544 72.3417 285.994 71.875 286.328 71.275C286.661 70.6583 286.828 69.925 286.828 69.075ZM299.071 76.225C297.938 76.225 296.921 76.025 296.021 75.625C295.121 75.2083 294.404 74.65 293.871 73.95C293.354 73.25 293.071 72.475 293.021 71.625H296.546C296.613 72.1583 296.871 72.6 297.321 72.95C297.788 73.3 298.363 73.475 299.046 73.475C299.713 73.475 300.229 73.3417 300.596 73.075C300.979 72.8083 301.171 72.4667 301.171 72.05C301.171 71.6 300.938 71.2667 300.471 71.05C300.021 70.8167 299.296 70.5667 298.296 70.3C297.263 70.05 296.413 69.7917 295.746 69.525C295.096 69.2583 294.529 68.85 294.046 68.3C293.579 67.75 293.346 67.0083 293.346 66.075C293.346 65.3083 293.563 64.6083 293.996 63.975C294.446 63.3417 295.079 62.8417 295.896 62.475C296.729 62.1083 297.704 61.925 298.821 61.925C300.471 61.925 301.788 62.3417 302.771 63.175C303.754 63.9917 304.296 65.1 304.396 66.5H301.046C300.996 65.95 300.763 65.5167 300.346 65.2C299.946 64.8667 299.404 64.7 298.721 64.7C298.088 64.7 297.596 64.8167 297.246 65.05C296.913 65.2833 296.746 65.6083 296.746 66.025C296.746 66.4917 296.979 66.85 297.446 67.1C297.913 67.3333 298.638 67.575 299.621 67.825C300.621 68.075 301.446 68.3333 302.096 68.6C302.746 68.8667 303.304 69.2833 303.771 69.85C304.254 70.4 304.504 71.1333 304.521 72.05C304.521 72.85 304.296 73.5667 303.846 74.2C303.413 74.8333 302.779 75.3333 301.946 75.7C301.129 76.05 300.171 76.225 299.071 76.225ZM318.651 76.225C317.518 76.225 316.501 76.025 315.601 75.625C314.701 75.2083 313.984 74.65 313.451 73.95C312.934 73.25 312.651 72.475 312.601 71.625H316.126C316.193 72.1583 316.451 72.6 316.901 72.95C317.368 73.3 317.943 73.475 318.626 73.475C319.293 73.475 319.809 73.3417 320.176 73.075C320.559 72.8083 320.751 72.4667 320.751 72.05C320.751 71.6 320.518 71.2667 320.051 71.05C319.601 70.8167 318.876 70.5667 317.876 70.3C316.843 70.05 315.993 69.7917 315.326 69.525C314.676 69.2583 314.109 68.85 313.626 68.3C313.159 67.75 312.926 67.0083 312.926 66.075C312.926 65.3083 313.143 64.6083 313.576 63.975C314.026 63.3417 314.659 62.8417 315.476 62.475C316.309 62.1083 317.284 61.925 318.401 61.925C320.051 61.925 321.368 62.3417 322.351 63.175C323.334 63.9917 323.876 65.1 323.976 66.5H320.626C320.576 65.95 320.343 65.5167 319.926 65.2C319.526 64.8667 318.984 64.7 318.301 64.7C317.668 64.7 317.176 64.8167 316.826 65.05C316.493 65.2833 316.326 65.6083 316.326 66.025C316.326 66.4917 316.559 66.85 317.026 67.1C317.493 67.3333 318.218 67.575 319.201 67.825C320.201 68.075 321.026 68.3333 321.676 68.6C322.326 68.8667 322.884 69.2833 323.351 69.85C323.834 70.4 324.084 71.1333 324.101 72.05C324.101 72.85 323.876 73.5667 323.426 74.2C322.993 74.8333 322.359 75.3333 321.526 75.7C320.709 76.05 319.751 76.225 318.651 76.225ZM339.849 68.775C339.849 69.275 339.816 69.725 339.749 70.125H329.624C329.707 71.125 330.057 71.9083 330.674 72.475C331.291 73.0417 332.049 73.325 332.949 73.325C334.249 73.325 335.174 72.7667 335.724 71.65H339.499C339.099 72.9833 338.332 74.0833 337.199 74.95C336.066 75.8 334.674 76.225 333.024 76.225C331.691 76.225 330.491 75.9333 329.424 75.35C328.374 74.75 327.549 73.9083 326.949 72.825C326.366 71.7417 326.074 70.4917 326.074 69.075C326.074 67.6417 326.366 66.3833 326.949 65.3C327.532 64.2167 328.349 63.3833 329.399 62.8C330.449 62.2167 331.657 61.925 333.024 61.925C334.341 61.925 335.516 62.2083 336.549 62.775C337.599 63.3417 338.407 64.15 338.974 65.2C339.557 66.2333 339.849 67.425 339.849 68.775ZM336.224 67.775C336.207 66.875 335.882 66.1583 335.249 65.625C334.616 65.075 333.841 64.8 332.924 64.8C332.057 64.8 331.324 65.0667 330.724 65.6C330.141 66.1167 329.782 66.8417 329.649 67.775H336.224ZM341.504 69.025C341.504 67.625 341.779 66.3833 342.329 65.3C342.895 64.2167 343.654 63.3833 344.604 62.8C345.57 62.2167 346.645 61.925 347.829 61.925C348.862 61.925 349.762 62.1333 350.529 62.55C351.312 62.9667 351.937 63.4917 352.404 64.125V62.15H355.929V76H352.404V73.975C351.954 74.625 351.329 75.1667 350.529 75.6C349.745 76.0167 348.837 76.225 347.804 76.225C346.637 76.225 345.57 75.925 344.604 75.325C343.654 74.725 342.895 73.8833 342.329 72.8C341.779 71.7 341.504 70.4417 341.504 69.025ZM352.404 69.075C352.404 68.225 352.237 67.5 351.904 66.9C351.57 66.2833 351.12 65.8167 350.554 65.5C349.987 65.1667 349.379 65 348.729 65C348.079 65 347.479 65.1583 346.929 65.475C346.379 65.7917 345.929 66.2583 345.579 66.875C345.245 67.475 345.079 68.1917 345.079 69.025C345.079 69.8583 345.245 70.5917 345.579 71.225C345.929 71.8417 346.379 72.3167 346.929 72.65C347.495 72.9833 348.095 73.15 348.729 73.15C349.379 73.15 349.987 72.9917 350.554 72.675C351.12 72.3417 351.57 71.875 351.904 71.275C352.237 70.6583 352.404 69.925 352.404 69.075ZM376.547 61.95C378.247 61.95 379.614 62.475 380.647 63.525C381.697 64.5583 382.222 66.0083 382.222 67.875V76H378.722V68.35C378.722 67.2667 378.447 66.4417 377.897 65.875C377.347 65.2917 376.597 65 375.647 65C374.697 65 373.939 65.2917 373.372 65.875C372.822 66.4417 372.547 67.2667 372.547 68.35V76H369.047V68.35C369.047 67.2667 368.772 66.4417 368.222 65.875C367.672 65.2917 366.922 65 365.972 65C365.005 65 364.239 65.2917 363.672 65.875C363.122 66.4417 362.847 67.2667 362.847 68.35V76H359.347V62.15H362.847V63.825C363.297 63.2417 363.872 62.7833 364.572 62.45C365.289 62.1167 366.072 61.95 366.922 61.95C368.005 61.95 368.972 62.1833 369.822 62.65C370.672 63.1 371.33 63.75 371.797 64.6C372.247 63.8 372.897 63.1583 373.747 62.675C374.614 62.1917 375.547 61.95 376.547 61.95ZM389.043 57.5V76H385.543V57.5H389.043ZM405.376 68.775C405.376 69.275 405.343 69.725 405.276 70.125H395.151C395.235 71.125 395.585 71.9083 396.201 72.475C396.818 73.0417 397.576 73.325 398.476 73.325C399.776 73.325 400.701 72.7667 401.251 71.65H405.026C404.626 72.9833 403.86 74.0833 402.726 74.95C401.593 75.8 400.201 76.225 398.551 76.225C397.218 76.225 396.018 75.9333 394.951 75.35C393.901 74.75 393.076 73.9083 392.476 72.825C391.893 71.7417 391.601 70.4917 391.601 69.075C391.601 67.6417 391.893 66.3833 392.476 65.3C393.06 64.2167 393.876 63.3833 394.926 62.8C395.976 62.2167 397.185 61.925 398.551 61.925C399.868 61.925 401.043 62.2083 402.076 62.775C403.126 63.3417 403.935 64.15 404.501 65.2C405.085 66.2333 405.376 67.425 405.376 68.775ZM401.751 67.775C401.735 66.875 401.41 66.1583 400.776 65.625C400.143 65.075 399.368 64.8 398.451 64.8C397.585 64.8 396.851 65.0667 396.251 65.6C395.668 66.1167 395.31 66.8417 395.176 67.775H401.751ZM413.231 76.225C412.098 76.225 411.081 76.025 410.181 75.625C409.281 75.2083 408.564 74.65 408.031 73.95C407.514 73.25 407.231 72.475 407.181 71.625H410.706C410.773 72.1583 411.031 72.6 411.481 72.95C411.948 73.3 412.523 73.475 413.206 73.475C413.873 73.475 414.389 73.3417 414.756 73.075C415.139 72.8083 415.331 72.4667 415.331 72.05C415.331 71.6 415.098 71.2667 414.631 71.05C414.181 70.8167 413.456 70.5667 412.456 70.3C411.423 70.05 410.573 69.7917 409.906 69.525C409.256 69.2583 408.689 68.85 408.206 68.3C407.739 67.75 407.506 67.0083 407.506 66.075C407.506 65.3083 407.723 64.6083 408.156 63.975C408.606 63.3417 409.239 62.8417 410.056 62.475C410.889 62.1083 411.864 61.925 412.981 61.925C414.631 61.925 415.948 62.3417 416.931 63.175C417.914 63.9917 418.456 65.1 418.556 66.5H415.206C415.156 65.95 414.923 65.5167 414.506 65.2C414.106 64.8667 413.564 64.7 412.881 64.7C412.248 64.7 411.756 64.8167 411.406 65.05C411.073 65.2833 410.906 65.6083 410.906 66.025C410.906 66.4917 411.139 66.85 411.606 67.1C412.073 67.3333 412.798 67.575 413.781 67.825C414.781 68.075 415.606 68.3333 416.256 68.6C416.906 68.8667 417.464 69.2833 417.931 69.85C418.414 70.4 418.664 71.1333 418.681 72.05C418.681 72.85 418.456 73.5667 418.006 74.2C417.573 74.8333 416.939 75.3333 416.106 75.7C415.289 76.05 414.331 76.225 413.231 76.225ZM426.854 76.225C425.721 76.225 424.704 76.025 423.804 75.625C422.904 75.2083 422.187 74.65 421.654 73.95C421.137 73.25 420.854 72.475 420.804 71.625H424.329C424.396 72.1583 424.654 72.6 425.104 72.95C425.571 73.3 426.146 73.475 426.829 73.475C427.496 73.475 428.012 73.3417 428.379 73.075C428.762 72.8083 428.954 72.4667 428.954 72.05C428.954 71.6 428.721 71.2667 428.254 71.05C427.804 70.8167 427.079 70.5667 426.079 70.3C425.046 70.05 424.196 69.7917 423.529 69.525C422.879 69.2583 422.312 68.85 421.829 68.3C421.362 67.75 421.129 67.0083 421.129 66.075C421.129 65.3083 421.346 64.6083 421.779 63.975C422.229 63.3417 422.862 62.8417 423.679 62.475C424.512 62.1083 425.487 61.925 426.604 61.925C428.254 61.925 429.571 62.3417 430.554 63.175C431.537 63.9917 432.079 65.1 432.179 66.5H428.829C428.779 65.95 428.546 65.5167 428.129 65.2C427.729 64.8667 427.187 64.7 426.504 64.7C425.871 64.7 425.379 64.8167 425.029 65.05C424.696 65.2833 424.529 65.6083 424.529 66.025C424.529 66.4917 424.762 66.85 425.229 67.1C425.696 67.3333 426.421 67.575 427.404 67.825C428.404 68.075 429.229 68.3333 429.879 68.6C430.529 68.8667 431.087 69.2833 431.554 69.85C432.037 70.4 432.287 71.1333 432.304 72.05C432.304 72.85 432.079 73.5667 431.629 74.2C431.196 74.8333 430.562 75.3333 429.729 75.7C428.912 76.05 427.954 76.225 426.854 76.225ZM436.727 76.175C436.094 76.175 435.569 75.9833 435.152 75.6C434.752 75.2 434.552 74.7083 434.552 74.125C434.552 73.5417 434.752 73.0583 435.152 72.675C435.569 72.275 436.094 72.075 436.727 72.075C437.344 72.075 437.852 72.275 438.252 72.675C438.652 73.0583 438.852 73.5417 438.852 74.125C438.852 74.7083 438.652 75.2 438.252 75.6C437.852 75.9833 437.344 76.175 436.727 76.175Z" fill="#505050"/>
</svg>
