<svg width="1728" height="619" viewBox="0 0 1728 619" fill="none" xmlns="http://www.w3.org/2000/svg">
<g filter="url(#filter0_f_3105_9299)">
<ellipse cx="864.5" cy="309.5" rx="682.5" ry="109.5" fill="#FFF7E1"/>
</g>
<path d="M633.508 226.605V251H630.323V239.94H617.898V251H614.713V226.605H617.898V237.315H630.323V226.605H633.508ZM647.311 251.315C645.515 251.315 643.881 250.907 642.411 250.09C640.965 249.273 639.821 248.118 638.981 246.625C638.165 245.108 637.756 243.358 637.756 241.375C637.756 239.415 638.176 237.688 639.016 236.195C639.88 234.678 641.046 233.523 642.516 232.73C643.986 231.913 645.631 231.505 647.451 231.505C649.271 231.505 650.916 231.913 652.386 232.73C653.856 233.523 655.011 234.667 655.851 236.16C656.715 237.653 657.146 239.392 657.146 241.375C657.146 243.358 656.703 245.108 655.816 246.625C654.953 248.118 653.775 249.273 652.281 250.09C650.788 250.907 649.131 251.315 647.311 251.315ZM647.311 248.515C648.455 248.515 649.528 248.247 650.531 247.71C651.535 247.173 652.34 246.368 652.946 245.295C653.576 244.222 653.891 242.915 653.891 241.375C653.891 239.835 653.588 238.528 652.981 237.455C652.375 236.382 651.581 235.588 650.601 235.075C649.621 234.538 648.56 234.27 647.416 234.27C646.25 234.27 645.176 234.538 644.196 235.075C643.24 235.588 642.47 236.382 641.886 237.455C641.303 238.528 641.011 239.835 641.011 241.375C641.011 242.938 641.291 244.257 641.851 245.33C642.435 246.403 643.205 247.208 644.161 247.745C645.118 248.258 646.168 248.515 647.311 248.515ZM686.884 231.82L680.899 251H677.609L672.989 235.775L668.369 251H665.079L659.059 231.82H662.314L666.724 247.92L671.484 231.82H674.739L679.394 247.955L683.734 231.82H686.884ZM698.186 241.375C698.186 239.392 698.583 237.665 699.376 236.195C700.169 234.702 701.266 233.547 702.666 232.73C704.089 231.913 705.711 231.505 707.531 231.505C709.888 231.505 711.824 232.077 713.341 233.22C714.881 234.363 715.896 235.95 716.386 237.98H712.956C712.629 236.813 711.988 235.892 711.031 235.215C710.098 234.538 708.931 234.2 707.531 234.2C705.711 234.2 704.241 234.83 703.121 236.09C702.001 237.327 701.441 239.088 701.441 241.375C701.441 243.685 702.001 245.47 703.121 246.73C704.241 247.99 705.711 248.62 707.531 248.62C708.931 248.62 710.098 248.293 711.031 247.64C711.964 246.987 712.606 246.053 712.956 244.84H716.386C715.873 246.8 714.846 248.375 713.306 249.565C711.766 250.732 709.841 251.315 707.531 251.315C705.711 251.315 704.089 250.907 702.666 250.09C701.266 249.273 700.169 248.118 699.376 246.625C698.583 245.132 698.186 243.382 698.186 241.375ZM719.446 241.34C719.446 239.38 719.843 237.665 720.636 236.195C721.429 234.702 722.514 233.547 723.891 232.73C725.291 231.913 726.843 231.505 728.546 231.505C730.226 231.505 731.684 231.867 732.921 232.59C734.158 233.313 735.079 234.223 735.686 235.32V231.82H738.906V251H735.686V247.43C735.056 248.55 734.111 249.483 732.851 250.23C731.614 250.953 730.168 251.315 728.511 251.315C726.808 251.315 725.268 250.895 723.891 250.055C722.514 249.215 721.429 248.037 720.636 246.52C719.843 245.003 719.446 243.277 719.446 241.34ZM735.686 241.375C735.686 239.928 735.394 238.668 734.811 237.595C734.228 236.522 733.434 235.705 732.431 235.145C731.451 234.562 730.366 234.27 729.176 234.27C727.986 234.27 726.901 234.55 725.921 235.11C724.941 235.67 724.159 236.487 723.576 237.56C722.993 238.633 722.701 239.893 722.701 241.34C722.701 242.81 722.993 244.093 723.576 245.19C724.159 246.263 724.941 247.092 725.921 247.675C726.901 248.235 727.986 248.515 729.176 248.515C730.366 248.515 731.451 248.235 732.431 247.675C733.434 247.092 734.228 246.263 734.811 245.19C735.394 244.093 735.686 242.822 735.686 241.375ZM753.633 231.47C755.967 231.47 757.857 232.182 759.303 233.605C760.75 235.005 761.473 237.035 761.473 239.695V251H758.323V240.15C758.323 238.237 757.845 236.778 756.888 235.775C755.932 234.748 754.625 234.235 752.968 234.235C751.288 234.235 749.947 234.76 748.943 235.81C747.963 236.86 747.473 238.388 747.473 240.395V251H744.288V231.82H747.473V234.55C748.103 233.57 748.955 232.812 750.028 232.275C751.125 231.738 752.327 231.47 753.633 231.47ZM801.557 231.82L795.572 251H792.282L787.662 235.775L783.042 251H779.752L773.732 231.82H776.987L781.397 247.92L786.157 231.82H789.412L794.067 247.955L798.407 231.82H801.557ZM822.218 240.675C822.218 241.282 822.183 241.923 822.113 242.6H806.783C806.9 244.49 807.541 245.972 808.708 247.045C809.898 248.095 811.333 248.62 813.013 248.62C814.39 248.62 815.533 248.305 816.443 247.675C817.376 247.022 818.03 246.158 818.403 245.085H821.833C821.32 246.928 820.293 248.433 818.753 249.6C817.213 250.743 815.3 251.315 813.013 251.315C811.193 251.315 809.56 250.907 808.113 250.09C806.69 249.273 805.57 248.118 804.753 246.625C803.936 245.108 803.528 243.358 803.528 241.375C803.528 239.392 803.925 237.653 804.718 236.16C805.511 234.667 806.62 233.523 808.043 232.73C809.49 231.913 811.146 231.505 813.013 231.505C814.833 231.505 816.443 231.902 817.843 232.695C819.243 233.488 820.316 234.585 821.063 235.985C821.833 237.362 822.218 238.925 822.218 240.675ZM818.928 240.01C818.928 238.797 818.66 237.758 818.123 236.895C817.586 236.008 816.851 235.343 815.918 234.9C815.008 234.433 813.993 234.2 812.873 234.2C811.263 234.2 809.886 234.713 808.743 235.74C807.623 236.767 806.981 238.19 806.818 240.01H818.928ZM1053.3 251.315C1051.83 251.315 1050.51 251.07 1049.34 250.58C1048.17 250.067 1047.25 249.367 1046.58 248.48C1045.9 247.57 1045.53 246.532 1045.46 245.365H1048.75C1048.84 246.322 1049.28 247.103 1050.08 247.71C1050.89 248.317 1051.95 248.62 1053.26 248.62C1054.47 248.62 1055.43 248.352 1056.13 247.815C1056.83 247.278 1057.18 246.602 1057.18 245.785C1057.18 244.945 1056.81 244.327 1056.06 243.93C1055.31 243.51 1054.16 243.102 1052.6 242.705C1051.17 242.332 1050.01 241.958 1049.1 241.585C1048.21 241.188 1047.44 240.617 1046.79 239.87C1046.16 239.1 1045.84 238.097 1045.84 236.86C1045.84 235.88 1046.13 234.982 1046.72 234.165C1047.3 233.348 1048.13 232.707 1049.2 232.24C1050.27 231.75 1051.5 231.505 1052.88 231.505C1055 231.505 1056.71 232.042 1058.02 233.115C1059.33 234.188 1060.03 235.658 1060.12 237.525H1056.94C1056.87 236.522 1056.46 235.717 1055.71 235.11C1054.99 234.503 1054.01 234.2 1052.77 234.2C1051.63 234.2 1050.72 234.445 1050.04 234.935C1049.36 235.425 1049.03 236.067 1049.03 236.86C1049.03 237.49 1049.22 238.015 1049.62 238.435C1050.04 238.832 1050.55 239.158 1051.16 239.415C1051.79 239.648 1052.65 239.917 1053.75 240.22C1055.13 240.593 1056.25 240.967 1057.11 241.34C1057.97 241.69 1058.71 242.227 1059.32 242.95C1059.95 243.673 1060.27 244.618 1060.3 245.785C1060.3 246.835 1060 247.78 1059.42 248.62C1058.84 249.46 1058.01 250.125 1056.94 250.615C1055.89 251.082 1054.67 251.315 1053.3 251.315ZM1081.8 231.82V251H1078.62V248.165C1078.01 249.145 1077.16 249.915 1076.06 250.475C1074.99 251.012 1073.8 251.28 1072.49 251.28C1071 251.28 1069.66 250.977 1068.47 250.37C1067.28 249.74 1066.33 248.807 1065.63 247.57C1064.95 246.333 1064.62 244.828 1064.62 243.055V231.82H1067.77V242.635C1067.77 244.525 1068.24 245.983 1069.2 247.01C1070.16 248.013 1071.46 248.515 1073.12 248.515C1074.82 248.515 1076.17 247.99 1077.15 246.94C1078.13 245.89 1078.62 244.362 1078.62 242.355V231.82H1081.8ZM1090.36 235.355C1090.99 234.258 1091.93 233.348 1093.16 232.625C1094.42 231.878 1095.88 231.505 1097.54 231.505C1099.24 231.505 1100.78 231.913 1102.16 232.73C1103.56 233.547 1104.66 234.702 1105.45 236.195C1106.24 237.665 1106.64 239.38 1106.64 241.34C1106.64 243.277 1106.24 245.003 1105.45 246.52C1104.66 248.037 1103.56 249.215 1102.16 250.055C1100.78 250.895 1099.24 251.315 1097.54 251.315C1095.91 251.315 1094.46 250.953 1093.2 250.23C1091.96 249.483 1091.02 248.562 1090.36 247.465V260.1H1087.18V231.82H1090.36V235.355ZM1103.38 241.34C1103.38 239.893 1103.09 238.633 1102.51 237.56C1101.93 236.487 1101.13 235.67 1100.13 235.11C1099.15 234.55 1098.06 234.27 1096.87 234.27C1095.71 234.27 1094.62 234.562 1093.62 235.145C1092.64 235.705 1091.85 236.533 1091.24 237.63C1090.66 238.703 1090.36 239.952 1090.36 241.375C1090.36 242.822 1090.66 244.093 1091.24 245.19C1091.85 246.263 1092.64 247.092 1093.62 247.675C1094.62 248.235 1095.71 248.515 1096.87 248.515C1098.06 248.515 1099.15 248.235 1100.13 247.675C1101.13 247.092 1101.93 246.263 1102.51 245.19C1103.09 244.093 1103.38 242.81 1103.38 241.34ZM1114.02 235.355C1114.65 234.258 1115.58 233.348 1116.82 232.625C1118.08 231.878 1119.53 231.505 1121.19 231.505C1122.89 231.505 1124.43 231.913 1125.81 232.73C1127.21 233.547 1128.31 234.702 1129.1 236.195C1129.89 237.665 1130.29 239.38 1130.29 241.34C1130.29 243.277 1129.89 245.003 1129.1 246.52C1128.31 248.037 1127.21 249.215 1125.81 250.055C1124.43 250.895 1122.89 251.315 1121.19 251.315C1119.56 251.315 1118.11 250.953 1116.85 250.23C1115.61 249.483 1114.67 248.562 1114.02 247.465V260.1H1110.83V231.82H1114.02V235.355ZM1127.04 241.34C1127.04 239.893 1126.74 238.633 1126.16 237.56C1125.58 236.487 1124.78 235.67 1123.78 235.11C1122.8 234.55 1121.72 234.27 1120.53 234.27C1119.36 234.27 1118.27 234.562 1117.27 235.145C1116.29 235.705 1115.5 236.533 1114.89 237.63C1114.31 238.703 1114.02 239.952 1114.02 241.375C1114.02 242.822 1114.31 244.093 1114.89 245.19C1115.5 246.263 1116.29 247.092 1117.27 247.675C1118.27 248.235 1119.36 248.515 1120.53 248.515C1121.72 248.515 1122.8 248.235 1123.78 247.675C1124.78 247.092 1125.58 246.263 1126.16 245.19C1126.74 244.093 1127.04 242.81 1127.04 241.34ZM1142.85 251.315C1141.05 251.315 1139.42 250.907 1137.95 250.09C1136.5 249.273 1135.36 248.118 1134.52 246.625C1133.7 245.108 1133.29 243.358 1133.29 241.375C1133.29 239.415 1133.71 237.688 1134.55 236.195C1135.42 234.678 1136.58 233.523 1138.05 232.73C1139.52 231.913 1141.17 231.505 1142.99 231.505C1144.81 231.505 1146.45 231.913 1147.92 232.73C1149.39 233.523 1150.55 234.667 1151.39 236.16C1152.25 237.653 1152.68 239.392 1152.68 241.375C1152.68 243.358 1152.24 245.108 1151.35 246.625C1150.49 248.118 1149.31 249.273 1147.82 250.09C1146.33 250.907 1144.67 251.315 1142.85 251.315ZM1142.85 248.515C1143.99 248.515 1145.07 248.247 1146.07 247.71C1147.07 247.173 1147.88 246.368 1148.48 245.295C1149.11 244.222 1149.43 242.915 1149.43 241.375C1149.43 239.835 1149.13 238.528 1148.52 237.455C1147.91 236.382 1147.12 235.588 1146.14 235.075C1145.16 234.538 1144.1 234.27 1142.95 234.27C1141.79 234.27 1140.71 234.538 1139.73 235.075C1138.78 235.588 1138.01 236.382 1137.42 237.455C1136.84 238.528 1136.55 239.835 1136.55 241.375C1136.55 242.938 1136.83 244.257 1137.39 245.33C1137.97 246.403 1138.74 247.208 1139.7 247.745C1140.66 248.258 1141.71 248.515 1142.85 248.515ZM1160.06 234.935C1160.62 233.838 1161.41 232.987 1162.44 232.38C1163.49 231.773 1164.76 231.47 1166.25 231.47V234.76H1165.41C1161.84 234.76 1160.06 236.697 1160.06 240.57V251H1156.87V231.82H1160.06V234.935ZM1173.81 234.445V245.75C1173.81 246.683 1174.01 247.348 1174.41 247.745C1174.8 248.118 1175.49 248.305 1176.47 248.305H1178.82V251H1175.95C1174.17 251 1172.84 250.592 1171.96 249.775C1171.07 248.958 1170.63 247.617 1170.63 245.75V234.445H1168.14V231.82H1170.63V226.99H1173.81V231.82H1178.82V234.445H1173.81ZM970.46 281.705C969.853 281.705 969.34 281.495 968.92 281.075C968.5 280.655 968.29 280.142 968.29 279.535C968.29 278.928 968.5 278.415 968.92 277.995C969.34 277.575 969.853 277.365 970.46 277.365C971.043 277.365 971.533 277.575 971.93 277.995C972.35 278.415 972.56 278.928 972.56 279.535C972.56 280.142 972.35 280.655 971.93 281.075C971.533 281.495 971.043 281.705 970.46 281.705ZM972 284.82V304H968.815V284.82H972ZM986.773 284.47C989.106 284.47 990.996 285.182 992.443 286.605C993.89 288.005 994.613 290.035 994.613 292.695V304H991.463V293.15C991.463 291.237 990.985 289.778 990.028 288.775C989.071 287.748 987.765 287.235 986.108 287.235C984.428 287.235 983.086 287.76 982.083 288.81C981.103 289.86 980.613 291.388 980.613 293.395V304H977.428V284.82H980.613V287.55C981.243 286.57 982.095 285.812 983.168 285.275C984.265 284.738 985.466 284.47 986.773 284.47ZM1007.96 294.34C1007.96 292.38 1008.35 290.665 1009.15 289.195C1009.94 287.702 1011.02 286.547 1012.4 285.73C1013.8 284.913 1015.35 284.505 1017.06 284.505C1018.74 284.505 1020.19 284.867 1021.43 285.59C1022.67 286.313 1023.59 287.223 1024.2 288.32V284.82H1027.42V304H1024.2V300.43C1023.57 301.55 1022.62 302.483 1021.36 303.23C1020.12 303.953 1018.68 304.315 1017.02 304.315C1015.32 304.315 1013.78 303.895 1012.4 303.055C1011.02 302.215 1009.94 301.037 1009.15 299.52C1008.35 298.003 1007.96 296.277 1007.96 294.34ZM1024.2 294.375C1024.2 292.928 1023.9 291.668 1023.32 290.595C1022.74 289.522 1021.94 288.705 1020.94 288.145C1019.96 287.562 1018.88 287.27 1017.69 287.27C1016.5 287.27 1015.41 287.55 1014.43 288.11C1013.45 288.67 1012.67 289.487 1012.09 290.56C1011.5 291.633 1011.21 292.893 1011.21 294.34C1011.21 295.81 1011.5 297.093 1012.09 298.19C1012.67 299.263 1013.45 300.092 1014.43 300.675C1015.41 301.235 1016.5 301.515 1017.69 301.515C1018.88 301.515 1019.96 301.235 1020.94 300.675C1021.94 300.092 1022.74 299.263 1023.32 298.19C1023.9 297.093 1024.2 295.822 1024.2 294.375ZM1067.68 284.82L1061.7 304H1058.41L1053.79 288.775L1049.17 304H1045.88L1039.86 284.82H1043.11L1047.52 300.92L1052.28 284.82H1055.54L1060.19 300.955L1064.53 284.82H1067.68ZM1069.65 294.34C1069.65 292.38 1070.05 290.665 1070.84 289.195C1071.63 287.702 1072.72 286.547 1074.1 285.73C1075.5 284.913 1077.05 284.505 1078.75 284.505C1080.43 284.505 1081.89 284.867 1083.13 285.59C1084.36 286.313 1085.28 287.223 1085.89 288.32V284.82H1089.11V304H1085.89V300.43C1085.26 301.55 1084.32 302.483 1083.06 303.23C1081.82 303.953 1080.37 304.315 1078.72 304.315C1077.01 304.315 1075.47 303.895 1074.1 303.055C1072.72 302.215 1071.63 301.037 1070.84 299.52C1070.05 298.003 1069.65 296.277 1069.65 294.34ZM1085.89 294.375C1085.89 292.928 1085.6 291.668 1085.02 290.595C1084.43 289.522 1083.64 288.705 1082.64 288.145C1081.66 287.562 1080.57 287.27 1079.38 287.27C1078.19 287.27 1077.11 287.55 1076.13 288.11C1075.15 288.67 1074.36 289.487 1073.78 290.56C1073.2 291.633 1072.91 292.893 1072.91 294.34C1072.91 295.81 1073.2 297.093 1073.78 298.19C1074.36 299.263 1075.15 300.092 1076.13 300.675C1077.11 301.235 1078.19 301.515 1079.38 301.515C1080.57 301.515 1081.66 301.235 1082.64 300.675C1083.64 300.092 1084.43 299.263 1085.02 298.19C1085.6 297.093 1085.89 295.822 1085.89 294.375ZM1111.01 284.82L1099.46 313.03H1096.17L1099.95 303.79L1092.22 284.82H1095.75L1101.77 300.36L1107.72 284.82H1111.01ZM1127.43 287.445V298.75C1127.43 299.683 1127.63 300.348 1128.03 300.745C1128.42 301.118 1129.11 301.305 1130.09 301.305H1132.44V304H1129.57C1127.79 304 1126.46 303.592 1125.58 302.775C1124.69 301.958 1124.25 300.617 1124.25 298.75V287.445H1121.76V284.82H1124.25V279.99H1127.43V284.82H1132.44V287.445H1127.43ZM1145.82 284.47C1147.26 284.47 1148.57 284.785 1149.74 285.415C1150.9 286.022 1151.81 286.943 1152.47 288.18C1153.14 289.417 1153.48 290.922 1153.48 292.695V304H1150.33V293.15C1150.33 291.237 1149.85 289.778 1148.9 288.775C1147.94 287.748 1146.63 287.235 1144.98 287.235C1143.3 287.235 1141.95 287.76 1140.95 288.81C1139.97 289.86 1139.48 291.388 1139.48 293.395V304H1136.3V278.1H1139.48V287.55C1140.11 286.57 1140.97 285.812 1142.07 285.275C1143.19 284.738 1144.44 284.47 1145.82 284.47ZM1157.49 294.34C1157.49 292.38 1157.89 290.665 1158.68 289.195C1159.48 287.702 1160.56 286.547 1161.94 285.73C1163.34 284.913 1164.89 284.505 1166.59 284.505C1168.27 284.505 1169.73 284.867 1170.97 285.59C1172.2 286.313 1173.13 287.223 1173.73 288.32V284.82H1176.95V304H1173.73V300.43C1173.1 301.55 1172.16 302.483 1170.9 303.23C1169.66 303.953 1168.21 304.315 1166.56 304.315C1164.85 304.315 1163.31 303.895 1161.94 303.055C1160.56 302.215 1159.48 301.037 1158.68 299.52C1157.89 298.003 1157.49 296.277 1157.49 294.34ZM1173.73 294.375C1173.73 292.928 1173.44 291.668 1172.86 290.595C1172.27 289.522 1171.48 288.705 1170.48 288.145C1169.5 287.562 1168.41 287.27 1167.22 287.27C1166.03 287.27 1164.95 287.55 1163.97 288.11C1162.99 288.67 1162.21 289.487 1161.62 290.56C1161.04 291.633 1160.75 292.893 1160.75 294.34C1160.75 295.81 1161.04 297.093 1161.62 298.19C1162.21 299.263 1162.99 300.092 1163.97 300.675C1164.95 301.235 1166.03 301.515 1167.22 301.515C1168.41 301.515 1169.5 301.235 1170.48 300.675C1171.48 300.092 1172.27 299.263 1172.86 298.19C1173.44 297.093 1173.73 295.822 1173.73 294.375ZM1186.22 287.445V298.75C1186.22 299.683 1186.42 300.348 1186.82 300.745C1187.21 301.118 1187.9 301.305 1188.88 301.305H1191.23V304H1188.36C1186.58 304 1185.25 303.592 1184.37 302.775C1183.48 301.958 1183.04 300.617 1183.04 298.75V287.445H1180.55V284.82H1183.04V279.99H1186.22V284.82H1191.23V287.445H1186.22ZM551.007 334.705C550.4 334.705 549.887 334.495 549.467 334.075C549.047 333.655 548.837 333.142 548.837 332.535C548.837 331.928 549.047 331.415 549.467 330.995C549.887 330.575 550.4 330.365 551.007 330.365C551.59 330.365 552.08 330.575 552.477 330.995C552.897 331.415 553.107 331.928 553.107 332.535C553.107 333.142 552.897 333.655 552.477 334.075C552.08 334.495 551.59 334.705 551.007 334.705ZM552.547 337.82V357H549.362V337.82H552.547ZM567.32 337.47C569.653 337.47 571.543 338.182 572.99 339.605C574.436 341.005 575.16 343.035 575.16 345.695V357H572.01V346.15C572.01 344.237 571.531 342.778 570.575 341.775C569.618 340.748 568.311 340.235 566.655 340.235C564.975 340.235 563.633 340.76 562.63 341.81C561.65 342.86 561.16 344.388 561.16 346.395V357H557.975V337.82H561.16V340.55C561.79 339.57 562.641 338.812 563.715 338.275C564.811 337.738 566.013 337.47 567.32 337.47ZM593.579 340.445V351.75C593.579 352.683 593.777 353.348 594.174 353.745C594.57 354.118 595.259 354.305 596.239 354.305H598.584V357H595.714C593.94 357 592.61 356.592 591.724 355.775C590.837 354.958 590.394 353.617 590.394 351.75V340.445H587.909V337.82H590.394V332.99H593.579V337.82H598.584V340.445H593.579ZM611.963 337.47C613.409 337.47 614.716 337.785 615.883 338.415C617.049 339.022 617.959 339.943 618.613 341.18C619.289 342.417 619.628 343.922 619.628 345.695V357H616.478V346.15C616.478 344.237 615.999 342.778 615.043 341.775C614.086 340.748 612.779 340.235 611.123 340.235C609.443 340.235 608.101 340.76 607.098 341.81C606.118 342.86 605.628 344.388 605.628 346.395V357H602.443V331.1H605.628V340.55C606.258 339.57 607.121 338.812 608.218 338.275C609.338 337.738 610.586 337.47 611.963 337.47ZM642.33 346.675C642.33 347.282 642.295 347.923 642.225 348.6H626.895C627.012 350.49 627.654 351.972 628.82 353.045C630.01 354.095 631.445 354.62 633.125 354.62C634.502 354.62 635.645 354.305 636.555 353.675C637.489 353.022 638.142 352.158 638.515 351.085H641.945C641.432 352.928 640.405 354.433 638.865 355.6C637.325 356.743 635.412 357.315 633.125 357.315C631.305 357.315 629.672 356.907 628.225 356.09C626.802 355.273 625.682 354.118 624.865 352.625C624.049 351.108 623.64 349.358 623.64 347.375C623.64 345.392 624.037 343.653 624.83 342.16C625.624 340.667 626.732 339.523 628.155 338.73C629.602 337.913 631.259 337.505 633.125 337.505C634.945 337.505 636.555 337.902 637.955 338.695C639.355 339.488 640.429 340.585 641.175 341.985C641.945 343.362 642.33 344.925 642.33 346.675ZM639.04 346.01C639.04 344.797 638.772 343.758 638.235 342.895C637.699 342.008 636.964 341.343 636.03 340.9C635.12 340.433 634.105 340.2 632.985 340.2C631.375 340.2 629.999 340.713 628.855 341.74C627.735 342.767 627.094 344.19 626.93 346.01H639.04ZM648.179 334.705C647.573 334.705 647.059 334.495 646.639 334.075C646.219 333.655 646.009 333.142 646.009 332.535C646.009 331.928 646.219 331.415 646.639 330.995C647.059 330.575 647.573 330.365 648.179 330.365C648.763 330.365 649.253 330.575 649.649 330.995C650.069 331.415 650.279 331.928 650.279 332.535C650.279 333.142 650.069 333.655 649.649 334.075C649.253 334.495 648.763 334.705 648.179 334.705ZM649.719 337.82V357H646.534V337.82H649.719ZM658.333 340.935C658.893 339.838 659.686 338.987 660.713 338.38C661.763 337.773 663.034 337.47 664.528 337.47V340.76H663.688C660.118 340.76 658.333 342.697 658.333 346.57V357H655.148V337.82H658.333V340.935ZM680.72 341.355C681.35 340.258 682.284 339.348 683.52 338.625C684.78 337.878 686.239 337.505 687.895 337.505C689.599 337.505 691.139 337.913 692.515 338.73C693.915 339.547 695.012 340.702 695.805 342.195C696.599 343.665 696.995 345.38 696.995 347.34C696.995 349.277 696.599 351.003 695.805 352.52C695.012 354.037 693.915 355.215 692.515 356.055C691.139 356.895 689.599 357.315 687.895 357.315C686.262 357.315 684.815 356.953 683.555 356.23C682.319 355.483 681.374 354.562 680.72 353.465V366.1H677.535V337.82H680.72V341.355ZM693.74 347.34C693.74 345.893 693.449 344.633 692.865 343.56C692.282 342.487 691.489 341.67 690.485 341.11C689.505 340.55 688.42 340.27 687.23 340.27C686.064 340.27 684.979 340.562 683.975 341.145C682.995 341.705 682.202 342.533 681.595 343.63C681.012 344.703 680.72 345.952 680.72 347.375C680.72 348.822 681.012 350.093 681.595 351.19C682.202 352.263 682.995 353.092 683.975 353.675C684.979 354.235 686.064 354.515 687.23 354.515C688.42 354.515 689.505 354.235 690.485 353.675C691.489 353.092 692.282 352.263 692.865 351.19C693.449 350.093 693.74 348.81 693.74 347.34ZM704.373 340.935C704.933 339.838 705.726 338.987 706.753 338.38C707.803 337.773 709.074 337.47 710.568 337.47V340.76H709.728C706.158 340.76 704.373 342.697 704.373 346.57V357H701.188V337.82H704.373V340.935ZM731.744 346.675C731.744 347.282 731.709 347.923 731.639 348.6H716.309C716.426 350.49 717.068 351.972 718.234 353.045C719.424 354.095 720.859 354.62 722.539 354.62C723.916 354.62 725.059 354.305 725.969 353.675C726.903 353.022 727.556 352.158 727.929 351.085H731.359C730.846 352.928 729.819 354.433 728.279 355.6C726.739 356.743 724.826 357.315 722.539 357.315C720.719 357.315 719.086 356.907 717.639 356.09C716.216 355.273 715.096 354.118 714.279 352.625C713.463 351.108 713.054 349.358 713.054 347.375C713.054 345.392 713.451 343.653 714.244 342.16C715.038 340.667 716.146 339.523 717.569 338.73C719.016 337.913 720.673 337.505 722.539 337.505C724.359 337.505 725.969 337.902 727.369 338.695C728.769 339.488 729.843 340.585 730.589 341.985C731.359 343.362 731.744 344.925 731.744 346.675ZM728.454 346.01C728.454 344.797 728.186 343.758 727.649 342.895C727.113 342.008 726.378 341.343 725.444 340.9C724.534 340.433 723.519 340.2 722.399 340.2C720.789 340.2 719.413 340.713 718.269 341.74C717.149 342.767 716.508 344.19 716.344 346.01H728.454ZM739.133 341.355C739.763 340.258 740.697 339.348 741.933 338.625C743.193 337.878 744.652 337.505 746.308 337.505C748.012 337.505 749.552 337.913 750.928 338.73C752.328 339.547 753.425 340.702 754.218 342.195C755.012 343.665 755.408 345.38 755.408 347.34C755.408 349.277 755.012 351.003 754.218 352.52C753.425 354.037 752.328 355.215 750.928 356.055C749.552 356.895 748.012 357.315 746.308 357.315C744.675 357.315 743.228 356.953 741.968 356.23C740.732 355.483 739.787 354.562 739.133 353.465V366.1H735.948V337.82H739.133V341.355ZM752.153 347.34C752.153 345.893 751.862 344.633 751.278 343.56C750.695 342.487 749.902 341.67 748.898 341.11C747.918 340.55 746.833 340.27 745.643 340.27C744.477 340.27 743.392 340.562 742.388 341.145C741.408 341.705 740.615 342.533 740.008 343.63C739.425 344.703 739.133 345.952 739.133 347.375C739.133 348.822 739.425 350.093 740.008 351.19C740.615 352.263 741.408 353.092 742.388 353.675C743.392 354.235 744.477 354.515 745.643 354.515C746.833 354.515 747.918 354.235 748.898 353.675C749.902 353.092 750.695 352.263 751.278 351.19C751.862 350.093 752.153 348.81 752.153 347.34ZM758.411 347.34C758.411 345.38 758.807 343.665 759.601 342.195C760.394 340.702 761.479 339.547 762.856 338.73C764.256 337.913 765.807 337.505 767.511 337.505C769.191 337.505 770.649 337.867 771.886 338.59C773.122 339.313 774.044 340.223 774.651 341.32V337.82H777.871V357H774.651V353.43C774.021 354.55 773.076 355.483 771.816 356.23C770.579 356.953 769.132 357.315 767.476 357.315C765.772 357.315 764.232 356.895 762.856 356.055C761.479 355.215 760.394 354.037 759.601 352.52C758.807 351.003 758.411 349.277 758.411 347.34ZM774.651 347.375C774.651 345.928 774.359 344.668 773.776 343.595C773.192 342.522 772.399 341.705 771.396 341.145C770.416 340.562 769.331 340.27 768.141 340.27C766.951 340.27 765.866 340.55 764.886 341.11C763.906 341.67 763.124 342.487 762.541 343.56C761.957 344.633 761.666 345.893 761.666 347.34C761.666 348.81 761.957 350.093 762.541 351.19C763.124 352.263 763.906 353.092 764.886 353.675C765.866 354.235 766.951 354.515 768.141 354.515C769.331 354.515 770.416 354.235 771.396 353.675C772.399 353.092 773.192 352.263 773.776 351.19C774.359 350.093 774.651 348.822 774.651 347.375ZM786.438 340.935C786.998 339.838 787.791 338.987 788.818 338.38C789.868 337.773 791.14 337.47 792.633 337.47V340.76H791.793C788.223 340.76 786.438 342.697 786.438 346.57V357H783.253V337.82H786.438V340.935ZM795.12 347.34C795.12 345.38 795.516 343.665 796.31 342.195C797.103 340.702 798.188 339.547 799.565 338.73C800.965 337.913 802.516 337.505 804.22 337.505C805.9 337.505 807.358 337.867 808.595 338.59C809.831 339.313 810.753 340.223 811.36 341.32V337.82H814.58V357H811.36V353.43C810.73 354.55 809.785 355.483 808.525 356.23C807.288 356.953 805.841 357.315 804.185 357.315C802.481 357.315 800.941 356.895 799.565 356.055C798.188 355.215 797.103 354.037 796.31 352.52C795.516 351.003 795.12 349.277 795.12 347.34ZM811.36 347.375C811.36 345.928 811.068 344.668 810.485 343.595C809.901 342.522 809.108 341.705 808.105 341.145C807.125 340.562 806.04 340.27 804.85 340.27C803.66 340.27 802.575 340.55 801.595 341.11C800.615 341.67 799.833 342.487 799.25 343.56C798.666 344.633 798.375 345.893 798.375 347.34C798.375 348.81 798.666 350.093 799.25 351.19C799.833 352.263 800.615 353.092 801.595 353.675C802.575 354.235 803.66 354.515 804.85 354.515C806.04 354.515 807.125 354.235 808.105 353.675C809.108 353.092 809.901 352.263 810.485 351.19C811.068 350.093 811.36 348.822 811.36 347.375ZM823.847 340.445V351.75C823.847 352.683 824.045 353.348 824.442 353.745C824.839 354.118 825.527 354.305 826.507 354.305H828.852V357H825.982C824.209 357 822.879 356.592 821.992 355.775C821.105 354.958 820.662 353.617 820.662 351.75V340.445H818.177V337.82H820.662V332.99H823.847V337.82H828.852V340.445H823.847ZM834.356 334.705C833.749 334.705 833.236 334.495 832.816 334.075C832.396 333.655 832.186 333.142 832.186 332.535C832.186 331.928 832.396 331.415 832.816 330.995C833.236 330.575 833.749 330.365 834.356 330.365C834.939 330.365 835.429 330.575 835.826 330.995C836.246 331.415 836.456 331.928 836.456 332.535C836.456 333.142 836.246 333.655 835.826 334.075C835.429 334.495 834.939 334.705 834.356 334.705ZM835.896 337.82V357H832.711V337.82H835.896ZM849.689 357.315C847.893 357.315 846.259 356.907 844.789 356.09C843.343 355.273 842.199 354.118 841.359 352.625C840.543 351.108 840.134 349.358 840.134 347.375C840.134 345.415 840.554 343.688 841.394 342.195C842.258 340.678 843.424 339.523 844.894 338.73C846.364 337.913 848.009 337.505 849.829 337.505C851.649 337.505 853.294 337.913 854.764 338.73C856.234 339.523 857.389 340.667 858.229 342.16C859.093 343.653 859.524 345.392 859.524 347.375C859.524 349.358 859.081 351.108 858.194 352.625C857.331 354.118 856.153 355.273 854.659 356.09C853.166 356.907 851.509 357.315 849.689 357.315ZM849.689 354.515C850.833 354.515 851.906 354.247 852.909 353.71C853.913 353.173 854.718 352.368 855.324 351.295C855.954 350.222 856.269 348.915 856.269 347.375C856.269 345.835 855.966 344.528 855.359 343.455C854.753 342.382 853.959 341.588 852.979 341.075C851.999 340.538 850.938 340.27 849.794 340.27C848.628 340.27 847.554 340.538 846.574 341.075C845.618 341.588 844.848 342.382 844.264 343.455C843.681 344.528 843.389 345.835 843.389 347.375C843.389 348.938 843.669 350.257 844.229 351.33C844.813 352.403 845.583 353.208 846.539 353.745C847.496 354.258 848.546 354.515 849.689 354.515ZM873.057 337.47C875.39 337.47 877.28 338.182 878.727 339.605C880.174 341.005 880.897 343.035 880.897 345.695V357H877.747V346.15C877.747 344.237 877.269 342.778 876.312 341.775C875.355 340.748 874.049 340.235 872.392 340.235C870.712 340.235 869.37 340.76 868.367 341.81C867.387 342.86 866.897 344.388 866.897 346.395V357H863.712V337.82H866.897V340.55C867.527 339.57 868.379 338.812 869.452 338.275C870.549 337.738 871.75 337.47 873.057 337.47ZM903.236 340.445H899.211V357H896.026V340.445H893.541V337.82H896.026V336.455C896.026 334.308 896.574 332.745 897.671 331.765C898.791 330.762 900.576 330.26 903.026 330.26V332.92C901.626 332.92 900.634 333.2 900.051 333.76C899.491 334.297 899.211 335.195 899.211 336.455V337.82H903.236V340.445ZM915.314 357.315C913.518 357.315 911.884 356.907 910.414 356.09C908.968 355.273 907.824 354.118 906.984 352.625C906.168 351.108 905.759 349.358 905.759 347.375C905.759 345.415 906.179 343.688 907.019 342.195C907.883 340.678 909.049 339.523 910.519 338.73C911.989 337.913 913.634 337.505 915.454 337.505C917.274 337.505 918.919 337.913 920.389 338.73C921.859 339.523 923.014 340.667 923.854 342.16C924.718 343.653 925.149 345.392 925.149 347.375C925.149 349.358 924.706 351.108 923.819 352.625C922.956 354.118 921.778 355.273 920.284 356.09C918.791 356.907 917.134 357.315 915.314 357.315ZM915.314 354.515C916.458 354.515 917.531 354.247 918.534 353.71C919.538 353.173 920.343 352.368 920.949 351.295C921.579 350.222 921.894 348.915 921.894 347.375C921.894 345.835 921.591 344.528 920.984 343.455C920.378 342.382 919.584 341.588 918.604 341.075C917.624 340.538 916.563 340.27 915.419 340.27C914.253 340.27 913.179 340.538 912.199 341.075C911.243 341.588 910.473 342.382 909.889 343.455C909.306 344.528 909.014 345.835 909.014 347.375C909.014 348.938 909.294 350.257 909.854 351.33C910.438 352.403 911.208 353.208 912.164 353.745C913.121 354.258 914.171 354.515 915.314 354.515ZM932.522 340.935C933.082 339.838 933.875 338.987 934.902 338.38C935.952 337.773 937.224 337.47 938.717 337.47V340.76H937.877C934.307 340.76 932.522 342.697 932.522 346.57V357H929.337V337.82H932.522V340.935ZM966.74 332.605V335.195H960.09V357H956.905V335.195H950.22V332.605H966.74ZM988.16 346.675C988.16 347.282 988.125 347.923 988.055 348.6H972.725C972.842 350.49 973.484 351.972 974.65 353.045C975.84 354.095 977.275 354.62 978.955 354.62C980.332 354.62 981.475 354.305 982.385 353.675C983.319 353.022 983.972 352.158 984.345 351.085H987.775C987.262 352.928 986.235 354.433 984.695 355.6C983.155 356.743 981.242 357.315 978.955 357.315C977.135 357.315 975.502 356.907 974.055 356.09C972.632 355.273 971.512 354.118 970.695 352.625C969.879 351.108 969.47 349.358 969.47 347.375C969.47 345.392 969.867 343.653 970.66 342.16C971.454 340.667 972.562 339.523 973.985 338.73C975.432 337.913 977.089 337.505 978.955 337.505C980.775 337.505 982.385 337.902 983.785 338.695C985.185 339.488 986.259 340.585 987.005 341.985C987.775 343.362 988.16 344.925 988.16 346.675ZM984.87 346.01C984.87 344.797 984.602 343.758 984.065 342.895C983.529 342.008 982.794 341.343 981.86 340.9C980.95 340.433 979.935 340.2 978.815 340.2C977.205 340.2 975.829 340.713 974.685 341.74C973.565 342.767 972.924 344.19 972.76 346.01H984.87ZM995.549 331.1V357H992.364V331.1H995.549ZM1018.48 346.675C1018.48 347.282 1018.44 347.923 1018.37 348.6H1003.04C1003.16 350.49 1003.8 351.972 1004.97 353.045C1006.16 354.095 1007.59 354.62 1009.27 354.62C1010.65 354.62 1011.79 354.305 1012.7 353.675C1013.64 353.022 1014.29 352.158 1014.66 351.085H1018.09C1017.58 352.928 1016.55 354.433 1015.01 355.6C1013.47 356.743 1011.56 357.315 1009.27 357.315C1007.45 357.315 1005.82 356.907 1004.37 356.09C1002.95 355.273 1001.83 354.118 1001.01 352.625C1000.2 351.108 999.788 349.358 999.788 347.375C999.788 345.392 1000.18 343.653 1000.98 342.16C1001.77 340.667 1002.88 339.523 1004.3 338.73C1005.75 337.913 1007.41 337.505 1009.27 337.505C1011.09 337.505 1012.7 337.902 1014.1 338.695C1015.5 339.488 1016.58 340.585 1017.32 341.985C1018.09 343.362 1018.48 344.925 1018.48 346.675ZM1015.19 346.01C1015.19 344.797 1014.92 343.758 1014.38 342.895C1013.85 342.008 1013.11 341.343 1012.18 340.9C1011.27 340.433 1010.25 340.2 1009.13 340.2C1007.52 340.2 1006.15 340.713 1005 341.74C1003.88 342.767 1003.24 344.19 1003.08 346.01H1015.19ZM1032.2 337.47C1033.65 337.47 1034.96 337.785 1036.12 338.415C1037.29 339.022 1038.2 339.943 1038.85 341.18C1039.53 342.417 1039.87 343.922 1039.87 345.695V357H1036.72V346.15C1036.72 344.237 1036.24 342.778 1035.28 341.775C1034.33 340.748 1033.02 340.235 1031.36 340.235C1029.68 340.235 1028.34 340.76 1027.34 341.81C1026.36 342.86 1025.87 344.388 1025.87 346.395V357H1022.68V331.1H1025.87V340.55C1026.5 339.57 1027.36 338.812 1028.46 338.275C1029.58 337.738 1030.83 337.47 1032.2 337.47ZM1062.57 346.675C1062.57 347.282 1062.53 347.923 1062.46 348.6H1047.13C1047.25 350.49 1047.89 351.972 1049.06 353.045C1050.25 354.095 1051.68 354.62 1053.36 354.62C1054.74 354.62 1055.88 354.305 1056.79 353.675C1057.73 353.022 1058.38 352.158 1058.75 351.085H1062.18C1061.67 352.928 1060.64 354.433 1059.1 355.6C1057.56 356.743 1055.65 357.315 1053.36 357.315C1051.54 357.315 1049.91 356.907 1048.46 356.09C1047.04 355.273 1045.92 354.118 1045.1 352.625C1044.29 351.108 1043.88 349.358 1043.88 347.375C1043.88 345.392 1044.28 343.653 1045.07 342.16C1045.86 340.667 1046.97 339.523 1048.39 338.73C1049.84 337.913 1051.5 337.505 1053.36 337.505C1055.18 337.505 1056.79 337.902 1058.19 338.695C1059.59 339.488 1060.67 340.585 1061.41 341.985C1062.18 343.362 1062.57 344.925 1062.57 346.675ZM1059.28 346.01C1059.28 344.797 1059.01 343.758 1058.47 342.895C1057.94 342.008 1057.2 341.343 1056.27 340.9C1055.36 340.433 1054.34 340.2 1053.22 340.2C1051.61 340.2 1050.24 340.713 1049.09 341.74C1047.97 342.767 1047.33 344.19 1047.17 346.01H1059.28ZM1065.58 347.34C1065.58 345.38 1065.98 343.665 1066.77 342.195C1067.57 340.702 1068.65 339.547 1070.03 338.73C1071.43 337.913 1072.98 337.505 1074.68 337.505C1076.36 337.505 1077.82 337.867 1079.06 338.59C1080.3 339.313 1081.22 340.223 1081.82 341.32V337.82H1085.04V357H1081.82V353.43C1081.19 354.55 1080.25 355.483 1078.99 356.23C1077.75 356.953 1076.31 357.315 1074.65 357.315C1072.95 357.315 1071.41 356.895 1070.03 356.055C1068.65 355.215 1067.57 354.037 1066.77 352.52C1065.98 351.003 1065.58 349.277 1065.58 347.34ZM1081.82 347.375C1081.82 345.928 1081.53 344.668 1080.95 343.595C1080.37 342.522 1079.57 341.705 1078.57 341.145C1077.59 340.562 1076.5 340.27 1075.31 340.27C1074.12 340.27 1073.04 340.55 1072.06 341.11C1071.08 341.67 1070.3 342.487 1069.71 343.56C1069.13 344.633 1068.84 345.893 1068.84 347.34C1068.84 348.81 1069.13 350.093 1069.71 351.19C1070.3 352.263 1071.08 353.092 1072.06 353.675C1073.04 354.235 1074.12 354.515 1075.31 354.515C1076.5 354.515 1077.59 354.235 1078.57 353.675C1079.57 353.092 1080.37 352.263 1080.95 351.19C1081.53 350.093 1081.82 348.822 1081.82 347.375ZM1093.61 331.1V357H1090.43V331.1H1093.61ZM1102.92 340.445V351.75C1102.92 352.683 1103.12 353.348 1103.52 353.745C1103.92 354.118 1104.6 354.305 1105.58 354.305H1107.93V357H1105.06C1103.29 357 1101.96 356.592 1101.07 355.775C1100.18 354.958 1099.74 353.617 1099.74 351.75V340.445H1097.25V337.82H1099.74V332.99H1102.92V337.82H1107.93V340.445H1102.92ZM1121.31 337.47C1122.75 337.47 1124.06 337.785 1125.23 338.415C1126.39 339.022 1127.3 339.943 1127.96 341.18C1128.63 342.417 1128.97 343.922 1128.97 345.695V357H1125.82V346.15C1125.82 344.237 1125.34 342.778 1124.39 341.775C1123.43 340.748 1122.12 340.235 1120.47 340.235C1118.79 340.235 1117.45 340.76 1116.44 341.81C1115.46 342.86 1114.97 344.388 1114.97 346.395V357H1111.79V331.1H1114.97V340.55C1115.6 339.57 1116.47 338.812 1117.56 338.275C1118.68 337.738 1119.93 337.47 1121.31 337.47ZM1150.65 354.06L1156.6 337.82H1159.99L1152.47 357H1148.76L1141.23 337.82H1144.66L1150.65 354.06ZM1164.77 334.705C1164.16 334.705 1163.65 334.495 1163.23 334.075C1162.81 333.655 1162.6 333.142 1162.6 332.535C1162.6 331.928 1162.81 331.415 1163.23 330.995C1163.65 330.575 1164.16 330.365 1164.77 330.365C1165.35 330.365 1165.84 330.575 1166.24 330.995C1166.66 331.415 1166.87 331.928 1166.87 332.535C1166.87 333.142 1166.66 333.655 1166.24 334.075C1165.84 334.495 1165.35 334.705 1164.77 334.705ZM1166.31 337.82V357H1163.13V337.82H1166.31ZM1178.53 357.315C1177.06 357.315 1175.74 357.07 1174.57 356.58C1173.41 356.067 1172.49 355.367 1171.81 354.48C1171.13 353.57 1170.76 352.532 1170.69 351.365H1173.98C1174.07 352.322 1174.52 353.103 1175.31 353.71C1176.13 354.317 1177.19 354.62 1178.49 354.62C1179.71 354.62 1180.66 354.352 1181.36 353.815C1182.06 353.278 1182.41 352.602 1182.41 351.785C1182.41 350.945 1182.04 350.327 1181.29 349.93C1180.55 349.51 1179.39 349.102 1177.83 348.705C1176.41 348.332 1175.24 347.958 1174.33 347.585C1173.44 347.188 1172.67 346.617 1172.02 345.87C1171.39 345.1 1171.07 344.097 1171.07 342.86C1171.07 341.88 1171.37 340.982 1171.95 340.165C1172.53 339.348 1173.36 338.707 1174.43 338.24C1175.51 337.75 1176.73 337.505 1178.11 337.505C1180.23 337.505 1181.95 338.042 1183.25 339.115C1184.56 340.188 1185.26 341.658 1185.35 343.525H1182.17C1182.1 342.522 1181.69 341.717 1180.94 341.11C1180.22 340.503 1179.24 340.2 1178 340.2C1176.86 340.2 1175.95 340.445 1175.27 340.935C1174.6 341.425 1174.26 342.067 1174.26 342.86C1174.26 343.49 1174.46 344.015 1174.85 344.435C1175.27 344.832 1175.79 345.158 1176.39 345.415C1177.02 345.648 1177.89 345.917 1178.98 346.22C1180.36 346.593 1181.48 346.967 1182.34 347.34C1183.21 347.69 1183.94 348.227 1184.55 348.95C1185.18 349.673 1185.51 350.618 1185.53 351.785C1185.53 352.835 1185.24 353.78 1184.65 354.62C1184.07 355.46 1183.24 356.125 1182.17 356.615C1181.12 357.082 1179.91 357.315 1178.53 357.315ZM1191.67 334.705C1191.06 334.705 1190.55 334.495 1190.13 334.075C1189.71 333.655 1189.5 333.142 1189.5 332.535C1189.5 331.928 1189.71 331.415 1190.13 330.995C1190.55 330.575 1191.06 330.365 1191.67 330.365C1192.25 330.365 1192.74 330.575 1193.14 330.995C1193.56 331.415 1193.77 331.928 1193.77 332.535C1193.77 333.142 1193.56 333.655 1193.14 334.075C1192.74 334.495 1192.25 334.705 1191.67 334.705ZM1193.21 337.82V357H1190.03V337.82H1193.21ZM1202.52 340.445V351.75C1202.52 352.683 1202.72 353.348 1203.12 353.745C1203.52 354.118 1204.2 354.305 1205.18 354.305H1207.53V357H1204.66C1202.89 357 1201.56 356.592 1200.67 355.775C1199.78 354.958 1199.34 353.617 1199.34 351.75V340.445H1196.85V337.82H1199.34V332.99H1202.52V337.82H1207.53V340.445H1202.52ZM1218.18 357.315C1216.71 357.315 1215.39 357.07 1214.22 356.58C1213.06 356.067 1212.13 355.367 1211.46 354.48C1210.78 353.57 1210.41 352.532 1210.34 351.365H1213.63C1213.72 352.322 1214.16 353.103 1214.96 353.71C1215.77 354.317 1216.84 354.62 1218.14 354.62C1219.36 354.62 1220.31 354.352 1221.01 353.815C1221.71 353.278 1222.06 352.602 1222.06 351.785C1222.06 350.945 1221.69 350.327 1220.94 349.93C1220.2 349.51 1219.04 349.102 1217.48 348.705C1216.05 348.332 1214.89 347.958 1213.98 347.585C1213.09 347.188 1212.32 346.617 1211.67 345.87C1211.04 345.1 1210.72 344.097 1210.72 342.86C1210.72 341.88 1211.01 340.982 1211.6 340.165C1212.18 339.348 1213.01 338.707 1214.08 338.24C1215.16 337.75 1216.38 337.505 1217.76 337.505C1219.88 337.505 1221.6 338.042 1222.9 339.115C1224.21 340.188 1224.91 341.658 1225 343.525H1221.82C1221.75 342.522 1221.34 341.717 1220.59 341.11C1219.87 340.503 1218.89 340.2 1217.65 340.2C1216.51 340.2 1215.6 340.445 1214.92 340.935C1214.25 341.425 1213.91 342.067 1213.91 342.86C1213.91 343.49 1214.11 344.015 1214.5 344.435C1214.92 344.832 1215.44 345.158 1216.04 345.415C1216.67 345.648 1217.54 345.917 1218.63 346.22C1220.01 346.593 1221.13 346.967 1221.99 347.34C1222.86 347.69 1223.59 348.227 1224.2 348.95C1224.83 349.673 1225.15 350.618 1225.18 351.785C1225.18 352.835 1224.89 353.78 1224.3 354.62C1223.72 355.46 1222.89 356.125 1221.82 356.615C1220.77 357.082 1219.55 357.315 1218.18 357.315ZM1235.9 332.29C1238.21 332.29 1240.08 332.943 1241.5 334.25C1242.93 335.557 1243.64 337.307 1243.64 339.5C1243.64 341.95 1242.88 343.77 1241.36 344.96C1239.85 346.127 1237.79 346.71 1235.2 346.71L1235.1 350.035H1232.33L1232.19 344.505H1233.21C1235.52 344.505 1237.33 344.155 1238.63 343.455C1239.94 342.755 1240.59 341.437 1240.59 339.5C1240.59 338.1 1240.17 336.992 1239.33 336.175C1238.49 335.358 1237.36 334.95 1235.94 334.95C1234.49 334.95 1233.35 335.347 1232.51 336.14C1231.69 336.91 1231.28 337.972 1231.28 339.325H1228.27C1228.27 337.925 1228.59 336.7 1229.22 335.65C1229.85 334.577 1230.74 333.748 1231.88 333.165C1233.05 332.582 1234.39 332.29 1235.9 332.29ZM1233.7 357.21C1233.09 357.21 1232.58 357 1232.16 356.58C1231.74 356.16 1231.53 355.647 1231.53 355.04C1231.53 354.433 1231.74 353.92 1232.16 353.5C1232.58 353.08 1233.09 352.87 1233.7 352.87C1234.28 352.87 1234.77 353.08 1235.17 353.5C1235.59 353.92 1235.8 354.433 1235.8 355.04C1235.8 355.647 1235.59 356.16 1235.17 356.58C1234.77 357 1234.28 357.21 1233.7 357.21Z" fill="#505050"/>
<path d="M841.259 251.28C839.556 251.28 838.039 250.988 836.709 250.405C835.379 249.822 834.329 249.028 833.559 248.025C832.789 246.998 832.357 245.855 832.264 244.595H838.179C838.249 245.272 838.564 245.82 839.124 246.24C839.684 246.66 840.372 246.87 841.189 246.87C841.936 246.87 842.507 246.73 842.904 246.45C843.324 246.147 843.534 245.762 843.534 245.295C843.534 244.735 843.242 244.327 842.659 244.07C842.076 243.79 841.131 243.487 839.824 243.16C838.424 242.833 837.257 242.495 836.324 242.145C835.391 241.772 834.586 241.2 833.909 240.43C833.232 239.637 832.894 238.575 832.894 237.245C832.894 236.125 833.197 235.11 833.804 234.2C834.434 233.267 835.344 232.532 836.534 231.995C837.747 231.458 839.182 231.19 840.839 231.19C843.289 231.19 845.214 231.797 846.614 233.01C848.037 234.223 848.854 235.833 849.064 237.84H843.534C843.441 237.163 843.137 236.627 842.624 236.23C842.134 235.833 841.481 235.635 840.664 235.635C839.964 235.635 839.427 235.775 839.054 236.055C838.681 236.312 838.494 236.673 838.494 237.14C838.494 237.7 838.786 238.12 839.369 238.4C839.976 238.68 840.909 238.96 842.169 239.24C843.616 239.613 844.794 239.987 845.704 240.36C846.614 240.71 847.407 241.293 848.084 242.11C848.784 242.903 849.146 243.977 849.169 245.33C849.169 246.473 848.842 247.5 848.189 248.41C847.559 249.297 846.637 249.997 845.424 250.51C844.234 251.023 842.846 251.28 841.259 251.28ZM871.241 240.92C871.241 241.48 871.206 242.063 871.136 242.67H857.591C857.684 243.883 858.069 244.817 858.746 245.47C859.446 246.1 860.297 246.415 861.301 246.415C862.794 246.415 863.832 245.785 864.416 244.525H870.786C870.459 245.808 869.864 246.963 869.001 247.99C868.161 249.017 867.099 249.822 865.816 250.405C864.532 250.988 863.097 251.28 861.511 251.28C859.597 251.28 857.894 250.872 856.401 250.055C854.907 249.238 853.741 248.072 852.901 246.555C852.061 245.038 851.641 243.265 851.641 241.235C851.641 239.205 852.049 237.432 852.866 235.915C853.706 234.398 854.872 233.232 856.366 232.415C857.859 231.598 859.574 231.19 861.511 231.19C863.401 231.19 865.081 231.587 866.551 232.38C868.021 233.173 869.164 234.305 869.981 235.775C870.821 237.245 871.241 238.96 871.241 240.92ZM865.116 239.345C865.116 238.318 864.766 237.502 864.066 236.895C863.366 236.288 862.491 235.985 861.441 235.985C860.437 235.985 859.586 236.277 858.886 236.86C858.209 237.443 857.789 238.272 857.626 239.345H865.116ZM873.208 241.2C873.208 239.193 873.581 237.432 874.328 235.915C875.098 234.398 876.136 233.232 877.443 232.415C878.75 231.598 880.208 231.19 881.818 231.19C883.195 231.19 884.396 231.47 885.423 232.03C886.473 232.59 887.278 233.325 887.838 234.235V231.47H893.823V251H887.838V248.235C887.255 249.145 886.438 249.88 885.388 250.44C884.361 251 883.16 251.28 881.783 251.28C880.196 251.28 878.75 250.872 877.443 250.055C876.136 249.215 875.098 248.037 874.328 246.52C873.581 244.98 873.208 243.207 873.208 241.2ZM887.838 241.235C887.838 239.742 887.418 238.563 886.578 237.7C885.761 236.837 884.758 236.405 883.568 236.405C882.378 236.405 881.363 236.837 880.523 237.7C879.706 238.54 879.298 239.707 879.298 241.2C879.298 242.693 879.706 243.883 880.523 244.77C881.363 245.633 882.378 246.065 883.568 246.065C884.758 246.065 885.761 245.633 886.578 244.77C887.418 243.907 887.838 242.728 887.838 241.235ZM923.073 231.26C925.5 231.26 927.425 231.995 928.848 233.465C930.295 234.935 931.018 236.977 931.018 239.59V251H925.068V240.395C925.068 239.135 924.73 238.167 924.053 237.49C923.4 236.79 922.49 236.44 921.323 236.44C920.156 236.44 919.235 236.79 918.558 237.49C917.905 238.167 917.578 239.135 917.578 240.395V251H911.628V240.395C911.628 239.135 911.29 238.167 910.613 237.49C909.96 236.79 909.05 236.44 907.883 236.44C906.716 236.44 905.795 236.79 905.118 237.49C904.465 238.167 904.138 239.135 904.138 240.395V251H898.153V231.47H904.138V233.92C904.745 233.103 905.538 232.462 906.518 231.995C907.498 231.505 908.606 231.26 909.843 231.26C911.313 231.26 912.62 231.575 913.763 232.205C914.93 232.835 915.84 233.733 916.493 234.9C917.17 233.827 918.091 232.952 919.258 232.275C920.425 231.598 921.696 231.26 923.073 231.26ZM941.189 225.1V251H935.204V225.1H941.189ZM963.936 240.92C963.936 241.48 963.901 242.063 963.831 242.67H950.286C950.379 243.883 950.764 244.817 951.441 245.47C952.141 246.1 952.993 246.415 953.996 246.415C955.489 246.415 956.528 245.785 957.111 244.525H963.481C963.154 245.808 962.559 246.963 961.696 247.99C960.856 249.017 959.794 249.822 958.511 250.405C957.228 250.988 955.793 251.28 954.206 251.28C952.293 251.28 950.589 250.872 949.096 250.055C947.603 249.238 946.436 248.072 945.596 246.555C944.756 245.038 944.336 243.265 944.336 241.235C944.336 239.205 944.744 237.432 945.561 235.915C946.401 234.398 947.568 233.232 949.061 232.415C950.554 231.598 952.269 231.19 954.206 231.19C956.096 231.19 957.776 231.587 959.246 232.38C960.716 233.173 961.859 234.305 962.676 235.775C963.516 237.245 963.936 238.96 963.936 240.92ZM957.811 239.345C957.811 238.318 957.461 237.502 956.761 236.895C956.061 236.288 955.186 235.985 954.136 235.985C953.133 235.985 952.281 236.277 951.581 236.86C950.904 237.443 950.484 238.272 950.321 239.345H957.811ZM975.038 251.28C973.335 251.28 971.818 250.988 970.488 250.405C969.158 249.822 968.108 249.028 967.338 248.025C966.568 246.998 966.137 245.855 966.043 244.595H971.958C972.028 245.272 972.343 245.82 972.903 246.24C973.463 246.66 974.152 246.87 974.968 246.87C975.715 246.87 976.287 246.73 976.683 246.45C977.103 246.147 977.313 245.762 977.313 245.295C977.313 244.735 977.022 244.327 976.438 244.07C975.855 243.79 974.91 243.487 973.603 243.16C972.203 242.833 971.037 242.495 970.103 242.145C969.17 241.772 968.365 241.2 967.688 240.43C967.012 239.637 966.673 238.575 966.673 237.245C966.673 236.125 966.977 235.11 967.583 234.2C968.213 233.267 969.123 232.532 970.313 231.995C971.527 231.458 972.962 231.19 974.618 231.19C977.068 231.19 978.993 231.797 980.393 233.01C981.817 234.223 982.633 235.833 982.843 237.84H977.313C977.22 237.163 976.917 236.627 976.403 236.23C975.913 235.833 975.26 235.635 974.443 235.635C973.743 235.635 973.207 235.775 972.833 236.055C972.46 236.312 972.273 236.673 972.273 237.14C972.273 237.7 972.565 238.12 973.148 238.4C973.755 238.68 974.688 238.96 975.948 239.24C977.395 239.613 978.573 239.987 979.483 240.36C980.393 240.71 981.187 241.293 981.863 242.11C982.563 242.903 982.925 243.977 982.948 245.33C982.948 246.473 982.622 247.5 981.968 248.41C981.338 249.297 980.417 249.997 979.203 250.51C978.013 251.023 976.625 251.28 975.038 251.28ZM994.555 251.28C992.852 251.28 991.335 250.988 990.005 250.405C988.675 249.822 987.625 249.028 986.855 248.025C986.085 246.998 985.653 245.855 985.56 244.595H991.475C991.545 245.272 991.86 245.82 992.42 246.24C992.98 246.66 993.668 246.87 994.485 246.87C995.232 246.87 995.803 246.73 996.2 246.45C996.62 246.147 996.83 245.762 996.83 245.295C996.83 244.735 996.538 244.327 995.955 244.07C995.372 243.79 994.427 243.487 993.12 243.16C991.72 242.833 990.553 242.495 989.62 242.145C988.687 241.772 987.882 241.2 987.205 240.43C986.528 239.637 986.19 238.575 986.19 237.245C986.19 236.125 986.493 235.11 987.1 234.2C987.73 233.267 988.64 232.532 989.83 231.995C991.043 231.458 992.478 231.19 994.135 231.19C996.585 231.19 998.51 231.797 999.91 233.01C1001.33 234.223 1002.15 235.833 1002.36 237.84H996.83C996.737 237.163 996.433 236.627 995.92 236.23C995.43 235.833 994.777 235.635 993.96 235.635C993.26 235.635 992.723 235.775 992.35 236.055C991.977 236.312 991.79 236.673 991.79 237.14C991.79 237.7 992.082 238.12 992.665 238.4C993.272 238.68 994.205 238.96 995.465 239.24C996.912 239.613 998.09 239.987 999 240.36C999.91 240.71 1000.7 241.293 1001.38 242.11C1002.08 242.903 1002.44 243.977 1002.46 245.33C1002.46 246.473 1002.14 247.5 1001.48 248.41C1000.85 249.297 999.933 249.997 998.72 250.51C997.53 251.023 996.142 251.28 994.555 251.28ZM1012.11 225.1V251H1006.13V225.1H1012.11ZM1036.4 231.47L1024.15 260.275H1017.71L1022.19 250.335L1014.24 231.47H1020.93L1025.44 243.685L1029.92 231.47H1036.4ZM284.533 284.47V304H278.548V301.34C277.941 302.203 277.113 302.903 276.063 303.44C275.036 303.953 273.893 304.21 272.633 304.21C271.139 304.21 269.821 303.883 268.678 303.23C267.534 302.553 266.648 301.585 266.018 300.325C265.388 299.065 265.073 297.583 265.073 295.88V284.47H271.023V295.075C271.023 296.382 271.361 297.397 272.038 298.12C272.714 298.843 273.624 299.205 274.768 299.205C275.934 299.205 276.856 298.843 277.533 298.12C278.209 297.397 278.548 296.382 278.548 295.075V284.47H284.533ZM296.777 304.28C295.073 304.28 293.557 303.988 292.227 303.405C290.897 302.822 289.847 302.028 289.077 301.025C288.307 299.998 287.875 298.855 287.782 297.595H293.697C293.767 298.272 294.082 298.82 294.642 299.24C295.202 299.66 295.89 299.87 296.707 299.87C297.453 299.87 298.025 299.73 298.422 299.45C298.842 299.147 299.052 298.762 299.052 298.295C299.052 297.735 298.76 297.327 298.177 297.07C297.593 296.79 296.648 296.487 295.342 296.16C293.942 295.833 292.775 295.495 291.842 295.145C290.908 294.772 290.103 294.2 289.427 293.43C288.75 292.637 288.412 291.575 288.412 290.245C288.412 289.125 288.715 288.11 289.322 287.2C289.952 286.267 290.862 285.532 292.052 284.995C293.265 284.458 294.7 284.19 296.357 284.19C298.807 284.19 300.732 284.797 302.132 286.01C303.555 287.223 304.372 288.833 304.582 290.84H299.052C298.958 290.163 298.655 289.627 298.142 289.23C297.652 288.833 296.998 288.635 296.182 288.635C295.482 288.635 294.945 288.775 294.572 289.055C294.198 289.312 294.012 289.673 294.012 290.14C294.012 290.7 294.303 291.12 294.887 291.4C295.493 291.68 296.427 291.96 297.687 292.24C299.133 292.613 300.312 292.987 301.222 293.36C302.132 293.71 302.925 294.293 303.602 295.11C304.302 295.903 304.663 296.977 304.687 298.33C304.687 299.473 304.36 300.5 303.707 301.41C303.077 302.297 302.155 302.997 300.942 303.51C299.752 304.023 298.363 304.28 296.777 304.28ZM326.758 293.92C326.758 294.48 326.723 295.063 326.653 295.67H313.108C313.202 296.883 313.587 297.817 314.263 298.47C314.963 299.1 315.815 299.415 316.818 299.415C318.312 299.415 319.35 298.785 319.933 297.525H326.303C325.977 298.808 325.382 299.963 324.518 300.99C323.678 302.017 322.617 302.822 321.333 303.405C320.05 303.988 318.615 304.28 317.028 304.28C315.115 304.28 313.412 303.872 311.918 303.055C310.425 302.238 309.258 301.072 308.418 299.555C307.578 298.038 307.158 296.265 307.158 294.235C307.158 292.205 307.567 290.432 308.383 288.915C309.223 287.398 310.39 286.232 311.883 285.415C313.377 284.598 315.092 284.19 317.028 284.19C318.918 284.19 320.598 284.587 322.068 285.38C323.538 286.173 324.682 287.305 325.498 288.775C326.338 290.245 326.758 291.96 326.758 293.92ZM320.633 292.345C320.633 291.318 320.283 290.502 319.583 289.895C318.883 289.288 318.008 288.985 316.958 288.985C315.955 288.985 315.103 289.277 314.403 289.86C313.727 290.443 313.307 291.272 313.143 292.345H320.633ZM335.901 287.725C336.601 286.652 337.476 285.812 338.526 285.205C339.576 284.575 340.742 284.26 342.026 284.26V290.595H340.381C338.887 290.595 337.767 290.922 337.021 291.575C336.274 292.205 335.901 293.325 335.901 294.935V304H329.916V284.47H335.901V287.725ZM352.831 304.28C351.128 304.28 349.611 303.988 348.281 303.405C346.951 302.822 345.901 302.028 345.131 301.025C344.361 299.998 343.93 298.855 343.836 297.595H349.751C349.821 298.272 350.136 298.82 350.696 299.24C351.256 299.66 351.945 299.87 352.761 299.87C353.508 299.87 354.08 299.73 354.476 299.45C354.896 299.147 355.106 298.762 355.106 298.295C355.106 297.735 354.815 297.327 354.231 297.07C353.648 296.79 352.703 296.487 351.396 296.16C349.996 295.833 348.83 295.495 347.896 295.145C346.963 294.772 346.158 294.2 345.481 293.43C344.805 292.637 344.466 291.575 344.466 290.245C344.466 289.125 344.77 288.11 345.376 287.2C346.006 286.267 346.916 285.532 348.106 284.995C349.32 284.458 350.755 284.19 352.411 284.19C354.861 284.19 356.786 284.797 358.186 286.01C359.61 287.223 360.426 288.833 360.636 290.84H355.106C355.013 290.163 354.71 289.627 354.196 289.23C353.706 288.833 353.053 288.635 352.236 288.635C351.536 288.635 351 288.775 350.626 289.055C350.253 289.312 350.066 289.673 350.066 290.14C350.066 290.7 350.358 291.12 350.941 291.4C351.548 291.68 352.481 291.96 353.741 292.24C355.188 292.613 356.366 292.987 357.276 293.36C358.186 293.71 358.98 294.293 359.656 295.11C360.356 295.903 360.718 296.977 360.741 298.33C360.741 299.473 360.415 300.5 359.761 301.41C359.131 302.297 358.21 302.997 356.996 303.51C355.806 304.023 354.418 304.28 352.831 304.28ZM399.855 284.47L394.57 304H387.955L384.875 291.33L381.69 304H375.11L369.79 284.47H375.775L378.54 298.435L381.83 284.47H388.165L391.49 298.365L394.22 284.47H399.855ZM405.147 282.44C404.097 282.44 403.234 282.137 402.557 281.53C401.904 280.9 401.577 280.13 401.577 279.22C401.577 278.287 401.904 277.517 402.557 276.91C403.234 276.28 404.097 275.965 405.147 275.965C406.174 275.965 407.014 276.28 407.667 276.91C408.344 277.517 408.682 278.287 408.682 279.22C408.682 280.13 408.344 280.9 407.667 281.53C407.014 282.137 406.174 282.44 405.147 282.44ZM408.122 284.47V304H402.137V284.47H408.122ZM423.345 298.925V304H420.3C418.13 304 416.438 303.475 415.225 302.425C414.011 301.352 413.405 299.613 413.405 297.21V289.44H411.025V284.47H413.405V279.71H419.39V284.47H423.31V289.44H419.39V297.28C419.39 297.863 419.53 298.283 419.81 298.54C420.09 298.797 420.556 298.925 421.21 298.925H423.345ZM438.683 284.26C440.923 284.26 442.72 285.007 444.073 286.5C445.427 287.97 446.103 290 446.103 292.59V304H440.153V293.395C440.153 292.088 439.815 291.073 439.138 290.35C438.462 289.627 437.552 289.265 436.408 289.265C435.265 289.265 434.355 289.627 433.678 290.35C433.002 291.073 432.663 292.088 432.663 293.395V304H426.678V278.1H432.663V287.095C433.27 286.232 434.098 285.543 435.148 285.03C436.198 284.517 437.377 284.26 438.683 284.26ZM467.148 278.1L462.563 304H456.578L461.163 278.1H467.148ZM475.825 304.28C474.145 304.28 472.652 303.942 471.345 303.265C470.038 302.588 469.023 301.632 468.3 300.395C467.6 299.158 467.25 297.723 467.25 296.09C467.25 293.873 467.775 291.855 468.825 290.035C469.875 288.215 471.322 286.792 473.165 285.765C475.008 284.715 477.062 284.19 479.325 284.19C481.005 284.19 482.498 284.54 483.805 285.24C485.135 285.917 486.162 286.873 486.885 288.11C487.608 289.347 487.97 290.782 487.97 292.415C487.97 294.655 487.433 296.685 486.36 298.505C485.31 300.302 483.852 301.713 481.985 302.74C480.142 303.767 478.088 304.28 475.825 304.28ZM476.665 299.135C477.645 299.135 478.52 298.843 479.29 298.26C480.083 297.653 480.69 296.883 481.11 295.95C481.553 294.993 481.775 294.002 481.775 292.975C481.775 291.808 481.46 290.91 480.83 290.28C480.2 289.65 479.407 289.335 478.45 289.335C477.447 289.335 476.56 289.638 475.79 290.245C475.043 290.828 474.46 291.598 474.04 292.555C473.62 293.512 473.41 294.515 473.41 295.565C473.41 296.708 473.713 297.595 474.32 298.225C474.927 298.832 475.708 299.135 476.665 299.135ZM520.685 284.47L511.935 304H505.32L504.48 291.33L499.055 304H492.475L490.62 284.47H496.605L496.885 298.435L502.66 284.47H508.995L509.87 298.435L515.05 284.47H520.685ZM531.683 284.19C534.203 284.19 536.198 284.878 537.668 286.255C539.161 287.608 539.908 289.463 539.908 291.82C539.908 292.59 539.849 293.278 539.733 293.885C539.639 294.422 539.499 294.993 539.313 295.6H525.768C525.744 295.74 525.733 295.962 525.733 296.265C525.733 297.292 526.013 298.073 526.573 298.61C527.133 299.147 527.879 299.415 528.813 299.415C530.306 299.415 531.449 298.785 532.243 297.525H538.613C537.773 299.508 536.408 301.13 534.518 302.39C532.628 303.65 530.504 304.28 528.148 304.28C525.628 304.28 523.609 303.58 522.093 302.18C520.599 300.78 519.853 298.878 519.853 296.475C519.853 295.752 519.923 295.005 520.063 294.235C520.413 292.205 521.136 290.432 522.233 288.915C523.329 287.398 524.694 286.232 526.328 285.415C527.961 284.598 529.746 284.19 531.683 284.19ZM533.853 292.555C533.899 292.228 533.923 292.007 533.923 291.89C533.923 290.957 533.631 290.245 533.048 289.755C532.464 289.242 531.694 288.985 530.738 288.985C529.711 288.985 528.801 289.3 528.008 289.93C527.238 290.537 526.678 291.412 526.328 292.555H533.853ZM549.855 288.005C550.765 286.838 551.803 285.928 552.97 285.275C554.16 284.598 555.397 284.26 556.68 284.26L555.56 290.595H553.915C552.422 290.595 551.243 290.922 550.38 291.575C549.517 292.205 548.945 293.325 548.665 294.935L547.055 304H541.07L544.5 284.47H550.485L549.855 288.005ZM572.261 297.28C572.238 297.397 572.226 297.548 572.226 297.735C572.226 298.155 572.343 298.458 572.576 298.645C572.833 298.832 573.241 298.925 573.801 298.925H575.936L575.026 304H571.981C568.061 304 566.101 302.355 566.101 299.065C566.101 298.575 566.16 297.957 566.276 297.21L567.676 289.44H565.296L566.171 284.47H568.551L569.391 279.71H575.376L574.536 284.47H578.456L577.581 289.44H573.661L572.261 297.28ZM590.54 284.19C593.06 284.19 595.055 284.878 596.525 286.255C598.018 287.608 598.765 289.463 598.765 291.82C598.765 292.59 598.707 293.278 598.59 293.885C598.497 294.422 598.357 294.993 598.17 295.6H584.625C584.602 295.74 584.59 295.962 584.59 296.265C584.59 297.292 584.87 298.073 585.43 298.61C585.99 299.147 586.737 299.415 587.67 299.415C589.163 299.415 590.307 298.785 591.1 297.525H597.47C596.63 299.508 595.265 301.13 593.375 302.39C591.485 303.65 589.362 304.28 587.005 304.28C584.485 304.28 582.467 303.58 580.95 302.18C579.457 300.78 578.71 298.878 578.71 296.475C578.71 295.752 578.78 295.005 578.92 294.235C579.27 292.205 579.993 290.432 581.09 288.915C582.187 287.398 583.552 286.232 585.185 285.415C586.818 284.598 588.603 284.19 590.54 284.19ZM592.71 292.555C592.757 292.228 592.78 292.007 592.78 291.89C592.78 290.957 592.488 290.245 591.905 289.755C591.322 289.242 590.552 288.985 589.595 288.985C588.568 288.985 587.658 289.3 586.865 289.93C586.095 290.537 585.535 291.412 585.185 292.555H592.71ZM600.487 294.235C600.837 292.205 601.561 290.432 602.657 288.915C603.754 287.398 605.107 286.232 606.717 285.415C608.351 284.598 610.124 284.19 612.037 284.19C614.487 284.19 616.424 284.832 617.847 286.115C619.271 287.398 620.029 289.207 620.122 291.54H613.752C613.496 290.047 612.586 289.3 611.022 289.3C609.926 289.3 608.981 289.732 608.187 290.595C607.394 291.435 606.857 292.648 606.577 294.235C606.484 294.725 606.437 295.238 606.437 295.775C606.437 296.872 606.694 297.712 607.207 298.295C607.721 298.878 608.421 299.17 609.307 299.17C610.847 299.17 612.002 298.423 612.772 296.93H619.177C618.267 299.217 616.867 301.013 614.977 302.32C613.087 303.627 610.929 304.28 608.502 304.28C605.982 304.28 603.976 303.592 602.482 302.215C601.012 300.815 600.277 298.913 600.277 296.51C600.277 295.787 600.347 295.028 600.487 294.235ZM636.589 284.26C638.502 284.26 640.007 284.808 641.104 285.905C642.224 287.002 642.784 288.53 642.784 290.49C642.784 291.143 642.714 291.843 642.574 292.59L640.544 304H634.594L636.484 293.395C636.554 292.998 636.589 292.648 636.589 292.345C636.589 291.365 636.309 290.607 635.749 290.07C635.212 289.533 634.454 289.265 633.474 289.265C632.307 289.265 631.327 289.627 630.534 290.35C629.741 291.073 629.227 292.088 628.994 293.395V293.325L627.104 304H621.119L625.704 278.1H631.689L630.114 287.06C630.884 286.197 631.829 285.52 632.949 285.03C634.069 284.517 635.282 284.26 636.589 284.26ZM660.068 284.26C662.028 284.26 663.568 284.808 664.688 285.905C665.808 287.002 666.368 288.53 666.368 290.49C666.368 291.143 666.298 291.843 666.158 292.59L664.128 304H658.178L660.068 293.395C660.138 292.998 660.173 292.648 660.173 292.345C660.173 291.365 659.893 290.607 659.333 290.07C658.796 289.533 658.038 289.265 657.058 289.265C655.891 289.265 654.911 289.627 654.118 290.35C653.325 291.073 652.811 292.088 652.578 293.395V293.22L650.688 304H644.703L648.133 284.47H654.118L653.663 287.095C654.433 286.232 655.366 285.543 656.463 285.03C657.583 284.517 658.785 284.26 660.068 284.26ZM677.212 304.28C675.532 304.28 674.039 303.942 672.732 303.265C671.425 302.588 670.41 301.632 669.687 300.395C668.987 299.158 668.637 297.723 668.637 296.09C668.637 293.873 669.162 291.855 670.212 290.035C671.262 288.215 672.709 286.792 674.552 285.765C676.395 284.715 678.449 284.19 680.712 284.19C682.392 284.19 683.885 284.54 685.192 285.24C686.522 285.917 687.549 286.873 688.272 288.11C688.995 289.347 689.357 290.782 689.357 292.415C689.357 294.655 688.82 296.685 687.747 298.505C686.697 300.302 685.239 301.713 683.372 302.74C681.529 303.767 679.475 304.28 677.212 304.28ZM678.052 299.135C679.032 299.135 679.907 298.843 680.677 298.26C681.47 297.653 682.077 296.883 682.497 295.95C682.94 294.993 683.162 294.002 683.162 292.975C683.162 291.808 682.847 290.91 682.217 290.28C681.587 289.65 680.794 289.335 679.837 289.335C678.834 289.335 677.947 289.638 677.177 290.245C676.43 290.828 675.847 291.598 675.427 292.555C675.007 293.512 674.797 294.515 674.797 295.565C674.797 296.708 675.1 297.595 675.707 298.225C676.314 298.832 677.095 299.135 678.052 299.135ZM701.142 278.1L696.557 304H690.572L695.157 278.1H701.142ZM709.819 304.28C708.139 304.28 706.646 303.942 705.339 303.265C704.033 302.588 703.018 301.632 702.294 300.395C701.594 299.158 701.244 297.723 701.244 296.09C701.244 293.873 701.769 291.855 702.819 290.035C703.869 288.215 705.316 286.792 707.159 285.765C709.003 284.715 711.056 284.19 713.319 284.19C714.999 284.19 716.493 284.54 717.799 285.24C719.129 285.917 720.156 286.873 720.879 288.11C721.603 289.347 721.964 290.782 721.964 292.415C721.964 294.655 721.428 296.685 720.354 298.505C719.304 300.302 717.846 301.713 715.979 302.74C714.136 303.767 712.083 304.28 709.819 304.28ZM710.659 299.135C711.639 299.135 712.514 298.843 713.284 298.26C714.078 297.653 714.684 296.883 715.104 295.95C715.548 294.993 715.769 294.002 715.769 292.975C715.769 291.808 715.454 290.91 714.824 290.28C714.194 289.65 713.401 289.335 712.444 289.335C711.441 289.335 710.554 289.638 709.784 290.245C709.038 290.828 708.454 291.598 708.034 292.555C707.614 293.512 707.404 294.515 707.404 295.565C707.404 296.708 707.708 297.595 708.314 298.225C708.921 298.832 709.703 299.135 710.659 299.135ZM734.099 284.19C735.476 284.19 736.643 284.47 737.599 285.03C738.556 285.59 739.221 286.325 739.594 287.235L740.084 284.47H746.069L742.639 303.965C742.313 305.762 741.659 307.383 740.679 308.83C739.723 310.3 738.428 311.467 736.794 312.33C735.184 313.193 733.306 313.625 731.159 313.625C728.266 313.625 726.038 312.937 724.474 311.56C722.911 310.207 722.211 308.363 722.374 306.03H728.289C728.359 306.777 728.698 307.36 729.304 307.78C729.934 308.223 730.763 308.445 731.789 308.445C733.026 308.445 734.076 308.083 734.939 307.36C735.803 306.66 736.374 305.528 736.654 303.965L737.144 301.2C736.398 302.11 735.453 302.857 734.309 303.44C733.189 304 731.941 304.28 730.564 304.28C729.188 304.28 727.963 303.965 726.889 303.335C725.839 302.705 725.011 301.807 724.404 300.64C723.821 299.473 723.529 298.108 723.529 296.545C723.529 295.822 723.599 295.04 723.739 294.2C724.089 292.193 724.778 290.432 725.804 288.915C726.831 287.398 728.068 286.232 729.514 285.415C730.961 284.598 732.489 284.19 734.099 284.19ZM738.369 294.235C738.439 293.815 738.474 293.43 738.474 293.08C738.474 291.937 738.136 291.038 737.459 290.385C736.806 289.732 735.966 289.405 734.939 289.405C733.749 289.405 732.664 289.837 731.684 290.7C730.704 291.54 730.086 292.707 729.829 294.2C729.759 294.62 729.724 295.005 729.724 295.355C729.724 296.498 730.051 297.408 730.704 298.085C731.381 298.738 732.221 299.065 733.224 299.065C734.414 299.065 735.499 298.633 736.479 297.77C737.459 296.907 738.089 295.728 738.369 294.235ZM753.759 282.44C752.826 282.44 752.079 282.195 751.519 281.705C750.983 281.192 750.714 280.55 750.714 279.78C750.714 278.73 751.123 277.832 751.939 277.085C752.756 276.338 753.748 275.965 754.914 275.965C755.848 275.965 756.583 276.222 757.119 276.735C757.656 277.225 757.924 277.867 757.924 278.66C757.924 279.687 757.516 280.573 756.699 281.32C755.883 282.067 754.903 282.44 753.759 282.44ZM756.349 284.47L752.919 304H746.934L750.364 284.47H756.349ZM757.817 294.235C758.167 292.205 758.89 290.432 759.987 288.915C761.083 287.398 762.437 286.232 764.047 285.415C765.68 284.598 767.453 284.19 769.367 284.19C771.817 284.19 773.753 284.832 775.177 286.115C776.6 287.398 777.358 289.207 777.452 291.54H771.082C770.825 290.047 769.915 289.3 768.352 289.3C767.255 289.3 766.31 289.732 765.517 290.595C764.723 291.435 764.187 292.648 763.907 294.235C763.813 294.725 763.767 295.238 763.767 295.775C763.767 296.872 764.023 297.712 764.537 298.295C765.05 298.878 765.75 299.17 766.637 299.17C768.177 299.17 769.332 298.423 770.102 296.93H776.507C775.597 299.217 774.197 301.013 772.307 302.32C770.417 303.627 768.258 304.28 765.832 304.28C763.312 304.28 761.305 303.592 759.812 302.215C758.342 300.815 757.607 298.913 757.607 296.51C757.607 295.787 757.677 295.028 757.817 294.235ZM779.008 294.2C779.358 292.193 780.046 290.432 781.073 288.915C782.1 287.398 783.336 286.232 784.783 285.415C786.23 284.598 787.758 284.19 789.368 284.19C790.745 284.19 791.9 284.47 792.833 285.03C793.766 285.59 794.443 286.325 794.863 287.235L795.353 284.47H801.338L797.873 304H791.888L792.413 301.235C791.666 302.145 790.721 302.88 789.578 303.44C788.435 304 787.175 304.28 785.798 304.28C784.421 304.28 783.196 303.965 782.123 303.335C781.073 302.705 780.256 301.818 779.673 300.675C779.09 299.508 778.798 298.143 778.798 296.58C778.798 295.833 778.868 295.04 779.008 294.2ZM793.638 294.235C793.708 293.815 793.743 293.43 793.743 293.08C793.743 291.937 793.405 291.038 792.728 290.385C792.075 289.732 791.235 289.405 790.208 289.405C789.018 289.405 787.933 289.837 786.953 290.7C785.973 291.54 785.355 292.707 785.098 294.2C785.028 294.62 784.993 295.005 784.993 295.355C784.993 296.498 785.32 297.408 785.973 298.085C786.65 298.738 787.49 299.065 788.493 299.065C789.683 299.065 790.768 298.633 791.748 297.77C792.728 296.907 793.358 295.728 793.638 294.235ZM812.773 278.1L808.188 304H802.203L806.788 278.1H812.773ZM831.196 278.1L826.611 304H820.626L825.211 278.1H831.196ZM837.773 282.44C836.84 282.44 836.093 282.195 835.533 281.705C834.996 281.192 834.728 280.55 834.728 279.78C834.728 278.73 835.136 277.832 835.953 277.085C836.77 276.338 837.761 275.965 838.928 275.965C839.861 275.965 840.596 276.222 841.133 276.735C841.67 277.225 841.938 277.867 841.938 278.66C841.938 279.687 841.53 280.573 840.713 281.32C839.896 282.067 838.916 282.44 837.773 282.44ZM840.363 284.47L836.933 304H830.948L834.378 284.47H840.363ZM849.39 297.28C849.367 297.397 849.355 297.548 849.355 297.735C849.355 298.155 849.472 298.458 849.705 298.645C849.962 298.832 850.37 298.925 850.93 298.925H853.065L852.155 304H849.11C845.19 304 843.23 302.355 843.23 299.065C843.23 298.575 843.289 297.957 843.405 297.21L844.805 289.44H842.425L843.3 284.47H845.68L846.52 279.71H852.505L851.665 284.47H855.585L854.71 289.44H850.79L849.39 297.28ZM867.669 284.19C870.189 284.19 872.184 284.878 873.654 286.255C875.147 287.608 875.894 289.463 875.894 291.82C875.894 292.59 875.836 293.278 875.719 293.885C875.626 294.422 875.486 294.993 875.299 295.6H861.754C861.731 295.74 861.719 295.962 861.719 296.265C861.719 297.292 861.999 298.073 862.559 298.61C863.119 299.147 863.866 299.415 864.799 299.415C866.292 299.415 867.436 298.785 868.229 297.525H874.599C873.759 299.508 872.394 301.13 870.504 302.39C868.614 303.65 866.491 304.28 864.134 304.28C861.614 304.28 859.596 303.58 858.079 302.18C856.586 300.78 855.839 298.878 855.839 296.475C855.839 295.752 855.909 295.005 856.049 294.235C856.399 292.205 857.122 290.432 858.219 288.915C859.316 287.398 860.681 286.232 862.314 285.415C863.947 284.598 865.732 284.19 867.669 284.19ZM869.839 292.555C869.886 292.228 869.909 292.007 869.909 291.89C869.909 290.957 869.617 290.245 869.034 289.755C868.451 289.242 867.681 288.985 866.724 288.985C865.697 288.985 864.787 289.3 863.994 289.93C863.224 290.537 862.664 291.412 862.314 292.555H869.839ZM885.841 288.005C886.751 286.838 887.79 285.928 888.956 285.275C890.146 284.598 891.383 284.26 892.666 284.26L891.546 290.595H889.901C888.408 290.595 887.23 290.922 886.366 291.575C885.503 292.205 884.931 293.325 884.651 294.935L883.041 304H877.056L880.486 284.47H886.471L885.841 288.005ZM892.587 294.2C892.937 292.193 893.625 290.432 894.652 288.915C895.679 287.398 896.915 286.232 898.362 285.415C899.809 284.598 901.337 284.19 902.947 284.19C904.324 284.19 905.479 284.47 906.412 285.03C907.345 285.59 908.022 286.325 908.442 287.235L908.932 284.47H914.917L911.452 304H905.467L905.992 301.235C905.245 302.145 904.3 302.88 903.157 303.44C902.014 304 900.754 304.28 899.377 304.28C898 304.28 896.775 303.965 895.702 303.335C894.652 302.705 893.835 301.818 893.252 300.675C892.669 299.508 892.377 298.143 892.377 296.58C892.377 295.833 892.447 295.04 892.587 294.2ZM907.217 294.235C907.287 293.815 907.322 293.43 907.322 293.08C907.322 291.937 906.984 291.038 906.307 290.385C905.654 289.732 904.814 289.405 903.787 289.405C902.597 289.405 901.512 289.837 900.532 290.7C899.552 291.54 898.934 292.707 898.677 294.2C898.607 294.62 898.572 295.005 898.572 295.355C898.572 296.498 898.899 297.408 899.552 298.085C900.229 298.738 901.069 299.065 902.072 299.065C903.262 299.065 904.347 298.633 905.327 297.77C906.307 296.907 906.937 295.728 907.217 294.235ZM916.342 294.235C916.692 292.205 917.415 290.432 918.512 288.915C919.609 287.398 920.962 286.232 922.572 285.415C924.205 284.598 925.979 284.19 927.892 284.19C930.342 284.19 932.279 284.832 933.702 286.115C935.125 287.398 935.884 289.207 935.977 291.54H929.607C929.35 290.047 928.44 289.3 926.877 289.3C925.78 289.3 924.835 289.732 924.042 290.595C923.249 291.435 922.712 292.648 922.432 294.235C922.339 294.725 922.292 295.238 922.292 295.775C922.292 296.872 922.549 297.712 923.062 298.295C923.575 298.878 924.275 299.17 925.162 299.17C926.702 299.17 927.857 298.423 928.627 296.93H935.032C934.122 299.217 932.722 301.013 930.832 302.32C928.942 303.627 926.784 304.28 924.357 304.28C921.837 304.28 919.83 303.592 918.337 302.215C916.867 300.815 916.132 298.913 916.132 296.51C916.132 295.787 916.202 295.028 916.342 294.235ZM944.883 284.47L947.263 296.685L953.913 284.47H960.388L943.063 313.275H936.623L942.853 303.335L938.233 284.47H944.883ZM1206.9 282.44C1205.85 282.44 1204.99 282.137 1204.31 281.53C1203.66 280.9 1203.33 280.13 1203.33 279.22C1203.33 278.287 1203.66 277.517 1204.31 276.91C1204.99 276.28 1205.85 275.965 1206.9 275.965C1207.93 275.965 1208.77 276.28 1209.42 276.91C1210.1 277.517 1210.44 278.287 1210.44 279.22C1210.44 280.13 1210.1 280.9 1209.42 281.53C1208.77 282.137 1207.93 282.44 1206.9 282.44ZM1209.88 284.47V304H1203.89V284.47H1209.88ZM1226.11 284.26C1228.4 284.26 1230.22 285.007 1231.57 286.5C1232.95 287.97 1233.64 290 1233.64 292.59V304H1227.69V293.395C1227.69 292.088 1227.35 291.073 1226.67 290.35C1226 289.627 1225.09 289.265 1223.94 289.265C1222.8 289.265 1221.89 289.627 1221.21 290.35C1220.54 291.073 1220.2 292.088 1220.2 293.395V304H1214.21V284.47H1220.2V287.06C1220.8 286.197 1221.62 285.52 1222.65 285.03C1223.67 284.517 1224.83 284.26 1226.11 284.26ZM1245.74 304.28C1244.04 304.28 1242.52 303.988 1241.19 303.405C1239.86 302.822 1238.81 302.028 1238.04 301.025C1237.27 299.998 1236.84 298.855 1236.75 297.595H1242.66C1242.73 298.272 1243.05 298.82 1243.61 299.24C1244.17 299.66 1244.85 299.87 1245.67 299.87C1246.42 299.87 1246.99 299.73 1247.39 299.45C1247.81 299.147 1248.02 298.762 1248.02 298.295C1248.02 297.735 1247.72 297.327 1247.14 297.07C1246.56 296.79 1245.61 296.487 1244.31 296.16C1242.91 295.833 1241.74 295.495 1240.81 295.145C1239.87 294.772 1239.07 294.2 1238.39 293.43C1237.71 292.637 1237.38 291.575 1237.38 290.245C1237.38 289.125 1237.68 288.11 1238.29 287.2C1238.92 286.267 1239.83 285.532 1241.02 284.995C1242.23 284.458 1243.66 284.19 1245.32 284.19C1247.77 284.19 1249.7 284.797 1251.1 286.01C1252.52 287.223 1253.34 288.833 1253.55 290.84H1248.02C1247.92 290.163 1247.62 289.627 1247.11 289.23C1246.62 288.833 1245.96 288.635 1245.15 288.635C1244.45 288.635 1243.91 288.775 1243.54 289.055C1243.16 289.312 1242.98 289.673 1242.98 290.14C1242.98 290.7 1243.27 291.12 1243.85 291.4C1244.46 291.68 1245.39 291.96 1246.65 292.24C1248.1 292.613 1249.28 292.987 1250.19 293.36C1251.1 293.71 1251.89 294.293 1252.57 295.11C1253.27 295.903 1253.63 296.977 1253.65 298.33C1253.65 299.473 1253.32 300.5 1252.67 301.41C1252.04 302.297 1251.12 302.997 1249.91 303.51C1248.72 304.023 1247.33 304.28 1245.74 304.28ZM1268.2 298.925V304H1265.15C1262.98 304 1261.29 303.475 1260.08 302.425C1258.86 301.352 1258.26 299.613 1258.26 297.21V289.44H1255.88V284.47H1258.26V279.71H1264.24V284.47H1268.16V289.44H1264.24V297.28C1264.24 297.863 1264.38 298.283 1264.66 298.54C1264.94 298.797 1265.41 298.925 1266.06 298.925H1268.2ZM1274.54 282.44C1273.49 282.44 1272.63 282.137 1271.95 281.53C1271.3 280.9 1270.97 280.13 1270.97 279.22C1270.97 278.287 1271.3 277.517 1271.95 276.91C1272.63 276.28 1273.49 275.965 1274.54 275.965C1275.57 275.965 1276.41 276.28 1277.06 276.91C1277.74 277.517 1278.08 278.287 1278.08 279.22C1278.08 280.13 1277.74 280.9 1277.06 281.53C1276.41 282.137 1275.57 282.44 1274.54 282.44ZM1277.52 284.47V304H1271.53V284.47H1277.52ZM1287.84 278.1V304H1281.85V278.1H1287.84ZM1298.16 278.1V304H1292.18V278.1H1298.16ZM1310.44 304.28C1308.74 304.28 1307.22 303.988 1305.89 303.405C1304.56 302.822 1303.51 302.028 1302.74 301.025C1301.97 299.998 1301.54 298.855 1301.45 297.595H1307.36C1307.43 298.272 1307.75 298.82 1308.31 299.24C1308.87 299.66 1309.56 299.87 1310.37 299.87C1311.12 299.87 1311.69 299.73 1312.09 299.45C1312.51 299.147 1312.72 298.762 1312.72 298.295C1312.72 297.735 1312.43 297.327 1311.84 297.07C1311.26 296.79 1310.32 296.487 1309.01 296.16C1307.61 295.833 1306.44 295.495 1305.51 295.145C1304.58 294.772 1303.77 294.2 1303.09 293.43C1302.42 292.637 1302.08 291.575 1302.08 290.245C1302.08 289.125 1302.38 288.11 1302.99 287.2C1303.62 286.267 1304.53 285.532 1305.72 284.995C1306.93 284.458 1308.37 284.19 1310.02 284.19C1312.47 284.19 1314.4 284.797 1315.8 286.01C1317.22 287.223 1318.04 288.833 1318.25 290.84H1312.72C1312.63 290.163 1312.32 289.627 1311.81 289.23C1311.32 288.833 1310.67 288.635 1309.85 288.635C1309.15 288.635 1308.61 288.775 1308.24 289.055C1307.87 289.312 1307.68 289.673 1307.68 290.14C1307.68 290.7 1307.97 291.12 1308.55 291.4C1309.16 291.68 1310.09 291.96 1311.35 292.24C1312.8 292.613 1313.98 292.987 1314.89 293.36C1315.8 293.71 1316.59 294.293 1317.27 295.11C1317.97 295.903 1318.33 296.977 1318.35 298.33C1318.35 299.473 1318.03 300.5 1317.37 301.41C1316.74 302.297 1315.82 302.997 1314.61 303.51C1313.42 304.023 1312.03 304.28 1310.44 304.28ZM1328.24 294.235C1328.24 292.205 1328.65 290.432 1329.47 288.915C1330.31 287.398 1331.46 286.232 1332.93 285.415C1334.43 284.598 1336.13 284.19 1338.04 284.19C1340.49 284.19 1342.53 284.832 1344.17 286.115C1345.82 287.398 1346.91 289.207 1347.42 291.54H1341.05C1340.52 290.047 1339.48 289.3 1337.94 289.3C1336.84 289.3 1335.97 289.732 1335.31 290.595C1334.66 291.435 1334.33 292.648 1334.33 294.235C1334.33 295.822 1334.66 297.047 1335.31 297.91C1335.97 298.75 1336.84 299.17 1337.94 299.17C1339.48 299.17 1340.52 298.423 1341.05 296.93H1347.42C1346.91 299.217 1345.82 301.013 1344.17 302.32C1342.51 303.627 1340.47 304.28 1338.04 304.28C1336.13 304.28 1334.43 303.872 1332.93 303.055C1331.46 302.238 1330.31 301.072 1329.47 299.555C1328.65 298.038 1328.24 296.265 1328.24 294.235ZM1359.51 304.28C1357.6 304.28 1355.87 303.872 1354.33 303.055C1352.82 302.238 1351.62 301.072 1350.73 299.555C1349.87 298.038 1349.43 296.265 1349.43 294.235C1349.43 292.228 1349.88 290.467 1350.76 288.95C1351.65 287.41 1352.86 286.232 1354.4 285.415C1355.94 284.598 1357.67 284.19 1359.58 284.19C1361.5 284.19 1363.22 284.598 1364.76 285.415C1366.3 286.232 1367.52 287.41 1368.4 288.95C1369.29 290.467 1369.73 292.228 1369.73 294.235C1369.73 296.242 1369.28 298.015 1368.37 299.555C1367.48 301.072 1366.26 302.238 1364.69 303.055C1363.15 303.872 1361.43 304.28 1359.51 304.28ZM1359.51 299.1C1360.66 299.1 1361.63 298.68 1362.42 297.84C1363.24 297 1363.64 295.798 1363.64 294.235C1363.64 292.672 1363.25 291.47 1362.45 290.63C1361.68 289.79 1360.73 289.37 1359.58 289.37C1358.42 289.37 1357.45 289.79 1356.68 290.63C1355.91 291.447 1355.52 292.648 1355.52 294.235C1355.52 295.798 1355.9 297 1356.64 297.84C1357.41 298.68 1358.37 299.1 1359.51 299.1ZM1384.81 284.26C1387.1 284.26 1388.92 285.007 1390.27 286.5C1391.65 287.97 1392.33 290 1392.33 292.59V304H1386.38V293.395C1386.38 292.088 1386.05 291.073 1385.37 290.35C1384.69 289.627 1383.78 289.265 1382.64 289.265C1381.5 289.265 1380.59 289.627 1379.91 290.35C1379.23 291.073 1378.89 292.088 1378.89 293.395V304H1372.91V284.47H1378.89V287.06C1379.5 286.197 1380.32 285.52 1381.34 285.03C1382.37 284.517 1383.53 284.26 1384.81 284.26ZM1406.29 289.44H1403.07V304H1397.09V289.44H1394.92V284.47H1397.09V283.91C1397.09 281.507 1397.78 279.687 1399.15 278.45C1400.53 277.19 1402.55 276.56 1405.21 276.56C1405.65 276.56 1405.98 276.572 1406.19 276.595V281.67C1405.04 281.6 1404.24 281.763 1403.77 282.16C1403.31 282.557 1403.07 283.268 1403.07 284.295V284.47H1406.29V289.44ZM1412.12 282.44C1411.07 282.44 1410.2 282.137 1409.53 281.53C1408.87 280.9 1408.55 280.13 1408.55 279.22C1408.55 278.287 1408.87 277.517 1409.53 276.91C1410.2 276.28 1411.07 275.965 1412.12 275.965C1413.14 275.965 1413.98 276.28 1414.64 276.91C1415.31 277.517 1415.65 278.287 1415.65 279.22C1415.65 280.13 1415.31 280.9 1414.64 281.53C1413.98 282.137 1413.14 282.44 1412.12 282.44ZM1415.09 284.47V304H1409.11V284.47H1415.09ZM1418.24 294.2C1418.24 292.193 1418.61 290.432 1419.36 288.915C1420.13 287.398 1421.17 286.232 1422.47 285.415C1423.78 284.598 1425.24 284.19 1426.85 284.19C1428.13 284.19 1429.3 284.458 1430.35 284.995C1431.42 285.532 1432.26 286.255 1432.87 287.165V278.1H1438.85V304H1432.87V301.2C1432.31 302.133 1431.5 302.88 1430.45 303.44C1429.43 304 1428.22 304.28 1426.85 304.28C1425.24 304.28 1423.78 303.872 1422.47 303.055C1421.17 302.215 1420.13 301.037 1419.36 299.52C1418.61 297.98 1418.24 296.207 1418.24 294.2ZM1432.87 294.235C1432.87 292.742 1432.45 291.563 1431.61 290.7C1430.79 289.837 1429.79 289.405 1428.6 289.405C1427.41 289.405 1426.39 289.837 1425.55 290.7C1424.74 291.54 1424.33 292.707 1424.33 294.2C1424.33 295.693 1424.74 296.883 1425.55 297.77C1426.39 298.633 1427.41 299.065 1428.6 299.065C1429.79 299.065 1430.79 298.633 1431.61 297.77C1432.45 296.907 1432.87 295.728 1432.87 294.235ZM1461.59 293.92C1461.59 294.48 1461.56 295.063 1461.49 295.67H1447.94C1448.04 296.883 1448.42 297.817 1449.1 298.47C1449.8 299.1 1450.65 299.415 1451.65 299.415C1453.15 299.415 1454.18 298.785 1454.77 297.525H1461.14C1460.81 298.808 1460.22 299.963 1459.35 300.99C1458.51 302.017 1457.45 302.822 1456.17 303.405C1454.88 303.988 1453.45 304.28 1451.86 304.28C1449.95 304.28 1448.25 303.872 1446.75 303.055C1445.26 302.238 1444.09 301.072 1443.25 299.555C1442.41 298.038 1441.99 296.265 1441.99 294.235C1441.99 292.205 1442.4 290.432 1443.22 288.915C1444.06 287.398 1445.22 286.232 1446.72 285.415C1448.21 284.598 1449.93 284.19 1451.86 284.19C1453.75 284.19 1455.43 284.587 1456.9 285.38C1458.37 286.173 1459.52 287.305 1460.33 288.775C1461.17 290.245 1461.59 291.96 1461.59 293.92ZM1455.47 292.345C1455.47 291.318 1455.12 290.502 1454.42 289.895C1453.72 289.288 1452.84 288.985 1451.79 288.985C1450.79 288.985 1449.94 289.277 1449.24 289.86C1448.56 290.443 1448.14 291.272 1447.98 292.345H1455.47ZM1476.65 284.26C1478.94 284.26 1480.76 285.007 1482.11 286.5C1483.49 287.97 1484.17 290 1484.17 292.59V304H1478.22V293.395C1478.22 292.088 1477.89 291.073 1477.21 290.35C1476.53 289.627 1475.62 289.265 1474.48 289.265C1473.34 289.265 1472.43 289.627 1471.75 290.35C1471.07 291.073 1470.73 292.088 1470.73 293.395V304H1464.75V284.47H1470.73V287.06C1471.34 286.197 1472.16 285.52 1473.18 285.03C1474.21 284.517 1475.37 284.26 1476.65 284.26ZM1487.14 294.235C1487.14 292.205 1487.55 290.432 1488.37 288.915C1489.21 287.398 1490.36 286.232 1491.83 285.415C1493.33 284.598 1495.03 284.19 1496.94 284.19C1499.39 284.19 1501.44 284.832 1503.07 286.115C1504.73 287.398 1505.81 289.207 1506.32 291.54H1499.95C1499.42 290.047 1498.38 289.3 1496.84 289.3C1495.74 289.3 1494.87 289.732 1494.21 290.595C1493.56 291.435 1493.23 292.648 1493.23 294.235C1493.23 295.822 1493.56 297.047 1494.21 297.91C1494.87 298.75 1495.74 299.17 1496.84 299.17C1498.38 299.17 1499.42 298.423 1499.95 296.93H1506.32C1505.81 299.217 1504.73 301.013 1503.07 302.32C1501.41 303.627 1499.37 304.28 1496.94 304.28C1495.03 304.28 1493.33 303.872 1491.83 303.055C1490.36 302.238 1489.21 301.072 1488.37 299.555C1487.55 298.038 1487.14 296.265 1487.14 294.235ZM1527.93 293.92C1527.93 294.48 1527.9 295.063 1527.83 295.67H1514.28C1514.38 296.883 1514.76 297.817 1515.44 298.47C1516.14 299.1 1516.99 299.415 1517.99 299.415C1519.49 299.415 1520.53 298.785 1521.11 297.525H1527.48C1527.15 298.808 1526.56 299.963 1525.69 300.99C1524.85 302.017 1523.79 302.822 1522.51 303.405C1521.23 303.988 1519.79 304.28 1518.2 304.28C1516.29 304.28 1514.59 303.872 1513.09 303.055C1511.6 302.238 1510.43 301.072 1509.59 299.555C1508.75 298.038 1508.33 296.265 1508.33 294.235C1508.33 292.205 1508.74 290.432 1509.56 288.915C1510.4 287.398 1511.57 286.232 1513.06 285.415C1514.55 284.598 1516.27 284.19 1518.2 284.19C1520.09 284.19 1521.77 284.587 1523.24 285.38C1524.71 286.173 1525.86 287.305 1526.67 288.775C1527.51 290.245 1527.93 291.96 1527.93 293.92ZM1521.81 292.345C1521.81 291.318 1521.46 290.502 1520.76 289.895C1520.06 289.288 1519.18 288.985 1518.13 288.985C1517.13 288.985 1516.28 289.277 1515.58 289.86C1514.9 290.443 1514.48 291.272 1514.32 292.345H1521.81Z" fill="#E94664"/>
<defs>
<filter id="filter0_f_3105_9299" x="-18" y="0" width="1765" height="619" filterUnits="userSpaceOnUse" color-interpolation-filters="sRGB">
<feFlood flood-opacity="0" result="BackgroundImageFix"/>
<feBlend mode="normal" in="SourceGraphic" in2="BackgroundImageFix" result="shape"/>
<feGaussianBlur stdDeviation="100" result="effect1_foregroundBlur_3105_9299"/>
</filter>
</defs>
</svg>
